<?xml version="1.0" encoding="UTF-8" standalone="no"?>
<!-- Created with Inkscape (http://www.inkscape.org/) -->

<svg
   xmlns:dc="http://purl.org/dc/elements/1.1/"
   xmlns:cc="http://creativecommons.org/ns#"
   xmlns:rdf="http://www.w3.org/1999/02/22-rdf-syntax-ns#"
   xmlns:svg="http://www.w3.org/2000/svg"
   xmlns="http://www.w3.org/2000/svg"
   xmlns:sodipodi="http://sodipodi.sourceforge.net/DTD/sodipodi-0.dtd"
   xmlns:inkscape="http://www.inkscape.org/namespaces/inkscape"
   version="1.0"
   width="899.96875"
   height="599.91669"
   id="svg2"
   inkscape:version="0.91 r13725"
   sodipodi:docname="BANDERA DEL EDO ANZOATEGUI909.svg">
  <metadata
     id="metadata120">
    <rdf:RDF>
      <cc:Work
         rdf:about="">
        <dc:format>image/svg+xml</dc:format>
        <dc:type
           rdf:resource="http://purl.org/dc/dcmitype/StillImage" />
        <dc:title />
      </cc:Work>
    </rdf:RDF>
  </metadata>
  <sodipodi:namedview
     pagecolor="#ffffff"
     bordercolor="#666666"
     borderopacity="1"
     objecttolerance="10"
     gridtolerance="10"
     guidetolerance="10"
     inkscape:pageopacity="0"
     inkscape:pageshadow="2"
     inkscape:window-width="1024"
     inkscape:window-height="549"
     id="namedview118"
     showgrid="false"
     inkscape:zoom="0.7833705"
     inkscape:cx="449.98438"
     inkscape:cy="344.95606"
     inkscape:window-x="0"
     inkscape:window-y="27"
     inkscape:window-maximized="1"
     inkscape:current-layer="svg2"
     fit-margin-top="0"
     fit-margin-left="0"
     fit-margin-right="0"
     fit-margin-bottom="0" />
  <defs
     id="defs4">
    <inkscape:perspective
       sodipodi:type="inkscape:persp3d"
       inkscape:vp_x="0 : 266.25 : 1"
       inkscape:vp_y="0 : 1000 : 0"
       inkscape:vp_z="800 : 266.25 : 1"
       inkscape:persp3d-origin="400 : 177.5 : 1"
       id="perspective122" />
  </defs>
  <g
     id="g3703"
     transform="matrix(0.99986113,0,0,0.99986113,-989.36259,436.01909)">
    <rect
       x="989.48438"
       y="-436.12131"
       width="900.125"
       height="600.08331"
       id="rect5625-8"
       style="fill:#008033;fill-opacity:1" />
    <rect
       x="989.48438"
       y="-436.07965"
       width="900.125"
       height="400.05554"
       id="rect5623-94"
       style="fill:#ffcc00;fill-opacity:1;stroke:none;stroke-width:0.1379979;stroke-miterlimit:4;stroke-dasharray:none;stroke-opacity:1" />
    <rect
       y="-436.07965"
       x="989.48438"
       width="900.125"
       height="200.02777"
       id="rect5621-740"
       style="fill:#007fff;fill-opacity:1" />
    <path
       d="m 1393.3419,-314.83914 c 27.7147,0 12.9335,14.78115 23.4035,17.86055 10.47,3.07939 24.6352,1.23181 33.8735,6.15886 9.2383,4.92706 9.2383,16.01289 12.9335,19.7082 3.6953,3.69523 13.5494,8.62229 11.7017,16.62873 -1.8475,8.00653 3.6953,20.94002 9.8542,24.63533 6.1588,3.69523 8.6223,8.00644 2.4635,13.54933 -6.1589,5.54295 -19.7083,15.39705 -16.0129,23.4035 3.6952,8.00644 8.0064,12.31766 20.3241,13.5494 12.3175,1.23175 20.324,-0.61591 26.4829,8.00645 6.1588,8.62236 37.5687,24.01941 38.8004,33.25761 1.2318,9.23819 1.2318,20.3241 7.3907,21.55585 6.1587,1.23174 30.794,-4.92705 35.1051,0.61591 4.3112,5.54288 -3.6951,7.39054 -3.0793,13.54933 0.6158,6.158865 4.927,14.165315 11.7017,15.397059 6.7747,1.231745 33.8736,6.158796 34.4894,13.54941 0.6159,7.390541 3.0793,18.476451 -9.2382,20.939941 -12.3177,2.463563 -27.7147,4.927052 -32.6417,1.231745 -4.927,-3.695235 -6.1589,-9.854104 -17.8606,-5.542888 -11.7018,4.311143 -16.0129,22.171685 -35.7211,23.403503 -19.7082,1.231745 -32.0259,-8.006512 -41.88,0.615836 -9.8541,8.622358 -12.3175,29.5622974 -24.0194,31.4099509 -11.7017,1.84765345 -28.3304,4.3111425 -36.3369,-3.0793975 -8.0065,-7.3906034 -3.0794,-14.1652344 -8.6224,-14.1652344 -5.5428,0 -14.7812,4.311142 -25.251,9.2381923 -10.4701,4.9270421 -18.4766,1.2317456 -19.7083,8.62234855 -1.2318,7.39054055 20.3241,11.08584815 10.47,15.39699115 -9.8541,4.311216 0.6159,13.549399 -9.2383,13.549399 -9.854,0 -32.6416,18.476462 -45.5752,13.54941 -12.9335,-4.927051 -16.0129,-15.397063 -25.867,-18.476451 -9.8541,-3.079398 -26.4829,-7.39054 -33.2576,-7.39054 -6.7747,0 -22.1717,-1.847654 -22.7876,-12.9335756 -0.6159,-11.0858365 6.1588,-19.7081944 11.7017,-27.0987354 5.543,-7.390614 27.7147,-30.794044 30.1783,-44.959352 2.4635,-14.165246 -3.0794,-36.952842 5.5428,-38.184662 8.6224,-1.23174 44.3435,2.46356 49.2706,-3.0794 4.927,-5.54288 1.8476,-18.47645 -4.3111,-24.01933 -6.1589,-5.54296 -17.8606,-9.85411 -17.8606,-13.54941 0,-3.69531 3.6952,-11.70175 -3.6953,-14.78115 -7.3905,-3.0794 -24.0194,0 -30.7941,-6.7747 -6.7747,-6.77471 -19.7082,-24.01934 -11.0859,-28.33056 8.6224,-4.31114 14.7812,-7.39054 6.7747,-14.78115 -8.0064,-7.39053 -17.2447,-16.01289 -25.8669,-16.01289 -8.6224,0 -22.1718,12.31759 -30.1783,4.31114 -8.0065,-8.00645 -2.4635,-16.62881 -3.0793,-22.78759 -0.616,-6.1588 -6.1589,-11.70176 -6.1589,-16.62881 0,-4.92705 0.6159,-14.78114 10.4701,-14.78114 9.854,0 12.3175,-8.62236 18.4763,-11.70176 6.1589,-3.0794 8.0065,-8.62236 20.94,-6.1588 12.9335,2.46349 67.131,10.47002 75.1375,4.92706 8.0065,-5.54296 13.5494,-22.7876 19.7082,-22.7876 6.1588,0 13.5494,0 12.9335,-0.61591 z"
       style="fill:none;stroke:#000000;stroke-width:7.36029005px;stroke-linecap:butt;stroke-linejoin:miter;stroke-opacity:1"
       id="path1349"
       inkscape:connector-curvature="0" />
    <g
       transform="matrix(1.0865463,0,0,1.0865463,127.48227,-148.08517)"
       id="g3594">
      <g
         transform="matrix(0.693762,0,0,0.693762,171.6485,-331.34944)"
         style="fill:#008033;fill-opacity:1;stroke:#32530b;stroke-opacity:1"
         id="g2233" />
      <g
         transform="matrix(0.693762,0,0,0.693762,171.6485,-331.34944)"
         style="stroke:#32530b;stroke-opacity:1"
         id="g2246" />
      <g
         transform="matrix(-0.693762,0,0,0.693762,1635.0222,-331.34944)"
         style="fill:#008033;fill-opacity:1;stroke:#32530b;stroke-opacity:1"
         id="g2294" />
      <g
         transform="matrix(-0.693762,0,0,0.693762,1635.0222,-331.34944)"
         style="fill:#008033;fill-opacity:1;stroke:#32530b;stroke-opacity:1"
         id="g2302" />
      <g
         transform="matrix(-0.693762,0,0,0.693762,1635.0222,-331.34944)"
         id="g2312" />
      <g
         transform="matrix(0.693762,0,0,0.693762,171.6485,-331.34944)"
         id="g2277" />
      <g
         transform="matrix(0.693762,0,0,0.693762,171.6485,-331.34944)"
         id="g2217">
        <g
           id="g2201" />
      </g>
      <g
         transform="matrix(0.693762,0,0,0.693762,171.83276,-331.34944)"
         id="g2417">
        <g
           transform="translate(-0.410305,0)"
           id="g2384" />
        <g
           id="g2410" />
      </g>
      <g
         transform="matrix(0.693762,0,0,0.693762,171.6485,-331.34944)"
         id="g2472"
         style="fill:#ffcc00;fill-opacity:1" />
      <g
         transform="matrix(0.693762,0,0,0.693762,103.81864,-326.09523)"
         id="g2562">
        <g
           transform="translate(0,-0.121817)"
           id="g2525" />
        <g
           transform="translate(62.0101,-0.121817)"
           id="g2538" />
      </g>
    </g>
  </g>
</svg>
