<svg width="126" height="127" viewBox="0 0 126 127" fill="none" xmlns="http://www.w3.org/2000/svg">
<path fill-rule="evenodd" clip-rule="evenodd" d="M63.07 126.31C97.7701 126.31 125.9 98.1801 125.9 63.48C125.9 28.78 97.7701 0.650024 63.07 0.650024C28.3699 0.650024 0.23999 28.78 0.23999 63.48C0.23999 98.1801 28.3699 126.31 63.07 126.31ZM41.03 99.16C40.4918 98.9672 40.0371 98.5938 39.7435 98.1032C39.4499 97.6127 39.3356 97.0355 39.42 96.47C39.46 95.3569 39.4466 94.2392 39.4333 93.129V93.123C39.4266 92.5696 39.42 92.0182 39.42 91.47V90.7001H88.22V96.49C88.3039 97.0515 88.1903 97.6248 87.8985 98.1118C87.6066 98.5988 87.1547 98.9693 86.62 99.16H41.03ZM48.77 74.04H78.42C78.4238 73.9998 78.4277 73.9613 78.4314 73.9244L78.4399 73.8413C78.4524 73.7213 78.4634 73.6157 78.47 73.51V56.24C78.5336 52.9266 77.756 49.6512 76.21 46.72C73.82 42.37 70.05 39.68 65.49 37.99C61.2255 36.5039 56.707 35.8852 52.2 36.17C51.9371 36.2153 51.6992 36.3537 51.53 36.56C47.2633 41.0533 43 45.5567 38.74 50.07C38.5046 50.2538 38.3097 50.4843 38.1675 50.7468C38.0253 51.0095 37.9388 51.2986 37.9135 51.5961C37.8881 51.8937 37.9244 52.1932 38.0202 52.4761C38.116 52.759 38.2691 53.019 38.47 53.24L43.75 61.18C43.882 61.4767 44.079 61.7397 44.3266 61.9497C44.5742 62.1597 44.866 62.3112 45.1802 62.3928C45.4944 62.4745 45.8231 62.4843 46.1415 62.4215C46.4601 62.3587 46.7603 62.2249 47.02 62.03L56.85 56.86C56.7653 57.1226 56.6688 57.3812 56.5608 57.6349C56.5128 57.7476 56.4625 57.8593 56.41 57.97C56.2186 58.3087 56.0278 58.6477 55.8372 58.9866L55.8361 58.9886C54.9911 60.4904 54.1472 61.9902 53.25 63.45C51.6466 65.8713 50.3784 68.4985 49.48 71.26C49.25 72.0267 49.0707 72.7789 48.8743 73.6031C48.8401 73.7465 48.8055 73.8919 48.77 74.04ZM43.61 86.45V80.44C43.593 80.142 43.6404 79.8437 43.749 79.5656C43.8576 79.2875 44.0247 79.0359 44.2391 78.8282C44.4536 78.6204 44.7101 78.4612 44.9916 78.3615C45.2729 78.2617 45.5726 78.2237 45.87 78.25H81.76C82.2635 78.1967 82.7684 78.3363 83.173 78.6406C83.5776 78.945 83.8517 79.3915 83.94 79.89C83.9999 81.3342 83.9801 82.7827 83.9601 84.2416C83.9501 84.9749 83.94 85.7108 83.94 86.45H43.61ZM82.64 68.36V69.28C82.8492 69.28 83.0505 69.2827 83.2449 69.2853C83.8032 69.2927 84.3053 69.2993 84.78 69.24C85.0469 69.2401 85.3111 69.1868 85.5571 69.0831C85.803 68.9796 86.0258 68.8278 86.2122 68.6367C86.3986 68.4456 86.5448 68.2192 86.6423 67.9708C86.7399 67.7223 86.7866 67.4568 86.78 67.1901C86.7719 65.9108 86.7775 64.63 86.7831 63.3489C86.7983 59.8436 86.8136 56.3361 86.55 52.85C86.3422 49.6393 85.4988 46.5018 84.0689 43.6196C82.6389 40.7374 80.6508 38.1678 78.22 36.0601C71.2599 29.89 62.79 27.9 53.79 27.77C53.3406 27.7711 52.9061 27.9315 52.5638 28.2225C52.2214 28.5136 51.9933 28.9167 51.92 29.36C51.8698 30.2193 51.8698 31.0807 51.92 31.9401H53.48C57.9717 31.7959 62.452 32.4737 66.7 33.9401C76.64 37.3701 82.3599 45.08 82.64 55.54C82.6866 58.3871 82.6711 61.2386 82.6555 64.0886C82.6477 65.513 82.64 66.9371 82.64 68.36Z" fill="#333333"/>
</svg>
