<svg width="127" height="127" viewBox="0 0 127 127" fill="none" xmlns="http://www.w3.org/2000/svg">
<path fill-rule="evenodd" clip-rule="evenodd" d="M63.19 126.01C97.8901 126.01 126.02 97.8801 126.02 63.18C126.02 28.4799 97.8901 0.349976 63.19 0.349976C28.4899 0.349976 0.359985 28.4799 0.359985 63.18C0.359985 97.8801 28.4899 126.01 63.19 126.01ZM68.8603 77.1348L68.8607 77.1334L68.8636 77.1202C69.3799 74.9443 69.8962 72.7683 70.44 70.6C71.2534 67.38 72.1866 64.1967 73.24 61.05C73.9081 58.9715 75.2086 57.1535 76.96 55.85C77.1268 56.1647 77.2937 56.4737 77.4589 56.7797C77.7294 57.2806 77.9955 57.7733 78.25 58.27C81.0997 64.1552 83.1415 70.3983 84.32 76.83C85.2293 81.5406 85.8107 86.3088 86.06 91.1C86.108 91.4799 86.0458 91.8657 85.8809 92.2114C85.7161 92.5571 85.4554 92.8481 85.13 93.05C80.4432 96.4816 75.0187 98.7692 69.29 99.73C68.299 99.9008 67.3035 100.002 66.3063 100.103C65.8444 100.149 65.3822 100.196 64.92 100.25H62.02C65.1481 92.7817 67.0041 84.9586 68.8603 77.1348ZM100.084 66.7909C100.138 66.3577 100.192 65.9238 100.25 65.49L100.22 64.62L98.63 62.7599C96.4666 60.0064 93.971 57.531 91.2 55.39C89.16 53.9299 86.97 52.86 84.34 53.34C83.2634 53.5328 82.1934 53.7385 81.0832 53.9519L81.022 53.9636C80.7703 54.0121 80.5165 54.0609 80.26 54.11C86.27 65.03 88.64 76.8199 89.64 89.03C89.6622 89.0151 89.6841 88.9999 89.7058 88.9844C89.7247 88.9708 89.7433 88.957 89.7618 88.9428L89.7878 88.9226C89.8333 88.8868 89.8774 88.8492 89.92 88.81C95.0074 83.558 98.4036 76.9014 99.67 69.7C99.843 68.7378 99.9634 67.7655 100.084 66.7909ZM70.08 46.86L74.79 52.31C74.7125 52.4023 74.6357 52.4933 74.5599 52.583L74.3911 52.7821C74.159 53.0553 73.9341 53.3179 73.7144 53.5743C73.2912 54.0684 72.8876 54.5396 72.49 55.02C70.7609 57.1717 69.5098 59.6671 68.8201 62.34C67.6334 66.7156 66.5499 71.1172 65.4659 75.5205L65.21 76.56C65.1105 76.9631 65.0114 77.3663 64.9124 77.7695L64.7729 78.3375C63.2463 84.5562 61.7208 90.7706 59.42 96.7599C59.3611 96.9169 59.2991 97.0725 59.235 97.2274C59.1902 97.3353 59.1445 97.4429 59.0981 97.5502C59.0644 97.6282 59.0303 97.7061 58.996 97.7839C58.947 97.8953 58.8976 98.0064 58.8481 98.1176C58.6653 98.5284 58.4824 98.9396 58.32 99.36C58.3032 99.4475 58.2669 99.5301 58.2141 99.6019C58.1613 99.6736 58.0931 99.7328 58.0146 99.7749C57.9361 99.817 57.8492 99.8411 57.7601 99.8455C57.738 99.8466 57.716 99.8464 57.694 99.8451C57.6805 99.8442 57.667 99.843 57.6536 99.8412C57.6441 99.84 57.6346 99.8385 57.6252 99.8368C57.6107 99.8342 57.5963 99.8311 57.582 99.8274C57.5541 99.8203 57.5267 99.8111 57.5 99.8C56.866 99.6478 56.2319 99.5087 55.5979 99.3696C54.2319 99.0699 52.866 98.7703 51.5 98.34C45.6467 96.4266 40.3752 93.058 36.18 88.55C35.9736 88.3129 35.8693 88.0037 35.89 87.69C36.5182 83.6752 37.9722 79.8344 40.16 76.41C43.8818 70.4056 48.407 64.9384 53.61 60.16C58.5848 55.4031 63.9355 51.0557 69.61 47.16L70.08 46.86ZM67.18 44.2599L62.61 40.52L61.47 41.33C57.5831 44.1818 53.162 46.2224 48.47 47.33C46.5839 47.7353 44.692 48.1027 42.8006 48.4699C41.1921 48.7822 39.5839 49.0945 37.98 49.43C34.5386 50.0569 31.2068 51.1821 28.09 52.77C27.798 52.912 27.5697 53.1581 27.45 53.46C26.0562 58.5461 25.7696 63.8721 26.6097 69.0785C27.4498 74.2849 29.3971 79.2504 32.32 83.64C32.44 83.83 32.58 83.9999 32.78 84.27C32.816 84.1499 32.8475 84.0407 32.8766 83.9396C32.9182 83.7957 32.955 83.6682 32.9932 83.5494C33.0071 83.506 33.0213 83.4637 33.0359 83.4222C33.047 83.3911 33.0583 83.3604 33.07 83.33C33.2728 82.8026 33.4681 82.2719 33.6633 81.7413L33.6641 81.7391C34.1425 80.439 34.6207 79.1393 35.21 77.89C38.1299 71.6899 42.39 66.46 47.05 61.46C52.9353 55.2626 59.4391 49.6835 66.46 44.81L67.18 44.2599ZM59.39 38.24C55.6042 41.024 51.2675 42.9673 46.67 43.94C41.9198 44.9175 37.1982 45.981 32.468 47.0464L32.4619 47.0475L32.14 47.12C31.1979 47.3818 30.27 47.6922 29.36 48.05C29.4911 47.7902 29.6175 47.5387 29.7406 47.2937C30.1245 46.5295 30.4765 45.829 30.84 45.14C33.7318 39.9561 37.8224 35.5397 42.77 32.2599C43.3896 31.8417 44.0333 31.4714 44.6824 31.098C44.8713 30.9893 45.0607 30.8804 45.25 30.77C45.3635 30.7204 45.4861 30.6948 45.61 30.6948C45.6785 30.6948 45.7467 30.7026 45.8131 30.718C45.8668 30.7305 45.9193 30.7478 45.97 30.77C50.6759 32.8169 55.1706 35.3188 59.39 38.24ZM98.58 57C99.0516 57.4596 99.499 57.9435 99.92 58.45V58.3C98.9999 51.0836 95.9501 44.3051 91.16 38.83C91.1324 38.8038 91.1035 38.7793 91.0734 38.7566C91.0552 38.7429 91.0365 38.7298 91.0175 38.7173C90.9481 38.6721 90.8733 38.6355 90.7945 38.6086C90.6581 38.562 90.5134 38.5454 90.37 38.56C88.66 38.82 86.95 39.12 85.24 39.44C80.81 40.27 77 42.47 73.36 44.7599C74.94 46.73 76.5099 48.68 78.1 50.61C78.1981 50.6936 78.3137 50.754 78.4384 50.7869C78.563 50.8198 78.6934 50.8243 78.82 50.8C79.405 50.665 79.9875 50.51 80.57 50.355C81.1525 50.2 81.735 50.045 82.32 49.91C84.1227 49.4267 86.0123 49.3638 87.8432 49.7261C89.6741 50.0885 91.3973 50.8665 92.88 52C94.3556 53.1159 95.7234 54.3773 97.0902 55.6378C97.5852 56.0943 98.0801 56.5507 98.58 57ZM70.28 42.06L65.49 38.06C69.23 35.29 71.36 31.78 70.41 26.97C74.71 27.15 84.41 31.9 87.41 35.24C86.9945 35.3273 86.5771 35.412 86.1589 35.4969C83.5574 36.0252 80.925 36.5598 78.53 37.74C76.1998 38.8883 73.926 40.1068 71.62 41.3427L71.5894 41.3591C71.1542 41.5922 70.718 41.826 70.28 42.06ZM66.75 26.28C61.1901 25.7416 55.5804 26.4662 50.34 28.4L62.64 35.75C62.8733 35.5203 63.1239 35.2893 63.3802 35.053C63.8268 34.6414 64.2906 34.2138 64.71 33.75C65.4221 33.1058 66.0145 32.3406 66.46 31.49C67.0118 30.1428 66.9117 28.7101 66.8116 27.2773C66.7883 26.9445 66.7651 26.6117 66.75 26.28Z" fill="#EE5A24"/>
</svg>
