<svg width="126" height="126" viewBox="0 0 126 126" fill="none" xmlns="http://www.w3.org/2000/svg">
<path d="M45.5256 58.1246C46.0653 57.9595 46.9371 59.605 46.8201 60.1871L41.5208 74.818C41.4037 75.4001 39.8402 75.8781 39.4176 75.461L27.0385 66.2349C26.6158 65.8178 26.4186 63.9661 26.9583 63.8011C26.9583 63.8011 34.4528 68.4954 38.3702 67.2977C42.2878 66.1 45.5256 58.1246 45.5256 58.1246Z" fill="#85A600"/>
<path d="M38.3613 36.9041C37.6838 37.1113 36.9667 36.7299 36.7595 36.0524C36.5524 35.3748 36.9337 34.6577 37.6112 34.4505C38.2888 34.2433 39.006 34.6247 39.2131 35.3022C39.4203 35.9797 39.0389 36.697 38.3613 36.9041Z" fill="#85A600"/>
<path d="M22.7389 40.3389C22.946 41.0164 23.6632 41.3978 24.3408 41.1906C25.0183 40.9835 25.3997 40.2663 25.1925 39.5887C24.9854 38.9112 24.2682 38.5298 23.5907 38.737C22.9131 38.9442 22.5317 39.6614 22.7389 40.3389Z" fill="#85A600"/>
<path d="M35.2068 37.8686C34.5292 38.0757 33.812 37.6944 33.6049 37.0168C33.3977 36.3393 33.7791 35.6221 34.4567 35.415C35.1342 35.2078 35.8513 35.5892 36.0585 36.2667C36.2656 36.9442 35.8843 37.6614 35.2068 37.8686Z" fill="#85A600"/>
<path d="M19.5844 41.3033C19.7914 41.9809 20.5087 42.3622 21.1862 42.1551C21.8636 41.9479 22.245 41.2308 22.0378 40.5532C21.8308 39.8757 21.1135 39.4943 20.436 39.7015C19.7585 39.9086 19.3772 40.6258 19.5844 41.3033Z" fill="#85A600"/>
<path d="M39.3258 40.0587C38.6483 40.2659 37.9312 39.8845 37.724 39.207C37.5168 38.5295 37.8982 37.8123 38.5757 37.6051C39.2533 37.3979 39.9705 37.7793 40.1776 38.4568C40.3848 39.1344 40.0034 39.8516 39.3258 40.0587Z" fill="#85A600"/>
<path d="M23.7034 43.4935C23.9105 44.1711 24.6277 44.5524 25.3053 44.3453C25.9828 44.1381 26.3641 43.4209 26.157 42.7433C25.9498 42.0659 25.2327 41.6845 24.5552 41.8917C23.8776 42.0988 23.4962 42.816 23.7034 43.4935Z" fill="#85A600"/>
<path d="M36.1713 41.0232C35.4937 41.2303 34.7765 40.849 34.5693 40.1714C34.3622 39.4939 34.7435 38.7767 35.421 38.5696C36.0986 38.3624 36.8158 38.7438 37.0229 39.4213C37.2301 40.0989 36.8488 40.816 36.1713 41.0232Z" fill="#85A600"/>
<path d="M20.5487 44.458C20.7559 45.1355 21.4731 45.5168 22.1506 45.3097C22.8281 45.1026 23.2095 44.3854 23.0023 43.7078C22.7952 43.0303 22.078 42.649 21.4005 42.8561C20.7229 43.0632 20.3417 43.7805 20.5487 44.458Z" fill="#85A600"/>
<path d="M40.2903 43.2134C39.6128 43.4205 38.8956 43.0392 38.6885 42.3616C38.4813 41.6841 38.8627 40.9669 39.5402 40.7598C40.2178 40.5526 40.9349 40.934 41.1421 41.6115C41.3492 42.289 40.9679 43.0062 40.2903 43.2134Z" fill="#85A600"/>
<path d="M24.6678 46.6481C24.875 47.3257 25.5922 47.707 26.2698 47.4999C26.9473 47.2927 27.3286 46.5756 27.1215 45.898C26.9143 45.2205 26.1971 44.8391 25.5195 45.0463C24.842 45.2534 24.4607 45.9706 24.6678 46.6481Z" fill="#85A600"/>
<path d="M37.1357 44.1778C36.4581 44.3849 35.741 44.0037 35.5338 43.3261C35.3267 42.6486 35.708 41.9314 36.3855 41.7242C37.0631 41.5171 37.7803 41.8984 37.9874 42.5759C38.1946 43.2535 37.8132 43.9707 37.1357 44.1778Z" fill="#85A600"/>
<path d="M21.5132 47.6126C21.7203 48.2902 22.4376 48.6715 23.1151 48.4644C23.7926 48.2572 24.174 47.54 23.9668 46.8625C23.7596 46.1849 23.0425 45.8036 22.365 46.0107C21.6874 46.2179 21.306 46.9351 21.5132 47.6126Z" fill="#85A600"/>
<path d="M41.2548 46.368C40.5773 46.5751 39.8601 46.1938 39.653 45.5162C39.4458 44.8387 39.8271 44.1215 40.5046 43.9144C41.1821 43.7072 41.8994 44.0886 42.1066 44.7661C42.3137 45.4437 41.9324 46.1608 41.2548 46.368Z" fill="#85A600"/>
<path d="M25.6323 49.8028C25.8395 50.4803 26.5566 50.8616 27.2343 50.6545C27.9117 50.4474 28.2931 49.7302 28.0859 49.0526C27.8788 48.3751 27.1616 47.9938 26.484 48.2009C25.8065 48.4081 25.4252 49.1252 25.6323 49.8028Z" fill="#85A600"/>
<path d="M38.1001 47.3325C37.4226 47.5396 36.7054 47.1583 36.4983 46.4807C36.2911 45.8032 36.6725 45.086 37.35 44.8788C38.0276 44.6717 38.7448 45.053 38.9519 45.7306C39.1591 46.4081 38.7777 47.1253 38.1001 47.3325Z" fill="#85A600"/>
<path d="M22.4777 50.7673C22.6848 51.4448 23.402 51.8261 24.0796 51.619C24.7571 51.4119 25.1384 50.6946 24.9313 50.0171C24.7241 49.3395 24.007 48.9583 23.3295 49.1654C22.6519 49.3725 22.2705 50.0897 22.4777 50.7673Z" fill="#85A600"/>
<path d="M42.2192 49.5226C41.5417 49.7297 40.8246 49.3484 40.6174 48.6709C40.4103 47.9933 40.7916 47.2762 41.4691 47.069C42.1466 46.8619 42.8639 47.2432 43.071 47.9208C43.2781 48.5983 42.8969 49.3155 42.2192 49.5226Z" fill="#85A600"/>
<path d="M26.5968 52.9574C26.804 53.6349 27.5211 54.0163 28.1986 53.8091C28.8762 53.602 29.2576 52.8848 29.0504 52.2073C28.8433 51.5297 28.1261 51.1484 27.4485 51.3555C26.771 51.5627 26.3896 52.2798 26.5968 52.9574Z" fill="#85A600"/>
<path d="M39.0646 50.4871C38.3871 50.6942 37.6699 50.3129 37.4628 49.6354C37.2556 48.9578 37.637 48.2406 38.3145 48.0335C38.9921 47.8264 39.7092 48.2077 39.9164 48.8852C40.1235 49.5627 39.7422 50.28 39.0646 50.4871Z" fill="#85A600"/>
<path d="M23.4421 53.9219C23.6493 54.5994 24.3665 54.9808 25.0441 54.7736C25.7216 54.5665 26.1029 53.8493 25.8958 53.1718C25.6886 52.4942 24.9714 52.1129 24.2939 52.32C23.6163 52.5272 23.235 53.2443 23.4421 53.9219Z" fill="#85A600"/>
<path d="M43.1837 52.6772C42.5062 52.8844 41.7889 52.5031 41.5819 51.8255C41.3748 51.148 41.756 50.4308 42.4336 50.2236C43.1111 50.0165 43.8282 50.3978 44.0354 51.0754C44.2426 51.7529 43.8612 52.4701 43.1837 52.6772Z" fill="#85A600"/>
<path d="M27.5613 56.1121C27.7684 56.7896 28.4856 57.1709 29.1631 56.9637C29.8407 56.7567 30.222 56.0394 30.0149 55.3619C29.8077 54.6844 29.0906 54.303 28.413 54.5102C27.7355 54.7173 27.3541 55.4345 27.5613 56.1121Z" fill="#85A600"/>
<path d="M40.0291 53.6417C39.3516 53.8489 38.6344 53.4675 38.4272 52.79C38.2201 52.1124 38.6014 51.3953 39.2789 51.1881C39.9565 50.981 40.6737 51.3623 40.8809 52.0399C41.088 52.7174 40.7067 53.4346 40.0291 53.6417Z" fill="#85A600"/>
<path d="M24.4066 57.0765C24.6138 57.754 25.3309 58.1354 26.0085 57.9282C26.686 57.7211 27.0674 57.0039 26.8602 56.3264C26.6531 55.6488 25.9359 55.2675 25.2584 55.4746C24.5808 55.6818 24.1995 56.399 24.4066 57.0765Z" fill="#85A600"/>
<path d="M44.1482 55.8319C43.4707 56.039 42.7534 55.6577 42.5463 54.9802C42.3392 54.3026 42.7205 53.5854 43.3981 53.3783C44.0756 53.1711 44.7927 53.5525 44.9999 54.23C45.207 54.9075 44.8257 55.6248 44.1482 55.8319Z" fill="#85A600"/>
<path d="M28.5258 59.2667C28.7329 59.9442 29.4501 60.3256 30.1276 60.1184C30.8052 59.9113 31.1865 59.1941 30.9794 58.5165C30.7722 57.839 30.0551 57.4576 29.3774 57.6648C28.7 57.8719 28.3186 58.5891 28.5258 59.2667Z" fill="#85A600"/>
<path d="M40.9935 56.7963C40.316 57.0035 39.5989 56.6221 39.3917 55.9446C39.1846 55.2671 39.5659 54.5499 40.2434 54.3428C40.9209 54.1356 41.6382 54.517 41.8453 55.1945C42.0525 55.872 41.6711 56.5892 40.9935 56.7963Z" fill="#85A600"/>
<path d="M25.3711 60.2311C25.5782 60.9087 26.2954 61.29 26.973 61.0829C27.6505 60.8757 28.0319 60.1586 27.8247 59.481C27.6176 58.8035 26.9004 58.4221 26.2228 58.6293C25.5453 58.8364 25.1639 59.5536 25.3711 60.2311Z" fill="#85A600"/>
<path fill-rule="evenodd" clip-rule="evenodd" d="M125.66 62.83C125.66 97.53 97.53 125.66 62.83 125.66C28.1299 125.66 0 97.53 0 62.83C0 28.1299 28.1299 0 62.83 0C97.53 0 125.66 28.1299 125.66 62.83ZM25.2211 65.9265C21.4507 62.9741 18.2992 58.4118 16.5999 52.8536C13.0569 41.2653 18.2566 32.319 26.871 29.6853C35.4855 27.0516 44.2527 31.7278 47.7957 43.3161C49.3325 48.3431 49.4291 53.359 48.3424 57.6424L43.085 74.293L44.1224 77.6866L38.8647 79.294L37.8273 75.9005L25.2211 65.9265ZM43.9573 79.6534L50.3871 100.684L46.5314 101.863L40.1016 80.8323L43.9573 79.6534ZM57.1915 85.2479C56.766 85.6116 56.3762 86.0152 56.0276 86.4531L56 87.2659C56.7852 88.5537 57.5841 88.7466 58.8513 87.865C60.0038 87.0661 61.1516 86.2695 62.2949 85.4752C64.7605 83.7534 66.9299 83.7327 69.4645 85.3099C70.9032 86.2993 72.6082 86.829 74.3542 86.829C76.1003 86.829 77.8054 86.2993 79.2441 85.3099C80.2627 84.5844 81.4821 84.1945 82.7325 84.1945C83.983 84.1945 85.2024 84.5844 86.2208 85.3099C87.6633 86.3093 89.3765 86.8447 91.1313 86.8447C92.8862 86.8447 94.5994 86.3093 96.0419 85.3099C98.5144 83.7672 100.766 83.7878 103.17 85.4821C104.417 86.3636 105.67 87.2452 106.93 88.1061C107 88.1602 107.073 88.2082 107.151 88.2496C107.258 88.307 107.371 88.3517 107.489 88.3826C107.693 88.4358 107.904 88.4469 108.112 88.4153C108.32 88.3837 108.519 88.3101 108.697 88.1989C108.875 88.0876 109.029 87.9412 109.148 87.7686C109.273 87.5954 109.362 87.3984 109.408 87.1898C109.42 87.1328 109.429 87.0753 109.436 87.0175C109.438 86.9988 109.439 86.9802 109.441 86.9615L109.443 86.928C109.444 86.8928 109.445 86.8575 109.444 86.8223C109.442 86.733 109.433 86.6437 109.416 86.5555C109.375 86.3458 109.292 86.1465 109.171 85.9702C109.107 85.8769 109.034 85.791 108.952 85.714C108.937 85.7006 108.923 85.6874 108.908 85.6745C108.879 85.6488 108.848 85.6242 108.817 85.6008C108.784 85.5759 108.749 85.5524 108.714 85.5303C108.337 85.2637 107.962 84.9937 107.586 84.7237L107.582 84.7206C106.533 83.9663 105.483 83.2114 104.389 82.5275C102.957 81.5504 101.265 81.0237 99.5308 81.0151C97.7968 81.0065 96.0997 81.5164 94.6576 82.4792C94.2368 82.7571 93.7946 83.0012 93.3352 83.2093C92.429 83.5994 91.4366 83.7468 90.4561 83.6369C89.4755 83.527 88.5404 83.1636 87.7429 82.5826C86.2826 81.5817 84.5546 81.0441 82.7842 81.0399C80.9478 81.0304 79.1534 81.5884 77.6464 82.6377C76.7537 83.2535 75.7062 83.6066 74.6229 83.657C73.2435 83.671 71.8947 83.2518 70.7661 82.4586C69.4622 81.573 67.9363 81.0701 66.3612 81.0068C64.7863 80.9435 63.225 81.3224 61.8541 82.1005C60.2352 83.0505 58.678 84.1017 57.1915 85.2479ZM57.0605 92.8857C56.6721 93.2399 56.3256 93.6373 56.0275 94.0703L56.0482 94.6901C56.7782 96.0125 57.6254 96.1984 58.8788 95.3237L62.3843 92.8719C64.7466 91.2259 66.9988 91.1984 69.423 92.7204C70.8831 93.7375 72.6196 94.2827 74.3989 94.2827C76.1783 94.2827 77.9149 93.7375 79.375 92.7204C80.3619 92.0228 81.5409 91.6483 82.7496 91.6483C83.9583 91.6483 85.1373 92.0228 86.1244 92.7204C87.5951 93.7526 89.3483 94.3065 91.145 94.3065C92.9419 94.3065 94.6951 93.7526 96.1658 92.7204C97.1783 92.004 98.3943 91.632 99.6344 91.6593C100.874 91.6866 102.073 92.1117 103.053 92.8719L106.813 95.5028C106.979 95.6564 107.176 95.7728 107.39 95.8441C107.497 95.8793 107.606 95.9031 107.717 95.9153C107.829 95.9277 107.943 95.928 108.057 95.916C108.281 95.8922 108.499 95.8206 108.693 95.7059C108.888 95.5912 109.056 95.4362 109.186 95.2513C109.316 95.0663 109.405 94.8558 109.447 94.6336C109.488 94.4115 109.482 94.183 109.428 93.9635C109.375 93.744 109.274 93.5386 109.135 93.361C108.995 93.1833 108.818 93.0378 108.618 92.9339C108.173 92.6259 107.734 92.3131 107.294 92.0002C106.427 91.3826 105.558 90.7642 104.644 90.1791C101.324 87.9821 97.9288 87.9269 94.561 90.0482C93.5492 90.7677 92.3384 91.1543 91.0968 91.1543C89.8552 91.1543 88.6445 90.7677 87.6326 90.0482C86.199 89.0526 84.4951 88.519 82.7496 88.519C81.0042 88.519 79.3004 89.0526 77.8667 90.0482C76.8427 90.7791 75.6158 91.1721 74.3577 91.1721C73.0995 91.1721 71.8727 90.7791 70.8486 90.0482C69.4163 89.0657 67.72 88.5398 65.9829 88.5398C64.2458 88.5398 62.5496 89.0657 61.1172 90.0482C59.719 90.916 58.3829 91.9008 57.0605 92.8857ZM52.5884 105.377L51.4095 101.522L46.1519 103.129L47.3307 106.985L52.5884 105.377ZM66 48C69.3137 48 72 45.3137 72 42C72 38.6863 69.3137 36 66 36C62.6864 36 60 38.6863 60 42C60 45.3137 62.6864 48 66 48Z" fill="#85A600"/>
</svg>
