<svg width="127" height="127" viewBox="0 0 127 127" fill="none" xmlns="http://www.w3.org/2000/svg">
<path fill-rule="evenodd" clip-rule="evenodd" d="M56.3664 60.6283C56.7439 61.4554 57.3441 62.161 58.0995 62.6664L57.92 62.8101C57.0785 63.2833 56.3853 63.9816 55.9182 64.8264C55.451 65.6714 55.2283 66.6298 55.2751 67.5941C55.3218 68.5585 55.636 69.4907 56.1826 70.2866C56.7293 71.0824 57.4867 71.7103 58.37 72.1001C59.9312 72.8386 61.6435 73.2015 63.37 73.16C65.4301 73.2689 67.4735 72.738 69.22 71.64C69.9601 71.1725 70.5678 70.5227 70.9846 69.7528C71.4015 68.983 71.6136 68.119 71.6005 67.2437C71.5874 66.3683 71.3497 65.5109 70.9101 64.7538C70.4705 63.9967 69.8438 63.3654 69.09 62.92L68.7 62.67L69.17 62.28C69.9813 61.657 70.5476 60.7684 70.77 59.77C71.0392 58.6166 70.8843 57.4049 70.3334 56.3563C69.7825 55.3079 68.8726 54.4927 67.77 54.0601C66.4369 53.4518 64.9918 53.1278 63.5266 53.1089C62.0614 53.09 60.6084 53.3765 59.26 53.9501C58.3906 54.2429 57.6208 54.7739 57.0384 55.4827C56.4559 56.1915 56.0841 57.0496 55.9653 57.9592C55.8465 58.8689 55.9855 59.7937 56.3664 60.6283ZM58.0995 62.6664L58.12 62.65V62.6801L58.0995 62.6664ZM63.4 70.03C62.6797 69.8904 61.971 69.6964 61.28 69.4501C60.8159 69.2621 60.424 68.9308 60.1613 68.5045C59.8987 68.0781 59.7791 67.5791 59.82 67.0801C59.8021 66.5809 59.941 66.0887 60.2172 65.6726C60.4934 65.2565 60.8931 64.9374 61.36 64.76C62.0157 64.4657 62.7263 64.3135 63.445 64.3135C64.1638 64.3135 64.8743 64.4657 65.53 64.76C65.9839 64.9412 66.3716 65.2566 66.6415 65.6639C66.9113 66.0714 67.0504 66.5515 67.04 67.04C67.0779 67.5387 66.9558 68.0364 66.6915 68.4608C66.4271 68.8853 66.0342 69.2142 65.57 69.4C64.862 69.6595 64.1369 69.87 63.4 70.03ZM61.66 60.9C62.2336 61.1045 62.822 61.265 63.42 61.3801C64.0224 61.231 64.6139 61.0405 65.1901 60.8101C65.563 60.6547 65.8801 60.39 66.0997 60.0508C66.3192 59.7117 66.4309 59.314 66.42 58.91C66.4525 58.5033 66.3633 58.0959 66.1639 57.7399C65.9645 57.3838 65.6638 57.095 65.3 56.91C64.7308 56.5948 64.0908 56.4296 63.4401 56.4296C62.7893 56.4296 62.1493 56.5948 61.58 56.91C61.1961 57.098 60.8792 57.3992 60.6718 57.7728C60.4643 58.1466 60.3765 58.5748 60.42 59C60.4099 59.405 60.5231 59.8036 60.7446 60.1429C60.966 60.4822 61.2852 60.7462 61.66 60.9Z" fill="#2C3E61"/>
<path fill-rule="evenodd" clip-rule="evenodd" d="M44.35 63.16C44.3382 66.9017 45.4366 70.563 47.5063 73.6802C49.5761 76.7972 52.5241 79.2303 55.9772 80.6714C59.4303 82.1124 63.2333 82.4967 66.9049 81.7754C70.5765 81.0542 73.9515 79.2599 76.603 76.6198C79.2544 73.9795 81.063 70.6121 81.7997 66.9436C82.5365 63.2751 82.1684 59.4705 80.742 56.0112C79.3156 52.5521 76.895 49.5939 73.7866 47.511C70.6782 45.428 67.0218 44.3141 63.28 44.3101C58.2789 44.3284 53.4867 46.3176 49.9429 49.8464C46.3991 53.3754 44.3895 58.1591 44.35 63.16ZM51.0916 55.0162C49.4705 57.4237 48.5999 60.2578 48.59 63.16C48.5899 67.0433 50.1243 70.7694 52.8589 73.5265C55.5936 76.2836 59.3069 77.8484 63.19 77.88C66.0923 77.8939 68.9334 77.0465 71.354 75.4452C73.7745 73.8439 75.6657 71.5605 76.7882 68.8842C77.9108 66.2078 78.2142 63.2584 77.6601 60.4095C77.106 57.5607 75.7194 54.9401 73.6756 52.8795C71.6317 50.8188 69.0226 49.4109 66.1784 48.8335C63.3341 48.2561 60.3824 48.5353 57.6969 49.6359C55.0114 50.7365 52.7126 52.6089 51.0916 55.0162Z" fill="#2C3E61"/>
<path fill-rule="evenodd" clip-rule="evenodd" d="M63.27 126.08C97.97 126.08 126.1 97.9501 126.1 63.25C126.1 28.55 97.97 0.420044 63.27 0.420044C28.5699 0.420044 0.440002 28.55 0.440002 63.25C0.440002 97.9501 28.5699 126.08 63.27 126.08ZM61.0001 27.0601H65.52C65.6281 27.0601 65.7361 27.0924 65.8441 27.1249C65.9046 27.1431 65.9651 27.1613 66.0256 27.1736C66.0371 27.1759 66.0486 27.1781 66.0601 27.1801C66.66 27.2737 67.2621 27.3546 67.8638 27.4355L67.869 27.4363L67.8718 27.4366C69.133 27.6064 70.3929 27.7761 71.6301 28.0601C78.5143 29.6937 84.7673 33.3127 89.6133 38.468C94.4593 43.6233 97.6849 50.088 98.89 57.0601C99.0404 57.9554 99.1534 58.8649 99.2673 59.7819C99.3201 60.2065 99.3731 60.6328 99.4301 61.0601V65.5801C99.4301 65.79 99.3401 65.9901 99.3101 66.2001C99.2698 66.4683 99.2327 66.7373 99.1971 67.0068C99.1616 67.2753 99.1277 67.5442 99.0937 67.8132C98.9584 68.8853 98.8229 69.9587 98.59 71.01C97.4555 76.28 95.1551 81.2289 91.8578 85.4935C88.5605 89.7582 84.3501 93.2302 79.5355 95.6548C74.7208 98.0793 69.4243 99.3949 64.0348 99.5049C58.6452 99.6147 53.2995 98.5164 48.39 96.29C32.89 89.3501 24.61 73.0601 27.77 56.29C29.175 49.1309 32.7098 42.5631 37.9114 37.4471C43.1129 32.3313 49.7385 28.906 56.92 27.6201C57.7767 27.4825 58.6295 27.3722 59.4784 27.2625C59.987 27.1968 60.4942 27.1312 61.0001 27.0601Z" fill="#2C3E61"/>
</svg>
