<svg width="126" height="126" viewBox="0 0 126 126" fill="none" xmlns="http://www.w3.org/2000/svg">
<path fill-rule="evenodd" clip-rule="evenodd" d="M125.66 62.83C125.66 97.53 97.5301 125.66 62.83 125.66C28.13 125.66 0 97.53 0 62.83C0 28.13 28.13 0 62.83 0C97.5301 0 125.66 28.13 125.66 62.83ZM85.13 92.46H94.58H100.68V93.91H64.68V92.46H85.13ZM85.13 92.46C84.1359 92.46 83.33 91.6542 83.33 90.66C83.33 89.6659 84.1359 88.86 85.13 88.86C86.1241 88.86 86.93 89.6659 86.93 90.66C86.93 91.6542 86.1241 92.46 85.13 92.46ZM99.91 87.13C99.91 90.0737 97.5237 92.46 94.58 92.46C91.6363 92.46 89.25 90.0737 89.25 87.13C89.25 84.1863 91.6363 81.8 94.58 81.8C97.5237 81.8 99.91 84.1863 99.91 87.13ZM32.9414 48.0029C33.5962 48.4696 34.3406 48.7993 35.13 48.97C38.2782 49.9783 41.5473 50.5602 44.85 50.7001C45.07 50.7001 45.29 50.7001 45.54 50.77L48.61 51.14L46.82 53.5901C46.71 53.75 46.62 53.87 46.53 53.98C46.3024 54.2438 46.0748 54.5022 45.8458 54.7623L45.8394 54.7697C45.6278 55.0099 45.415 55.2516 45.2 55.5C44.2 56.61 43.32 57.64 42.5 58.76C40.94 60.88 40.65 62.42 41.5 64.0801C41.8137 64.7422 41.8741 65.4963 41.67 66.2001C40.5484 70.9053 38.6016 75.3744 35.92 79.4C33.501 83.1248 30.7534 86.6254 27.71 89.86C27.4568 90.1111 27.2564 90.4103 27.1207 90.7401C26.9851 91.0698 26.9168 91.4235 26.92 91.78C26.9471 92.1627 27.0494 92.5364 27.221 92.8795C27.3926 93.2228 27.6301 93.5287 27.92 93.78C28.1664 94.0518 28.47 94.2654 28.8089 94.4056C29.1478 94.5459 29.5136 94.6091 29.88 94.5909C30.2463 94.5728 30.604 94.4736 30.9274 94.3005C31.2508 94.1274 31.5317 93.8848 31.75 93.5901C37.4123 87.8318 41.9201 81.043 45.03 73.59C45.12 73.37 45.22 73.16 45.34 72.91L46.77 69.91L48.35 72.4301C50.7175 76.0687 52.3828 80.1185 53.26 84.37C53.5385 85.8007 53.6971 87.2499 53.8509 88.6555L53.87 88.8301C53.97 89.8301 54.07 90.76 54.21 91.72C54.2653 92.0776 54.3921 92.4204 54.583 92.7279C54.7738 93.0353 55.0247 93.301 55.3207 93.5093C55.6167 93.7174 55.9516 93.8638 56.3054 93.9396C56.6593 94.0153 57.0247 94.0188 57.38 93.9501C57.7077 93.9426 58.0303 93.8667 58.3269 93.7272C58.6236 93.5876 58.8877 93.3877 59.1025 93.14C59.3172 92.8923 59.4777 92.6024 59.5737 92.2889C59.6698 91.9756 59.6991 91.6455 59.66 91.3201C59.5829 85.4711 58.2171 79.7109 55.66 74.4501C54.66 72.4501 53.59 70.5801 52.42 68.5801L52.4143 68.5698C51.8762 67.6532 51.3381 66.7366 50.8 65.79L50.25 64.79L51.75 62.99C52.33 62.3 52.95 61.5601 53.56 60.8101C57.23 56.3201 59.43 52.53 60.71 48.53C61.46 46.17 60.77 44.16 58.83 43.04C57.8166 42.4155 56.6255 42.1427 55.4413 42.2639C54.2572 42.385 53.146 42.8933 52.28 43.7101C51.641 44.3601 50.8167 44.7966 49.92 44.9601C45.1966 45.5822 40.3929 45.0503 35.92 43.41L35.55 43.28C35.2596 43.1427 34.9554 43.0404 34.6438 42.9741C34.222 40.2086 31.8334 38.0901 28.95 38.0901C25.7688 38.0901 23.19 40.6688 23.19 43.85C23.19 47.0312 25.7688 49.61 28.95 49.61C30.4995 49.61 31.9061 48.9982 32.9414 48.0029ZM66.36 36.22C66.3468 37.5645 65.8 38.8486 64.84 39.79C63.9021 40.715 62.6372 41.2324 61.32 41.23C59.9932 41.194 58.7318 40.6461 57.7998 39.701C56.8679 38.7561 56.3376 37.4872 56.32 36.16C56.3356 34.8387 56.8674 33.576 57.8017 32.6417C58.736 31.7074 59.9987 31.1757 61.32 31.16C61.9902 31.1603 62.6537 31.2938 63.2718 31.5531C63.8899 31.8124 64.4502 32.192 64.92 32.67C65.3816 33.1381 65.7464 33.6925 65.9935 34.3016C66.2406 34.9108 66.3651 35.5627 66.36 36.22ZM60.79 54.67L60.94 54.92C62.0716 56.4258 63.3009 57.8555 64.62 59.2001C64.8282 59.4539 65.0872 59.6611 65.3804 59.8087C65.6736 59.9563 65.9944 60.0409 66.3223 60.0569C66.6501 60.0729 66.9777 60.02 67.2839 59.9017C67.5901 59.7834 67.8681 59.6023 68.1 59.37C68.6187 58.9738 68.9693 58.397 69.0824 57.7542C69.1954 57.1112 69.0624 56.4495 68.71 55.9C67.9789 54.8005 66.7853 53.4291 65.6312 52.1029L65.6295 52.1011L65.6286 52.1C64.6842 51.0148 63.7663 49.9602 63.15 49.11L61.92 51.9501C61.6659 52.5924 61.3968 53.2299 61.1268 53.8694C61.0144 54.1357 60.9017 54.4025 60.79 54.67Z" fill="#8E3A16"/>
</svg>
