<svg width="126" height="127" viewBox="0 0 126 127" fill="none" xmlns="http://www.w3.org/2000/svg">
<path d="M47.53 65.6101C47.53 65.9962 47.606 66.3785 47.7538 66.7352C47.9015 67.0919 48.1181 67.416 48.3911 67.689C48.6641 67.962 48.9882 68.1786 49.3449 68.3263C49.7016 68.474 50.0839 68.55 50.47 68.55C50.8561 68.55 51.2384 68.474 51.5951 68.3263C51.9518 68.1786 52.2759 67.962 52.5489 67.689C52.8219 67.416 53.0385 67.0919 53.1862 66.7352C53.334 66.3785 53.41 65.9962 53.41 65.6101C53.41 64.8303 53.1002 64.0825 52.5489 63.5311C51.9975 62.9799 51.2497 62.67 50.47 62.67C49.6903 62.67 48.9425 62.9799 48.3911 63.5311C47.8397 64.0825 47.53 64.8303 47.53 65.6101Z" fill="#1F1E63"/>
<path d="M62.83 68.6101C62.83 68.0167 62.6541 67.4368 62.3244 66.9434C61.9948 66.4501 61.5262 66.0656 60.9781 65.8385C60.4299 65.6115 59.8267 65.552 59.2447 65.6677C58.6628 65.7834 58.1282 66.0692 57.7087 66.4888C57.2891 66.9083 57.0034 67.4429 56.8876 68.0248C56.7719 68.6067 56.8313 69.21 57.0584 69.7582C57.2854 70.3063 57.6699 70.7748 58.1633 71.1045C58.6566 71.4341 59.2367 71.6101 59.83 71.6101C60.2274 71.6101 60.6208 71.5312 60.9874 71.3779C61.354 71.2247 61.6865 71.0001 61.9656 70.7173C62.2447 70.4344 62.4648 70.099 62.6132 69.7305C62.7616 69.3618 62.8353 68.9674 62.83 68.5701V68.6101Z" fill="#1F1E63"/>
<path d="M54.92 59.9C54.92 60.6771 55.2287 61.4225 55.7782 61.9719C56.3277 62.5214 57.0729 62.8301 57.85 62.8301C58.6271 62.8301 59.3723 62.5214 59.9218 61.9719C60.4713 61.4225 60.78 60.6771 60.78 59.9C60.78 59.123 60.4713 58.3777 59.9218 57.8282C59.3723 57.2788 58.6271 56.9701 57.85 56.9701C57.0729 56.9701 56.3277 57.2788 55.7782 57.8282C55.2287 58.3777 54.92 59.123 54.92 59.9Z" fill="#1F1E63"/>
<path fill-rule="evenodd" clip-rule="evenodd" d="M62.83 126.08C97.5301 126.08 125.66 97.9501 125.66 63.25C125.66 28.55 97.5301 0.420044 62.83 0.420044C28.13 0.420044 0 28.55 0 63.25C0 97.9501 28.13 126.08 62.83 126.08ZM54.79 99.3501C53.1854 99.1512 51.593 98.8641 50.02 98.4901C39.44 95.4 32.76 88.4901 30.72 77.65C29.4934 71.1725 30.7733 64.4708 34.3007 58.9012C37.8281 53.3315 43.3397 49.3099 49.72 47.65C53.344 46.6127 57.1525 46.3894 60.8729 46.9962C64.5933 47.603 68.1335 49.0249 71.24 51.16C71.3261 51.2155 71.4047 51.2747 71.4943 51.3423L71.497 51.3442C71.5523 51.386 71.6118 51.4309 71.68 51.4801L71.3716 52.4197L71.3612 52.4515L71.358 52.4611C70.8456 54.0219 70.3344 55.5791 69.83 57.15C67.5955 64.1792 67.0137 71.6293 68.13 78.92C68.91 84.2534 69.6567 89.5868 70.37 94.92C70.3658 95.0559 70.3302 95.1887 70.266 95.3085C70.2018 95.4282 70.1107 95.5315 70 95.6101C66.6686 97.6102 62.9293 98.8339 59.06 99.1901C58.8539 99.219 58.65 99.2625 58.45 99.3201L54.79 99.3501ZM91.97 98.9701C92.04 98.54 92.09 98.2201 92.14 97.8901C92.3559 96.358 92.5744 94.8259 92.793 93.2936C93.3134 89.645 93.8341 85.995 94.32 82.3401C94.3943 81.7316 94.4714 81.1227 94.5485 80.5133C94.8654 78.0084 95.1833 75.4957 95.32 72.9701C95.5452 67.2062 94.61 61.4557 92.57 56.0601C92.5309 55.8483 92.411 55.6599 92.2355 55.5349C92.0601 55.4099 91.843 55.3579 91.63 55.3901H76.13C75.8941 55.3901 75.7052 55.3842 75.5525 55.3793H75.5509C75.218 55.3687 75.0572 55.3635 74.9562 55.4388C74.8619 55.5092 74.8197 55.6494 74.7382 55.9203C74.6894 56.0824 74.6265 56.2914 74.53 56.5601C71.9958 63.601 71.267 71.1648 72.41 78.5601C73.3633 85.0934 74.28 91.6234 75.16 98.15C75.3 98.8301 75.53 98.9701 76.16 98.9701H91.97ZM88.78 41.8301H78.41C78.41 41.786 78.3857 41.754 78.3656 41.7275C78.3492 41.7061 78.3355 41.6881 78.34 41.6702C78.4546 39.3315 78.3441 36.9874 78.01 34.6702C77.8331 32.8014 78.3413 30.932 79.44 29.4102C79.9075 28.7212 80.5365 28.1573 81.2721 27.7676C82.0077 27.3777 82.8275 27.174 83.66 27.174C84.4925 27.174 85.3123 27.3777 86.0479 27.7676C86.7835 28.1573 87.4125 28.7212 87.88 29.4102C89.0023 31.0271 89.5095 32.9919 89.31 34.9501C89.2485 35.7671 89.1806 36.5841 89.1122 37.4058C88.9914 38.8572 88.8694 40.3232 88.78 41.8301ZM76.4 51.0701H90.92C90.8531 50.8268 90.7864 50.5853 90.7202 50.3458C90.3812 49.1185 90.0561 47.9413 89.78 46.8201C89.67 46.3401 89.49 46.2301 89.04 46.2301H77.71L76.4 51.0701Z" fill="#1F1E63"/>
</svg>
