<svg width="126" height="127" viewBox="0 0 126 127" fill="none" xmlns="http://www.w3.org/2000/svg">
<path d="M45.03 37.4379C45.0275 37.022 44.9016 36.6162 44.6683 36.272C44.4345 35.9272 44.1034 35.6597 43.7172 35.5035C43.331 35.3474 42.907 35.3096 42.4993 35.395C42.0915 35.4805 41.7184 35.6852 41.4274 35.9833C41.1364 36.2814 40.9406 36.6594 40.8649 37.069C40.7893 37.4787 40.8372 37.9016 41.0026 38.284C41.168 38.6664 41.4433 38.9909 41.7937 39.2163C42.144 39.4418 42.5535 39.5579 42.97 39.55C43.5218 39.5344 44.0457 39.3041 44.4304 38.9082C44.8133 38.5142 45.0282 37.987 45.03 37.4379Z" fill="#004951"/>
<path d="M49.92 42.36C49.5038 42.362 49.0976 42.4877 48.753 42.7209C48.4084 42.9543 48.1408 43.2847 47.9843 43.6703C47.8278 44.056 47.7895 44.4794 47.8741 44.8869C47.9587 45.2944 48.1625 45.6675 48.4596 45.959C48.7567 46.2504 49.1336 46.4471 49.5427 46.5239C49.9517 46.6007 50.3743 46.5543 50.7569 46.3904C51.1395 46.2266 51.4648 45.9528 51.6914 45.6037C51.9181 45.2547 52.0359 44.8461 52.03 44.43C52.0196 43.8765 51.793 43.3489 51.3987 42.9602C51.0044 42.5715 50.4737 42.3525 49.92 42.35V42.36Z" fill="#004951"/>
<path d="M59.02 51.47C59.0259 51.0534 58.9079 50.6445 58.6808 50.2952C58.4537 49.946 58.1278 49.6721 57.7446 49.5085C57.3615 49.345 56.9383 49.2991 56.529 49.3767C56.1197 49.4543 55.7427 49.652 55.446 49.9444C55.1493 50.2369 54.9463 50.611 54.8628 51.0191C54.7793 51.4272 54.8191 51.8511 54.9771 52.2365C55.1352 52.622 55.4043 52.9518 55.7502 53.1839C56.0962 53.416 56.5034 53.54 56.92 53.54C57.4719 53.5349 58.0001 53.3147 58.3923 52.9263C58.7844 52.5378 59.0096 52.0118 59.02 51.46V51.47Z" fill="#004951"/>
<path d="M41.7513 73.5153C42.097 73.2837 42.5038 73.16 42.92 73.16C43.4711 73.1676 43.9979 73.3885 44.3895 73.7764C44.7811 74.1643 45.0071 74.689 45.02 75.24C45.024 75.6562 44.9042 76.0641 44.6758 76.412C44.4475 76.76 44.1209 77.0323 43.7376 77.1943C43.3542 77.3563 42.9314 77.4008 42.5227 77.322C42.114 77.2433 41.738 77.0449 41.4423 76.752C41.1466 76.4591 40.9446 76.085 40.8619 75.6771C40.7793 75.2692 40.8197 74.8459 40.978 74.461C41.1364 74.0761 41.4055 73.7469 41.7513 73.5153Z" fill="#004951"/>
<path d="M58.6714 74.1163C58.8981 74.4653 59.0159 74.8738 59.01 75.29L59.02 75.25C59.0174 75.8105 58.7928 76.3471 58.3955 76.7426C57.9982 77.138 57.4605 77.36 56.9 77.36C56.4838 77.358 56.0776 77.2323 55.733 76.999C55.3883 76.7657 55.1208 76.4352 54.9643 76.0496C54.8078 75.664 54.7695 75.2405 54.8541 74.833C54.9387 74.4255 55.1425 74.0524 55.4396 73.7609C55.7367 73.4695 56.1136 73.2728 56.5227 73.196C56.9317 73.1193 57.3543 73.1658 57.7369 73.3296C58.1195 73.4934 58.4448 73.7672 58.6714 74.1163Z" fill="#004951"/>
<path d="M51.6603 81.1195C51.8902 81.4664 52.012 81.8738 52.01 82.29L52.03 82.22C52.0353 82.5009 51.9847 82.7801 51.8812 83.0413C51.7776 83.3024 51.6232 83.5404 51.4269 83.7414C51.2306 83.9424 50.9962 84.1024 50.7375 84.212C50.4789 84.3216 50.201 84.3787 49.92 84.3799C49.5038 84.3819 49.0964 84.2602 48.7495 84.0302C48.4027 83.8002 48.132 83.4724 47.9718 83.0883C47.8116 82.7041 47.7692 82.281 47.8499 81.8727C47.9306 81.4645 48.1308 81.0894 48.4251 80.795C48.7194 80.5007 49.0945 80.3005 49.5028 80.2198C49.9111 80.1392 50.3341 80.1816 50.7183 80.3417C51.1024 80.5019 51.4303 80.7726 51.6603 81.1195Z" fill="#004951"/>
<path d="M41.7548 87.5266C42.0983 87.2916 42.5038 87.164 42.92 87.16C43.4713 87.1623 44.0002 87.3782 44.3955 87.7623C44.7909 88.1465 45.0219 88.669 45.04 89.22C45.0479 89.636 44.932 90.0452 44.707 90.3953C44.482 90.7454 44.158 91.0207 43.7763 91.1863C43.3945 91.352 42.9721 91.4005 42.5627 91.3256C42.1533 91.2508 41.7754 91.056 41.4769 90.7659C41.1785 90.4759 40.9729 90.1038 40.8863 89.6967C40.7997 89.2897 40.8361 88.866 40.9907 88.4796C41.1453 88.0933 41.4113 87.7615 41.7548 87.5266Z" fill="#004951"/>
<path d="M58.0887 91.0046C57.743 91.2363 57.3362 91.36 56.92 91.36V91.31C56.3772 91.303 55.8576 91.0889 55.4673 90.7116C55.077 90.3343 54.8454 89.8222 54.82 89.28C54.816 88.8638 54.9358 88.4558 55.1641 88.1078C55.3925 87.7599 55.7191 87.4876 56.1024 87.3256C56.4858 87.1636 56.9086 87.1192 57.3173 87.1979C57.726 87.2767 58.102 87.475 58.3977 87.7679C58.6934 88.0609 58.8954 88.435 58.9781 88.8429C59.0607 89.2508 59.0203 89.674 58.862 90.0589C58.7036 90.4438 58.4345 90.773 58.0887 91.0046Z" fill="#004951"/>
<path d="M78.92 43.47C78.9353 43.194 78.8932 42.9178 78.7964 42.6589C78.6996 42.4 78.5502 42.1639 78.3575 41.9656C78.1649 41.7673 77.9333 41.6111 77.6772 41.5069C77.4212 41.4026 77.1463 41.3527 76.87 41.36C76.3147 41.352 75.7789 41.5642 75.3797 41.9503C74.9805 42.3363 74.7505 42.8647 74.74 43.42C74.7399 43.9737 74.9563 44.5054 75.3432 44.9016C75.73 45.2978 76.2565 45.5269 76.81 45.54C77.0852 45.5453 77.3587 45.4957 77.6144 45.394C77.8702 45.2924 78.1032 45.1407 78.2996 44.948C78.4961 44.7552 78.6522 44.5253 78.7587 44.2715C78.8652 44.0177 78.92 43.7452 78.92 43.47Z" fill="#004951"/>
<path d="M86.61 55.3C86.6125 55.8536 86.8315 56.3843 87.2202 56.7786C87.6089 57.1729 88.1364 57.3995 88.69 57.41C88.9653 57.4126 89.2384 57.3608 89.4936 57.2576C89.7489 57.1544 89.9812 57.0018 90.1773 56.8085C90.3733 56.6152 90.5293 56.3851 90.6361 56.1313C90.743 55.8776 90.7987 55.6053 90.8 55.33C90.8126 55.0538 90.7679 54.7781 90.6686 54.5202C90.5693 54.2623 90.4176 54.0277 90.2231 53.8313C90.0286 53.6349 89.7955 53.481 89.5385 53.3792C89.2815 53.2775 89.0062 53.23 88.73 53.24C88.4543 53.2333 88.1801 53.2816 87.9233 53.3819C87.6664 53.4822 87.4321 53.6326 87.2339 53.8242C87.0357 54.0159 86.8776 54.2451 86.7688 54.4985C86.6599 54.7518 86.6026 55.0243 86.6 55.3H86.61Z" fill="#004951"/>
<path d="M80.7 61.3C80.696 61.5747 80.747 61.8475 80.8499 62.1022C80.9529 62.3569 81.1058 62.5884 81.2997 62.7832C81.4935 62.978 81.7243 63.132 81.9785 63.2361C82.2327 63.3403 82.5053 63.3926 82.78 63.39C83.3344 63.3874 83.8656 63.1667 84.2585 62.7756C84.6515 62.3845 84.8748 61.8544 84.88 61.3C84.8722 60.7455 84.6485 60.2158 84.2563 59.8236C83.8642 59.4315 83.3345 59.2077 82.78 59.2C82.2318 59.1973 81.7047 59.4112 81.3133 59.795C80.9219 60.179 80.6979 60.7018 80.69 61.25L80.7 61.3Z" fill="#004951"/>
<path d="M82.8 39.64C83.0748 39.64 83.347 39.5855 83.6006 39.4797C83.8543 39.374 84.0845 39.2189 84.2779 39.0237C84.4713 38.8284 84.6241 38.5968 84.7274 38.3421C84.8308 38.0875 84.8826 37.8148 84.88 37.54C84.8695 36.9856 84.6412 36.4576 84.2445 36.0703C83.8477 35.6829 83.3145 35.4672 82.76 35.47C82.232 35.5066 81.7375 35.7421 81.3764 36.1291C81.0153 36.5161 80.8145 37.0257 80.8145 37.555C80.8145 38.0843 81.0153 38.5939 81.3764 38.9808C81.7375 39.3679 82.232 39.6034 82.76 39.64H82.8Z" fill="#004951"/>
<path d="M94.68 51.5099C94.9544 51.5087 95.2258 51.4529 95.4784 51.3458C95.731 51.2386 95.9598 51.0824 96.1515 50.886C96.3432 50.6897 96.494 50.4572 96.595 50.2021C96.696 49.947 96.7453 49.6743 96.74 49.4C96.7321 48.8447 96.5046 48.3153 96.1073 47.9274C95.71 47.5394 95.1752 47.3246 94.62 47.33C94.3451 47.3339 94.0738 47.3922 93.8216 47.5016C93.5694 47.611 93.3414 47.7693 93.1507 47.9674C92.9601 48.1655 92.8106 48.3994 92.711 48.6556C92.6113 48.9118 92.5634 49.1852 92.57 49.46C92.5697 49.7313 92.6245 49.9998 92.7312 50.2491C92.8379 50.4985 92.9942 50.7237 93.1907 50.9108C93.3871 51.0978 93.6196 51.243 93.8739 51.3374C94.1282 51.4318 94.3991 51.4735 94.67 51.46L94.68 51.5099Z" fill="#004951"/>
<path fill-rule="evenodd" clip-rule="evenodd" d="M62.83 126.01C97.5301 126.01 125.66 97.8801 125.66 63.18C125.66 28.4799 97.5301 0.349976 62.83 0.349976C28.13 0.349976 0 28.4799 0 63.18C0 97.8801 28.13 126.01 62.83 126.01ZM33.14 31.16L33.4 30.44C33.6736 29.6398 34.1891 28.9442 34.8753 28.4498C35.5614 27.9553 36.3843 27.6863 37.23 27.68H62.61C63.6801 27.6772 64.7085 28.0949 65.4735 28.8431C66.2386 29.5913 66.679 30.6101 66.7 31.68V61.2H33.14V31.16ZM66.72 65.43H33.14V95.5099C33.3274 96.366 33.7569 97.1502 34.3775 97.769C34.998 98.3878 35.7834 98.8151 36.64 99H63.22C66 97.96 66.72 96.87 66.72 93.87V65.43ZM82.76 73.09C82.59 72.93 82.43 72.79 82.29 72.64C78.65 68.9999 75.01 65.3533 71.37 61.7C71.1091 61.4296 70.9531 61.075 70.93 60.7V38.04C70.9367 37.6671 71.083 37.3102 71.34 37.04C74.0933 34.26 76.86 31.49 79.64 28.73C80.0251 28.2871 80.4998 27.9309 81.0327 27.685C81.5656 27.4391 82.1446 27.309 82.7315 27.3033C83.3184 27.2977 83.8998 27.4165 84.4374 27.6521C84.9749 27.8877 85.4564 28.2346 85.85 28.67C91.71 34.51 97.56 40.36 103.4 46.22C103.838 46.6102 104.188 47.0886 104.428 47.6237C104.668 48.1588 104.792 48.7386 104.792 49.325C104.792 49.9114 104.668 50.4911 104.428 51.0262C104.188 51.5613 103.838 52.0397 103.4 52.43C96.66 59.1833 89.92 65.9233 83.18 72.65L82.76 73.09ZM70.92 67.59V84.8L79.53 76.2L70.92 67.59Z" fill="#004951"/>
</svg>
