<svg width="126" height="126" viewBox="0 0 126 126" fill="none" xmlns="http://www.w3.org/2000/svg">
<path d="M64.93 49.7201V45.1101C64.93 43.55 64.91 41.9901 64.88 40.4301C64.9031 40.1262 65.0428 39.8433 65.27 39.6401C66.356 38.8307 67.4456 38.0349 68.5357 37.2386C70.0853 36.1068 71.6361 34.9741 73.18 33.8C73.3148 33.6804 73.4833 33.6056 73.6625 33.5859C73.8416 33.5662 74.0224 33.6025 74.18 33.6901C79.4076 35.7373 83.9974 39.1366 87.48 43.54C87.6027 43.6721 87.6834 43.8378 87.7119 44.0157C87.7265 44.1071 87.7271 44.1995 87.7139 44.2899C87.7015 44.376 87.6767 44.4603 87.64 44.54C86.58 47.5668 85.5233 50.5934 84.47 53.6201C84.4246 53.7948 84.3328 53.954 84.2043 54.0808C84.0758 54.2075 83.9153 54.2971 83.74 54.3401C82.0132 54.8519 80.3085 55.3733 78.6135 55.8917C77.2951 56.2949 75.9825 56.6963 74.67 57.0901C74.5869 57.1094 74.5023 57.1196 74.4174 57.1208C74.3427 57.1219 74.2678 57.1161 74.1938 57.1033C74.0358 57.0758 73.8849 57.0168 73.75 56.9301C70.93 54.8301 68.13 52.7101 65.35 50.5701C65.1046 50.3523 64.954 50.0472 64.93 49.7201Z" fill="#26B559"/>
<path d="M83.31 80.8101V80.6201C83.0929 80.6201 82.8767 80.6205 82.661 80.6208C81.2575 80.6232 79.8776 80.6254 78.43 80.53C78.2784 80.5162 78.1312 80.4718 77.9971 80.3997C77.8631 80.3275 77.745 80.229 77.65 80.1101C75.7966 77.5435 73.97 74.9601 72.17 72.3601C72.0193 72.0925 71.9798 71.7765 72.06 71.4801C73.08 68.2267 74.13 64.9801 75.21 61.7401C75.2386 61.674 75.2731 61.6106 75.3129 61.5508C75.3622 61.4767 75.4196 61.4081 75.4843 61.3463C75.601 61.2346 75.739 61.1476 75.89 61.0901C78.93 60.1301 82.02 59.1901 85.02 58.29C85.1778 58.2531 85.3415 58.2482 85.5012 58.2756C85.661 58.3031 85.8136 58.3625 85.95 58.4501C87.27 59.4001 88.585 60.3601 89.9 61.3201C91.215 62.28 92.53 63.24 93.85 64.1901C94.0124 64.2961 94.1405 64.4471 94.2186 64.6246C94.2968 64.8022 94.3215 64.9987 94.29 65.1901C93.8639 70.2861 92.225 75.2064 89.5099 79.54C89.3114 79.9822 88.9724 80.3462 88.5457 80.5759C88.1189 80.8055 87.6283 80.8879 87.15 80.8101C85.8708 80.745 84.5892 80.745 83.31 80.8101Z" fill="#26B559"/>
<path d="M41.96 80.16V80.0701L41.1495 80.0696C39.7979 80.0681 38.445 80.0668 37.12 80.1001C36.9392 80.1191 36.7568 80.0836 36.5964 79.998C36.436 79.9125 36.3049 79.7809 36.22 79.6201C33.2718 74.983 31.5988 69.6503 31.37 64.16C31.3727 64.0334 31.4027 63.9091 31.4579 63.7952C31.5132 63.6813 31.5923 63.5806 31.69 63.5001C34.47 61.5801 37.2533 59.6733 40.04 57.78C40.2672 57.6498 40.5365 57.6139 40.79 57.6801C43.6766 58.6401 46.5567 59.6201 49.43 60.6201C49.5613 60.6725 49.68 60.7523 49.7783 60.854C49.8765 60.9557 49.9521 61.077 50 61.2101C51.14 64.6768 52.2533 68.1501 53.34 71.6301C53.3715 71.7775 53.3727 71.9297 53.3434 72.0776C53.3142 72.2255 53.2552 72.3657 53.17 72.4901C51.39 74.9301 49.5833 77.3568 47.75 79.7701C47.5469 79.9972 47.2638 80.137 46.96 80.16H41.96Z" fill="#26B559"/>
<path d="M57.34 74.5601H62.64C63.7933 74.5601 64.9466 74.569 66.1 74.5779C66.6766 74.5823 67.2533 74.5868 67.83 74.5901C68.0451 74.569 68.2618 74.6095 68.4548 74.7069C68.6478 74.8042 68.8091 74.9545 68.92 75.1401C70.62 77.5801 72.34 80.0067 74.08 82.42C74.2054 82.5667 74.2885 82.7448 74.3202 82.9351C74.3519 83.1254 74.3311 83.3207 74.2599 83.5001C73.18 86.6001 72.1266 89.7034 71.1 92.8101C71.0359 92.985 70.9242 93.1384 70.7776 93.2533C70.631 93.3682 70.4551 93.4398 70.27 93.4601C65.0975 94.7544 59.6779 94.6854 54.54 93.2601C54.3611 93.2249 54.1966 93.1378 54.0668 93.0098C53.937 92.8818 53.8477 92.7184 53.81 92.54C53.4238 91.2542 53.0326 89.9684 52.6411 88.6819C52.0797 86.8368 51.5179 84.9902 50.97 83.1401C50.8968 82.8224 50.9506 82.4886 51.12 82.2101C52.8933 79.7834 54.6833 77.3734 56.49 74.9801C56.7078 74.7347 57.0128 74.5841 57.34 74.5601Z" fill="#26B559"/>
<path d="M60.75 40.4601V45.0701C60.75 46.5801 60.73 48.1001 60.78 49.6301C60.8057 49.8276 60.7719 50.0283 60.6828 50.2065C60.5937 50.3846 60.4534 50.5322 60.28 50.6301C57.4 52.5568 54.53 54.5001 51.67 56.4601C51.5175 56.5786 51.3364 56.6549 51.1451 56.6812C50.9537 56.7075 50.7588 56.683 50.58 56.6101C47.84 55.6567 45.09 54.7234 42.33 53.8101C42.1546 53.7615 41.9958 53.666 41.8707 53.5338C41.7455 53.4017 41.6589 53.2379 41.62 53.0601C40.6533 49.9268 39.6733 46.8 38.68 43.6801C38.6107 43.5107 38.5946 43.3245 38.6339 43.1458C38.6594 43.03 38.7073 42.921 38.7744 42.8246C38.8108 42.7723 38.8528 42.7239 38.9 42.6801C42.2988 38.6838 46.6346 35.5918 51.52 33.6801C51.6728 33.6072 51.8439 33.5814 52.0114 33.6064C52.1788 33.6313 52.3351 33.7058 52.46 33.8201C53.1948 34.3615 53.9304 34.902 54.6662 35.4426C56.5536 36.8295 58.442 38.217 60.3199 39.6201C60.4434 39.7249 60.5449 39.853 60.6187 39.9972C60.6925 40.1414 60.7372 40.2987 60.75 40.4601Z" fill="#26B559"/>
<path fill-rule="evenodd" clip-rule="evenodd" d="M125.66 62.8301C125.66 97.53 97.5301 125.66 62.83 125.66C28.13 125.66 0 97.53 0 62.8301C0 28.13 28.13 0 62.83 0C97.5301 0 125.66 28.13 125.66 62.8301ZM60.74 98.6101H64.93C65.3532 98.552 65.7774 98.499 66.203 98.4459C67.0949 98.3346 67.9929 98.2225 68.9 98.0601C77.5285 96.5844 85.3108 91.9811 90.7599 85.1301C95.1148 79.8215 97.8011 73.3428 98.48 66.5101C98.4958 66.3937 98.5152 66.2716 98.5352 66.1461C98.5905 65.7976 98.65 65.423 98.65 65.0701V60.8701C98.5931 60.4561 98.5422 60.041 98.4913 59.6259C98.3811 58.7277 98.271 57.8292 98.1 56.9401C97.1787 51.5049 95.0156 46.3555 91.7791 41.8928C88.5426 37.4301 84.3201 33.7743 79.44 31.2101C73.9088 28.1349 67.6185 26.6923 61.3 27.05C53.4128 27.3693 45.8691 30.3634 39.91 35.54C33.7558 40.6514 29.5239 47.7046 27.91 55.54C26.8929 59.9901 26.7758 64.5988 27.5658 69.0947C28.3558 73.5907 30.0368 77.8833 32.5099 81.7201C35.0325 85.8403 38.3764 89.3971 42.3334 92.1687C46.2904 94.9403 50.7757 96.8674 55.5099 97.8301C56.5349 98.0571 57.5836 98.1799 58.6331 98.303C59.1093 98.3588 59.5856 98.4146 60.06 98.4801C60.29 98.5101 60.51 98.6101 60.74 98.6101Z" fill="#26B559"/>
</svg>
