<svg width="126" height="126" viewBox="0 0 126 126" fill="none" xmlns="http://www.w3.org/2000/svg">
<path d="M65.8414 41.4904V34.0874C65.8414 31.5823 65.8093 29.0771 65.7611 26.5721C65.7983 26.0842 66.0227 25.6296 66.3874 25.3035C68.1306 24.0046 69.8793 22.7275 71.629 21.4498L71.6299 21.4492L71.636 21.4448C74.1237 19.6281 76.6134 17.8098 79.092 15.9253C79.3084 15.7332 79.5792 15.613 79.8669 15.5814C80.1546 15.5498 80.4451 15.6083 80.6981 15.7488C89.0942 19.0363 96.4661 24.495 102.06 31.5663C102.257 31.7783 102.386 32.0442 102.432 32.3302C102.478 32.6161 102.438 32.9091 102.317 33.1721C100.614 38.0325 98.9169 42.8928 97.2251 47.7532C97.1523 48.0337 97.0048 48.2894 96.7984 48.4929C96.592 48.6965 96.3343 48.8405 96.0527 48.9094C93.2795 49.7313 90.5419 50.5684 87.8198 51.4008L87.8185 51.4011L87.7824 51.4121C85.6771 52.0559 83.5811 52.6968 81.4851 53.3254C81.2341 53.3835 80.974 53.3906 80.7202 53.3466C80.4664 53.3024 80.2241 53.2079 80.0075 53.0685C75.4782 49.6962 70.981 46.2919 66.516 42.8553C66.1219 42.5055 65.8799 42.0157 65.8414 41.4904Z" fill="#CCBA1C"/>
<path d="M95.3621 91.416V91.1108C95.0124 91.1108 94.6642 91.1115 94.317 91.1121H94.309C92.0585 91.1157 89.8455 91.1194 87.5241 90.9663C87.2806 90.9441 87.0442 90.8729 86.8289 90.757C86.6136 90.6411 86.4239 90.4829 86.2713 90.2919C83.2946 86.1703 80.3608 82.0219 77.4698 77.8467C77.2277 77.417 77.1642 76.9094 77.2931 76.4335C78.9314 71.2091 80.6177 65.9955 82.3524 60.7926C82.4555 60.5546 82.6053 60.3395 82.7929 60.1602C82.9805 59.981 83.202 59.8411 83.4445 59.7489C88.3271 58.2073 93.2901 56.6976 98.1085 55.2524C98.362 55.193 98.6248 55.1852 98.8814 55.2292C99.138 55.2734 99.3831 55.3688 99.6021 55.5094C101.71 57.0262 103.81 58.559 105.91 60.0917L105.945 60.1173L105.946 60.1182C108.058 61.6598 110.171 63.2014 112.291 64.7269C112.551 64.8972 112.757 65.1396 112.883 65.4248C113.008 65.7098 113.048 66.0254 112.997 66.3328C112.313 74.5164 109.681 82.4174 105.32 89.3766C105.001 90.0864 104.457 90.6711 103.771 91.0399C103.086 91.4087 102.298 91.5409 101.53 91.416C99.475 91.3115 97.4166 91.3115 95.3621 91.416Z" fill="#CCBA1C"/>
<path d="M28.9486 90.3722V90.2277C28.5142 90.2277 28.0785 90.2273 27.6436 90.2268H27.6297C25.4644 90.2246 23.2976 90.2224 21.175 90.2759C20.8846 90.3064 20.5916 90.2494 20.334 90.1119C20.0764 89.9746 19.8658 89.7632 19.7294 89.505C14.9942 82.0586 12.3073 73.4951 11.9398 64.6787C11.9442 64.4755 11.9923 64.2756 12.081 64.0927C12.1697 63.9098 12.2969 63.7482 12.4537 63.6189C16.9188 60.5356 21.3891 57.4738 25.8649 54.4335C26.2299 54.2242 26.6624 54.1666 27.0695 54.2728C31.7058 55.8145 36.3315 57.3882 40.9464 58.994C41.1573 59.0782 41.348 59.2063 41.5058 59.3696C41.6636 59.533 41.785 59.7279 41.8619 59.9415C43.6929 65.5084 45.481 71.0861 47.2263 76.6744C47.277 76.911 47.2789 77.1556 47.2319 77.3931C47.185 77.6305 47.0902 77.8558 46.9533 78.0554C44.0944 81.9736 41.1927 85.8705 38.2481 89.746C37.9219 90.1107 37.4672 90.3351 36.9792 90.3722H28.9486Z" fill="#CCBA1C"/>
<path d="M53.6508 81.3795H62.1633C64.015 81.3795 65.8667 81.3938 67.7183 81.4081L68.7611 81.416C69.2142 81.4193 69.6673 81.4226 70.1205 81.4254L70.4991 81.4277C70.8447 81.3938 71.1928 81.4589 71.5027 81.6152C71.8127 81.7716 72.0718 82.0129 72.2498 82.3109C74.9803 86.2291 77.7428 90.126 80.5374 94.0013C80.7389 94.2368 80.8723 94.5227 80.9233 94.8284C80.9742 95.1339 80.9408 95.4478 80.8265 95.7357C79.0919 100.714 77.4001 105.697 75.7512 110.686C75.6483 110.967 75.4689 111.214 75.2334 111.398C74.9979 111.582 74.7155 111.697 74.4181 111.73C66.1104 113.808 57.4058 113.698 49.1537 111.409C48.8665 111.352 48.6021 111.212 48.3937 111.007C48.1852 110.801 48.0419 110.539 47.9813 110.253C47.3611 108.188 46.7327 106.123 46.104 104.057L46.1003 104.045L46.0999 104.043C45.1996 101.085 44.2986 98.124 43.4198 95.1577C43.3023 94.6475 43.3888 94.1116 43.6608 93.6642C46.509 89.7673 49.3839 85.8972 52.2857 82.054C52.6356 81.6599 53.1253 81.4181 53.6508 81.3795Z" fill="#CCBA1C"/>
<path d="M59.1278 26.6204V34.0232C59.1278 34.5618 59.1262 35.1012 59.1246 35.6414C59.1191 37.5331 59.1135 39.4346 59.1759 41.3458C59.2173 41.6631 59.1629 41.9854 59.0199 42.2715C58.8768 42.5576 58.6515 42.7944 58.3729 42.9517C53.7472 46.0457 49.1377 49.1664 44.5441 52.3138C44.2992 52.504 44.0084 52.6265 43.7011 52.6688C43.3938 52.7111 43.0807 52.6716 42.7934 52.5546C38.3926 51.0237 33.9758 49.5249 29.5429 48.0582C29.2612 47.9802 29.0061 47.8269 28.8052 47.6146C28.6042 47.4025 28.465 47.1394 28.4026 46.8539C26.85 41.8223 25.276 36.8013 23.6806 31.791C23.5692 31.5192 23.5434 31.22 23.6065 30.9331C23.6697 30.6462 23.8187 30.3853 24.0338 30.1852C29.4928 23.7679 36.4566 18.8025 44.3032 15.7327C44.5486 15.6155 44.8234 15.5743 45.0924 15.6144C45.3614 15.6544 45.6123 15.7739 45.8129 15.9575C46.9895 16.8241 48.1681 17.6899 49.3462 18.5554C52.3812 20.785 55.4174 23.0157 58.4371 25.2714C58.6353 25.4397 58.7984 25.6455 58.9169 25.877C59.0355 26.1084 59.1072 26.3611 59.1278 26.6204Z" fill="#CCBA1C"/>
<path fill-rule="evenodd" clip-rule="evenodd" d="M69.1644 69.1135C70.0239 69.7045 71.0534 70 72.2528 70C73.4523 70 74.4793 69.7045 75.334 69.1135C76.1935 68.5225 76.8515 67.6666 77.308 66.5461C77.7693 65.4208 78 64.0638 78 62.4752C78 60.896 77.7693 59.5485 77.308 58.4326C76.8515 57.3168 76.1935 56.4657 75.334 55.8794C74.4745 55.2931 73.4474 55 72.2528 55C71.0582 55 70.0312 55.2931 69.1716 55.8794C68.317 56.4657 67.659 57.3168 67.1977 58.4326C66.7412 59.5437 66.5105 60.8912 66.5057 62.4752C66.5057 64.0591 66.7339 65.4137 67.1904 66.5391C67.6517 67.6595 68.3097 68.5177 69.1644 69.1135ZM74.4599 66.4397C73.9209 67.3334 73.1852 67.7802 72.2528 67.7802C71.6313 67.7802 71.0947 67.5815 70.643 67.1844C70.1914 66.7825 69.8418 66.1868 69.5941 65.3972C69.3513 64.6075 69.2324 63.6335 69.2372 62.4752C69.2421 60.7446 69.514 59.4326 70.053 58.5391C70.5921 57.6406 71.3253 57.1915 72.2528 57.1915C72.8696 57.1915 73.4037 57.3925 73.8553 57.7943C74.3069 58.1915 74.6566 58.7825 74.9043 59.5674C75.1519 60.3523 75.2757 61.3215 75.2757 62.4752C75.2757 64.2198 75.0038 65.5414 74.4599 66.4397Z" fill="#CCBA1C"/>
<path d="M56.5422 69.39C57.3094 69.7446 58.1786 69.922 59.1499 69.922C60.2036 69.922 61.1311 69.7092 61.9324 69.2837C62.7385 68.8534 63.3674 68.2648 63.819 67.5177C64.2755 66.766 64.5037 65.9102 64.5037 64.9503C64.5037 64.0189 64.2997 63.1915 63.8918 62.4681C63.4839 61.7446 62.9255 61.1772 62.2165 60.766C61.5075 60.3499 60.7014 60.1418 59.7982 60.1418C59.196 60.1418 58.6424 60.2482 58.1374 60.4609C57.6324 60.6691 57.2414 60.9314 56.9646 61.2482H56.8772L57.307 57.3972H63.7243V55.1986H55.0708L54.2914 62.688L56.7315 63.078C56.9841 62.8085 57.3264 62.5911 57.7586 62.4255C58.1908 62.26 58.6303 62.1797 59.077 62.1844C59.6258 62.1844 60.1114 62.3074 60.5338 62.5532C60.9563 62.7943 61.289 63.1277 61.5318 63.5532C61.7746 63.9788 61.8936 64.4657 61.8887 65.0142C61.8936 65.5532 61.777 66.0331 61.5391 66.4539C61.3011 66.8748 60.9758 67.2034 60.563 67.4397C60.1502 67.6761 59.6792 67.7943 59.1499 67.7943C58.4749 67.7943 57.897 67.6075 57.4163 67.234C56.9355 66.8558 56.6708 66.3688 56.6223 65.7731H54C54.0291 66.5768 54.2671 67.2908 54.7138 67.9149C55.1655 68.5391 55.7749 69.0308 56.5422 69.39Z" fill="#CCBA1C"/>
<path d="M48.1548 67.4489V64.7429H45.4489V63.1548H48.1548V60.4489H49.7429V63.1548H52.4489V64.7429H49.7429V67.4489H48.1548Z" fill="#CCBA1C"/>
<path fill-rule="evenodd" clip-rule="evenodd" d="M125.66 62.8301C125.66 97.53 97.5301 125.66 62.83 125.66C28.13 125.66 0 97.53 0 62.8301C0 28.13 28.13 0 62.83 0C97.5301 0 125.66 28.13 125.66 62.8301ZM59.1117 120H65.8414C66.513 119.908 67.1863 119.824 67.8617 119.739L67.8833 119.737L67.8848 119.736C69.3177 119.558 70.7603 119.378 72.2177 119.117C86.0762 116.747 98.5756 109.355 107.328 98.3533C114.322 89.8286 118.637 79.4247 119.727 68.4525L119.739 68.365C119.751 68.2821 119.764 68.1976 119.777 68.1118C119.79 68.0317 119.803 67.9504 119.816 67.8683C119.904 67.3086 120 66.7069 120 66.14V59.3955C119.909 58.7305 119.827 58.0635 119.745 57.3967C119.568 55.9546 119.391 54.5121 119.117 53.0846C117.637 44.3564 114.163 36.0874 108.965 28.921C103.766 21.7545 96.9844 15.884 89.1463 11.7662C80.2625 6.82788 70.1595 4.51135 60.0112 5.08594C47.3434 5.59851 35.2273 10.4066 25.6561 18.7195C15.7717 26.9275 8.97466 38.2538 6.38252 50.8363C4.7489 57.9824 4.56093 65.3831 5.82973 72.6029C7.09853 79.8228 9.79843 86.7159 13.7707 92.8773C17.8222 99.4938 23.193 105.205 29.5484 109.656C35.9039 114.107 43.1078 117.202 50.7116 118.748C52.3584 119.112 54.0435 119.31 55.7297 119.507C56.4939 119.597 57.2583 119.686 58.0196 119.791C58.1727 119.811 58.3231 119.85 58.4729 119.89C58.6847 119.945 58.8954 120 59.1117 120Z" fill="#CCBA1C"/>
</svg>
