<svg width="126" height="127" viewBox="0 0 126 127" fill="none" xmlns="http://www.w3.org/2000/svg">
<path fill-rule="evenodd" clip-rule="evenodd" d="M125.82 63.48C125.82 98.1801 97.6901 126.31 62.99 126.31C28.29 126.31 0.160034 98.1801 0.160034 63.48C0.160034 28.78 28.29 0.650024 62.99 0.650024C97.6901 0.650024 125.82 28.78 125.82 63.48ZM105.42 64.32C106.041 63.7386 106.567 63.0638 106.98 62.32L106.95 61.01C106.832 60.6832 106.714 60.3564 106.595 60.0298C106.351 59.3543 106.105 58.679 105.86 58.0038L105.851 57.9788L105.849 57.9727C104.961 55.5281 104.073 53.084 103.21 50.63C103.017 49.9301 102.617 49.305 102.062 48.8372C101.507 48.3695 100.823 48.0811 100.1 48.01C99.6005 47.9393 99.1006 47.8697 98.6007 47.8L98.535 47.7909L98.5333 47.7907C95.9437 47.4301 93.353 47.0693 90.79 46.57C87.9 46.02 85.1601 46.05 82.5701 47.64C80.9201 48.65 79.8301 50.1 80.0701 52C80.1544 52.6068 80.0851 53.2251 79.8684 53.7982C79.6518 54.3712 79.2947 54.8807 78.83 55.28C78.6673 55.4512 78.5211 55.6371 78.3758 55.822C78.1816 56.069 77.9888 56.3141 77.7601 56.52C77.5146 56.7443 77.1925 56.866 76.86 56.86C75.8768 56.7587 74.8781 56.6342 73.8719 56.5087L73.8674 56.5081L73.8642 56.5078L73.8592 56.5072C72.8842 56.3856 71.9021 56.2631 70.92 56.16C69.8258 55.9861 68.7173 55.9191 67.61 55.96C66.89 56.0882 66.2416 56.475 65.7867 57.0478C65.3319 57.6205 65.1019 58.3397 65.14 59.07C65.1172 59.819 65.3754 60.5494 65.864 61.1176C66.3526 61.6857 67.0361 62.0505 67.78 62.14C70.7612 62.55 73.757 62.909 76.7424 63.2667C77.252 63.3278 77.7612 63.3888 78.27 63.45C78.8577 63.5305 79.4563 63.4534 80.0045 63.2268C80.5526 63.0001 81.0307 62.632 81.39 62.16L83.03 60.17L86.22 67.76C86.07 67.8673 85.9202 67.9737 85.7706 68.0793C85.6637 68.1548 85.5569 68.2299 85.4503 68.3047L85.2807 68.4236C85.1112 68.5423 84.9421 68.6603 84.7735 68.778C83.6234 69.5809 82.4993 70.3655 81.4401 71.22C80.6467 71.8351 79.9895 72.608 79.5101 73.49C77.9697 76.4517 76.4986 79.4448 75.0268 82.4395L75.0262 82.4409C74.7421 83.019 74.458 83.5971 74.1733 84.175L73.8801 84.77C73.8062 84.9186 73.7321 85.0671 73.6578 85.2155C73.4914 85.5477 73.3241 85.8792 73.1569 86.2107L73.1453 86.2336C72.5921 87.3298 72.0393 88.4254 71.52 89.54C71.2805 89.9997 71.137 90.5033 71.0983 91.0202C71.0596 91.537 71.1266 92.0565 71.295 92.5466C71.4635 93.0369 71.7299 93.4877 72.0781 93.8716C72.4263 94.2556 72.8491 94.5646 73.3206 94.78C73.792 94.9953 74.3024 95.1125 74.8206 95.1243C75.3388 95.1361 75.854 95.0423 76.3348 94.8487C76.8156 94.655 77.252 94.3656 77.6174 93.9979C77.9827 93.6302 78.2694 93.192 78.46 92.71C80.1126 89.4133 81.7506 86.102 83.3865 82.7947L84.21 81.13L84.7601 80.06L84.8074 80.1136L84.8421 80.1526C84.8923 80.2086 84.9401 80.261 84.9858 80.311L85.0162 80.3443L85.0686 80.402C85.1479 80.4896 85.2211 80.5728 85.29 80.66L90.29 86.72C90.6383 87.1405 90.9865 87.5613 91.3349 87.9822L91.3392 87.9875C92.8701 89.8375 94.4035 91.6904 95.9501 93.53C96.2541 93.9647 96.645 94.3314 97.0981 94.6071C97.5513 94.8828 98.0567 95.0613 98.5825 95.1313C99.1082 95.2015 99.6428 95.1616 100.152 95.0143C100.662 94.867 101.135 94.6154 101.542 94.2756C101.95 93.9358 102.282 93.5151 102.518 93.0402C102.754 92.5652 102.889 92.0464 102.914 91.5166C102.939 90.9868 102.854 90.4575 102.664 89.9623C102.474 89.4672 102.183 89.0169 101.81 88.64C98.6034 84.7734 95.3934 80.9033 92.1801 77.03L91.6 76.28L91.92 76.48C92.173 76.2089 92.4241 75.9358 92.674 75.6616C92.9723 75.3345 93.2691 75.0057 93.5658 74.6771L93.5731 74.669C94.8041 73.3054 96.0344 71.9426 97.3701 70.69C98.135 70.0821 98.6678 69.2297 98.879 68.2756C99.0901 67.3216 98.9669 66.324 98.53 65.45C96.9834 61.7967 95.4467 58.13 93.92 54.45C93.79 54.17 93.67 53.85 93.52 53.45C93.8024 53.4924 94.0793 53.5353 94.3519 53.5776L94.3743 53.5811C95.2519 53.7172 96.086 53.8466 96.92 53.93C97.174 53.9364 97.4183 54.029 97.6127 54.1926C97.8072 54.3561 97.9402 54.5809 97.9901 54.83C98.8834 57.41 99.8 59.98 100.74 62.54C101.52 64.63 103.71 65.52 105.42 64.32ZM32.5701 73.74C32.1977 72.8588 31.8352 71.9843 31.4753 71.116L31.4746 71.1142L31.4711 71.1058C30.7502 69.3666 30.0394 67.6519 29.28 65.96C28.8839 65.1688 28.7671 64.2668 28.9486 63.4007C29.1302 62.5347 29.5994 61.7556 30.28 61.19C32.6845 58.7937 35.1225 56.4241 37.5611 54.054C38.1042 53.5261 38.6473 52.9982 39.1901 52.47C39.2339 52.4331 39.2785 52.3972 39.3238 52.3621C39.3669 52.3287 39.4107 52.2961 39.4551 52.2644C39.5048 52.229 39.5552 52.1946 39.6063 52.1614C39.6438 52.137 39.6817 52.1132 39.72 52.09L39.65 51.87C39.3715 51.7954 39.0934 51.7203 38.8156 51.6453L38.8079 51.6433C37.8213 51.3771 36.8367 51.1114 35.84 50.87C35.66 50.87 35.3701 51.08 35.2001 51.27C34.9115 51.582 34.6239 51.8954 34.3367 52.2097C34.0507 52.5226 33.765 52.8364 33.4794 53.1502L33.4783 53.1513C32.2126 54.5417 30.9448 55.9346 29.63 57.27C29.0683 57.8508 28.36 58.2689 27.58 58.48C26.945 58.6251 26.2798 58.5544 25.6894 58.2791C25.099 58.0038 24.6172 57.5397 24.32 56.96C23.9786 56.4067 23.8261 55.7574 23.8857 55.1099C23.9452 54.4624 24.2134 53.8518 24.6501 53.37C27.1701 50.56 29.73 47.79 32.3 45.03C32.7038 44.5956 33.2234 44.2858 33.7974 44.137C34.3715 43.9882 34.9761 44.0065 35.54 44.19C39.54 45.19 43.54 46.19 47.54 47.27C48.6949 47.627 49.7591 48.229 50.66 49.035C51.5609 49.8409 52.2772 50.8318 52.7601 51.94C53.1089 52.6906 53.252 53.5204 53.1747 54.3445C53.0974 55.1686 52.8025 55.9574 52.3201 56.63C52.1276 56.9623 52.0634 57.3537 52.14 57.73C52.3672 58.7504 52.668 59.7531 53.04 60.73C53.1146 60.9034 53.2241 61.0595 53.3618 61.1885C53.4994 61.3176 53.6622 61.4169 53.84 61.48C55.3288 61.9332 56.8245 62.362 58.321 62.7911L58.3238 62.7918L58.3421 62.7971C59.3817 63.0952 60.4217 63.3934 61.46 63.7C61.9104 63.7932 62.3352 63.9829 62.7052 64.2561C63.0752 64.5294 63.3815 64.8796 63.603 65.2827C63.8245 65.6857 63.9559 66.132 63.9882 66.5908C64.0205 67.0496 63.9529 67.5099 63.79 67.94C63.5585 68.672 63.0551 69.2874 62.3836 69.6594C61.7121 70.0314 60.9234 70.1319 60.1801 69.94C57.3012 69.1707 54.4361 68.3397 51.5733 67.5095C50.9755 67.3361 50.3777 67.1627 49.78 66.99C49.2384 66.8332 48.7478 66.536 48.358 66.1286C47.9681 65.7212 47.6929 65.218 47.5601 64.67C47.3301 63.92 47.09 63.16 46.83 62.34L41.83 67.76L41.46 67.51L42.53 68.71C44.7434 71.17 46.9601 73.6234 49.1801 76.07C49.7447 76.6306 50.1426 77.3367 50.3298 78.11C50.5169 78.8833 50.4859 79.6934 50.2401 80.45C49.6092 82.6923 49.0047 84.9445 48.4001 87.1971L48.3987 87.2021L48.3982 87.2039C47.9492 88.877 47.5001 90.5504 47.04 92.22C46.8719 93.0464 46.43 93.792 45.7859 94.3363C45.1418 94.8807 44.3329 95.192 43.4901 95.22C42.7067 95.2921 41.9217 95.1012 41.2589 94.6774C40.5962 94.2537 40.0934 93.6213 39.83 92.88C39.5609 92.0323 39.5195 91.1288 39.71 90.26C40.3617 87.5143 41.119 84.7989 41.8771 82.0808C41.9915 81.6707 42.106 81.2604 42.22 80.85C42.3361 80.6064 42.3666 80.3308 42.3067 80.0677C42.2468 79.8046 42.1 79.5694 41.89 79.4C41.4543 78.9711 41.0405 78.5205 40.65 78.05C40.3499 78.2238 40.0552 78.3969 39.7639 78.5681L39.7616 78.5695C38.9475 79.0476 38.1596 79.5105 37.35 79.93C32.2234 82.5967 27.0867 85.2634 21.94 87.93C21.1166 88.4417 20.1302 88.6229 19.1786 88.4374C18.2271 88.252 17.381 87.7134 16.8101 86.93C16.4755 86.4778 16.2455 85.9572 16.1367 85.4053C16.0278 84.8535 16.0428 84.2844 16.1806 83.7391C16.3183 83.1938 16.5754 82.6859 16.9333 82.252C17.2912 81.8181 17.7409 81.4691 18.25 81.23C19.3868 80.6318 20.5344 80.0335 21.6819 79.4352L21.6916 79.4301C22.4588 79.0301 23.226 78.6301 23.9901 78.23L32.5701 73.74ZM51.5834 46.3816C52.5371 47.0364 53.6633 47.3942 54.8201 47.41C56.3781 47.4155 57.8755 46.8065 58.9875 45.7151C60.0995 44.6237 60.7364 43.1379 60.7601 41.58C60.7659 40.4232 60.4291 39.2905 59.7923 38.3247C59.1555 37.3589 58.2471 36.6033 57.1815 36.1529C56.1159 35.7025 54.9409 35.5776 53.8044 35.7939C52.668 36.0102 51.621 36.558 50.7953 37.3683C49.9697 38.1787 49.4024 39.2153 49.1649 40.3475C48.9274 41.4797 49.0304 42.6569 49.4608 43.7307C49.8911 44.8044 50.6297 45.7269 51.5834 46.3816ZM61.0601 83.48C62.2203 83.484 63.3533 83.8323 64.3154 84.4809C65.2775 85.1295 66.0254 86.049 66.4643 87.123C66.9033 88.197 67.0135 89.3772 66.781 90.5139C66.5486 91.6507 65.9839 92.6929 65.1586 93.5084C64.3333 94.3239 63.2844 94.876 62.145 95.0948C61.0056 95.3137 59.8268 95.1893 58.7581 94.7375C57.6894 94.2857 56.7789 93.5269 56.1419 92.5571C55.505 91.5873 55.1702 90.4503 55.1801 89.29C55.2011 87.7435 55.8295 86.2673 56.9297 85.1803C58.0298 84.0932 59.5135 83.4825 61.0601 83.48ZM86.8126 32.7369C85.8506 32.0909 84.7189 31.744 83.5601 31.74C81.9986 31.7479 80.5036 32.3724 79.4004 33.4774C78.2972 34.5825 77.6753 36.0786 77.67 37.64C77.676 38.7988 78.0248 39.93 78.6725 40.8909C79.3202 41.8518 80.2379 42.5995 81.3098 43.0398C82.3818 43.4801 83.56 43.5933 84.6962 43.365C85.8323 43.1367 86.8755 42.5773 87.6942 41.7572C88.5129 40.9371 89.0706 39.8929 89.2969 38.7564C89.5233 37.6199 89.4081 36.4418 88.966 35.3706C88.5239 34.2994 87.7747 33.383 86.8126 32.7369Z" fill="#719DF4"/>
</svg>
