<svg width="126" height="126" viewBox="0 0 126 126" fill="none" xmlns="http://www.w3.org/2000/svg">
<path fill-rule="evenodd" clip-rule="evenodd" d="M125.66 62.83C125.66 97.53 97.53 125.66 62.83 125.66C28.1299 125.66 0 97.53 0 62.83C0 28.13 28.1299 0 62.83 0C97.53 0 125.66 28.13 125.66 62.83ZM38.9543 32.5347C38.9798 31.2219 39.3925 29.946 40.1406 28.8669C40.8887 27.788 41.939 26.954 43.1594 26.4698C44.3798 25.9856 45.7161 25.8726 47.0005 26.1451C48.2849 26.4177 49.4601 27.0636 50.3787 28.0017C51.2973 28.9398 51.9184 30.1284 52.1639 31.4182C52.4094 32.708 52.2684 34.0416 51.7586 35.2516C51.2488 36.4615 50.3929 37.494 49.2985 38.2194C48.204 38.9446 46.9197 39.3304 45.6067 39.3284C44.7192 39.3351 43.8395 39.1628 43.0201 38.822C42.2006 38.4812 41.4583 37.9786 40.8374 37.3446C40.2165 36.7104 39.7297 35.9578 39.4062 35.1313C39.0826 34.3049 38.929 33.4218 38.9543 32.5347ZM100.468 64.2919C100.361 64.7286 100.146 65.1318 99.8443 65.4647C99.5424 65.7976 99.1624 66.0498 98.7387 66.1984C98.2756 66.3505 97.7782 66.3632 97.308 66.2351C96.8378 66.1071 96.4153 65.8436 96.0927 65.4777C95.7701 65.1116 95.5616 64.6588 95.4928 64.1753C95.4241 63.6918 95.4981 63.1987 95.7059 62.7568C95.9136 62.3151 96.2458 61.944 96.6617 61.6893C97.0775 61.4347 97.5586 61.3076 98.0456 61.324C98.5326 61.3403 99.0042 61.4993 99.4021 61.7812C99.7999 62.0632 100.107 62.4558 100.284 62.9105C100.342 63.0569 100.404 63.1979 100.467 63.339L100.468 63.3412V64.2919ZM43.4908 40.6853C43.3363 40.5011 43.1913 40.3052 43.0565 40.0985L43.2075 40.075C42.9061 39.8173 42.5906 39.5859 42.2634 39.3824C41.2566 38.821 40.368 37.9774 39.6672 36.9176C39.5982 36.77 39.4849 36.6625 39.3522 36.6185C39.2195 36.5745 39.0782 36.5977 38.9592 36.6829C37.6613 37.298 36.5523 38.4059 35.7897 39.8491C35.027 41.2925 34.6495 42.9978 34.7109 44.723C34.8006 50.0812 34.8997 55.4363 34.9988 60.7915C35.098 66.1467 35.1971 71.502 35.2868 76.8601C35.2839 77.3203 35.1723 77.7693 34.9658 78.1512C32.6824 82.2958 30.3723 86.4236 28.0635 90.5488L28.0621 90.5514L28.0564 90.5616L26.7713 92.8583C26.61 93.1427 26.4649 93.4408 26.337 93.7502C26.0795 94.3319 25.9654 94.9949 26.0091 95.6566C26.0527 96.3182 26.2522 96.9493 26.5824 97.4711C26.8642 97.9519 27.238 98.3379 27.6699 98.594C28.1018 98.8502 28.5783 98.9685 29.0562 98.9381C29.5342 98.9078 29.9985 98.73 30.4072 98.4205C30.8159 98.1111 31.1562 97.6799 31.3972 97.1659C33.116 94.1036 34.8287 91.0374 36.5423 87.9696L36.5458 87.9634L36.605 87.8575C37.8917 85.5538 39.179 83.2493 40.4697 80.9447C40.9099 80.1702 41.1383 79.2402 41.1211 78.2921C41.1098 77.6078 41.0978 76.9236 41.0857 76.2393C41.0373 73.4958 40.989 70.7509 40.989 67.9983V67.1885C41.2374 67.2063 41.4864 67.2063 41.7348 67.1885C42.0152 67.1292 42.3036 67.1838 42.557 67.3446C42.8104 67.5052 43.0154 67.7634 43.1414 68.0806C45.1051 71.6721 47.1254 75.2872 49.1174 78.8085C49.299 79.1311 49.4451 79.4824 49.5517 79.8531C50.1917 81.9321 50.8212 84.0199 51.4508 86.1083L51.455 86.1222C51.8549 87.4486 52.2549 88.7751 52.6577 90.1C53.2619 92.2126 53.8944 94.3254 54.5458 96.4381C54.662 96.9164 54.8568 97.3594 55.118 97.739C55.3793 98.1187 55.7011 98.4265 56.0632 98.6433C56.4253 98.86 56.8196 98.9807 57.2212 98.9978C57.6228 99.0149 58.0228 98.928 58.396 98.7426C58.7691 98.5571 59.1072 98.2773 59.3887 97.9209C59.6702 97.5643 59.8889 97.1389 60.0311 96.6718C60.1733 96.2045 60.2358 95.7056 60.2147 95.2067C60.1935 94.7078 60.0891 94.2198 59.9081 93.7737C58.2277 88.179 56.5346 82.5801 54.829 76.9774C54.6127 76.2871 54.334 75.6295 53.9982 75.0173C52.8941 73.0225 51.7844 71.0381 50.6753 69.0547C49.7548 67.4088 48.8346 65.7634 47.9184 64.1133C47.7316 63.7631 47.621 63.3586 47.5975 62.9395C47.503 60.4512 47.4558 57.9629 47.4558 55.4745C47.4558 54.829 47.3331 54.4768 46.7761 54.3829C46.3889 54.3007 46.0203 54.1167 45.6947 53.8435C45.3692 53.5703 45.0942 53.214 44.888 52.7983C44.3866 51.9747 43.8862 51.1547 43.3871 50.3365C42.3071 48.5664 41.233 46.8059 40.1676 45.0399L39.8655 44.5117C40.0044 44.5167 40.1363 44.5881 40.2337 44.7113C40.7851 45.296 41.335 45.8828 41.8849 46.4695L41.9389 46.527C43.3576 48.0405 44.7763 49.5541 46.2191 51.0377C46.6728 51.5168 47.2041 51.8691 47.7768 52.0707C49.2174 52.5675 50.6642 53.0442 52.1104 53.5206L52.1218 53.5243C53.7804 54.0706 55.4382 54.6167 57.0854 55.1927C58.4419 55.6747 59.6001 55.6294 60.4451 54.0265L60.8181 54.1847L63.6757 57.5051L88 84C89.0007 84.8568 93 83 94 82.3727C95 81.7454 96.5 80.5 96.471 79.0282C96.442 77.5565 92.5 74 90.6688 76.1442C90.5191 76.2523 90.0711 77.6085 89.6021 79.0282C89.0474 80.7076 88.4633 82.476 88.3087 82.3727C88.1043 82.2362 72.843 65.4609 64.1953 55.9484C64.803 55.7677 65.3201 55.4388 65.6847 55.0002C66.0584 54.5508 66.2553 54.006 66.251 53.434C66.2937 52.8552 66.1292 52.2626 65.7784 51.7312C65.4276 51.1998 64.9061 50.7533 64.2798 50.4484C63.721 50.1747 63.1208 49.9757 62.5032 49.8595C60.6327 49.4343 58.7628 49.0197 56.8946 48.6055L56.8547 48.5966C54.9545 48.1753 53.056 47.7544 51.1604 47.3231C50.6513 47.1522 50.1439 46.979 49.6366 46.8005C49.2929 46.6814 48.9719 46.4778 48.6926 46.2019C47.2519 44.7013 45.8242 43.1768 44.3987 41.6545L43.4908 40.6853Z" fill="#0DA600"/>
</svg>
