<svg width="127" height="127" viewBox="0 0 127 127" fill="none" xmlns="http://www.w3.org/2000/svg">
<path fill-rule="evenodd" clip-rule="evenodd" d="M126.11 63.18C126.11 97.8801 97.9801 126.01 63.28 126.01C28.58 126.01 0.450012 97.8801 0.450012 63.18C0.450012 28.4799 28.58 0.349976 63.28 0.349976C97.9801 0.349976 126.11 28.4799 126.11 63.18ZM75.24 23.04C74.3259 21.9595 73.076 21.2167 71.69 20.93L70.2 20.97L69.72 21.12C68.7485 21.3375 67.8557 21.8184 67.1396 22.5099C66.4234 23.2014 65.9115 24.0767 65.66 25.04C65.4226 25.9415 65.4195 26.8887 65.651 27.7917C65.8826 28.6948 66.3411 29.5237 66.983 30.1997C67.625 30.8757 68.429 31.3765 69.3189 31.6544C70.2088 31.9323 71.1549 31.9781 72.0675 31.7877C72.9801 31.5972 73.8288 31.1766 74.5331 30.5659C75.2375 29.9551 75.774 29.1745 76.0919 28.2981C76.4097 27.4217 76.4983 26.4786 76.3492 25.5583C76.2001 24.6381 75.8183 23.7712 75.24 23.04ZM69.47 61.42L68.04 63.2599L56.5 78.16C54.8934 80.24 52.99 80.5733 50.79 79.16L40.54 72.6C39.9074 72.251 39.3895 71.7263 39.0488 71.0891C38.708 70.452 38.5591 69.7299 38.6201 69.0099C38.646 68.3488 38.8551 67.7079 39.2242 67.1588C39.5933 66.6096 40.1077 66.1738 40.7101 65.9C41.3329 65.5874 42.0306 65.4546 42.7248 65.5164C43.419 65.5782 44.0822 65.8323 44.64 66.25L51.64 70.74L52.32 71.15C52.3906 71.0511 52.4612 70.959 52.5308 70.8682L52.5329 70.8654C52.6104 70.7643 52.6866 70.6649 52.76 70.56C56.14 65.44 59.5167 60.32 62.89 55.2C63.1317 54.8077 63.2694 54.3603 63.29 53.9C63.3786 51.912 63.4412 49.924 63.504 47.9308C63.5192 47.4475 63.5344 46.9639 63.55 46.48V45.09C63.4786 45.18 63.4084 45.2688 63.3392 45.3564C63.18 45.5579 63.0264 45.7531 62.8764 45.9437L62.852 45.9747L62.8454 45.9831C62.4423 46.4956 62.0653 46.9749 61.6801 47.45L61.2645 47.9575L60.7652 48.5692C59.6139 49.9802 58.462 51.392 57.26 52.7599C56.6227 53.4786 55.8851 54.1017 55.07 54.61C54.5288 54.887 53.9062 54.9606 53.3154 54.8175C52.7245 54.6745 52.2045 54.3242 51.8499 53.8304C51.4953 53.3366 51.3295 52.732 51.3828 52.1263C51.436 51.5208 51.7047 50.9543 52.14 50.53C54.1348 48.7128 55.9224 46.6805 57.47 44.47C59.68 41.65 61.8 38.75 63.92 35.85C64.2521 35.3751 64.6835 34.9779 65.1842 34.6861C65.6849 34.3943 66.2431 34.2148 66.82 34.16C69.6223 33.8251 72.4533 33.8049 75.26 34.1C75.5079 34.149 75.7649 34.1217 75.9969 34.0217C76.229 33.9218 76.4254 33.7538 76.5601 33.54C79.14 30.08 81.72 26.64 84.35 23.23C84.7507 22.704 85.272 22.2821 85.8701 22C86.3475 21.8133 86.8727 21.7864 87.3667 21.9234C87.8607 22.0605 88.297 22.354 88.61 22.7599C88.955 23.1535 89.166 23.6464 89.2128 24.1676C89.2595 24.6888 89.1395 25.2114 88.8701 25.66C88.3823 26.4366 87.8549 27.1876 87.29 27.91C86.3067 29.1939 85.322 30.4751 84.3374 31.756C82.6687 33.9271 81.0004 36.0977 79.3401 38.28C79.1128 38.5696 78.9677 38.915 78.92 39.28C78.6201 45.4133 78.3367 51.5467 78.07 57.68C78.0836 58.0378 78.198 58.3845 78.4001 58.68C79.4642 60.3042 80.5347 61.922 81.6052 63.5398C83.2107 65.966 84.8162 68.3922 86.4001 70.84C86.8671 71.5589 87.1583 72.3777 87.25 73.23C87.83 79.52 88.34 85.81 88.85 92.1C88.9776 93.0154 88.7708 93.9461 88.2675 94.7213C87.7642 95.4965 86.9982 96.0641 86.11 96.3199C85.2442 96.5784 84.3132 96.5055 83.4981 96.1155C82.683 95.7255 82.0421 95.0463 81.7 94.21C81.3869 93.1226 81.2089 92.0009 81.17 90.87C80.9083 87.8819 80.6594 84.8906 80.4106 81.8997L80.41 81.8929L80.4061 81.8452C80.2192 79.5993 80.0324 77.3537 79.8401 75.11C79.8184 74.8218 79.718 74.5452 79.55 74.31C76.3101 70.11 73.0667 65.92 69.82 61.74C69.71 61.68 69.6 61.58 69.47 61.42ZM69.8508 101.965C70.5362 100.957 70.9082 99.7688 70.92 98.55C70.924 97.7328 70.7666 96.9229 70.4569 96.1666C70.1472 95.4104 69.6913 94.7227 69.1153 94.1429C68.5393 93.5632 67.8546 93.103 67.1003 92.7884C66.3461 92.4738 65.5372 92.3113 64.72 92.31C63.5012 92.314 62.3107 92.6783 61.2984 93.3572C60.2861 94.036 59.4971 94.999 59.0307 96.1251C58.5642 97.2512 58.4413 98.4902 58.6772 99.686C58.9131 100.882 59.4973 101.981 60.3564 102.846C61.2155 103.71 62.311 104.302 63.5053 104.545C64.6996 104.789 65.9393 104.674 67.0683 104.215C68.1974 103.755 69.1655 102.973 69.8508 101.965ZM59.1418 87.7208L74.2137 88.8187C74.4891 88.8387 74.7286 88.6317 74.7487 88.3563C74.7688 88.0809 74.5618 87.8414 74.2863 87.8214L46.9663 85.8314C46.8819 85.8252 46.7972 85.8406 46.7203 85.8761L25.3803 95.7361C25.1296 95.8519 25.0203 96.149 25.1361 96.3997C25.2519 96.6504 25.5491 96.7597 25.7997 96.6439L37.3121 91.3247L49.92 92.1L59.1418 87.7208Z" fill="#BF8A34"/>
</svg>
