<svg width="127" height="126" viewBox="0 0 127 126" fill="none" xmlns="http://www.w3.org/2000/svg">
<path fill-rule="evenodd" clip-rule="evenodd" d="M126.48 62.83C126.48 97.53 98.3501 125.66 63.65 125.66C28.95 125.66 0.820007 97.53 0.820007 62.83C0.820007 28.13 28.95 0 63.65 0C98.3501 0 126.48 28.13 126.48 62.83ZM97.83 62.1799C98.158 61.6149 98.4294 61.0186 98.64 60.4L98.61 59.1599C98.4999 58.7697 98.3594 58.3884 98.19 58.02C97.8304 57.2635 97.2498 56.634 96.525 56.2145C95.8001 55.7949 94.965 55.605 94.13 55.6699H82.08V54.84C82.08 54.0433 82.0866 53.2467 82.0933 52.4501C82.1066 50.8567 82.1199 49.2633 82.08 47.6699C82.0662 46.9011 81.8782 46.1455 81.53 45.46C81.204 44.8912 80.7469 44.4084 80.1969 44.0519C79.6469 43.6952 79.0196 43.475 78.3673 43.4094C77.715 43.3439 77.0565 43.4349 76.4465 43.675C75.8365 43.9152 75.2926 44.2974 74.86 44.7899C71.2139 48.4987 67.5291 52.1687 63.8459 55.837C62.8264 56.8525 61.807 57.8678 60.7886 58.8838C60.1987 59.4723 59.6091 60.0609 59.02 60.65C56.9399 62.71 56.95 65.0599 59.02 67.12C61.8466 69.9667 64.6833 72.7999 67.53 75.62C67.7284 75.7731 67.943 75.9038 68.17 76.01L68.11 76.3099C68.0341 76.3556 67.9597 76.4037 67.887 76.4542C67.7519 76.548 67.6227 76.6501 67.5 76.76L57.06 87.1899C56.7845 87.4622 56.524 87.7493 56.28 88.0499C55.7358 88.7603 55.441 89.6301 55.441 90.525C55.441 91.4198 55.7358 92.2897 56.28 93C56.6503 93.4867 57.1245 93.8848 57.6682 94.1649C58.2118 94.4452 58.8111 94.6005 59.4224 94.6196C60.0336 94.6388 60.6415 94.5212 61.2016 94.2756C61.7617 94.0302 62.2599 93.6626 62.66 93.2C67.2599 88.6133 71.85 84.0233 76.43 79.4299C78.53 77.34 78.53 75.01 76.43 72.9099C75.8621 72.342 75.2941 71.7737 74.7261 71.2052C72.4633 68.9409 70.198 66.6741 67.92 64.4199C67.7795 64.3013 67.6161 64.2128 67.44 64.1599L73.9 57.72V59.36C73.9 62.1899 75.55 63.89 78.38 63.89H94.16C94.8669 63.943 95.5756 63.8136 96.2183 63.5142C96.8609 63.2148 97.4158 62.7554 97.83 62.1799ZM53.73 65.99C54.2637 68.2455 55.7415 69.6814 57.2198 71.1178C57.7078 71.5919 58.1958 72.0662 58.65 72.5699L58.29 72.99L38.1 93.16C37.7479 93.5725 37.3179 93.9115 36.8346 94.1576C36.3513 94.4036 35.8242 94.5518 35.2834 94.5935C34.7427 94.6354 34.199 94.5699 33.6837 94.4011C33.1682 94.2324 32.6912 93.9635 32.28 93.61C31.8749 93.2742 31.5402 92.8618 31.2947 92.3964C31.0493 91.931 30.8981 91.4218 30.8499 90.8978C30.8015 90.3739 30.8571 89.8457 31.0132 89.3433C31.1694 88.8408 31.4232 88.3741 31.76 87.97C31.96 87.72 32.1799 87.49 32.4 87.26L53.12 66.5599C53.2252 66.4547 53.3347 66.354 53.4769 66.2233L53.4854 66.2156L53.4926 66.209C53.5627 66.1445 53.6407 66.0729 53.73 65.99ZM70.328 43.5535C71.5695 42.2578 72.8125 40.9607 74.49 40.09L73.92 39.65L67.39 35.1799C65.21 33.64 63.3099 33.8199 61.39 35.74C57.8766 39.24 54.37 42.75 50.87 46.27C50.6271 46.5077 50.3967 46.7581 50.18 47.02C49.5485 47.826 49.2432 48.8401 49.3247 49.8608C49.4062 50.8816 49.8686 51.8344 50.62 52.53C51.0229 52.9001 51.4955 53.1864 52.0102 53.3719C52.5249 53.5576 53.0715 53.6388 53.6179 53.6108C54.1644 53.5829 54.6998 53.4464 55.1929 53.2094C55.686 52.9723 56.127 52.6393 56.49 52.23C58.3091 50.4242 60.1193 48.6096 61.9294 46.7949L62.001 46.7231C62.8837 45.8384 63.7663 44.9536 64.65 44.0699C64.8041 43.8704 64.9381 43.656 65.05 43.4299L68.16 45.6599C68.9334 45.0088 69.6305 44.2814 70.328 43.5535ZM84.15 31.1C85.3623 31.1039 86.5463 31.4673 87.5522 32.1442C88.5581 32.821 89.3406 33.781 89.801 34.9026C90.2612 36.0242 90.3786 37.2572 90.1382 38.4454C89.8978 39.6338 89.3104 40.7241 88.4504 41.5786C87.5903 42.4331 86.496 43.0134 85.3062 43.246C84.1163 43.4786 82.8842 43.3533 81.7656 42.8856C80.647 42.4181 79.6922 41.6293 79.022 40.6189C78.3517 39.6086 77.996 38.4224 78 37.21C78.0157 35.5875 78.67 34.0365 79.8211 32.8928C80.9722 31.7493 82.5273 31.1051 84.15 31.1ZM34.92 41.33H39.92L39.95 41.28C40.187 41.28 40.4239 41.281 40.6608 41.2826C41.0306 41.2852 41.4003 41.2893 41.77 41.2933C42.9833 41.3066 44.1967 41.3199 45.41 41.28C45.871 41.2565 46.3085 41.0693 46.6439 40.7522C46.9793 40.4352 47.1907 40.0089 47.24 39.5499C47.3041 39.0955 47.2099 38.6327 46.9731 38.2394C46.7365 37.8461 46.3717 37.5461 45.94 37.39C45.5475 37.2745 45.1388 37.2238 44.73 37.24H35.31C35.2137 37.2388 35.1174 37.24 35.0212 37.2438C34.8436 37.2506 34.6663 37.266 34.49 37.2899C34.1366 37.3361 33.8028 37.4791 33.5256 37.7032C33.2485 37.9274 33.0389 38.224 32.92 38.5599C32.7868 38.8762 32.7372 39.2214 32.7761 39.5625C32.8149 39.9034 32.9409 40.2286 33.1417 40.5068C33.3427 40.7852 33.6118 41.007 33.9232 41.1511C34.2346 41.2953 34.5779 41.3568 34.92 41.33ZM35.92 45.4399H40.98C41.3209 45.4139 41.6627 45.4757 41.9729 45.6194C42.2831 45.7631 42.5513 45.9838 42.7519 46.2606C42.9525 46.5375 43.0788 46.8611 43.1187 47.2006C43.1586 47.54 43.1109 47.8842 42.98 48.2C42.8621 48.5366 42.6528 48.8337 42.3754 49.0581C42.0981 49.2823 41.7638 49.425 41.41 49.47C41.2608 49.4902 41.1109 49.5044 40.9607 49.5125C40.8373 49.519 40.7136 49.5216 40.59 49.52H31.17C30.7609 49.528 30.353 49.474 29.96 49.36C29.5264 49.2056 29.1594 48.9065 28.9208 48.5129C28.6821 48.1195 28.5865 47.6558 28.65 47.2C28.7105 46.7456 28.9254 46.3257 29.2585 46.0107C29.5916 45.6958 30.0229 45.5049 30.48 45.47C31.6933 45.4301 32.9066 45.4434 34.1199 45.4567C34.7266 45.4633 35.3333 45.47 35.94 45.47L35.92 45.4399ZM45.05 53.64H40.05L34.81 53.62C34.7201 53.6151 34.6299 53.6151 34.54 53.62C34.0802 53.6583 33.6478 53.8546 33.316 54.1753C32.9844 54.4961 32.7737 54.9216 32.72 55.38C32.6596 55.8354 32.7579 56.2979 32.9982 56.6893C33.2386 57.0809 33.6065 57.3778 34.04 57.53C34.413 57.6406 34.8011 57.6913 35.19 57.6799H44.68C44.9298 57.6949 45.1802 57.6949 45.43 57.6799C45.7951 57.6423 46.1417 57.5007 46.4288 57.2721C46.716 57.0435 46.9315 56.7373 47.05 56.39C47.1786 56.0747 47.2246 55.7317 47.1836 55.3937C47.1426 55.0555 47.0159 54.7335 46.8156 54.4581C46.6154 54.1827 46.348 53.963 46.039 53.8198C45.73 53.6766 45.3896 53.6147 45.05 53.64Z" fill="#F17B50"/>
</svg>
