<svg width="126" height="126" viewBox="0 0 126 126" fill="none" xmlns="http://www.w3.org/2000/svg">
<path fill-rule="evenodd" clip-rule="evenodd" d="M125.66 62.83C125.66 97.53 97.53 125.66 62.83 125.66C28.1299 125.66 0 97.53 0 62.83C0 28.13 28.1299 0 62.83 0C97.53 0 125.66 28.13 125.66 62.83ZM12.0675 66.3754C11.6824 66.7328 11.3361 67.1299 11.0344 67.5599L11 68.2556C11.7231 69.5848 12.5771 69.7708 13.8306 68.8961L17.3362 66.4443C19.7054 64.7914 21.9436 64.7708 24.3748 66.2927C25.8356 67.308 27.5719 67.8521 29.3508 67.8521C31.1296 67.8521 32.866 67.308 34.3268 66.2927C35.3126 65.5923 36.492 65.2159 37.7014 65.2159C38.9108 65.2159 40.0902 65.5923 41.0761 66.2927C42.5476 67.3231 44.3005 67.8757 46.0969 67.8757C47.8932 67.8757 49.6461 67.3231 51.1176 66.2927C52.1395 65.564 53.3708 65.1873 54.6255 65.2196C55.8803 65.252 57.0905 65.6914 58.0736 66.4718L58.6343 66.8676C59.6392 67.5771 60.6456 68.2877 61.6618 68.9788C61.8404 69.11 62.0337 69.2189 62.2375 69.3033C62.8243 69.7562 63.4847 69.6685 64.3776 69.0472C65.53 68.2483 66.6779 67.4518 67.8211 66.6575C70.2867 64.9357 72.4562 64.9149 74.9907 66.4921C76.4294 67.4816 78.1344 68.0112 79.8805 68.0112C81.6266 68.0112 83.3317 67.4816 84.7704 66.4921C85.7889 65.7666 87.0083 65.3767 88.2588 65.3767C89.5092 65.3767 90.7286 65.7666 91.7471 66.4921C93.1896 67.4916 94.9027 68.027 96.6576 68.027C98.4125 68.027 100.126 67.4916 101.568 66.4921C104.041 64.9495 106.293 64.9701 108.696 66.6643C109.943 67.5459 111.196 68.4274 112.457 69.2883C112.622 69.4176 112.812 69.5116 113.016 69.5648C113.219 69.618 113.431 69.6292 113.638 69.5975C113.846 69.5659 114.045 69.4923 114.223 69.3811C114.27 69.3517 114.316 69.3198 114.359 69.2855C114.406 69.2487 114.451 69.2091 114.493 69.1671C114.528 69.1322 114.562 69.0956 114.594 69.0574C114.622 69.0231 114.649 68.9875 114.674 68.9508C114.799 68.7776 114.888 68.5807 114.934 68.3719C114.98 68.1633 114.983 67.9475 114.942 67.7378C114.901 67.528 114.818 67.3289 114.697 67.1525C114.672 67.1156 114.645 67.0797 114.617 67.0453C114.598 67.0214 114.577 66.998 114.556 66.9753C114.463 66.8744 114.357 66.786 114.24 66.7125C113.869 66.4498 113.499 66.1837 113.129 65.9176L113.113 65.9066C112.063 65.151 111.012 64.3949 109.915 63.7097C108.483 62.7327 106.791 62.2059 105.057 62.1974C103.323 62.1888 101.626 62.6986 100.184 63.6615C99.763 63.9393 99.3208 64.1835 98.8615 64.3916C97.9551 64.7816 96.9629 64.9291 95.9823 64.8191C95.0017 64.7092 94.0666 64.3458 93.2691 63.7648C91.8088 62.7639 90.0808 62.2263 88.3104 62.222C86.4741 62.2126 84.6797 62.7708 83.1726 63.8199C82.2799 64.4357 81.2324 64.7888 80.1491 64.8392C78.7698 64.8531 77.4209 64.4341 76.2924 63.6409C74.9884 62.7552 73.4625 62.2523 71.8875 62.1891C70.3125 62.1257 68.7512 62.5046 67.3804 63.2827C65.8916 64.1564 64.4548 65.1157 63.0774 66.1558C61.7401 65.1869 60.3827 64.2245 58.9758 63.3313C58.237 62.8785 57.4265 62.5548 56.5791 62.374C55.5299 62.2002 54.4725 62.0807 53.411 62.0159C53.1225 60.4531 52.3748 59.0118 51.2634 57.8759C50.152 56.74 48.7273 55.9609 47.1712 55.6383C43.7346 54.8187 40.8902 55.9276 38.6312 58.6825C38.3557 57.9456 38.1147 57.3051 37.853 56.6163C37.7916 56.486 37.765 56.342 37.7759 56.1984C37.7867 56.0547 37.8347 55.9164 37.9149 55.7968C38.62 54.5901 39.3161 53.3834 40.0111 52.1787L40.4718 51.3802C40.6823 51.0156 40.8929 50.6511 41.1037 50.287C41.1873 50.0748 41.3145 49.8823 41.4768 49.722C41.6391 49.5616 41.8331 49.437 42.0464 49.356C42.2597 49.2749 42.4876 49.2394 42.7154 49.2515C42.9432 49.2635 43.166 49.323 43.3696 49.4261L48.8793 51.3615C52.2126 52.546 55.5529 53.7191 58.9001 54.8807C59.8772 55.2556 60.9608 55.2418 61.928 54.8422C62.8952 54.4425 63.6725 53.6873 64.0999 52.7319C65.1122 50.4592 63.9552 47.9937 61.4483 47.119C55.0616 44.8738 48.6772 42.6309 42.2952 40.3903C39.6023 39.4398 37.481 40.2318 36.0554 42.6974C33.521 47.1052 30.975 51.5106 28.4176 55.9138C28.3052 56.1289 28.1587 56.3243 27.9837 56.4923C25.9818 58.2968 23.9731 60.092 21.9574 61.8781C21.804 62.0101 21.6088 62.0833 21.4065 62.0847C19.3761 61.988 17.3738 62.5883 15.7315 63.7859C15.2871 64.1022 14.8391 64.412 14.391 64.7218L14.3864 64.7251L14.3832 64.7273L14.3736 64.7339C13.5984 65.2701 12.8234 65.8063 12.0675 66.3754ZM12.0675 82.2366C11.6791 82.5907 11.3325 82.9882 11.0344 83.4211L11.0551 84.041C11.7851 85.3633 12.6323 85.5493 13.8857 84.6746L17.3913 82.2228C19.7535 80.5768 22.0057 80.5492 24.4299 82.0713C25.89 83.0884 27.6265 83.6335 29.4059 83.6335C31.1852 83.6335 32.9218 83.0884 34.3819 82.0713C35.3689 81.3737 36.5479 80.9991 37.7565 80.9991C38.9652 80.9991 40.1442 81.3737 41.1313 82.0713C42.602 83.1035 44.3551 83.6572 46.152 83.6572C47.9488 83.6572 49.702 83.1035 51.1727 82.0713C52.1853 81.3549 53.4012 80.9829 54.6413 81.0101C55.8813 81.0375 57.0798 81.4625 58.0599 82.2228L61.7661 84.8158C62.4536 85.8453 63.2597 85.9316 64.405 85.1324L67.9105 82.6807C70.2728 81.0345 72.5249 81.0071 74.9492 82.5291C76.4092 83.5461 78.1458 84.0914 79.9251 84.0914C81.7045 84.0914 83.4411 83.5461 84.9011 82.5291C85.8882 81.8315 87.0671 81.4569 88.2758 81.4569C89.4845 81.4569 90.6635 81.8315 91.6505 82.5291C93.1212 83.5613 94.8744 84.1151 96.6712 84.1151C98.468 84.1151 100.221 83.5613 101.692 82.5291C102.704 81.8127 103.921 81.4407 105.161 81.468C106.401 81.4952 107.599 81.9204 108.579 82.6807L112.339 85.3115C112.505 85.4651 112.702 85.5814 112.916 85.6527C113.131 85.724 113.358 85.7485 113.583 85.7247C113.808 85.7009 114.025 85.6293 114.22 85.5146C114.414 85.3999 114.582 85.245 114.712 85.0599C114.842 84.875 114.931 84.6644 114.973 84.4423C115.015 84.2202 115.008 83.9917 114.954 83.7722C114.901 83.5527 114.8 83.3473 114.661 83.1697C114.521 82.9921 114.345 82.8464 114.144 82.7426C113.699 82.4343 113.259 82.1213 112.819 81.8081C111.952 81.1908 111.084 80.5726 110.17 79.9878C106.85 77.7908 103.455 77.7356 100.087 79.8569C99.0754 80.5764 97.8646 80.963 96.623 80.963C95.3814 80.963 94.1707 80.5764 93.1588 79.8569C91.7251 78.8612 90.0213 78.3278 88.2758 78.3278C86.5303 78.3278 84.8265 78.8612 83.3928 79.8569C82.3687 80.5879 81.142 80.9807 79.8838 80.9807C78.6256 80.9807 77.3989 80.5879 76.3748 79.8569C74.9424 78.8744 73.2461 78.3485 71.5091 78.3485C69.772 78.3485 68.0757 78.8744 66.6433 79.8569C65.522 80.5529 64.4406 81.3242 63.3741 82.1104C63.1927 81.9835 63.012 81.856 62.8316 81.7281L62.3382 81.3773L62.3015 81.3513C61.4339 80.7336 60.5651 80.1151 59.6508 79.5299C56.3312 77.3329 52.9358 77.2778 49.568 79.399C48.5562 80.1185 47.3453 80.5051 46.1038 80.5051C44.8622 80.5051 43.6514 80.1185 42.6395 79.399C41.2058 78.4034 39.502 77.8699 37.7565 77.8699C36.011 77.8699 34.3073 78.4034 32.8736 79.399C31.8495 80.13 30.6227 80.5228 29.3646 80.5228C28.1064 80.5228 26.8796 80.13 25.8556 79.399C24.4232 78.4165 22.7268 77.8906 20.9898 77.8906C19.2528 77.8906 17.5565 78.4165 16.1241 79.399C14.726 80.2668 13.3898 81.2517 12.0675 82.2366ZM12.1984 74.5988C11.7729 74.9625 11.3832 75.3661 11.0345 75.804L11.0069 76.6167C11.7921 77.9045 12.591 78.0974 13.8582 77.2158C14.4839 76.7821 15.1083 76.349 15.7313 75.9166L17.3018 74.826C19.7674 73.1042 21.9368 73.0836 24.4713 74.6608C25.91 75.6501 27.6151 76.1798 29.3612 76.1798C31.1073 76.1798 32.8123 75.6501 34.2511 74.6608C35.2696 73.9352 36.4889 73.5453 37.7394 73.5453C38.9899 73.5453 40.2092 73.9352 41.2278 74.6608C42.6703 75.6602 44.3833 76.1956 46.1382 76.1956C47.8931 76.1956 49.6062 75.6602 51.0488 74.6608C53.5212 73.118 55.7734 73.1387 58.177 74.8329C59.3255 75.6451 60.4799 76.4575 61.6402 77.2535C62.3897 78.3787 63.1715 78.5127 64.3776 77.6737C65.53 76.8748 66.6779 76.0782 67.8211 75.2839C70.2867 73.5621 72.4562 73.5414 74.9907 75.1187C76.4294 76.108 78.1344 76.6377 79.8805 76.6377C81.6266 76.6377 83.3317 76.108 84.7704 75.1187C85.7889 74.3931 87.0083 74.0032 88.2588 74.0032C89.5092 74.0032 90.7286 74.3931 91.7471 75.1187C93.1896 76.118 94.9027 76.6534 96.6576 76.6534C98.4125 76.6534 100.126 76.118 101.568 75.1187C104.041 73.5759 106.293 73.5966 108.696 75.2908C109.943 76.1724 111.196 77.0538 112.457 77.9148C112.622 78.0441 112.812 78.1381 113.016 78.1913C113.219 78.2445 113.431 78.2556 113.638 78.224C113.846 78.1924 114.045 78.1188 114.223 78.0076C114.401 77.8964 114.555 77.7499 114.674 77.5773C114.799 77.4041 114.888 77.2072 114.934 76.9984C114.98 76.7898 114.983 76.574 114.942 76.3643C114.901 76.1544 114.818 75.9553 114.697 75.7789C114.625 75.673 114.54 75.5765 114.444 75.4918C114.381 75.4355 114.313 75.3844 114.24 75.339C113.869 75.0763 113.499 74.8102 113.129 74.5441L113.113 74.5331C112.063 73.7775 111.012 73.0214 109.915 72.3362C108.483 71.3591 106.791 70.8324 105.057 70.8239C103.323 70.8153 101.626 71.3251 100.184 72.288C99.763 72.5658 99.3208 72.8099 98.8615 73.0181C97.9551 73.4081 96.9629 73.5555 95.9823 73.4456C95.0017 73.3357 94.0666 72.9723 93.2691 72.3912C91.8088 71.3904 90.0808 70.8528 88.3104 70.8485C86.4741 70.8391 84.6797 71.3972 83.1726 72.4464C82.2799 73.0621 81.2324 73.4153 80.1491 73.4657C78.7698 73.4796 77.4209 73.0605 76.2924 72.2673C74.9884 71.3817 73.4625 70.8788 71.8875 70.8156C70.3125 70.7522 68.7512 71.1311 67.3804 71.9092C65.9798 72.7311 64.6253 73.6288 63.3229 74.5981C63.2152 74.5212 63.1076 74.4441 63 74.3669L62.5941 74.0752C61.5436 73.3196 60.4922 72.5635 59.396 71.8783C57.9635 70.9012 56.2716 70.3746 54.5376 70.366C52.8036 70.3574 51.1066 70.8673 49.6645 71.8301C49.2437 72.1079 48.8015 72.3521 48.3421 72.5602C47.4358 72.9503 46.4435 73.0977 45.4629 72.9878C44.4823 72.8778 43.5473 72.5145 42.7498 71.9335C41.2895 70.9326 39.5614 70.3949 37.791 70.3907C35.9547 70.3812 34.1603 70.9393 32.6532 71.9885C31.7606 72.6044 30.7131 72.9574 29.6298 73.0078C28.2505 73.0217 26.9015 72.6027 25.773 71.8094C24.469 70.9238 22.9431 70.4209 21.3681 70.3577C19.7931 70.2943 18.2319 70.6732 16.861 71.4513C15.2421 72.4014 13.6848 73.4525 12.1984 74.5988Z" fill="#4900A6"/>
</svg>
