<svg width="127" height="126" viewBox="0 0 127 126" fill="none" xmlns="http://www.w3.org/2000/svg">
<path fill-rule="evenodd" clip-rule="evenodd" d="M126.54 62.83C126.54 97.53 98.41 125.66 63.71 125.66C29.0099 125.66 0.880005 97.53 0.880005 62.83C0.880005 28.13 29.0099 0 63.71 0C98.41 0 126.54 28.13 126.54 62.83ZM26.42 68.23C25.8608 68.7489 25.358 69.3253 24.92 69.95L24.87 70.96C25.92 72.8899 27.16 73.1599 28.98 71.8899L34.07 68.33C37.51 65.9299 40.76 65.8999 44.29 68.11C46.411 69.584 48.9321 70.374 51.515 70.374C54.0979 70.374 56.619 69.584 58.74 68.11C60.1715 67.0929 61.884 66.5464 63.64 66.5464C65.396 66.5464 67.1085 67.0929 68.54 68.11C70.6766 69.606 73.2217 70.4084 75.83 70.4084C78.4383 70.4084 80.9834 69.606 83.12 68.11C84.6039 67.0518 86.3916 66.5049 88.2135 66.5518C90.0354 66.5986 91.7926 67.2368 93.22 68.37L94.0313 68.9426L94.0353 68.9456L94.0369 68.9467C95.4951 69.9762 96.9555 71.0073 98.43 72.01C98.8523 72.3202 99.3313 72.5444 99.84 72.6699C100.329 72.7361 100.827 72.6393 101.256 72.3945C101.685 72.1499 102.022 71.7709 102.214 71.3159C102.406 70.861 102.443 70.3553 102.32 69.8772C102.196 69.399 101.919 68.9747 101.53 68.6699C99.25 67.0099 96.94 65.34 94.53 63.8099C93.4572 63.1526 92.2805 62.6825 91.05 62.4199C89.5266 62.1676 87.9913 61.994 86.45 61.8999C86.031 59.6309 84.9454 57.5381 83.3317 55.8888C81.718 54.2395 79.6494 53.1084 77.39 52.6399C72.4 51.45 68.27 53.0599 64.99 57.0599C64.59 55.99 64.24 55.0599 63.86 54.0599C63.7709 53.8707 63.7323 53.6616 63.7481 53.4531C63.7639 53.2445 63.8335 53.0436 63.95 52.87C64.97 51.1243 65.9771 49.3785 66.9826 47.6356C67.515 46.7128 68.0469 45.7908 68.58 44.87C68.7015 44.5618 68.886 44.2823 69.1217 44.0496C69.3575 43.8168 69.6391 43.6357 69.9488 43.5181C70.2585 43.4004 70.5894 43.3486 70.9202 43.3662C71.251 43.3838 71.5745 43.4702 71.87 43.62L79.87 46.4299C84.71 48.1499 89.56 49.8533 94.42 51.5399C95.8387 52.0844 97.4121 52.0642 98.8165 51.4839C100.221 50.9036 101.349 49.807 101.97 48.4199C103.44 45.12 101.76 41.5399 98.12 40.2699C88.8467 37.0099 79.5767 33.7533 70.31 30.5C66.4 29.12 63.32 30.2699 61.25 33.85C57.57 40.25 53.8734 46.6466 50.16 53.0399C49.9969 53.3523 49.7841 53.636 49.53 53.8799C46.6233 56.5 43.7067 59.1066 40.78 61.7C40.5573 61.8916 40.2738 61.9979 39.98 62C37.032 61.8595 34.1246 62.7311 31.74 64.47C31.0903 64.9325 30.4352 65.3856 29.7801 65.8386C28.6506 66.6198 27.5213 67.4009 26.42 68.23ZM24.92 92.98C25.3528 92.3512 25.856 91.7742 26.42 91.26C28.34 89.83 30.28 88.3999 32.31 87.1399C34.3899 85.7133 36.8529 84.9497 39.375 84.9497C41.8972 84.9497 44.3602 85.7133 46.44 87.1399C47.927 88.2013 49.7082 88.7717 51.535 88.7717C53.3618 88.7717 55.1431 88.2013 56.63 87.1399C58.7117 85.6943 61.1856 84.9196 63.72 84.9196C66.2544 84.9196 68.7283 85.6943 70.81 87.1399C72.2792 88.1846 74.0372 88.746 75.84 88.746C77.6428 88.746 79.4008 88.1846 80.87 87.1399C85.76 84.0599 90.69 84.1399 95.51 87.33C96.8359 88.1786 98.0959 89.0757 99.3541 89.9714L99.3574 89.9736C99.9959 90.4282 100.634 90.8824 101.28 91.33C101.571 91.4807 101.827 91.6921 102.03 91.9501C102.233 92.2079 102.379 92.5062 102.457 92.825C102.535 93.1437 102.544 93.4753 102.483 93.7979C102.423 94.1204 102.294 94.4263 102.105 94.6947C101.917 94.9633 101.673 95.1884 101.39 95.3549C101.107 95.5214 100.792 95.6254 100.466 95.6599C100.139 95.6945 99.8093 95.6589 99.4978 95.5554C99.1864 95.4519 98.9007 95.283 98.66 95.0599L93.2 91.24C91.777 90.1361 90.0369 89.5189 88.2364 89.4792C86.4358 89.4397 84.6703 89.9797 83.2 91.0199C81.0645 92.5187 78.519 93.3229 75.91 93.3229C73.3011 93.3229 70.7555 92.5187 68.62 91.0199C67.1869 90.0071 65.475 89.4633 63.72 89.4633C61.965 89.4633 60.2532 90.0071 58.82 91.0199C56.7001 92.4967 54.1786 93.2885 51.595 93.2885C49.0114 93.2885 46.4899 92.4967 44.37 91.0199C40.85 88.8099 37.58 88.85 34.15 91.24L29.06 94.7999C27.24 96.0699 26.01 95.7999 24.95 93.88L24.92 92.98ZM26.61 80.1699C25.9922 80.6981 25.4263 81.2841 24.92 81.9199L24.88 83.1C26.02 84.97 27.18 85.25 29.02 83.97C30.6934 82.8099 32.36 81.6533 34.02 80.5C37.6 78 40.75 77.97 44.43 80.26C46.519 81.6965 48.9947 82.4657 51.53 82.4657C54.0653 82.4657 56.541 81.6965 58.63 80.26C60.1089 79.2065 61.8794 78.6404 63.695 78.6404C65.5107 78.6404 67.2812 79.2065 68.76 80.26C70.8546 81.7111 73.3419 82.4885 75.89 82.4885C78.438 82.4885 80.9255 81.7111 83.02 80.26C86.61 78.0199 89.88 78.0499 93.37 80.51C95.18 81.7899 97 83.0699 98.83 84.3199C99.0703 84.5076 99.3465 84.6443 99.6415 84.7214C99.9365 84.7987 100.244 84.8148 100.546 84.7689C100.847 84.723 101.136 84.6161 101.395 84.4547C101.653 84.2932 101.876 84.0806 102.05 83.83C102.232 83.5785 102.36 83.2925 102.427 82.9895C102.494 82.6865 102.498 82.3732 102.439 82.0686C102.379 81.764 102.259 81.4747 102.083 81.2188C101.908 80.9628 101.682 80.7454 101.42 80.58C100.872 80.1929 100.327 79.8009 99.782 79.4087C98.2572 78.3119 96.7311 77.2144 95.14 76.22C93.06 74.8011 90.6035 74.0365 88.0857 74.024C85.568 74.0116 83.104 74.752 81.01 76.1499C80.399 76.5533 79.7569 76.9077 79.09 77.21C77.774 77.7764 76.3333 77.9904 74.9095 77.8308C73.4857 77.6713 72.1279 77.1437 70.97 76.2999C68.8496 74.8467 66.3405 74.0662 63.77 74.0599C61.1037 74.0463 58.4983 74.8564 56.31 76.38C55.0139 77.274 53.493 77.7869 51.92 77.86C49.9173 77.8802 47.9586 77.2716 46.32 76.12C44.4267 74.8341 42.2112 74.1039 39.9243 74.012C37.6374 73.92 35.3705 74.4701 33.38 75.6C31.0294 76.9794 28.7683 78.5056 26.61 80.1699Z" fill="#4C85F4"/>
</svg>
