<svg width="126" height="127" viewBox="0 0 126 127" fill="none" xmlns="http://www.w3.org/2000/svg">
<path d="M53.0384 65.1522C53.653 65.413 53.426 67.0151 52.9441 67.2959L38.6079 72.771C38.126 73.0518 36.3455 72.2963 36.2129 71.7546L30.4167 57.7371C30.284 57.1956 31.2792 55.9193 31.8938 56.1801C31.8938 56.1801 35.9716 64.116 40.4329 66.009C44.8942 67.9021 53.0384 65.1522 53.0384 65.1522Z" fill="#E454B3"/>
<path d="M56.918 52.2875C57.8209 52.6705 58.8616 52.2542 59.2424 51.3573C59.6233 50.4603 59.2 49.4227 58.2971 49.0396C57.3942 48.6565 56.3535 49.0729 55.9727 49.9698C55.5918 50.8667 56.015 51.9043 56.918 52.2875Z" fill="#E454B3"/>
<path d="M56.9355 43.8074C56.5547 44.7043 55.514 45.1207 54.6111 44.7377C53.7082 44.3545 53.2849 43.3169 53.6658 42.4199C54.0466 41.5231 55.0873 41.1067 55.9902 41.4897C56.8932 41.8729 57.3164 42.9105 56.9355 43.8074Z" fill="#E454B3"/>
<path d="M52.2644 41.8253C51.8836 42.7223 50.8429 43.1387 49.94 42.7556C49.037 42.3724 48.6138 41.3348 48.9947 40.4379C49.3755 39.541 50.4162 39.1246 51.3191 39.5077C52.222 39.8909 52.6453 40.9285 52.2644 41.8253Z" fill="#E454B3"/>
<path d="M47.5933 39.8433C47.2125 40.7402 46.1718 41.1566 45.2689 40.7736C44.3659 40.3904 43.9427 39.3528 44.3235 38.4559C44.7044 37.559 45.7451 37.1426 46.648 37.5256C47.5509 37.9088 47.9742 38.9464 47.5933 39.8433Z" fill="#E454B3"/>
<path d="M38.2335 44.3593C39.1364 44.7424 40.1772 44.3259 40.558 43.4291C40.9388 42.5321 40.5156 41.4945 39.6126 41.1113C38.7097 40.7283 37.669 41.1448 37.2882 42.0416C36.9073 42.9385 37.3306 43.9761 38.2335 44.3593Z" fill="#E454B3"/>
<path d="M35.8693 49.927C36.7722 50.3102 37.8129 49.8937 38.1938 48.9968C38.5746 48.1 38.1513 47.0623 37.2484 46.6792C36.3455 46.296 35.3048 46.7125 34.924 47.6094C34.5431 48.5062 34.9664 49.5438 35.8693 49.927Z" fill="#E454B3"/>
<path d="M38.1761 57.4768C39.0791 57.86 40.1198 57.4435 40.5006 56.5466C40.8815 55.6498 40.4582 54.6121 39.5553 54.229C38.6524 53.8458 37.6117 54.2623 37.2308 55.1592C36.85 56.056 37.2732 57.0938 38.1761 57.4768Z" fill="#E454B3"/>
<path d="M45.2291 45.4111C44.8483 46.308 43.8076 46.7244 42.9046 46.3413C42.0017 45.9581 41.5785 44.9205 41.9593 44.0237C42.3401 43.1267 43.3809 42.7103 44.2838 43.0934C45.1867 43.4766 45.6099 44.5142 45.2291 45.4111Z" fill="#E454B3"/>
<path d="M40.5404 51.9091C41.4433 52.2922 42.484 51.8757 42.8649 50.9789C43.2457 50.082 42.8224 49.0443 41.9195 48.6613C41.0166 48.2781 39.9759 48.6946 39.5951 49.5914C39.2142 50.4883 39.6375 51.5259 40.5404 51.9091Z" fill="#E454B3"/>
<path d="M42.8473 59.4589C43.7502 59.842 44.7909 59.4255 45.1718 58.5287C45.5526 57.6318 45.1293 56.5941 44.2264 56.2111C43.3235 55.8279 42.2828 56.2444 41.9019 57.1412C41.5211 58.0381 41.9444 59.0758 42.8473 59.4589Z" fill="#E454B3"/>
<path d="M49.9002 47.3932C49.5194 48.29 48.4787 48.7064 47.5757 48.3234C46.6728 47.9402 46.2496 46.9026 46.6304 46.0057C47.0113 45.1088 48.052 44.6924 48.9549 45.0754C49.8578 45.4586 50.281 46.4962 49.9002 47.3932Z" fill="#E454B3"/>
<path d="M45.2115 53.8911C46.1144 54.2743 47.1552 53.8578 47.536 52.9609C47.9168 52.0641 47.4936 51.0264 46.5906 50.6433C45.6877 50.2601 44.647 50.6766 44.2662 51.5735C43.8853 52.4703 44.3086 53.5079 45.2115 53.8911Z" fill="#E454B3"/>
<path d="M47.5184 61.4409C48.4213 61.8241 49.462 61.4076 49.8429 60.5107C50.2237 59.6139 49.8004 58.5762 48.8975 58.1931C47.9946 57.8099 46.9539 58.2264 46.5731 59.1233C46.1922 60.0201 46.6155 61.0579 47.5184 61.4409Z" fill="#E454B3"/>
<path d="M54.5713 49.3752C54.1905 50.2721 53.1498 50.6885 52.2469 50.3054C51.3439 49.9222 50.9207 48.8846 51.3015 47.9878C51.6824 47.0908 52.7231 46.6744 53.626 47.0575C54.5289 47.4407 54.9521 48.4783 54.5713 49.3752Z" fill="#E454B3"/>
<path d="M52.2071 54.943C51.8263 55.8398 50.7856 56.2563 49.8826 55.8732C48.9797 55.49 48.5565 54.4524 48.9373 53.5555C49.3181 52.6587 50.3589 52.2422 51.2618 52.6252C52.1647 53.0084 52.5879 54.0461 52.2071 54.943Z" fill="#E454B3"/>
<path d="M54.5537 57.8552C55.4567 58.2384 56.4974 57.8219 56.8782 56.925C57.259 56.0282 56.8358 54.9905 55.9329 54.6073C55.03 54.2242 53.9893 54.6407 53.6084 55.5376C53.2276 56.4344 53.6508 57.472 54.5537 57.8552Z" fill="#E454B3"/>
<path d="M97.471 52.223C97.5807 51.8097 96.8303 50.8184 96.3528 51.01C96.3528 51.01 93.4111 56.913 89.945 58.3041C86.4788 59.6952 79.9247 57.6033 79.9247 57.6033C79.4472 57.7949 79.6007 59.0259 79.9686 59.2476L90.7782 63.7046C91.1461 63.9263 92.5294 63.3711 92.639 62.9578L97.471 52.223Z" fill="#E454B3"/>
<path d="M92.2098 40.1718C92.4915 40.8643 92.1511 41.6538 91.4496 41.9353C90.748 42.2169 89.951 41.8838 89.6694 41.1914C89.3878 40.4989 89.7281 39.7094 90.4297 39.4277C91.1312 39.1462 91.9282 39.4794 92.2098 40.1718Z" fill="#E454B3"/>
<path d="M86.072 39.0933C86.7735 38.8116 87.1139 38.0221 86.8322 37.3297C86.5506 36.6372 85.7536 36.3041 85.0521 36.5857C84.3506 36.8672 84.0102 37.6569 84.2918 38.3492C84.5735 39.0416 85.3705 39.3748 86.072 39.0933Z" fill="#E454B3"/>
<path d="M82.4428 40.5498C83.1443 40.2682 83.4847 39.4786 83.2031 38.7863C82.9214 38.0938 82.1245 37.7606 81.4229 38.0422C80.7214 38.3237 80.381 39.1134 80.6627 39.8058C80.9443 40.4983 81.7413 40.8313 82.4428 40.5498Z" fill="#E454B3"/>
<path d="M78.8136 42.0063C79.5152 41.7247 79.8555 40.9352 79.5739 40.2428C79.2923 39.5503 78.4953 39.2172 77.7937 39.4988C77.0922 39.7803 76.7518 40.5699 77.0335 41.2623C77.3151 41.9548 78.1121 42.2878 78.8136 42.0063Z" fill="#E454B3"/>
<path d="M77.6931 45.9979C77.9747 46.6904 77.6344 47.48 76.9328 47.7616C76.2313 48.0431 75.4343 47.71 75.1527 47.0176C74.871 46.3251 75.2114 45.5355 75.9129 45.254C76.6145 44.9724 77.4115 45.3055 77.6931 45.9979Z" fill="#E454B3"/>
<path d="M79.4415 50.2966C79.7231 50.9891 79.3827 51.7787 78.6812 52.0602C77.9797 52.3418 77.1827 52.0087 76.9011 51.3163C76.6194 50.6238 76.9598 49.8342 77.6613 49.5526C78.3629 49.2711 79.1599 49.6042 79.4415 50.2966Z" fill="#E454B3"/>
<path d="M84.819 53.1388C85.1007 53.8312 84.7603 54.6207 84.0588 54.9023C83.3572 55.1838 82.5602 54.8508 82.2786 54.1583C81.997 53.4659 82.3374 52.6763 83.0389 52.3948C83.7404 52.1133 84.5374 52.4463 84.819 53.1388Z" fill="#E454B3"/>
<path d="M80.562 46.3051C81.2635 46.0234 81.6039 45.2339 81.3223 44.5414C81.0406 43.849 80.2437 43.5159 79.5421 43.7975C78.8406 44.079 78.5002 44.8685 78.7819 45.561C79.0635 46.2534 79.8605 46.5865 80.562 46.3051Z" fill="#E454B3"/>
<path d="M83.0706 48.8401C83.3523 49.5326 83.0119 50.3221 82.3104 50.6036C81.6089 50.8853 80.8119 50.5521 80.5302 49.8596C80.2486 49.1672 80.589 48.3777 81.2905 48.0961C81.992 47.8146 82.789 48.1477 83.0706 48.8401Z" fill="#E454B3"/>
<path d="M88.4482 51.6823C88.7299 52.3746 88.3895 53.1642 87.688 53.4458C86.9864 53.7273 86.1894 53.3943 85.9078 52.7018C85.6262 52.0094 85.9666 51.2197 86.6681 50.9382C87.3696 50.6566 88.1666 50.9897 88.4482 51.6823Z" fill="#E454B3"/>
<path d="M84.1912 44.8484C84.8927 44.5669 85.2331 43.7773 84.9514 43.0848C84.6698 42.3925 83.8728 42.0593 83.1713 42.3409C82.4698 42.6224 82.1294 43.412 82.411 44.1045C82.6927 44.7969 83.4897 45.13 84.1912 44.8484Z" fill="#E454B3"/>
<path d="M86.6998 47.3835C86.9815 48.0759 86.6411 48.8656 85.9396 49.1471C85.238 49.4287 84.441 49.0956 84.1594 48.4031C83.8778 47.7107 84.2182 46.9211 84.9197 46.6395C85.6212 46.358 86.4182 46.691 86.6998 47.3835Z" fill="#E454B3"/>
<path d="M92.0774 50.2257C92.359 50.9181 92.0186 51.7076 91.3171 51.9893C90.6156 52.2708 89.8186 51.9377 89.537 51.2452C89.2553 50.5529 89.5957 49.7632 90.2972 49.4817C90.9987 49.2001 91.7957 49.5332 92.0774 50.2257Z" fill="#E454B3"/>
<path d="M87.8204 43.3918C88.5219 43.1104 88.8623 42.3208 88.5806 41.6283C88.299 40.9359 87.502 40.6028 86.8005 40.8843C86.099 41.1659 85.7586 41.9554 86.0402 42.6479C86.3218 43.3403 87.1188 43.6735 87.8204 43.3918Z" fill="#E454B3"/>
<path d="M89.5687 47.6906C90.2703 47.4091 90.6107 46.6194 90.329 45.927C90.0474 45.2345 89.2504 44.9015 88.5489 45.183C87.8474 45.4646 87.507 46.2542 87.7886 46.9465C88.0702 47.639 88.8672 47.9722 89.5687 47.6906Z" fill="#E454B3"/>
<path d="M93.9582 44.4705C94.2398 45.1628 93.8994 45.9525 93.1979 46.234C92.4964 46.5155 91.6994 46.1825 91.4178 45.49C91.1361 44.7976 91.4765 44.0081 92.178 43.7264C92.8795 43.4449 93.6765 43.778 93.9582 44.4705Z" fill="#E454B3"/>
<path fill-rule="evenodd" clip-rule="evenodd" d="M125.66 63.49C125.66 98.1901 97.53 126.32 62.83 126.32C28.1299 126.32 0 98.1901 0 63.49C0 28.79 28.1299 0.660034 62.83 0.660034C97.53 0.660034 125.66 28.79 125.66 63.49ZM28.8983 56.3253C27.2238 51.968 27.1605 47.0322 29.1031 42.4574C33.1533 32.9193 43.7684 30.8882 53.5786 35.0509C63.3888 39.2136 68.6792 47.9937 64.6291 57.5319C62.8721 61.6694 59.7629 64.8323 56.0044 66.7474L40.4191 73.4979L39.233 76.2911L33.2455 73.7505L34.4315 70.9573L28.8983 56.3253ZM38.6644 76.5208C38.8849 76.6143 38.9877 76.8688 38.8941 77.0891L37.5386 80.2814C37.4451 80.5017 37.1905 80.6045 36.97 80.511L31.7809 78.3091C31.5604 78.2156 31.4576 77.9611 31.5511 77.7407L32.9066 74.5486C33.0002 74.3281 33.2548 74.2253 33.4752 74.3188L38.6644 76.5208ZM35.1665 85.8677C35.2601 85.6473 35.1573 85.3928 34.9368 85.2993L29.7476 83.0974C29.5272 83.0039 29.2726 83.1067 29.179 83.327L27.8235 86.5193C27.7299 86.7396 27.8328 86.9941 28.0532 87.0876L33.2424 89.2896C33.4629 89.3831 33.7174 89.2803 33.811 89.0599L35.1665 85.8677ZM36.8006 80.91C37.0211 81.0035 37.1239 81.2581 37.0303 81.4784L35.6748 84.6707C35.5813 84.891 35.3267 84.9938 35.1062 84.9003L29.9171 82.6984C29.6966 82.6049 29.5937 82.3503 29.6873 82.13L31.0428 78.9377C31.1364 78.7174 31.391 78.6146 31.6114 78.7081L36.8006 80.91ZM33.3027 90.257C33.3963 90.0366 33.2934 89.7821 33.073 89.6886L27.8838 87.4867C27.6633 87.3932 27.4088 87.496 27.3152 87.7163L25.9597 90.9086C25.8661 91.1289 25.969 91.3834 26.1894 91.4769L31.3786 93.6788C31.5991 93.7723 31.8536 93.6696 31.9472 93.4491L33.3027 90.257ZM31.6083 94.2472C31.8288 94.3407 31.9317 94.5952 31.8381 94.8156L30.4826 98.0078C30.389 98.2281 30.1344 98.3309 29.914 98.2374L23.9265 95.6968C23.706 95.6033 23.6031 95.3488 23.6967 95.1284L25.0522 91.9362C25.1458 91.7158 25.4004 91.613 25.6208 91.7065L31.6083 94.2472ZM30.7726 99.5436C30.8662 99.3232 30.7633 99.0687 30.5429 98.9752L22.9587 95.7571C22.7382 95.6636 22.4837 95.7664 22.3901 95.9867L21.0346 99.179C20.941 99.3993 21.0439 99.6538 21.2643 99.7473L28.8485 102.965C29.069 103.059 29.3235 102.956 29.4171 102.736L30.7726 99.5436ZM70.9152 51.6776C72.3518 55.2097 75.0794 57.8506 78.3701 59.3049L89.3716 64.2375L90.2487 66.394L94.9006 64.5271L94.0235 62.3705L98.8409 50.2676C99.8459 47.1932 99.816 43.7944 98.5168 40.5999C95.5216 33.2358 87.8455 31.3434 80.2236 34.4025C72.6016 37.4614 67.9201 44.3136 70.9152 51.6776ZM95.1512 65.1432C95.082 64.973 94.8871 64.8909 94.7158 64.9596L90.6841 66.5776C90.5128 66.6464 90.4301 66.8401 90.4993 67.0103L91.5017 69.4747C91.5709 69.6449 91.7658 69.7272 91.9371 69.6584L95.9688 68.0403C96.1401 67.9716 96.2228 67.778 96.1536 67.6078L95.1512 65.1432ZM97.4724 71.7372C97.6437 71.6685 97.8387 71.7506 97.9078 71.9208L98.9102 74.3854C98.9795 74.5554 98.8967 74.7491 98.7254 74.8179L94.6937 76.4359C94.5225 76.5046 94.3275 76.4225 94.2583 76.2523L93.2559 73.7878C93.1867 73.6177 93.2694 73.424 93.4407 73.3552L97.4724 71.7372ZM96.5295 68.532C96.4603 68.3618 96.2654 68.2797 96.0941 68.3484L92.0624 69.9664C91.8911 70.0352 91.8084 70.2289 91.8776 70.399L92.88 72.8635C92.9492 73.0337 93.1442 73.116 93.3154 73.0471L97.3471 71.4291C97.5184 71.3604 97.6011 71.1666 97.532 70.9966L96.5295 68.532ZM98.8507 75.126C99.022 75.0573 99.2169 75.1394 99.2862 75.3096L100.289 77.774C100.358 77.9442 100.275 78.1379 100.104 78.2067L96.0721 79.8247C95.9008 79.8934 95.7058 79.8113 95.6366 79.6411L94.6342 77.1765C94.565 77.0065 94.6478 76.8127 94.819 76.744L98.8507 75.126ZM100.975 78.5739C100.905 78.4037 100.71 78.3215 100.539 78.3903L95.8872 80.2573C95.7159 80.326 95.6332 80.5197 95.7024 80.6898L96.7048 83.1544C96.774 83.3246 96.9689 83.4067 97.1402 83.338L101.792 81.4709C101.963 81.4022 102.046 81.2086 101.977 81.0385L100.975 78.5739ZM102.538 81.5302C102.709 81.4613 102.904 81.5436 102.973 81.7137L103.976 84.1782C104.045 84.3484 103.962 84.5421 103.791 84.6108L97.8983 86.9757C97.727 87.0444 97.532 86.9623 97.4628 86.7921L96.4604 84.3275C96.3912 84.1573 96.474 83.9637 96.6453 83.895L102.538 81.5302ZM66 33C68.7614 33 71 30.7615 71 28C71 25.2385 68.7614 23 66 23C63.2386 23 61 25.2385 61 28C61 30.7615 63.2386 33 66 33Z" fill="#E454B3"/>
</svg>
