<svg width="126" height="127" viewBox="0 0 126 127" fill="none" xmlns="http://www.w3.org/2000/svg">
<path fill-rule="evenodd" clip-rule="evenodd" d="M125.74 63.48C125.74 98.1801 97.6101 126.31 62.91 126.31C28.21 126.31 0.0800171 98.1801 0.0800171 63.48C0.0800171 28.78 28.21 0.650024 62.91 0.650024C97.6101 0.650024 125.74 28.78 125.74 63.48ZM92.9816 40.7109C93.0207 40.5475 93.0599 40.3838 93.1 40.2201L93.14 37.78C93.0903 37.5675 93.0446 37.3467 92.9985 37.1234L92.9975 37.1193L92.9973 37.1182C92.9688 36.9805 92.9401 36.8418 92.9101 36.7034C92.8816 36.5716 92.8519 36.4401 92.82 36.3101C92.3019 34.2593 91.1909 32.4067 89.6257 30.9838C88.0606 29.5609 86.1108 28.6309 84.02 28.3101C83.8932 28.2772 83.7695 28.2338 83.65 28.1801H81.17C81.0695 28.2271 80.966 28.2672 80.86 28.3C78.1202 28.6725 75.6375 30.1097 73.95 32.3C72.8763 33.628 71.8159 34.9692 70.758 36.3074C70.5253 36.6019 70.2927 36.8961 70.0601 37.1901L69.38 38.05L83.32 51.9701C83.9247 51.4839 84.5387 50.997 85.1568 50.5068L85.1603 50.504C86.6772 49.301 88.2188 48.0782 89.71 46.8C91.2007 45.4818 92.2483 43.7357 92.71 41.8C92.8068 41.4407 92.894 41.0765 92.9816 40.7109ZM66.59 41.54L79.8 54.7601L49.08 79.16L42.17 72.2501L66.59 41.54ZM29.122 84.3655C28.5771 84.1524 27.9947 84.0519 27.41 84.0701C26.4984 84.0548 25.6025 84.3085 24.8342 84.7993C24.0659 85.2902 23.4593 85.9965 23.09 86.8301C22.6803 87.6505 22.5353 88.5778 22.675 89.4841C22.8147 90.3904 23.2323 91.2311 23.87 91.8901C25.66 93.8201 27.53 95.6801 29.46 97.48C30.3627 98.2874 31.5421 98.7152 32.7525 98.6742C33.9628 98.6332 35.1106 98.1266 35.9566 97.26C36.8025 96.3934 37.2813 95.2338 37.2931 94.0228C37.305 92.8118 36.8489 91.643 36.02 90.7601C34.25 88.91 32.42 87.11 30.58 85.3101C30.1628 84.8999 29.6668 84.5786 29.122 84.3655ZM39.34 88.2201L33.18 82.05L39.41 75.8201L45.57 81.9901L39.34 88.2201ZM90.2401 69.42C89.09 79.1801 84.28 86.1201 74.92 89.9301C77.43 95.8 81.11 98.7401 89.2 98.7101C88.52 88.73 92.6201 81.3701 100.87 76.04C99.697 74.2201 98.1354 72.6826 96.2975 71.538C94.4595 70.3933 92.3908 69.67 90.2401 69.42ZM76.75 75.0601C76.9881 74.822 77.221 74.5798 77.4537 74.3378C77.9443 73.8275 78.4342 73.3181 78.97 72.8501C80.9087 71.1535 83.2863 70.0375 85.83 69.6301C85.67 76.2001 80.41 83.6301 73.83 85.6301V82.8401C73.9403 81.108 74.3745 79.412 75.11 77.8401C75.1731 77.6922 75.22 77.538 75.25 77.3801L76.75 75.0601ZM101.561 90.7205C103.249 87.4244 103.62 83.6099 102.6 80.05C95.99 83.6101 92.3 92.2401 93.51 97.8C96.9949 96.5474 99.873 94.0165 101.561 90.7205Z" fill="#896239"/>
</svg>
