<svg width="126" height="127" viewBox="0 0 126 127" fill="none" xmlns="http://www.w3.org/2000/svg">
<path fill-rule="evenodd" clip-rule="evenodd" d="M125.88 63.25C125.88 97.9501 97.75 126.08 63.05 126.08C28.3499 126.08 0.219971 97.9501 0.219971 63.25C0.219971 28.55 28.3499 0.420044 63.05 0.420044C97.75 0.420044 125.88 28.55 125.88 63.25ZM99.5555 51.1448C99.6411 50.6758 99.7266 50.2068 99.82 49.7401L99.75 46.6101C99.7125 46.3782 99.6773 46.145 99.642 45.9116C99.5739 45.4606 99.5056 45.0082 99.42 44.5601C98.4374 38.9315 95.2834 33.9141 90.6373 30.5885C85.9912 27.2628 80.2247 25.8951 74.58 26.78C69.6174 27.5687 65.0895 30.0754 61.7868 33.8625C58.4841 37.6495 56.6165 42.4763 56.51 47.5001C56.4758 47.7368 56.5276 47.978 56.6561 48.1798C56.7845 48.3817 56.981 48.5308 57.21 48.6001C63.53 51.2667 69.8433 53.9335 76.15 56.6001L92.15 63.3801L92.1919 63.3961L92.2372 63.4137C92.5653 63.5409 92.828 63.6428 93.15 63.3301C95.9368 60.8098 97.9573 57.5555 98.98 53.9401C99.2133 53.0201 99.3844 52.0824 99.5555 51.1448ZM47.25 100.01C47.1838 99.9894 47.1194 99.9653 47.0553 99.9414C46.9642 99.9073 46.8738 99.8735 46.78 99.8501C45.8638 99.5819 45.0616 99.0193 44.4976 98.2491C43.9335 97.479 43.6391 96.5444 43.66 95.5901V77.75C40.2338 77.0638 37.0315 75.5382 34.34 73.3101C33.4359 72.5591 32.6044 71.7257 31.7748 70.8943L31.7737 70.8932C31.4107 70.5294 31.0481 70.166 30.68 69.8101L30.81 69.6201H59.59C59.4435 69.9731 59.2963 70.3237 59.149 70.6725C58.9629 71.113 58.7765 71.5508 58.5908 71.9871C58.0904 73.1621 57.5944 74.327 57.12 75.51C57.0287 75.7467 56.885 75.9596 56.6997 76.1328C56.5143 76.306 56.2922 76.4349 56.05 76.51C55.0892 76.8252 54.1402 77.1581 53.1667 77.4996L53.1476 77.5062L52.5673 77.7097L52.28 77.8101V94.8101C52.28 97.8101 51.51 98.9501 48.68 100.01H47.25ZM58.83 65.2501C51.77 56.39 50.33 46.8 54.97 36.3901C54.9937 36.4138 54.9861 36.3876 54.977 36.3557C54.9746 36.3473 54.972 36.3385 54.97 36.3301L54.57 36.1901C50.8622 34.9041 46.8618 34.7166 43.05 35.65C40.0285 36.3418 37.1925 37.6793 34.7368 39.5708C32.2811 41.4622 30.2639 43.8627 28.8236 46.6074C27.3833 49.3521 26.5541 52.376 26.393 55.4716C26.2318 58.567 26.7425 61.6606 27.89 64.54C27.9542 64.7527 28.0873 64.9377 28.2684 65.0664C28.4494 65.1949 28.6681 65.2595 28.89 65.2501H58.83ZM65.83 65.76C62.8844 63.7294 60.5115 60.9742 58.94 57.76C58.4556 56.7772 58.0648 55.7501 57.6743 54.7236C57.5085 54.2878 57.3428 53.8522 57.17 53.42L57.38 53.24L88.82 66.5801C84.2906 69.2101 78.9614 70.1089 73.82 69.1101L71.6858 74.12C70.1172 77.8367 68.5486 81.5533 66.95 85.26C66.7433 85.7982 66.4306 86.2893 66.0304 86.7041C65.6302 87.119 65.1507 87.4492 64.6203 87.675C64.09 87.9009 63.5196 88.0177 62.9432 88.0188C62.3667 88.0198 61.796 87.9048 61.2648 87.6808C60.7337 87.4568 60.253 87.1283 59.8514 86.7148C59.4497 86.3014 59.1353 85.8114 58.9268 85.2739C58.7183 84.7366 58.62 84.1627 58.6378 83.5865C58.6555 83.0104 58.7888 82.4436 59.03 81.92C59.9792 79.6377 60.9431 77.3699 61.908 75.0997C62.3255 74.1174 62.7432 73.1346 63.16 72.15L65.6 66.41C65.65 66.2401 65.73 66.02 65.83 65.76ZM86.4726 90.1135C87.1255 89.1427 87.476 88.0001 87.48 86.8301C87.4813 86.0514 87.3292 85.2799 87.0324 84.5601C86.7356 83.8401 86.2999 83.1855 85.7502 82.634C85.2005 82.0824 84.5475 81.6445 83.8285 81.3452C83.1096 81.046 82.3387 80.8914 81.56 80.8901C80.39 80.8901 79.2462 81.2368 78.2731 81.8864C77.3 82.536 76.5412 83.4594 76.0926 84.54C75.6439 85.6206 75.5255 86.8098 75.7523 87.9576C75.9791 89.1055 76.541 90.1604 77.3669 90.989C78.1928 91.8177 79.2458 92.3832 80.3928 92.6139C81.5399 92.8445 82.7296 92.7301 83.8116 92.2852C84.8937 91.8402 85.8197 91.0845 86.4726 90.1135Z" fill="#9B005D"/>
</svg>
