<svg width="126" height="126" viewBox="0 0 126 126" fill="none" xmlns="http://www.w3.org/2000/svg">
<path d="M64.48 55.5701L70.48 49.5701L66.07 45.17L60.07 51.17L64.48 55.5701Z" fill="#00A69A"/>
<path d="M73.65 52.78L67.7 58.7301L72.12 63.15L78.07 57.2101L73.65 52.78Z" fill="#00A69A"/>
<path d="M73.65 46.39L79.53 40.51L75.1 36.1001L69.25 41.9601L73.65 46.39Z" fill="#00A69A"/>
<path d="M81.23 53.9701L87.09 48.1101L82.74 43.7201L76.85 49.6001L81.23 53.9701Z" fill="#00A69A"/>
<path d="M49.6878 65.9426C49.8618 65.4465 50.0381 64.9442 50.218 64.4341C52.164 68.1003 55.1587 71.1036 58.82 73.0601C58.7259 73.1071 58.6456 73.151 58.5732 73.1907C58.4608 73.2523 58.3673 73.3036 58.27 73.3401C56.34 73.9701 54.4 74.64 52.48 75.3401C52.3247 75.422 52.1455 75.4469 51.9737 75.4104C51.802 75.3739 51.6485 75.2782 51.54 75.14C50.44 74.01 49.33 72.89 48.2 71.8C48.0471 71.6896 47.9382 71.5287 47.8925 71.3457C47.8467 71.1627 47.8671 70.9695 47.95 70.8C48.5401 69.2136 49.1009 67.6155 49.6862 65.947L49.6878 65.9426Z" fill="#00A69A"/>
<path d="M61.33 58.7401L56.84 54.28C56.4165 54.7069 55.9852 55.1382 55.5499 55.5735L55.5454 55.5779C54.6766 56.4467 53.7917 57.3318 52.92 58.2301C52.8436 58.3105 52.786 58.4071 52.7514 58.5126C52.7168 58.618 52.7061 58.7299 52.72 58.8401C53.2361 60.9269 54.1717 62.8867 55.47 64.6001L61.33 58.7401Z" fill="#00A69A"/>
<path d="M64.65 61.9801L58.75 67.8701C60.1395 68.8624 61.6566 69.663 63.26 70.25C63.6902 70.4847 64.1917 70.5533 64.6691 70.4427C65.1466 70.332 65.5668 70.05 65.85 69.65C66.5588 68.8208 67.3429 68.0619 68.1169 67.3127L68.1427 67.2878C68.3299 67.1066 68.5164 66.926 68.7011 66.745C68.8217 66.627 68.9414 66.5087 69.06 66.39L64.65 61.9801Z" fill="#00A69A"/>
<path d="M56.86 48.04L62.86 42.04L58.47 37.6001C56.6516 39.689 55.1735 42.0513 54.09 44.6001C54.0567 44.7018 54.0475 44.8098 54.0631 44.9156C54.0787 45.0215 54.1187 45.1223 54.18 45.2101C54.7784 45.9656 55.4886 46.6818 56.1643 47.363L56.1657 47.3645L56.1743 47.3733L56.3568 47.5574C56.5181 47.7202 56.6765 47.8811 56.83 48.04H56.86Z" fill="#00A69A"/>
<path d="M81.36 60.3L75.25 66.4301C75.3538 66.5315 75.4578 66.6335 75.5621 66.7362C75.7288 66.9004 75.8963 67.0659 76.0646 67.2323L76.0741 67.2415C76.7111 67.8708 77.3608 68.5127 78.03 69.14C78.1298 69.2007 78.2426 69.2368 78.359 69.2455C78.4755 69.2542 78.5923 69.2352 78.7 69.1901C78.7982 69.1418 78.8965 69.0938 78.9949 69.0458L79.2906 68.9019L79.3404 68.8777L79.3446 68.8755C80.3331 68.3953 81.322 67.9149 82.25 67.3401C83.0233 66.8611 83.8434 66.2601 84.672 65.653L84.6745 65.6511L84.6786 65.6482L84.6877 65.6416C85.0647 65.3654 85.4433 65.0878 85.82 64.8201L85.32 64.28L81.36 60.3Z" fill="#00A69A"/>
<path d="M82.88 37.3601L88.79 31.5601C87.2897 30.3835 85.5984 29.4736 83.79 28.8701C83.429 28.6747 83.008 28.6218 82.61 28.7218C82.2119 28.8218 81.8658 29.0674 81.64 29.41C81.0652 30.0833 80.4401 30.7117 79.77 31.29C79.24 31.79 78.67 32.29 78.18 32.6801L82.88 37.3601Z" fill="#00A69A"/>
<path d="M71.6175 32.3596L71.3025 32.0476L71.2839 32.0293C70.67 31.4218 70.0552 30.8132 69.46 30.1901C69.4093 30.1185 69.3449 30.0577 69.2704 30.0114C69.196 29.965 69.1131 29.9338 69.0265 29.9199C68.9848 29.9132 68.9427 29.9105 68.9008 29.9119C68.8555 29.9132 68.8104 29.9193 68.7661 29.9301C68.6809 29.9507 68.6006 29.988 68.53 30.04L68.2647 30.1898C66.5822 31.1401 64.8926 32.0945 63.23 33.13C62.6728 33.5109 62.1416 33.9285 61.64 34.38L66.06 38.8101L72.07 32.8101C71.9196 32.6597 71.7687 32.5096 71.6175 32.3596Z" fill="#00A69A"/>
<path d="M86.07 40.42L90.52 44.9L94.46 40.9501C94.5228 40.8856 94.5712 40.8087 94.6022 40.7242C94.6332 40.6398 94.6461 40.5498 94.64 40.4601C94.1217 38.3458 93.1794 36.359 91.87 34.6201L86.07 40.42Z" fill="#00A69A"/>
<path d="M90.5 51.2101L84.5 57.2101L88.9 61.6001C90.7048 59.5088 92.1694 57.1465 93.24 54.6001C93.2689 54.4889 93.2721 54.3727 93.2496 54.2601C93.2271 54.1476 93.1794 54.0415 93.11 53.9501C92.3768 53.1034 91.5978 52.3176 90.8331 51.5463L90.8304 51.5437L90.5 51.2101Z" fill="#00A69A"/>
<path d="M52.4 49.7001L52.05 52.89L53.81 51.13L52.4 49.7001Z" fill="#00A69A"/>
<path d="M72.28 69.5601L70.56 71.2101L73.56 70.8301L72.28 69.5601Z" fill="#00A69A"/>
<path d="M76.98 27.9901L73.93 28.3601L75.26 29.7201L76.98 27.9901Z" fill="#00A69A"/>
<path d="M94.92 49.39L95.29 46.39L93.59 48.17L94.92 49.39Z" fill="#00A69A"/>
<path fill-rule="evenodd" clip-rule="evenodd" d="M62.83 125.66C97.53 125.66 125.66 97.53 125.66 62.83C125.66 28.13 97.53 0 62.83 0C28.1299 0 0 28.13 0 62.83C0 97.53 28.1299 125.66 62.83 125.66ZM99.56 47.0701C99.4967 47.4678 99.4398 47.8665 99.3829 48.2646C99.2511 49.188 99.1196 50.1088 98.91 51.01C97.2419 58.3578 92.9816 64.8583 86.91 69.3201C82.8642 72.4792 78.0615 74.5238 72.98 75.25C70.7294 75.5667 68.4474 75.5936 66.19 75.3301C65.7681 75.2878 65.3421 75.3356 64.94 75.4701C60.82 76.91 56.7 78.3501 52.6 79.8501C52.0568 80.099 51.4465 80.1614 50.8642 80.0275C50.2818 79.8937 49.7601 79.5712 49.38 79.1101C47.67 77.3101 45.91 75.5601 44.11 73.8401C43.657 73.4675 43.3397 72.9557 43.2077 72.3842C43.0757 71.8126 43.1362 71.2136 43.38 70.6801C44.89 66.54 46.38 62.3701 47.8 58.2101C47.9189 57.8909 47.9667 57.5496 47.94 57.2101C46.94 46.9501 50.75 38.6201 58.11 31.7401C62.1852 27.8611 67.2926 25.2396 72.82 24.1901C79.52 22.91 85.82 23.8301 91.37 28.05C93.5324 29.6803 95.3463 31.7272 96.7049 34.0698C98.0634 36.4125 98.939 39.0035 99.28 41.6901L99.55 43.4501L99.56 47.0701ZM87.16 95.6801C88.2762 96.2924 89.4524 96.7883 90.67 97.16L92.68 97.15C92.8151 97.114 92.951 97.0798 93.0873 97.0455L93.0923 97.0444C93.4085 96.9647 93.7267 96.8845 94.04 96.78C95.4149 96.3571 96.6455 95.5612 97.5953 94.4807C98.545 93.4004 99.1767 92.0779 99.42 90.66C99.4576 90.527 99.5044 90.3967 99.56 90.27V88.27C99.5311 88.215 99.5052 88.1583 99.4822 88.1005C99.4626 88.0511 99.4452 88.001 99.43 87.9501C99.1382 86.2368 98.2883 84.6682 97.0125 83.4882C95.7366 82.3081 94.1065 81.583 92.3758 81.4255C90.645 81.2681 88.9108 81.6873 87.443 82.6177C85.9752 83.5481 84.8561 84.9376 84.26 86.5701C83.6479 88.1934 83.6013 89.9757 84.1275 91.6288C84.6538 93.282 85.7221 94.7094 87.16 95.6801ZM30.45 97.16C28.9128 96.386 27.5981 95.2332 26.63 93.8101C26.2456 93.3071 26.0579 92.6812 26.1021 92.0497C26.1463 91.4182 26.4193 90.8246 26.87 90.38C28.6346 88.5876 30.4232 86.8146 32.1992 85.0542C32.9796 84.2805 33.7576 83.5094 34.53 82.7401L40.7 88.9701C40.4955 89.0323 40.3052 89.1343 40.14 89.27C39.1069 90.2682 38.0838 91.2987 37.0582 92.3318L37.0535 92.3365L37.0504 92.3398C36.0236 93.374 34.9943 94.4106 33.95 95.42C33.2467 96.0413 32.5089 96.6222 31.74 97.16H30.45ZM43.7 85.4401L46.62 82.53L40.78 76.6901L37.86 79.5701L43.7 85.4401Z" fill="#00A69A"/>
</svg>
