<svg width="127" height="127" viewBox="0 0 127 127" fill="none" xmlns="http://www.w3.org/2000/svg">
<path fill-rule="evenodd" clip-rule="evenodd" d="M60.1971 69.7062C61.2477 69.0116 62.4806 68.6441 63.7401 68.65C64.5774 68.6539 65.4058 68.8229 66.1778 69.1473C66.9498 69.4717 67.6502 69.9451 68.2391 70.5404C68.8279 71.1358 69.2937 71.8414 69.6096 72.6169C69.9254 73.3925 70.0853 74.2227 70.08 75.06C70.0721 76.3194 69.691 77.5482 68.985 78.5911C68.2789 79.634 67.2795 80.4442 66.1132 80.9193C64.9468 81.3943 63.6657 81.5131 62.4319 81.2603C61.1981 81.0076 60.0669 80.3948 59.1812 79.4994C58.2956 78.604 57.6952 77.4661 57.4561 76.2296C57.2169 74.993 57.3496 73.7134 57.8375 72.5523C58.3254 71.3912 59.1465 70.4008 60.1971 69.7062ZM62.5144 76.7924C62.8643 77.0298 63.2771 77.1578 63.7001 77.16C64.2589 77.1653 64.7972 76.9498 65.198 76.5603C65.5988 76.1708 65.8295 75.6387 65.84 75.08C65.8499 74.6571 65.7338 74.2409 65.5063 73.8843C65.2788 73.5278 64.9503 73.247 64.5627 73.0778C64.175 72.9086 63.7458 72.8586 63.3297 72.9343C62.9135 73.0099 62.5294 73.2078 62.2261 73.5026C61.9228 73.7974 61.7141 74.1758 61.6266 74.5896C61.5392 75.0034 61.5769 75.4338 61.735 75.8262C61.8932 76.2184 62.1645 76.5548 62.5144 76.7924Z" fill="#910909"/>
<path fill-rule="evenodd" clip-rule="evenodd" d="M48.83 74.95C48.8102 77.8974 49.6657 80.7844 51.288 83.2453C52.9102 85.7062 55.2264 87.6302 57.9431 88.7737C60.6597 89.9172 63.6546 90.2287 66.5485 89.6688C69.4423 89.1088 72.1048 87.7026 74.1988 85.6282C76.2928 83.5539 77.724 80.9047 78.3112 78.0163C78.8984 75.1279 78.6152 72.1301 77.4973 69.4028C76.3795 66.6755 74.4774 64.3413 72.0319 62.6959C69.5864 61.0505 66.7076 60.168 63.7601 60.16C59.8197 60.144 56.0341 61.6927 53.2348 64.4658C50.4355 67.2388 48.8512 71.0096 48.83 74.95ZM69.6036 66.1614C67.8519 64.996 65.794 64.376 63.6901 64.3799C62.2908 64.3786 60.9051 64.6541 59.6128 65.1904C58.3204 65.7268 57.1469 66.5135 56.1599 67.5052C55.1728 68.4969 54.3916 69.6741 53.8613 70.9689C53.331 72.2638 53.0621 73.6508 53.0701 75.05C53.076 77.154 53.7055 79.2089 54.8792 80.9551C56.0528 82.7014 57.7178 84.0604 59.6637 84.8605C61.6096 85.6607 63.749 85.866 65.8115 85.4504C67.874 85.0349 69.767 84.0171 71.2513 82.5259C72.7355 81.0347 73.7443 79.1369 74.1501 77.0724C74.556 75.008 74.3407 72.8696 73.5314 70.9274C72.7222 68.9854 71.3553 67.3268 69.6036 66.1614Z" fill="#910909"/>
<path fill-rule="evenodd" clip-rule="evenodd" d="M63.6801 44.95C64.9419 44.9578 66.1777 44.5914 67.2312 43.8969C68.2847 43.2025 69.1087 42.2112 69.5989 41.0485C70.0891 39.8857 70.2234 38.6038 69.985 37.3646C69.7466 36.1255 69.1461 34.985 68.2595 34.0872C67.3728 33.1893 66.2399 32.5745 65.0038 32.3206C63.7678 32.0667 62.4842 32.185 61.3154 32.6605C60.1466 33.136 59.1451 33.9476 58.4375 34.9923C57.7299 36.037 57.348 37.2682 57.34 38.53C57.3347 39.3664 57.4948 40.1956 57.8109 40.97C58.127 41.7444 58.5931 42.4487 59.1822 43.0424C59.7713 43.6362 60.4719 44.1077 61.2438 44.4299C62.0157 44.7521 62.8436 44.9187 63.6801 44.92V44.95ZM63.7001 40.67C63.4171 40.6729 63.1364 40.6183 62.8751 40.5095C62.6139 40.4007 62.3774 40.2399 62.1801 40.037C61.9828 39.8341 61.8288 39.5933 61.7274 39.3291C61.6259 39.0649 61.5792 38.7828 61.59 38.5C61.5781 38.209 61.6261 37.9186 61.7308 37.6469C61.8356 37.3751 61.995 37.1277 62.1992 36.92C62.4033 36.7122 62.6479 36.5486 62.9178 36.4391C63.1877 36.3297 63.4772 36.2767 63.7684 36.2836C64.0595 36.2904 64.3462 36.3569 64.6107 36.4789C64.8751 36.601 65.1118 36.7759 65.3059 36.993C65.5001 37.2101 65.6477 37.4647 65.7396 37.7411C65.8314 38.0175 65.8656 38.3098 65.84 38.6C65.8361 38.8766 65.7776 39.1497 65.6678 39.4037C65.5581 39.6576 65.3991 39.8874 65.2003 40.0798C65.0014 40.2721 64.7665 40.4233 64.509 40.5246C64.2516 40.6259 63.9767 40.6752 63.7001 40.67Z" fill="#910909"/>
<path fill-rule="evenodd" clip-rule="evenodd" d="M63.74 126.01C98.4401 126.01 126.57 97.8801 126.57 63.18C126.57 28.4799 98.4401 0.349976 63.74 0.349976C29.04 0.349976 0.910034 28.4799 0.910034 63.18C0.910034 97.8801 29.04 126.01 63.74 126.01ZM42.36 97.65V70.0099C42.36 60.6233 46.5901 53.8533 55.05 49.7C55.0867 49.7 55.1212 49.679 55.1565 49.6515C55.1689 49.6418 55.1815 49.6313 55.1942 49.6206C55.2062 49.6106 55.2184 49.6004 55.2308 49.5905C55.2498 49.5756 55.2694 49.5615 55.29 49.55C53.0648 47.8011 51.4402 45.402 50.6422 42.6866C49.8442 39.9712 49.9127 37.0745 50.838 34.3998C51.7632 31.7252 53.4993 29.4054 55.8046 27.7635C58.11 26.1217 60.8698 25.2393 63.7001 25.2393C66.5303 25.2393 69.2901 26.1217 71.5955 27.7635C73.9008 29.4054 75.6368 31.7252 76.5621 34.3998C77.4874 37.0745 77.5558 39.9712 76.7579 42.6866C75.9599 45.402 74.3353 47.8011 72.11 49.55C72.2868 49.6403 72.4636 49.7263 72.6393 49.8118C72.9308 49.9536 73.2193 50.0941 73.5001 50.25C80.8201 54.31 84.8401 60.5099 85.0101 68.8799C85.1367 75.2722 85.0945 81.6643 85.0523 88.0565V88.06C85.0312 91.2567 85.0101 94.4533 85.0101 97.65H42.36Z" fill="#910909"/>
</svg>
