<svg width="127" height="127" viewBox="0 0 127 127" fill="none" xmlns="http://www.w3.org/2000/svg">
<path fill-rule="evenodd" clip-rule="evenodd" d="M126.32 63.25C126.32 97.9501 98.1901 126.08 63.49 126.08C28.7899 126.08 0.659973 97.9501 0.659973 63.25C0.659973 28.55 28.7899 0.420044 63.49 0.420044C98.1901 0.420044 126.32 28.55 126.32 63.25ZM98.8588 28.7438C98.5788 28.2363 98.1401 27.8345 97.61 27.6001H96.53C95.9999 27.8365 95.5621 28.2406 95.2838 28.75C95.0056 29.2595 94.9024 29.8463 94.99 30.4202C95.1238 32.252 94.9549 34.0933 94.49 35.8701C93.8224 38.5282 92.4677 40.9641 90.5615 42.9335C88.6555 44.9027 86.265 46.3362 83.63 47.0901C83.096 47.1777 82.6126 47.4583 82.2716 47.8784C81.9307 48.2987 81.7557 48.8295 81.78 49.3701V59.6001C81.78 60.4301 82.09 60.6602 82.92 60.5101C87.4449 59.6444 91.5322 57.2432 94.4911 53.712C97.4501 50.1809 99.0992 45.7367 99.16 41.1301C99.16 39.936 99.1534 38.743 99.1467 37.5509V37.5465C99.1334 35.1658 99.12 32.788 99.16 30.4102C99.2445 29.8367 99.1387 29.2513 98.8588 28.7438ZM30.48 27.6001C31.0082 27.8383 31.4438 28.2429 31.7202 28.7522C31.9965 29.2616 32.0984 29.8474 32.01 30.4202C31.805 33.0688 32.2441 35.7279 33.29 38.1702C34.1996 40.299 35.5673 42.201 37.2957 43.741C39.0241 45.281 41.0707 46.4211 43.29 47.0801C44.83 47.5701 45.29 48.2201 45.19 49.9801C45.08 53.0601 45.09 56.15 45.19 59.2401C45.19 60.42 45.0099 60.6801 43.98 60.4901C39.8095 59.6815 36.0049 57.566 33.1174 54.4502C30.2299 51.3342 28.4094 47.3799 27.92 43.1602C27.9042 43.0609 27.8859 42.9623 27.8652 42.8641C27.843 42.7588 27.8179 42.6541 27.79 42.55V30.0801C27.7824 29.5677 27.9202 29.0637 28.1875 28.6266C28.4548 28.1893 28.8405 27.8369 29.3 27.6101H30.45L30.48 27.6001ZM75.1499 70.1901L74.5699 70.04C74.5561 69.7212 74.6081 69.4027 74.7229 69.1049C74.8376 68.8069 75.0127 68.5359 75.2371 68.3087C75.4614 68.0815 75.7302 67.9032 76.0266 67.7847C76.3231 67.6663 76.6408 67.6101 76.96 67.6201C77.3087 67.6355 77.6557 67.5626 77.9686 67.408C78.2816 67.2533 78.5504 67.022 78.75 66.7356C78.9495 66.4492 79.0734 66.1169 79.1101 65.7698C79.1469 65.4227 79.0952 65.0719 78.96 64.7501C78.8549 64.4163 78.7401 64.0865 78.6254 63.7574C78.4343 63.2092 78.2437 62.6625 78.1 62.1001C77.8729 61.2845 77.7387 60.4458 77.7 59.6001V50.0601C77.7306 49.7571 77.6938 49.4509 77.5925 49.1637C77.4913 48.8765 77.3278 48.6151 77.1139 48.3983C76.8999 48.1815 76.6407 48.0145 76.3549 47.9094C76.069 47.8043 75.7634 47.7635 75.46 47.79H71.46C71.1113 47.7797 70.7695 47.6908 70.46 47.53C68.3543 46.3474 65.98 45.7263 63.565 45.7263C61.15 45.7263 58.7756 46.3474 56.67 47.53C56.387 47.6736 56.0769 47.7554 55.76 47.77H51.76C51.4512 47.7369 51.1387 47.7734 50.8459 47.8768C50.553 47.9802 50.2869 48.1478 50.0673 48.3674C49.8477 48.587 49.68 48.8531 49.5767 49.146C49.4733 49.439 49.4368 49.7512 49.47 50.0601C49.47 50.8275 49.4578 51.5994 49.4456 52.3738C49.4211 53.9304 49.3965 55.4974 49.47 57.0601C49.6079 59.5607 49.2019 62.0615 48.28 64.3901C47.5399 66.2101 48.28 67.3601 50.28 67.5701C50.8842 67.6136 51.4465 67.8949 51.8439 68.3522C52.2413 68.8096 52.4412 69.4056 52.4 70.0101C50.5299 70.5901 50.24 71.1301 50.24 73.0101C50.24 73.6368 50.2311 74.2635 50.2222 74.8903C50.2044 76.1436 50.1866 77.3969 50.24 78.6501C50.2899 79.2838 50.496 79.8954 50.84 80.4301C51.2953 81.1525 51.8248 81.8317 52.3507 82.5065C52.4946 82.691 52.6382 82.8754 52.78 83.0601C53.0322 83.3784 53.2173 83.7445 53.3239 84.1365C53.4305 84.5284 53.4563 84.9379 53.4 85.3401C53.2066 87.2068 53.0466 89.0801 52.92 90.9601C52.8347 91.9515 52.953 92.9501 53.2678 93.8942C53.5825 94.8383 54.0869 95.7081 54.75 96.4501C56.81 98.8201 60.69 99.79 63.19 98.1001C63.35 97.9901 63.6799 98.1001 63.92 98.1602C64.8148 98.5413 65.7512 98.8164 66.71 98.9801C67.7324 98.9858 68.7449 98.7775 69.682 98.3685C70.6192 97.9596 71.4605 97.3591 72.1517 96.6057C72.843 95.8523 73.369 94.9625 73.6959 93.9937C74.0229 93.0249 74.1434 91.9983 74.0499 90.9801C73.92 89.1101 73.75 87.2301 73.5699 85.3601C73.5139 84.9709 73.5373 84.5746 73.6387 84.1947C73.7401 83.8148 73.9174 83.4595 74.1599 83.1501C74.3029 82.9648 74.4462 82.7812 74.5894 82.5979C75.157 81.8708 75.7208 81.1488 76.24 80.3501C76.5215 79.9597 76.6909 79.4998 76.73 79.02V72.1901C76.7403 71.725 76.5882 71.2709 76.2998 70.9058C76.0115 70.5408 75.6048 70.2877 75.1499 70.1901Z" fill="#721E0D"/>
</svg>
