<svg width="126" height="127" viewBox="0 0 126 127" fill="none" xmlns="http://www.w3.org/2000/svg">
<path fill-rule="evenodd" clip-rule="evenodd" d="M62.83 126.31C97.5301 126.31 125.66 98.1801 125.66 63.48C125.66 28.78 97.5301 0.650024 62.83 0.650024C28.13 0.650024 0 28.78 0 63.48C0 98.1801 28.13 126.31 62.83 126.31ZM60.58 99.4C60.1267 99.3367 59.6722 99.2789 59.2178 99.2211C58.3089 99.1055 57.4 98.99 56.5 98.83C52.0357 98.0475 47.7642 96.4109 43.92 94.01L43.66 93.81C43.86 93.67 44.03 93.55 44.2 93.45C55.2 87.1 61.75 77.64 64.3 65.29C64.3375 65.1452 64.4049 65.0099 64.4979 64.8928C64.5909 64.7756 64.7075 64.6793 64.84 64.61C70.4234 62.7379 76.3808 62.264 82.19 63.23C82.2669 63.2631 82.3406 63.3032 82.41 63.35C82.3031 63.7744 82.1997 64.2035 82.0958 64.6349L82.0954 64.6364L82.0946 64.6398C81.8977 65.4573 81.6988 66.283 81.47 67.1C78.528 77.6979 73.1597 87.4656 65.79 95.63C64.9284 96.58 64.0235 97.4973 63.1191 98.4141L63.1173 98.416L63.104 98.4293L63.0584 98.4756C62.9262 98.6097 62.7941 98.7437 62.6621 98.8778C62.491 99.0516 62.3202 99.2256 62.15 99.4H60.58ZM27.103 59.863C27.0435 60.3226 26.984 60.7819 26.92 61.24V65.71C26.9672 66.0672 27.0109 66.4256 27.0548 66.7843L27.055 66.7865C27.1411 67.4915 27.2274 68.1979 27.34 68.9C28.6028 77.3514 32.8618 85.0674 39.34 90.64C39.4449 90.7764 39.5996 90.8655 39.7702 90.8881C39.9408 90.9106 40.1133 90.8645 40.25 90.76C40.9515 90.3163 41.6583 89.881 42.3649 89.446L42.3709 89.4423L42.3721 89.4416C43.8287 88.5447 45.2842 87.6486 46.69 86.68C47.9196 85.744 49.098 84.7426 50.22 83.68C40.4883 74.4414 33.3712 62.7948 29.59 49.92C28.6221 52.244 27.9178 54.6691 27.49 57.15C27.3375 58.0519 27.2201 58.9581 27.103 59.863ZM98.68 65.16C98.1094 64.8568 97.5506 64.5472 96.9965 64.2403C95.851 63.6057 94.726 62.9824 93.56 62.45C84.0942 57.962 73.2549 57.3273 63.33 60.68C63.1758 60.7766 62.9939 60.8193 62.8129 60.8011C62.6318 60.783 62.462 60.7053 62.33 60.58C57.9932 56.7726 54.6094 52.0017 52.45 46.65C52.4142 46.563 52.3874 46.4725 52.37 46.38C52.3586 46.2837 52.3586 46.1863 52.37 46.09C53.0343 45.9135 53.7022 45.7307 54.3734 45.5469C55.9453 45.1166 57.5353 44.6814 59.14 44.31C65.5505 42.8454 72.134 42.2833 78.7 42.64C83.5551 42.8701 88.3672 43.662 93.04 45C93.3641 45.0927 93.6466 45.2939 93.84 45.57C97.251 51.4167 98.9199 58.1165 98.65 64.88C98.6691 64.9722 98.6791 65.0659 98.68 65.16ZM50.8487 78.3629L50.8498 78.364C51.5079 79.085 52.168 79.8081 52.82 80.54C53.03 80.31 53.11 80.23 53.18 80.16C56.5509 75.6968 58.8749 70.5328 59.98 65.05C60.0615 64.7706 60.0533 64.4725 59.9564 64.198C59.8595 63.9235 59.6789 63.6863 59.44 63.52C55.2441 59.86 51.8518 55.3706 49.4767 50.3347C47.1016 45.2989 45.7953 39.8257 45.64 34.26V31.9C45.3912 32.0555 45.1772 32.1723 44.9812 32.2793C44.8621 32.3443 44.7496 32.4057 44.64 32.47C40.0773 35.1707 36.154 38.8279 33.14 43.19C32.9148 43.4652 32.7628 43.7928 32.6981 44.1425C32.6334 44.4921 32.6581 44.8525 32.77 45.19C32.903 45.6122 32.9993 46.0479 33.0955 46.4833C33.1655 46.8005 33.2357 47.1181 33.32 47.43C35.8098 56.9429 40.3149 65.8098 46.53 73.43C47.8935 75.1257 49.3677 76.7405 50.8487 78.3629ZM68.5 98.91C77.4199 89.1163 83.6249 77.1612 86.5 64.23L86.5686 64.2484C86.8008 64.3108 87.0104 64.3671 87.22 64.44C90.9264 65.6074 94.4283 67.3449 97.6 69.59C97.7892 69.6886 97.9367 69.8519 98.0157 70.0501C98.0946 70.2484 98.0997 70.4683 98.03 70.67C97.0373 75.6111 95.0091 80.2859 92.0789 84.3864C89.1487 88.4869 85.3831 91.9202 81.03 94.46C77.2992 96.7048 73.1705 98.2089 68.87 98.89L68.5 98.91ZM50.99 42.16C63.4855 38.0225 76.8409 37.199 89.75 39.77L89.48 39.44C84.6792 34.1306 78.4047 30.3729 71.4579 28.6469C64.5111 26.9208 57.2074 27.3049 50.48 29.75C50.3012 29.7886 50.1439 29.8939 50.0399 30.0443C49.9359 30.1948 49.893 30.3792 49.92 30.56C49.9582 31.4238 49.9855 32.29 50.0128 33.1569C50.0643 34.7891 50.1159 36.4238 50.24 38.05C50.4133 39.4329 50.6637 40.8051 50.99 42.16Z" fill="#662D8E"/>
</svg>
