<svg width="126" height="126" viewBox="0 0 126 126" fill="none" xmlns="http://www.w3.org/2000/svg">
<path fill-rule="evenodd" clip-rule="evenodd" d="M125.66 62.8301C125.66 97.53 97.5301 125.66 62.83 125.66C28.13 125.66 0 97.53 0 62.8301C0 28.13 28.13 0 62.83 0C97.5301 0 125.66 28.13 125.66 62.8301ZM65.7273 63.5C65.7273 71.6808 59.1338 78.3125 51 78.3125C42.8662 78.3125 36.2727 71.6808 36.2727 63.5V38.8125C36.2727 30.6317 42.8662 24 51 24C59.1338 24 65.7273 30.6317 65.7273 38.8125H52.6369C51.7333 38.8125 51 39.3649 51 40.0469V42.5156C51 43.1976 51.7333 43.75 52.6369 43.75H65.7273V48.6875H52.6369C51.7333 48.6875 51 49.2399 51 49.9219V52.3906C51 53.0726 51.7333 53.625 52.6369 53.625H65.7273V58.5625H52.6369C51.7333 58.5625 51 59.1149 51 59.7969V62.2656C51 62.9476 51.7333 63.5 52.6369 63.5H65.7273ZM73.0909 53.625H75.5455C76.9016 53.625 78 54.7297 78 56.0938V63.5C78 77.217 67.8305 88.5686 54.6818 90.3832V95.5938H63.2727C64.6289 95.5938 65.7273 96.6985 65.7273 98.0625V100.531C65.7273 101.895 64.6289 103 63.2727 103H38.7273C37.3711 103 36.2727 101.895 36.2727 100.531V98.0625C36.2727 96.6985 37.3711 95.5938 38.7273 95.5938H47.3182V90.3245C33.8136 88.4513 24 76.1215 24 62.2903V56.0938C24 54.7297 25.0984 53.625 26.4545 53.625H28.9091C30.2652 53.625 31.3636 54.7297 31.3636 56.0938V62.6205C31.3636 72.9291 38.8362 82.153 49.0379 83.1543C60.743 84.3022 70.6364 75.0414 70.6364 63.5V56.0938C70.6364 54.7297 71.7348 53.625 73.0909 53.625ZM102.648 58.3907C102.336 59.7286 101.32 60.4806 99.958 60.7345C98.7617 60.9542 97.7656 61.0079 96.8086 60.2365C95.6416 59.255 95.6269 57.629 96.6767 56.6036C97.4563 55.8607 98.5331 55.6735 100.113 55.3986L100.427 55.3439C100.72 55.2902 100.974 55.2218 101.188 54.9825L101.226 54.9395C101.24 54.9238 101.252 54.9084 101.264 54.8925C101.426 54.6713 101.425 54.3303 101.413 51.3335V51.3313C101.409 50.2654 101.403 48.8644 101.403 47.0138C101.403 46.4669 101.135 46.3156 100.573 46.4132C100.173 46.4816 91.5058 48.1027 91.5058 48.1027C91.0078 48.2101 90.8515 48.3566 90.8515 48.9181C90.8515 51.6166 90.8545 53.6504 90.8568 55.1929C90.8631 59.5446 90.8638 59.986 90.7757 60.4089L90.7617 60.473L90.7423 60.5573L90.7295 60.6124C90.5244 61.5011 89.9775 62.17 89.2548 62.5411C88.4345 62.9952 86.9502 63.1954 86.1591 63.049C84.0498 62.6534 83.3076 60.2169 84.7382 58.8204C85.5179 58.0775 86.5947 57.8903 88.175 57.6154L88.4882 57.5607C88.7812 57.507 89.0351 57.4386 89.25 57.1993C89.5605 56.8457 89.5148 51.9681 89.4798 48.2391C89.4592 46.047 89.4424 44.2518 89.5039 44.006C89.5429 43.7521 89.6504 43.5372 89.8505 43.3761C90.0556 43.2052 90.4267 43.1075 90.5048 43.1075C93.0694 42.6273 95.0543 42.2549 96.5909 41.9666L96.6159 41.9618L96.6276 41.9596C101.026 41.1343 101.726 41.0031 101.853 41.0031C102.414 40.964 102.736 41.296 102.736 41.8624C102.739 45.9042 102.743 48.9226 102.746 51.1846L102.746 51.2047C102.755 57.5782 102.756 57.9292 102.679 58.2625C102.67 58.3021 102.66 58.3416 102.648 58.3907Z" fill="#BA2299"/>
</svg>
