<svg width="512" height="512" viewBox="0 0 512 512" fill="none" xmlns="http://www.w3.org/2000/svg">
<g clip-path="url(#clip0_3_147)">
<path d="M256 512C397.385 512 512 397.385 512 256C512 114.615 397.385 0 256 0C114.615 0 0 114.615 0 256C0 397.385 114.615 512 256 512Z" fill="#F0F0F0"/>
<path d="M156 20.201C223 -7.99999 298 -5.50001 356 20.201V492C304 514.5 227.911 522.484 156 492V20.201Z" fill="#DC171D"/>
<path d="M19.3444 156H492C517.5 218 520 287.5 492 356H19.3444C-3.23176 307 -9.47618 225 19.3444 156Z" fill="#012A87"/>
<path d="M256 164.333L248.274 188.11L260.163 191.973L256 164.333Z" fill="white"/>
<path d="M256 164.333L263.725 188.11L251.837 191.973L256 164.333Z" fill="white"/>
<path d="M279.776 181.608H254.776V194.108L279.776 181.608Z" fill="white"/>
<path d="M279.776 181.608L259.551 196.303L252.203 186.19L279.776 181.608Z" fill="white"/>
<path d="M232.223 181.608L252.449 196.303L259.796 186.19L232.223 181.608Z" fill="white"/>
<path d="M232.223 181.608H257.223V194.108L232.223 181.608Z" fill="white"/>
<path d="M270.695 209.559L262.969 185.782L251.081 189.645L270.695 209.559Z" fill="white"/>
<path d="M270.695 209.559L250.469 194.864L257.816 184.751L270.695 209.559Z" fill="white"/>
<path d="M241.305 209.559L261.531 194.864L254.184 184.751L241.305 209.559Z" fill="white"/>
<path d="M241.305 209.559L249.031 185.782L260.919 189.645L241.305 209.559Z" fill="white"/>
<path d="M389.333 219.562L381.608 243.338L393.496 247.201L389.333 219.562Z" fill="white"/>
<path d="M389.333 219.562L397.059 243.338L385.17 247.201L389.333 219.562Z" fill="white"/>
<path d="M413.11 236.836H388.11V249.336L413.11 236.836Z" fill="white"/>
<path d="M413.11 236.836L392.884 251.531L385.537 241.418L413.11 236.836Z" fill="white"/>
<path d="M365.557 236.836L385.782 251.531L393.13 241.418L365.557 236.836Z" fill="white"/>
<path d="M365.557 236.836H390.557V249.336L365.557 236.836Z" fill="white"/>
<path d="M404.028 264.787L396.303 241.011L384.414 244.874L404.028 264.787Z" fill="white"/>
<path d="M404.028 264.787L383.803 250.093L391.15 239.98L404.028 264.787Z" fill="white"/>
<path d="M374.639 264.787L394.864 250.093L387.517 239.98L374.639 264.787Z" fill="white"/>
<path d="M374.639 264.787L382.364 241.011L394.253 244.873L374.639 264.787Z" fill="white"/>
<path d="M311.228 297.667L303.503 321.443L315.391 325.306L311.228 297.667Z" fill="white"/>
<path d="M311.228 297.667L318.954 321.443L307.065 325.306L311.228 297.667Z" fill="white"/>
<path d="M335.005 314.941H310.005V327.441L335.005 314.941Z" fill="white"/>
<path d="M335.005 314.941L314.779 329.636L307.432 319.523L335.005 314.941Z" fill="white"/>
<path d="M287.452 314.941L307.677 329.636L315.025 319.523L287.452 314.941Z" fill="white"/>
<path d="M287.452 314.941H312.452V327.441L287.452 314.941Z" fill="white"/>
<path d="M325.923 342.892L318.198 319.116L306.309 322.978L325.923 342.892Z" fill="white"/>
<path d="M325.923 342.892L305.698 328.197L313.045 318.085L325.923 342.892Z" fill="white"/>
<path d="M296.534 342.892L316.759 328.197L309.412 318.085L296.534 342.892Z" fill="white"/>
<path d="M296.534 342.892L304.259 319.116L316.148 322.978L296.534 342.892Z" fill="white"/>
<path d="M122.667 219.562L130.392 243.338L118.504 247.201L122.667 219.562Z" fill="white"/>
<path d="M122.667 219.562L114.941 243.338L126.83 247.201L122.667 219.562Z" fill="white"/>
<path d="M98.8904 236.836H123.89V249.336L98.8904 236.836Z" fill="white"/>
<path d="M98.8904 236.836L119.116 251.531L126.463 241.418L98.8904 236.836Z" fill="white"/>
<path d="M146.443 236.836L126.218 251.531L118.87 241.418L146.443 236.836Z" fill="white"/>
<path d="M146.443 236.836H121.443V249.336L146.443 236.836Z" fill="white"/>
<path d="M107.972 264.787L115.697 241.011L127.586 244.874L107.972 264.787Z" fill="white"/>
<path d="M107.972 264.787L128.197 250.093L120.85 239.98L107.972 264.787Z" fill="white"/>
<path d="M137.361 264.787L117.136 250.093L124.483 239.98L137.361 264.787Z" fill="white"/>
<path d="M137.361 264.787L129.636 241.011L117.747 244.873L137.361 264.787Z" fill="white"/>
<path d="M200.772 297.667L208.497 321.443L196.609 325.306L200.772 297.667Z" fill="white"/>
<path d="M200.772 297.667L193.046 321.443L204.935 325.306L200.772 297.667Z" fill="white"/>
<path d="M176.995 314.941H201.995V327.441L176.995 314.941Z" fill="white"/>
<path d="M176.995 314.941L197.221 329.636L204.568 319.523L176.995 314.941Z" fill="white"/>
<path d="M224.548 314.941L204.323 329.636L196.975 319.523L224.548 314.941Z" fill="white"/>
<path d="M224.548 314.941H199.548V327.441L224.548 314.941Z" fill="white"/>
<path d="M186.077 342.892L193.802 319.116L205.691 322.978L186.077 342.892Z" fill="white"/>
<path d="M186.077 342.892L206.302 328.197L198.955 318.085L186.077 342.892Z" fill="white"/>
<path d="M215.466 342.892L195.241 328.197L202.588 318.085L215.466 342.892Z" fill="white"/>
<path d="M215.466 342.892L207.741 319.116L195.852 322.978L215.466 342.892Z" fill="white"/>
</g>
<defs>
<clipPath id="clip0_3_147">
<rect width="512" height="512" fill="white"/>
</clipPath>
</defs>
</svg>
