<svg width="512" height="512" viewBox="0 0 512 512" fill="none" xmlns="http://www.w3.org/2000/svg">
<g clip-path="url(#clip0_3_411)">
<path d="M256 512C397.385 512 512 397.385 512 256C512 114.615 397.385 0 256 0C114.615 0 0 114.615 0 256C0 397.385 114.615 512 256 512Z" fill="#EF2B2D"/>
<path d="M109 48.3628C148 21.0315 180.5 8.08216 227 2V510.375C158.5 503.5 109 465.629 109 465.629V48.3628Z" fill="white"/>
<path d="M7.0704 196H504.939C504.939 196 520.981 252.5 504.705 317H7.29148C7.29148 317 -9 260.5 7.0704 196Z" fill="white"/>
<path d="M139 27.0835C155.5 18.5384 173.5 11.1501 197 6V505.293C165.5 498 139 483.766 139 483.766V27.0835Z" fill="#002868"/>
<path d="M1.54526 227H510.374C514.004 260.5 510.424 285 510.424 285H1.50022C1.50022 285 -1.99959 255.5 1.54526 227Z" fill="#002868"/>
</g>
<defs>
<clipPath id="clip0_3_411">
<rect width="512" height="512" fill="white"/>
</clipPath>
</defs>
</svg>
