<svg width="512" height="512" viewBox="0 0 512 512" fill="none" xmlns="http://www.w3.org/2000/svg">
<g clip-path="url(#clip0_3_279)">
<path d="M256 512C397.385 512 512 397.385 512 256C512 114.615 397.385 0 256 0C114.615 0 0 114.615 0 256C0 397.385 114.615 512 256 512Z" fill="#F0F0F0"/>
<path d="M304.759 182.21C264.196 155.169 209.409 166.224 182.385 206.716C168.83 226.927 174.34 254.39 194.62 267.911C214.885 281.432 242.26 275.941 255.781 255.659C269.302 235.378 296.695 229.955 316.959 243.405C337.257 256.926 342.716 284.389 329.176 304.6C356.218 264.04 345.287 209.252 304.759 182.21Z" fill="#FF4B55"/>
<path d="M182.383 206.717C168.828 226.928 174.338 254.391 194.618 267.912C214.883 281.433 242.258 275.942 255.779 255.66C269.3 235.379 296.693 229.956 316.957 243.406C337.255 256.927 342.714 284.39 329.174 304.601C302.168 345.233 247.399 356.15 206.836 329.108C166.31 302.068 155.342 247.28 182.383 206.717Z" fill="#41479B"/>
<path d="M349.67 148.868L365.705 172.97C367.052 174.995 366.507 177.729 364.486 179.082L360.42 181.805C358.391 183.163 355.645 182.617 354.291 180.585L338.236 156.489C336.885 154.462 337.433 151.723 339.459 150.37L343.545 147.642C345.575 146.287 348.318 146.836 349.67 148.868Z" fill="#464655"/>
<path d="M374.409 186.029L390.496 210.116C391.854 212.15 391.299 214.902 389.259 216.25L385.175 218.949C383.149 220.289 380.421 219.738 379.072 217.719L362.994 193.657C361.64 191.631 362.184 188.89 364.211 187.535L368.285 184.811C370.312 183.456 373.054 184.001 374.409 186.029Z" fill="#464655"/>
<path d="M366.838 137.41L407.667 198.683C409.019 200.711 408.47 203.451 406.442 204.803L402.34 207.537C400.312 208.89 397.571 208.341 396.219 206.313L355.376 145.044C354.023 143.015 354.573 140.273 356.603 138.922L360.718 136.183C362.747 134.834 365.486 135.382 366.838 137.41Z" fill="#464655"/>
<path d="M383.961 125.97L400.031 150.119C401.385 152.153 400.829 154.899 398.79 156.246L394.704 158.946C392.676 160.286 389.947 159.735 388.599 157.712L372.517 133.595C371.164 131.567 371.713 128.826 373.741 127.474L377.84 124.742C379.867 123.389 382.609 123.938 383.961 125.97Z" fill="#464655"/>
<path d="M408.716 163.209L424.761 187.308C426.111 189.334 425.564 192.07 423.541 193.423L419.466 196.147C417.437 197.504 414.691 196.956 413.339 194.924L397.294 170.825C395.945 168.799 396.491 166.063 398.514 164.71L402.589 161.986C404.617 160.629 407.363 161.176 408.716 163.209Z" fill="#464655"/>
<path d="M132.47 293.66L173.294 354.867C174.646 356.894 174.1 359.634 172.072 360.987L167.984 363.717C165.956 365.071 163.215 364.524 161.861 362.495L121.037 301.288C119.685 299.261 120.231 296.521 122.259 295.168L126.347 292.438C128.375 291.084 131.117 291.632 132.47 293.66Z" fill="#464655"/>
<path d="M115.331 305.109L131.359 329.15C132.71 331.176 132.165 333.911 130.142 335.266L126.076 337.988C124.049 339.345 121.305 338.8 119.95 336.771L103.903 312.736C102.549 310.709 103.095 307.968 105.123 306.614L109.209 303.886C111.236 302.533 113.978 303.08 115.331 305.109Z" fill="#464655"/>
<path d="M140.1 342.283L156.146 366.385C157.496 368.411 156.949 371.148 154.924 372.5L150.846 375.226C148.817 376.582 146.074 376.035 144.72 374.005L128.664 349.908C127.313 347.881 127.861 345.142 129.886 343.789L133.974 341.059C136.004 339.703 138.747 340.252 140.1 342.283Z" fill="#464655"/>
<path d="M98.1915 316.554L138.99 377.764C140.341 379.79 139.794 382.528 137.771 383.882L133.694 386.608C131.666 387.964 128.923 387.418 127.569 385.388L86.7465 324.186C85.3935 322.158 85.9425 319.417 87.9705 318.064L92.0725 315.33C94.0985 313.978 96.8395 314.526 98.1915 316.554Z" fill="#464655"/>
<path d="M121.044 210.12L161.862 148.863C163.215 146.833 165.957 146.285 167.986 147.639L172.073 150.368C174.1 151.721 174.646 154.461 173.295 156.488L132.461 217.711C131.111 219.734 128.38 220.284 126.353 218.942L122.282 216.247C120.244 214.899 119.69 212.152 121.044 210.12Z" fill="#464655"/>
<path d="M103.896 198.687L144.721 137.418C146.074 135.388 148.818 134.84 150.847 136.196L154.924 138.922C156.948 140.275 157.494 143.011 156.144 145.038L115.33 206.31C113.977 208.34 111.235 208.889 109.206 207.534L105.118 204.805C103.092 203.453 102.545 200.714 103.896 198.687Z" fill="#464655"/>
<path d="M86.7395 187.303L127.568 125.973C128.921 123.942 131.666 123.393 133.695 124.749L137.772 127.475C139.796 128.828 140.342 131.562 138.994 133.589L98.1905 194.928C96.8395 196.959 94.0965 197.509 92.0675 196.156L87.9655 193.422C85.9385 192.07 85.3905 189.331 86.7395 187.303Z" fill="#464655"/>
<path d="M338.242 354.867L354.289 330.832C355.644 328.803 358.388 328.258 360.415 329.615L364.481 332.338C366.504 333.692 367.048 336.428 365.698 338.454L349.67 362.494C348.317 364.523 345.575 365.071 343.547 363.717L339.461 360.989C337.434 359.635 336.888 356.895 338.242 354.867Z" fill="#464655"/>
<path d="M362.992 317.819L379.065 293.665C380.417 291.635 383.159 291.085 385.188 292.438L389.284 295.168C391.313 296.521 391.861 299.264 390.507 301.292L374.4 325.408C373.049 327.431 370.318 327.979 368.291 326.635L364.229 323.943C362.194 322.594 361.64 319.85 362.992 317.819Z" fill="#464655"/>
<path d="M355.375 366.376L371.432 342.278C372.784 340.249 375.525 339.7 377.554 341.053L381.658 343.79C383.685 345.142 384.233 347.88 382.883 349.909L366.836 374.009C365.485 376.038 362.746 376.588 360.716 375.237L356.601 372.498C354.573 371.147 354.023 368.405 355.375 366.376Z" fill="#464655"/>
<path d="M380.153 329.141L396.219 305.099C397.573 303.074 400.311 302.528 402.338 303.879L406.44 306.613C408.469 307.966 409.017 310.709 407.661 312.737L391.596 336.779C390.243 338.804 387.504 339.35 385.478 337.999L381.375 335.265C379.344 333.914 378.797 331.17 380.153 329.141Z" fill="#464655"/>
<path d="M372.52 377.759L388.595 353.703C389.945 351.684 392.672 351.134 394.698 352.473L398.784 355.173C400.823 356.521 401.379 359.27 400.023 361.304L383.96 385.392C382.608 387.42 379.867 387.967 377.839 386.616L373.74 383.884C371.711 382.53 371.164 379.787 372.52 377.759Z" fill="#464655"/>
<path d="M397.304 340.647L413.339 316.562C414.692 314.531 417.437 313.982 419.466 315.339L423.538 318.061C425.563 319.415 426.108 322.154 424.756 324.18L408.707 348.233C407.358 350.257 404.624 350.806 402.597 349.462L398.537 346.772C396.504 345.424 395.951 342.679 397.304 340.647Z" fill="#464655"/>
</g>
<defs>
<clipPath id="clip0_3_279">
<rect width="512" height="512" fill="white"/>
</clipPath>
</defs>
</svg>
