<svg width="512" height="512" viewBox="0 0 512 512" fill="none" xmlns="http://www.w3.org/2000/svg">
<g clip-path="url(#clip0_1_23)">
<path d="M256 512C397.385 512 512 397.385 512 256C512 114.615 397.385 0 256 0C114.615 0 0 114.615 0 256C0 397.385 114.615 512 256 512Z" fill="#CE1126"/>
<path d="M408 220.5L349.5 162H466.5L408 220.5ZM388.5 240L330 181.5V298.5L388.5 240ZM408 259.5L349.5 318H466.5L408 259.5ZM427.5 240L486 181.5V298.5L427.5 240Z" fill="white"/>
<path d="M61.6992 89.5C61.6992 89.5 99 43 158.301 19.5V196H61.6992V89.5Z" fill="white"/>
<path d="M158.301 19.5C158.301 19.5 196.5 -2.26498e-06 256 0V196H158.301V19.5Z" fill="#CE1126"/>
<path d="M61.6992 196V89.5C18 139 7.07417 196 7.07417 196H61.6992Z" fill="#002654"/>
<path d="M256 0C256 0 260.5 1.60933e-06 262 0.0733028V196L256 196V0Z" fill="white"/>
<path d="M5.70093 202H262L262 196L7.07897 196C7.07897 196 6 200.5 5.70093 202Z" fill="white"/>
</g>
<defs>
<clipPath id="clip0_1_23">
<rect width="512" height="512" fill="white"/>
</clipPath>
</defs>
</svg>
