<svg width="126" height="126" viewBox="0 0 126 126" fill="none" xmlns="http://www.w3.org/2000/svg">
<path d="M62.83 125.66C97.53 125.66 125.66 97.5301 125.66 62.83C125.66 28.13 97.53 0 62.83 0C28.1299 0 0 28.13 0 62.83C0 97.5301 28.1299 125.66 62.83 125.66Z" fill="#85A600"/>
<path d="M56.0275 94.0703C56.3255 93.6373 56.6721 93.2398 57.0605 92.8857C58.3829 91.9008 59.719 90.916 61.1171 90.0482C62.5495 89.0656 64.2458 88.5398 65.9828 88.5398C67.7199 88.5398 69.4162 89.0656 70.8486 90.0482C71.8727 90.7791 73.0994 91.172 74.3576 91.172C75.6158 91.172 76.8425 90.7791 77.8666 90.0482C79.3003 89.0526 81.0041 88.519 82.7496 88.519C84.4951 88.519 86.1989 89.0526 87.6326 90.0482C88.6444 90.7677 89.8552 91.1543 91.0968 91.1543C92.3384 91.1543 93.5492 90.7677 94.561 90.0482C97.9288 87.927 101.324 87.982 104.644 90.179C106.021 91.0606 107.295 92.0179 108.618 92.9339C108.818 93.0378 108.995 93.1834 109.134 93.361C109.274 93.5385 109.374 93.744 109.428 93.9635C109.482 94.183 109.488 94.4115 109.447 94.6336C109.405 94.8557 109.316 95.0663 109.186 95.2513C109.056 95.4362 108.888 95.5912 108.693 95.7059C108.499 95.8206 108.281 95.8922 108.057 95.916C107.832 95.9398 107.605 95.9153 107.39 95.844C107.176 95.7728 106.979 95.6564 106.813 95.5028L103.053 92.8719C102.073 92.1117 100.874 91.6866 99.6343 91.6593C98.3943 91.632 97.1783 92.004 96.1657 92.7204C94.695 93.7526 92.9418 94.3064 91.145 94.3064C89.3482 94.3064 87.595 93.7526 86.1243 92.7204C85.1372 92.0228 83.9582 91.6483 82.7496 91.6483C81.5409 91.6483 80.3619 92.0228 79.3749 92.7204C77.9149 93.7375 76.1783 94.2827 74.3989 94.2827C72.6196 94.2827 70.883 93.7375 69.423 92.7204C66.9987 91.1983 64.7466 91.2259 62.3843 92.8719L58.8788 95.3237C57.6253 96.1984 56.7782 96.0125 56.0481 94.6901L56.0275 94.0703Z" fill="white"/>
<path d="M56.0276 86.4531C56.3762 86.0152 56.766 85.6116 57.1915 85.2479C58.6779 84.1017 60.2352 83.0505 61.8541 82.1005C63.2249 81.3224 64.7862 80.9435 66.3612 81.0068C67.9362 81.0701 69.4621 81.573 70.7661 82.4586C71.8946 83.2518 73.2435 83.6709 74.6228 83.657C75.7061 83.6066 76.7536 83.2535 77.6463 82.6377C79.1534 81.5885 80.9478 81.0304 82.7841 81.0398C84.5545 81.0441 86.2825 81.5817 87.7428 82.5826C88.5403 83.1636 89.4754 83.527 90.456 83.6369C91.4366 83.7468 92.4289 83.5994 93.3352 83.2093C93.7945 83.0012 94.2367 82.7571 94.6576 82.4793C96.0997 81.5164 97.7967 81.0065 99.5307 81.0151C101.265 81.0237 102.957 81.5504 104.389 82.5275C105.877 83.4572 107.282 84.5179 108.714 85.5303C108.895 85.6442 109.05 85.7939 109.171 85.9702C109.292 86.1466 109.375 86.3458 109.416 86.5555C109.456 86.7653 109.454 86.9811 109.408 87.1898C109.362 87.3984 109.273 87.5954 109.148 87.7686C109.028 87.9412 108.875 88.0876 108.697 88.1988C108.519 88.31 108.32 88.3837 108.112 88.4153C107.904 88.4469 107.692 88.4358 107.489 88.3826C107.286 88.3294 107.096 88.2353 106.93 88.1061C105.67 87.2452 104.417 86.3636 103.17 85.4821C100.766 83.7878 98.5143 83.7672 96.0418 85.3099C94.5993 86.3093 92.8862 86.8447 91.1313 86.8447C89.3764 86.8447 87.6633 86.3093 86.2208 85.3099C85.2023 84.5844 83.9829 84.1945 82.7325 84.1945C81.482 84.1945 80.2626 84.5844 79.2441 85.3099C77.8054 86.2993 76.1003 86.829 74.3542 86.829C72.6081 86.829 70.9031 86.2993 69.4644 85.3099C66.9299 83.7327 64.7604 83.7534 62.2948 85.4752C61.1516 86.2695 60.0037 87.0661 58.8513 87.865C57.5841 88.7466 56.7851 88.5537 56 87.2658L56.0276 86.4531Z" fill="white"/>
<path d="M43.9572 79.6535L50.387 100.684L46.5313 101.863L40.1016 80.8323L43.9572 79.6535Z" fill="white"/>
<path d="M51.4095 101.522L52.5883 105.377L47.3306 106.985L46.1518 103.129L51.4095 101.522Z" fill="white"/>
<path fill-rule="evenodd" clip-rule="evenodd" d="M25.221 65.9265C21.4507 62.9741 18.2991 58.4118 16.5998 52.8536C13.0569 41.2653 18.2565 32.319 26.871 29.6853C35.4854 27.0516 44.2527 31.7278 47.7956 43.3161C49.3325 48.3431 49.429 53.359 48.3423 57.6424L43.0849 74.293L44.1224 77.6866L38.8647 79.294L37.8272 75.9005L25.221 65.9265ZM45.5255 58.1245C46.0652 57.9595 46.9371 59.605 46.82 60.1871L41.5207 74.818C41.4036 75.4001 39.8401 75.8781 39.4176 75.461L27.0384 66.2349C26.6158 65.8178 26.4185 63.9662 26.9582 63.8012C26.9582 63.8012 34.4527 68.4954 38.3702 67.2977C42.2877 66.1 45.5255 58.1245 45.5255 58.1245ZM38.3613 36.9041C37.6838 37.1112 36.9666 36.7299 36.7595 36.0524C36.5523 35.3748 36.9337 34.6576 37.6112 34.4505C38.2887 34.2433 39.0059 34.6247 39.2131 35.3022C39.4202 35.9798 39.0389 36.6969 38.3613 36.9041ZM22.7389 40.3389C22.946 41.0164 23.6632 41.3978 24.3407 41.1906C25.0183 40.9835 25.3996 40.2663 25.1925 39.5887C24.9853 38.9112 24.2681 38.5299 23.5906 38.737C22.9131 38.9442 22.5317 39.6613 22.7389 40.3389ZM35.2067 37.8686C34.5292 38.0757 33.812 37.6944 33.6048 37.0168C33.3977 36.3393 33.779 35.6221 34.4566 35.415C35.1341 35.2078 35.8513 35.5891 36.0584 36.2667C36.2656 36.9442 35.8842 37.6614 35.2067 37.8686ZM19.5842 41.3033C19.7914 41.9809 20.5086 42.3622 21.1861 42.1551C21.8637 41.9479 22.245 41.2307 22.0378 40.5532C21.8307 39.8757 21.1135 39.4943 20.436 39.7015C19.7584 39.9086 19.3771 40.6258 19.5842 41.3033ZM39.3258 40.0587C38.6483 40.2659 37.9311 39.8845 37.7239 39.207C37.5168 38.5295 37.8981 37.8123 38.5757 37.6051C39.2532 37.398 39.9704 37.7793 40.1775 38.4568C40.3847 39.1344 40.0033 39.8516 39.3258 40.0587ZM23.7033 43.4935C23.9105 44.1711 24.6277 44.5524 25.3052 44.3452C25.9828 44.1381 26.3641 43.4209 26.1569 42.7434C25.9498 42.0658 25.2326 41.6845 24.5551 41.8916C23.8775 42.0988 23.4962 42.816 23.7033 43.4935ZM36.1712 41.0232C35.4936 41.2303 34.7764 40.849 34.5693 40.1715C34.3621 39.4939 34.7435 38.7767 35.421 38.5696C36.0986 38.3624 36.8158 38.7438 37.0229 39.4213C37.23 40.0989 36.8487 40.816 36.1712 41.0232ZM20.5487 44.458C20.7559 45.1355 21.473 45.5169 22.1506 45.3097C22.8281 45.1026 23.2095 44.3854 23.0023 43.7078C22.7952 43.0303 22.078 42.649 21.4004 42.8561C20.7229 43.0633 20.3416 43.7804 20.5487 44.458ZM40.2903 43.2134C39.6127 43.4205 38.8955 43.0392 38.6884 42.3616C38.4812 41.6841 38.8626 40.9669 39.5401 40.7598C40.2177 40.5526 40.9349 40.9339 41.142 41.6115C41.3491 42.289 40.9678 43.0062 40.2903 43.2134ZM24.6678 46.6481C24.875 47.3257 25.5921 47.707 26.2697 47.4999C26.9472 47.2927 27.3286 46.5755 27.1214 45.898C26.9143 45.2205 26.1971 44.8391 25.5195 45.0463C24.842 45.2534 24.4607 45.9706 24.6678 46.6481ZM37.1356 44.1778C36.4581 44.385 35.7409 44.0036 35.5338 43.3261C35.3266 42.6486 35.708 41.9314 36.3855 41.7242C37.063 41.5171 37.7802 41.8984 37.9874 42.5759C38.1945 43.2535 37.8132 43.9707 37.1356 44.1778ZM21.5132 47.6126C21.7203 48.2902 22.4375 48.6715 23.115 48.4643C23.7926 48.2572 24.1739 47.54 23.9668 46.8625C23.7596 46.1849 23.0424 45.8036 22.3649 46.0107C21.6874 46.2179 21.306 46.9351 21.5132 47.6126ZM41.2547 46.368C40.5772 46.5751 39.86 46.1938 39.6529 45.5163C39.4457 44.8387 39.8271 44.1215 40.5046 43.9144C41.1821 43.7072 41.8993 44.0886 42.1065 44.7661C42.3136 45.4437 41.9323 46.1608 41.2547 46.368ZM25.6323 49.8028C25.8394 50.4803 26.5566 50.8617 27.2341 50.6545C27.9117 50.4474 28.293 49.7302 28.0859 49.0526C27.8787 48.3751 27.1615 47.9938 26.484 48.2009C25.8065 48.408 25.4251 49.1252 25.6323 49.8028ZM38.1001 47.3325C37.4226 47.5396 36.7054 47.1583 36.4982 46.4807C36.2911 45.8032 36.6724 45.086 37.35 44.8788C38.0275 44.6717 38.7447 45.053 38.9518 45.7306C39.159 46.4081 38.7776 47.1253 38.1001 47.3325ZM22.4776 50.7672C22.6848 51.4448 23.402 51.8261 24.0795 51.619C24.7571 51.4118 25.1384 50.6946 24.9312 50.0171C24.7241 49.3396 24.0069 48.9582 23.3294 49.1654C22.6518 49.3725 22.2705 50.0897 22.4776 50.7672ZM42.2192 49.5226C41.5417 49.7298 40.8245 49.3484 40.6173 48.6709C40.4102 47.9933 40.7915 47.2762 41.4691 47.069C42.1466 46.8619 42.8638 47.2432 43.0709 47.9207C43.2781 48.5983 42.8967 49.3155 42.2192 49.5226ZM26.5967 52.9574C26.8039 53.6349 27.5211 54.0163 28.1986 53.8091C28.8762 53.602 29.2575 52.8848 29.0503 52.2073C28.8432 51.5297 28.126 51.1484 27.4485 51.3555C26.7709 51.5627 26.3896 52.2799 26.5967 52.9574ZM39.0646 50.4871C38.387 50.6942 37.6698 50.3129 37.4627 49.6354C37.2556 48.9578 37.6369 48.2406 38.3144 48.0335C38.992 47.8263 39.7092 48.2077 39.9163 48.8852C40.1234 49.5628 39.7421 50.2799 39.0646 50.4871ZM23.4421 53.9219C23.6493 54.5994 24.3664 54.9807 25.044 54.7736C25.7215 54.5665 26.1029 53.8493 25.8957 53.1717C25.6886 52.4942 24.9714 52.1129 24.2938 52.32C23.6163 52.5271 23.235 53.2443 23.4421 53.9219ZM43.1837 52.6772C42.5061 52.8844 41.7889 52.5031 41.5818 51.8255C41.3747 51.148 41.756 50.4308 42.4335 50.2236C43.1111 50.0165 43.8283 50.3978 44.0354 51.0754C44.2425 51.7529 43.8612 52.4701 43.1837 52.6772ZM27.5612 56.112C27.7684 56.7896 28.4855 57.1709 29.1631 56.9638C29.8406 56.7566 30.222 56.0394 30.0148 55.3619C29.8077 54.6844 29.0905 54.303 28.4129 54.5102C27.7354 54.7173 27.3541 55.4345 27.5612 56.112ZM40.029 53.6417C39.3515 53.8489 38.6343 53.4675 38.4272 52.79C38.22 52.1124 38.6014 51.3953 39.2789 51.1881C39.9564 50.981 40.6736 51.3623 40.8808 52.0398C41.0879 52.7174 40.7066 53.4346 40.029 53.6417ZM24.4066 57.0765C24.6137 57.754 25.3309 58.1354 26.0085 57.9282C26.686 57.7211 27.0673 57.0039 26.8602 56.3264C26.653 55.6488 25.9358 55.2675 25.2583 55.4746C24.5808 55.6818 24.1994 56.399 24.4066 57.0765ZM44.1481 55.8319C43.4706 56.039 42.7534 55.6577 42.5463 54.9801C42.3391 54.3026 42.7205 53.5854 43.398 53.3783C44.0755 53.1711 44.7927 53.5525 44.9999 54.23C45.207 54.9075 44.8257 55.6247 44.1481 55.8319ZM28.5257 59.2667C28.7328 59.9442 29.45 60.3255 30.1276 60.1184C30.8051 59.9113 31.1864 59.1941 30.9793 58.5165C30.7721 57.839 30.0549 57.4577 29.3774 57.6648C28.6999 57.8719 28.3185 58.5891 28.5257 59.2667ZM40.9935 56.7963C40.316 57.0035 39.5988 56.6222 39.3916 55.9446C39.1845 55.2671 39.5658 54.5499 40.2434 54.3427C40.9209 54.1356 41.6381 54.5169 41.8452 55.1945C42.0524 55.872 41.671 56.5892 40.9935 56.7963ZM25.371 60.2311C25.5782 60.9087 26.2954 61.29 26.9729 61.0829C27.6505 60.8757 28.0318 60.1585 27.8246 59.481C27.6175 58.8035 26.9003 58.4221 26.2228 58.6293C25.5452 58.8364 25.1639 59.5536 25.371 60.2311Z" fill="white"/>
<path d="M72 42C72 45.3137 69.3137 48 66 48C62.6863 48 60 45.3137 60 42C60 38.6863 62.6863 36 66 36C69.3137 36 72 38.6863 72 42Z" fill="white"/>
</svg>
