<svg width="126" height="126" viewBox="0 0 126 126" fill="none" xmlns="http://www.w3.org/2000/svg">
<path d="M62.83 125.66C97.5301 125.66 125.66 97.5301 125.66 62.83C125.66 28.13 97.5301 0 62.83 0C28.13 0 0 28.13 0 62.83C0 97.5301 28.13 125.66 62.83 125.66Z" fill="#CCBA1C"/>
<path d="M72.2528 67.7801C73.1852 67.7801 73.9209 67.3333 74.4599 66.4397C75.0038 65.5414 75.2757 64.2199 75.2757 62.4752C75.2757 61.3215 75.1519 60.3522 74.9043 59.5674C74.6566 58.7825 74.307 58.1915 73.8553 57.7943C73.4037 57.3924 72.8696 57.1915 72.2528 57.1915C71.3253 57.1915 70.5921 57.6407 70.053 58.539C69.514 59.4326 69.2421 60.7447 69.2372 62.4752C69.2324 63.6336 69.3513 64.6076 69.5941 65.3972C69.8418 66.1868 70.1914 66.7825 70.643 67.1844C71.0947 67.5816 71.6313 67.7801 72.2528 67.7801Z" fill="white"/>
<path fill-rule="evenodd" clip-rule="evenodd" d="M65.8414 120H59.1117C58.8954 120 58.6847 119.945 58.4729 119.89C58.3231 119.85 58.1727 119.811 58.0196 119.791C57.2583 119.686 56.4939 119.597 55.7297 119.507C54.0435 119.31 52.3584 119.112 50.7116 118.747C43.1078 117.202 35.9039 114.107 29.5484 109.656C23.193 105.205 17.8222 99.4938 13.7707 92.8773C9.79843 86.716 7.09852 79.8228 5.82973 72.6029C4.56093 65.3831 4.74891 57.9825 6.38252 50.8363C8.97466 38.2538 15.7716 26.9275 25.6561 18.7195C35.2273 10.4066 47.3434 5.59847 60.0112 5.0859C70.1595 4.51134 80.2625 6.82789 89.1463 11.7663C96.9844 15.884 103.766 21.7545 108.965 28.921C114.163 36.0874 117.637 44.3564 119.117 53.0846C119.391 54.5121 119.568 55.9546 119.745 57.3967C119.827 58.0634 119.909 58.7305 120 59.3955V66.1401C120 66.7069 119.904 67.3085 119.816 67.8682C119.784 68.0696 119.752 68.2655 119.727 68.4525C118.637 79.4246 114.322 89.8286 107.328 98.3533C98.5756 109.355 86.0762 116.747 72.2177 119.117C70.7603 119.378 69.3177 119.558 67.8848 119.737L67.8833 119.737C67.2006 119.822 66.5202 119.907 65.8414 120ZM65.8414 34.0874V41.4903C65.88 42.0158 66.1219 42.5055 66.516 42.8554C70.981 46.2919 75.4782 49.6962 80.0075 53.0685C80.2241 53.2079 80.4664 53.3024 80.7202 53.3466C80.974 53.3907 81.2341 53.3836 81.4851 53.3255C83.5931 52.6932 85.7011 52.0486 87.8185 51.4011L87.8198 51.4007C90.5419 50.5684 93.2795 49.7313 96.0527 48.9094C96.3343 48.8404 96.592 48.6965 96.7984 48.493C97.0048 48.2894 97.1523 48.0337 97.2251 47.7532C98.9169 42.8928 100.614 38.0324 102.317 33.1721C102.438 32.9091 102.478 32.6161 102.432 32.3301C102.386 32.0442 102.257 31.7783 102.06 31.5662C96.4661 24.4949 89.0942 19.0363 80.6981 15.7487C80.4451 15.6082 80.1546 15.5498 79.8669 15.5814C79.5792 15.6131 79.3084 15.7332 79.092 15.9253C76.6114 17.8114 74.1197 19.631 71.6299 21.4492L71.629 21.4499C69.8793 22.7276 68.1306 24.0046 66.3874 25.3035C66.0227 25.6297 65.7983 26.0842 65.7611 26.5721C65.8093 29.0772 65.8414 31.5823 65.8414 34.0874ZM95.3621 91.1109V91.416C97.4166 91.3116 99.475 91.3116 101.53 91.416C102.298 91.5409 103.086 91.4087 103.771 91.0399C104.457 90.6712 105.001 90.0864 105.32 89.3766C109.681 82.4174 112.313 74.5163 112.997 66.3328C113.048 66.0254 113.008 65.7099 112.883 65.4248C112.757 65.1396 112.551 64.8972 112.291 64.7269C110.171 63.2014 108.058 61.6598 105.946 60.1182L105.945 60.1174C103.834 58.576 101.722 57.0347 99.6021 55.5094C99.3831 55.3687 99.138 55.2734 98.8814 55.2293C98.6248 55.1851 98.362 55.193 98.1085 55.2524C93.2901 56.6977 88.3271 58.2072 83.4445 59.7488C83.202 59.8411 82.9805 59.9809 82.7929 60.1602C82.6053 60.3395 82.4555 60.5545 82.3524 60.7926C80.6177 65.9955 78.9314 71.2091 77.2931 76.4335C77.1642 76.9095 77.2277 77.417 77.4698 77.8466C80.3608 82.0218 83.2946 86.1702 86.2713 90.2919C86.4239 90.4829 86.6136 90.6411 86.8289 90.757C87.0442 90.8729 87.2806 90.9441 87.5241 90.9663C89.8482 91.1194 92.0637 91.1157 94.317 91.112C94.6642 91.1115 95.0124 91.1109 95.3621 91.1109ZM28.9486 90.2277V90.3722H36.9792C37.4672 90.335 37.9219 90.1107 38.2481 89.746C41.1927 85.8705 44.0944 81.9737 46.9533 78.0554C47.0902 77.8558 47.185 77.6305 47.2319 77.393C47.2789 77.1556 47.277 76.9111 47.2263 76.6744C45.481 71.0861 43.6929 65.5085 41.8619 59.9415C41.785 59.7279 41.6636 59.533 41.5058 59.3696C41.348 59.2063 41.1574 59.0783 40.9464 58.994C36.3315 57.3882 31.7058 55.8145 27.0695 54.2729C26.6624 54.1666 26.2299 54.2242 25.8649 54.4334C21.3891 57.4738 16.9188 60.5357 12.4537 63.6189C12.2969 63.7482 12.1697 63.9098 12.081 64.0927C11.9923 64.2756 11.9441 64.4755 11.9398 64.6787C12.3073 73.4951 14.9943 82.0586 19.7294 89.5051C19.8658 89.7632 20.0764 89.9746 20.334 90.112C20.5916 90.2493 20.8846 90.3064 21.175 90.2758C23.3021 90.2223 25.4738 90.2246 27.6436 90.2268C28.0785 90.2273 28.5142 90.2277 28.9486 90.2277ZM62.1633 81.3795H53.6509C53.1253 81.418 52.6356 81.66 52.2857 82.0539C49.3839 85.8972 46.509 89.7674 43.6608 93.6642C43.3888 94.1116 43.3023 94.6475 43.4198 95.1577C44.2999 98.1286 45.2023 101.094 46.104 104.057C46.7327 106.123 47.3611 108.188 47.9813 110.253C48.0419 110.539 48.1852 110.801 48.3937 111.007C48.6021 111.212 48.8665 111.352 49.1537 111.409C57.4058 113.698 66.1104 113.808 74.4181 111.73C74.7155 111.697 74.9979 111.582 75.2334 111.398C75.4689 111.213 75.6483 110.967 75.7512 110.686C77.4001 105.697 79.0919 100.714 80.8265 95.7357C80.9408 95.4477 80.9742 95.1339 80.9233 94.8283C80.8723 94.5227 80.7389 94.2368 80.5374 94.0014C77.7428 90.126 74.9803 86.2292 72.2498 82.3109C72.0718 82.0129 71.8127 81.7716 71.5028 81.6152C71.1928 81.4588 70.8447 81.3938 70.4991 81.4277C69.5722 81.4224 68.6453 81.4152 67.7183 81.4081C65.8667 81.3938 64.015 81.3795 62.1633 81.3795ZM59.1278 34.0232V26.6203C59.1072 26.3611 59.0355 26.1085 58.9169 25.877C58.7984 25.6455 58.6353 25.4397 58.4371 25.2714C55.4174 23.0157 52.3812 20.7851 49.3462 18.5554C48.1681 17.6899 46.9895 16.8241 45.8129 15.9575C45.6123 15.7739 45.3614 15.6544 45.0924 15.6143C44.8234 15.5743 44.5486 15.6155 44.3032 15.7326C36.4566 18.8025 29.4928 23.7679 24.0339 30.1852C23.8187 30.3853 23.6697 30.6462 23.6065 30.9331C23.5434 31.22 23.5692 31.5192 23.6806 31.7911C25.276 36.8013 26.85 41.8222 28.4026 46.8539C28.465 47.1394 28.6042 47.4024 28.8052 47.6147C29.0061 47.8269 29.2612 47.9803 29.5429 48.0583C33.9758 49.5249 38.3926 51.0237 42.7934 52.5546C43.0807 52.6717 43.3938 52.7111 43.7011 52.6688C44.0084 52.6265 44.2992 52.5041 44.5441 52.3138C49.1377 49.1663 53.7472 46.0456 58.3729 42.9517C58.6515 42.7944 58.8768 42.5576 59.0199 42.2715C59.163 41.9854 59.2173 41.6631 59.1759 41.3459C59.1135 39.4346 59.1191 37.5331 59.1246 35.6413C59.1262 35.1012 59.1278 34.5617 59.1278 34.0232ZM72.2528 70C71.0534 70 70.0239 69.7045 69.1644 69.1135C68.3097 68.5177 67.6517 67.6596 67.1904 66.539C66.7339 65.4137 66.5057 64.0591 66.5057 62.4752C66.5105 60.8913 66.7412 59.5437 67.1977 58.4326C67.659 57.3168 68.317 56.4657 69.1716 55.8794C70.0312 55.2931 71.0582 55 72.2528 55C73.4474 55 74.4745 55.2931 75.334 55.8794C76.1935 56.4657 76.8515 57.3168 77.308 58.4326C77.7693 59.5485 78 60.896 78 62.4752C78 64.0638 77.7693 65.4208 77.308 66.5461C76.8515 67.6667 76.1935 68.5225 75.334 69.1135C74.4793 69.7045 73.4523 70 72.2528 70ZM59.1499 69.922C58.1787 69.922 57.3094 69.7447 56.5422 69.3901C55.7749 69.0307 55.1655 68.539 54.7138 67.9149C54.2671 67.2908 54.0291 66.5768 54 65.773H56.6223C56.6708 66.3688 56.9355 66.8558 57.4163 67.234C57.897 67.6076 58.4749 67.7943 59.1499 67.7943C59.6792 67.7943 60.1502 67.6761 60.563 67.4397C60.9758 67.2033 61.3011 66.8747 61.5391 66.4539C61.777 66.0331 61.8936 65.5532 61.8887 65.0142C61.8936 64.4657 61.7746 63.9787 61.5318 63.5532C61.289 63.1277 60.9563 62.7943 60.5339 62.5532C60.1114 62.3073 59.6258 62.1844 59.077 62.1844C58.6303 62.1797 58.1908 62.26 57.7586 62.4255C57.3264 62.591 56.9841 62.8085 56.7315 63.078L54.2914 62.6879L55.0708 55.1986H63.7243V57.3972H57.307L56.8772 61.2482H56.9646C57.2414 60.9314 57.6323 60.669 58.1374 60.461C58.6424 60.2482 59.196 60.1418 59.7982 60.1418C60.7014 60.1418 61.5075 60.3499 62.2165 60.766C62.9255 61.1773 63.4839 61.7447 63.8918 62.4681C64.2997 63.1915 64.5037 64.0189 64.5037 64.9504C64.5037 65.9102 64.2755 66.766 63.819 67.5177C63.3674 68.2648 62.7385 68.8534 61.9324 69.2837C61.1311 69.7092 60.2036 69.922 59.1499 69.922ZM48.1548 64.7429V67.4489H49.7429V64.7429H52.4489V63.1548H49.7429V60.4489H48.1548V63.1548H45.4489V64.7429H48.1548Z" fill="white"/>
</svg>
