<svg width="126" height="126" viewBox="0 0 126 126" fill="none" xmlns="http://www.w3.org/2000/svg">
<path d="M62.83 125.66C97.5301 125.66 125.66 97.5301 125.66 62.83C125.66 28.13 97.5301 0 62.83 0C28.13 0 0 28.13 0 62.83C0 97.5301 28.13 125.66 62.83 125.66Z" fill="#26B559"/>
<path d="M64.93 98.61H60.74C60.51 98.61 60.29 98.51 60.06 98.48C58.54 98.27 56.9999 98.16 55.5099 97.83C50.7757 96.8674 46.2904 94.9402 42.3334 92.1686C38.3764 89.397 35.0325 85.8402 32.5099 81.72C30.0368 77.8832 28.3558 73.5906 27.5658 69.0946C26.7758 64.5987 26.8929 59.9901 27.91 55.54C29.5239 47.7045 33.7558 40.6513 39.91 35.54C45.8692 30.3634 53.4128 27.3692 61.3 27.05C67.6185 26.6922 73.9088 28.1348 79.44 31.2101C84.3201 33.7743 88.5426 37.43 91.7791 41.8927C95.0156 46.3555 97.1787 51.5048 98.1 56.94C98.35 58.24 98.47 59.56 98.65 60.87V65.07C98.65 65.55 98.54 66.07 98.48 66.51C97.801 73.3427 95.1149 79.8215 90.7599 85.13C85.3108 91.9811 77.5285 96.5842 68.9 98.06C67.56 98.3 66.24 98.43 64.93 98.61ZM64.93 45.11C64.93 46.65 64.93 48.18 64.93 49.72C64.954 50.0472 65.1047 50.3522 65.35 50.57C68.13 52.71 70.93 54.83 73.75 56.93C73.8849 57.0168 74.0358 57.0757 74.1938 57.1032C74.3518 57.1307 74.5137 57.1262 74.67 57.0901C77.67 56.1901 80.67 55.2501 83.74 54.3401C83.9153 54.2971 84.0758 54.2075 84.2043 54.0807C84.3328 53.954 84.4246 53.7948 84.47 53.62C85.5233 50.5934 86.58 47.5667 87.64 44.54C87.7154 44.3762 87.7404 44.1938 87.7119 44.0157C87.6834 43.8377 87.6027 43.6721 87.48 43.54C83.9974 39.1365 79.4076 35.7373 74.18 33.69C74.0224 33.6025 73.8416 33.5661 73.6625 33.5858C73.4833 33.6055 73.3148 33.6804 73.18 33.8C70.55 35.8 67.9 37.68 65.27 39.64C65.0428 39.8431 64.9031 40.1262 64.88 40.43C64.91 41.99 64.93 43.55 64.93 45.11ZM83.31 80.62V80.81C84.5892 80.745 85.8708 80.745 87.15 80.81C87.6283 80.8878 88.1189 80.8055 88.5457 80.5758C88.9724 80.3462 89.3114 79.9821 89.5099 79.54C92.225 75.2064 93.8639 70.2861 94.29 65.19C94.3215 64.9986 94.2968 64.8022 94.2186 64.6246C94.1405 64.447 94.0124 64.2961 93.85 64.19C91.21 62.29 88.59 60.35 85.95 58.45C85.8136 58.3624 85.661 58.3031 85.5012 58.2756C85.3415 58.2481 85.1778 58.253 85.02 58.29C82.02 59.19 78.93 60.1301 75.89 61.0901C75.739 61.1475 75.601 61.2346 75.4843 61.3462C75.3675 61.4579 75.2742 61.5918 75.21 61.74C74.13 64.98 73.08 68.2267 72.06 71.48C71.9798 71.7764 72.0193 72.0925 72.17 72.36C73.97 74.96 75.7966 77.5433 77.65 80.11C77.745 80.229 77.8631 80.3275 77.9971 80.3996C78.1312 80.4718 78.2784 80.5161 78.43 80.53C80.1 80.64 81.68 80.62 83.31 80.62ZM41.96 80.07V80.16C43.62 80.16 45.27 80.16 46.96 80.16C47.2638 80.1369 47.5469 79.9972 47.75 79.7701C49.5833 77.3567 51.39 74.93 53.17 72.49C53.2552 72.3657 53.3142 72.2254 53.3434 72.0775C53.3727 71.9297 53.3715 71.7774 53.34 71.63C52.2533 68.15 51.14 64.6767 50 61.21C49.9521 61.077 49.8765 60.9556 49.7783 60.8539C49.68 60.7522 49.5613 60.6725 49.43 60.62C46.5567 59.62 43.6766 58.64 40.79 57.68C40.5365 57.6138 40.2672 57.6497 40.04 57.78C37.2533 59.6733 34.47 61.58 31.69 63.5C31.5923 63.5805 31.5132 63.6812 31.4579 63.7951C31.4027 63.909 31.3727 64.0335 31.37 64.16C31.5989 69.6502 33.2718 74.9829 36.22 79.62C36.3049 79.7808 36.436 79.9124 36.5964 79.998C36.7568 80.0835 36.9392 80.1191 37.12 80.1C38.71 80.06 40.34 80.07 41.96 80.07ZM62.64 74.56C60.87 74.56 59.1 74.56 57.34 74.56C57.0128 74.584 56.7078 74.7347 56.49 74.98C54.6833 77.3733 52.8933 79.7834 51.12 82.2101C50.9506 82.4886 50.8968 82.8223 50.97 83.14C51.9 86.28 52.87 89.41 53.81 92.54C53.8477 92.7184 53.937 92.8817 54.0668 93.0097C54.1966 93.1377 54.3611 93.2248 54.54 93.26C59.6779 94.6854 65.0975 94.7543 70.27 93.4601C70.4551 93.4398 70.6309 93.3681 70.7776 93.2533C70.9242 93.1384 71.0359 92.9849 71.1 92.81C72.1266 89.7034 73.1799 86.6 74.2599 83.5C74.3311 83.3207 74.3519 83.1253 74.3202 82.935C74.2885 82.7446 74.2054 82.5666 74.08 82.42C72.34 80.0067 70.62 77.58 68.92 75.14C68.8091 74.9545 68.6478 74.8042 68.4548 74.7068C68.2618 74.6094 68.0451 74.569 67.83 74.5901C66.1 74.5801 64.37 74.56 62.64 74.56ZM60.75 45.07C60.75 43.53 60.75 42 60.75 40.46C60.7372 40.2986 60.6925 40.1413 60.6187 39.9972C60.5449 39.853 60.4434 39.7248 60.3199 39.62C57.7099 37.67 55.08 35.75 52.46 33.82C52.335 33.7057 52.1788 33.6313 52.0114 33.6063C51.8439 33.5814 51.6728 33.6071 51.52 33.68C46.6345 35.5917 42.2988 38.6838 38.9 42.68C38.766 42.8046 38.6732 42.9671 38.6339 43.1457C38.5946 43.3244 38.6107 43.5107 38.68 43.68C39.6733 46.8 40.6533 49.9267 41.62 53.06C41.6589 53.2378 41.7456 53.4016 41.8707 53.5338C41.9958 53.6659 42.1546 53.7615 42.33 53.81C45.09 54.7234 47.84 55.6567 50.58 56.61C50.7588 56.6829 50.9537 56.7075 51.1451 56.6811C51.3364 56.6548 51.5175 56.5785 51.67 56.4601C54.53 54.5001 57.4 52.5567 60.28 50.63C60.4534 50.5321 60.5937 50.3846 60.6828 50.2065C60.7719 50.0283 60.8057 49.8276 60.78 49.63C60.73 48.1 60.75 46.58 60.75 45.07Z" fill="white"/>
</svg>
