<svg width="126" height="126" viewBox="0 0 126 126" fill="none" xmlns="http://www.w3.org/2000/svg">
<path d="M62.83 125.66C97.53 125.66 125.66 97.5301 125.66 62.83C125.66 28.13 97.53 0 62.83 0C28.1299 0 0 28.13 0 62.83C0 97.5301 28.1299 125.66 62.83 125.66Z" fill="#4900A6"/>
<path d="M11.0344 67.56C11.3361 67.1298 11.6824 66.7328 12.0675 66.3754C13.2659 65.4732 14.5124 64.6536 15.7315 63.7858C17.3738 62.5882 19.3761 61.988 21.4065 62.0847C21.6088 62.0833 21.804 62.0101 21.9574 61.8781C23.9731 60.092 25.9818 58.2968 27.9837 56.4924C28.1587 56.3243 28.3052 56.1289 28.4176 55.9138C30.975 51.5107 33.521 47.1052 36.0554 42.6974C37.4811 40.2318 39.6023 39.4398 42.2952 40.3902C48.6773 42.6308 55.0616 44.8737 61.4483 47.119C63.9552 47.9936 65.1123 50.4592 64.0998 52.732C63.6725 53.6873 62.8952 54.4425 61.928 54.8422C60.9608 55.2419 59.8772 55.2557 58.9001 54.8808C55.5529 53.7191 52.2127 52.546 48.8793 51.3614L43.3696 49.4262C43.166 49.323 42.9432 49.2635 42.7154 49.2514C42.4876 49.2393 42.2597 49.2749 42.0464 49.356C41.8331 49.437 41.6391 49.5617 41.4768 49.722C41.3144 49.8823 41.1874 50.0748 41.1037 50.287C40.043 52.119 38.9894 53.9579 37.915 55.7968C37.8347 55.9164 37.7867 56.0547 37.7759 56.1984C37.765 56.342 37.7916 56.486 37.853 56.6163C38.1147 57.305 38.3557 57.9455 38.6312 58.6825C40.8902 55.9276 43.7346 54.8188 47.1712 55.6384C48.7273 55.961 50.152 56.74 51.2634 57.8759C52.3748 59.0118 53.1225 60.4531 53.411 62.0158C54.4725 62.0807 55.5299 62.2002 56.5791 62.374C57.4265 62.5548 58.237 62.8785 58.9758 63.3313C60.6356 64.385 62.2265 65.5352 63.7968 66.6784C64.0644 66.8884 64.2556 67.1806 64.3407 67.5099C64.4258 67.8392 64.4002 68.1874 64.2678 68.5007C64.1354 68.8141 63.9036 69.0751 63.6082 69.2437C63.3127 69.4122 62.97 69.4788 62.6329 69.4333C62.2825 69.3468 61.9526 69.1924 61.6618 68.9788C60.4566 68.1592 59.2651 67.3121 58.0736 66.4718C57.0905 65.6914 55.8803 65.2519 54.6255 65.2196C53.3708 65.1873 52.1395 65.564 51.1176 66.2928C49.6461 67.3231 47.8932 67.8758 46.0968 67.8758C44.3005 67.8758 42.5476 67.3231 41.0761 66.2928C40.0903 65.5923 38.9108 65.216 37.7014 65.216C36.492 65.216 35.3126 65.5923 34.3267 66.2928C32.866 67.308 31.1296 67.8521 29.3508 67.8521C27.5719 67.8521 25.8356 67.308 24.3748 66.2928C21.9437 64.7707 19.7054 64.7914 17.3362 66.4443L13.8306 68.8961C12.5771 69.7708 11.7231 69.5848 11 68.2556L11.0344 67.56Z" fill="white"/>
<path d="M11.0344 83.4211C11.3325 82.9881 11.6791 82.5907 12.0675 82.2365C13.3898 81.2517 14.726 80.2668 16.124 79.399C17.5565 78.4165 19.2528 77.8906 20.9898 77.8906C22.7268 77.8906 24.4232 78.4165 25.8556 79.399C26.8796 80.13 28.1064 80.5229 29.3646 80.5229C30.6227 80.5229 31.8495 80.13 32.8736 79.399C34.3073 78.4034 36.011 77.8699 37.7565 77.8699C39.502 77.8699 41.2058 78.4034 42.6395 79.399C43.6514 80.1185 44.8622 80.5051 46.1038 80.5051C47.3453 80.5051 48.5561 80.1185 49.568 79.399C52.9358 77.2778 56.3312 77.3329 59.6508 79.5299C61.0282 80.4114 62.3023 81.3688 63.6246 82.2848C63.8254 82.3886 64.0016 82.5342 64.1414 82.7118C64.2812 82.8894 64.3814 83.0948 64.4352 83.3143C64.4891 83.5339 64.4953 83.7623 64.4535 83.9845C64.4117 84.2066 64.3229 84.4172 64.193 84.6021C64.0631 84.7871 63.8951 84.9421 63.7003 85.0567C63.5055 85.1714 63.2885 85.243 63.0637 85.2669C62.839 85.2907 62.6117 85.2661 62.3972 85.1949C62.1828 85.1236 61.986 85.0073 61.8202 84.8537L58.0599 82.2228C57.0798 81.4625 55.8813 81.0374 54.6413 81.0102C53.4013 80.9829 52.1853 81.3549 51.1727 82.0713C49.702 83.1035 47.9488 83.6573 46.152 83.6573C44.3551 83.6573 42.602 83.1035 41.1313 82.0713C40.1442 81.3737 38.9652 80.9991 37.7565 80.9991C36.5479 80.9991 35.3689 81.3737 34.3819 82.0713C32.9219 83.0883 31.1852 83.6336 29.4059 83.6336C27.6265 83.6336 25.8899 83.0883 24.4299 82.0713C22.0057 80.5492 19.7535 80.5767 17.3913 82.2228L13.8857 84.6746C12.6323 85.5493 11.7851 85.3633 11.0551 84.041L11.0344 83.4211Z" fill="white"/>
<path d="M61.5537 83.879C61.8517 83.446 62.1983 83.0485 62.5868 82.6944C63.9091 81.7095 65.2452 80.7247 66.6433 79.8569C68.0757 78.8743 69.772 78.3485 71.5091 78.3485C73.2461 78.3485 74.9424 78.8743 76.3748 79.8569C77.3989 80.5878 78.6256 80.9807 79.8838 80.9807C81.142 80.9807 82.3688 80.5878 83.3928 79.8569C84.8265 78.8613 86.5303 78.3277 88.2758 78.3277C90.0213 78.3277 91.7251 78.8613 93.1588 79.8569C94.1706 80.5764 95.3814 80.963 96.623 80.963C97.8646 80.963 99.0754 80.5764 100.087 79.8569C103.455 77.7356 106.85 77.7907 110.17 79.9877C111.547 80.8693 112.822 81.8266 114.144 82.7426C114.345 82.8465 114.521 82.9921 114.661 83.1697C114.8 83.3472 114.901 83.5527 114.954 83.7722C115.008 83.9917 115.015 84.2202 114.973 84.4423C114.931 84.6644 114.842 84.875 114.712 85.06C114.582 85.2449 114.414 85.3999 114.22 85.5146C114.025 85.6293 113.808 85.7009 113.583 85.7247C113.358 85.7485 113.131 85.724 112.916 85.6527C112.702 85.5815 112.505 85.4651 112.339 85.3115L108.579 82.6806C107.599 81.9204 106.401 81.4953 105.161 81.468C103.92 81.4407 102.705 81.8127 101.692 82.5291C100.221 83.5613 98.468 84.1151 96.6712 84.1151C94.8744 84.1151 93.1212 83.5613 91.6505 82.5291C90.6634 81.8315 89.4845 81.4569 88.2758 81.4569C87.0671 81.4569 85.8882 81.8315 84.9011 82.5291C83.4411 83.5462 81.7045 84.0914 79.9251 84.0914C78.1458 84.0914 76.4092 83.5462 74.9492 82.5291C72.5249 81.007 70.2728 81.0346 67.9105 82.6806L64.405 85.1324C63.1515 86.0071 62.3044 85.8212 61.5743 84.4988L61.5537 83.879Z" fill="white"/>
<path d="M11.0345 75.804C11.3832 75.3661 11.7729 74.9625 12.1984 74.5987C13.6848 73.4525 15.2421 72.4013 16.861 71.4513C18.2319 70.6732 19.7931 70.2944 21.3681 70.3577C22.9432 70.421 24.469 70.9239 25.773 71.8095C26.9015 72.6027 28.2504 73.0218 29.6298 73.0078C30.7131 72.9574 31.7606 72.6043 32.6532 71.9885C34.1603 70.9393 35.9547 70.3813 37.791 70.3907C39.5614 70.3949 41.2894 70.9326 42.7498 71.9334C43.5473 72.5145 44.4823 72.8779 45.4629 72.9877C46.4435 73.0976 47.4358 72.9503 48.3421 72.5602C48.8015 72.352 49.2436 72.1079 49.6645 71.8301C51.1066 70.8673 52.8036 70.3574 54.5376 70.366C56.2716 70.3746 57.9635 70.9012 59.396 71.8783C60.8836 72.8081 62.2886 73.8687 63.7211 74.8811C63.9019 74.995 64.0574 75.1447 64.1781 75.3211C64.2987 75.4974 64.3819 75.6966 64.4226 75.9064C64.4632 76.1161 64.4605 76.332 64.4145 76.5406C64.3684 76.7493 64.2801 76.9463 64.155 77.1194C64.0354 77.2921 63.8818 77.4385 63.7037 77.5497C63.5255 77.6609 63.3265 77.7345 63.1189 77.7661C62.9113 77.7977 62.6994 77.7866 62.4962 77.7334C62.2931 77.6803 62.1029 77.5862 61.9373 77.4569C60.677 76.596 59.4236 75.7145 58.177 74.8329C55.7734 73.1387 53.5213 73.118 51.0488 74.6607C49.6062 75.6601 47.8931 76.1956 46.1382 76.1956C44.3833 76.1956 42.6703 75.6601 41.2277 74.6607C40.2092 73.9352 38.9899 73.5453 37.7394 73.5453C36.4889 73.5453 35.2696 73.9352 34.2511 74.6607C32.8123 75.6502 31.1073 76.1798 29.3612 76.1798C27.6151 76.1798 25.91 75.6502 24.4713 74.6607C21.9368 73.0836 19.7674 73.1042 17.3018 74.826C16.1585 75.6203 15.0107 76.417 13.8582 77.2159C12.591 78.0974 11.7921 77.9046 11.0069 76.6167L11.0345 75.804Z" fill="white"/>
<path d="M61.5538 76.2618C61.9025 75.8239 62.2923 75.4203 62.7178 75.0566C64.2042 73.9104 65.7615 72.8592 67.3804 71.9092C68.7512 71.1311 70.3125 70.7522 71.8875 70.8155C73.4625 70.8788 74.9884 71.3817 76.2923 72.2673C77.4209 73.0605 78.7698 73.4796 80.1491 73.4657C81.2324 73.4153 82.2799 73.0622 83.1726 72.4464C84.6797 71.3972 86.4741 70.8391 88.3104 70.8486C90.0808 70.8528 91.8088 71.3904 93.2691 72.3913C94.0666 72.9723 95.0017 73.3357 95.9823 73.4456C96.9629 73.5555 97.9552 73.4081 98.8615 73.018C99.3208 72.8099 99.763 72.5658 100.184 72.288C101.626 71.3251 103.323 70.8152 105.057 70.8238C106.791 70.8324 108.483 71.3591 109.915 72.3362C111.403 73.2659 112.808 74.3266 114.24 75.339C114.421 75.4529 114.577 75.6026 114.697 75.7789C114.818 75.9553 114.901 76.1545 114.942 76.3642C114.983 76.574 114.98 76.7898 114.934 76.9985C114.888 77.2071 114.8 77.4041 114.674 77.5773C114.555 77.7499 114.401 77.8964 114.223 78.0076C114.045 78.1188 113.846 78.1924 113.638 78.224C113.431 78.2556 113.219 78.2445 113.016 78.1913C112.812 78.1381 112.622 78.044 112.457 77.9148C111.196 77.0539 109.943 76.1723 108.696 75.2908C106.293 73.5965 104.041 73.5759 101.568 75.1186C100.126 76.118 98.4125 76.6534 96.6576 76.6534C94.9027 76.6534 93.1896 76.118 91.7471 75.1186C90.7286 74.3931 89.5092 74.0032 88.2588 74.0032C87.0083 74.0032 85.7889 74.3931 84.7704 75.1186C83.3317 76.108 81.6266 76.6377 79.8805 76.6377C78.1344 76.6377 76.4294 76.108 74.9907 75.1186C72.4562 73.5414 70.2867 73.5621 67.8211 75.2839C66.6779 76.0782 65.53 76.8748 64.3776 77.6737C63.1103 78.5553 62.3114 78.3624 61.5263 77.0745L61.5538 76.2618Z" fill="white"/>
<path d="M61.5538 67.6354C61.9025 67.1975 62.2923 66.7939 62.7178 66.4301C64.2042 65.2839 65.7615 64.2327 67.3804 63.2827C68.7512 62.5046 70.3125 62.1258 71.8875 62.189C73.4625 62.2523 74.9884 62.7553 76.2923 63.6409C77.4209 64.434 78.7698 64.8532 80.1491 64.8392C81.2324 64.7888 82.2799 64.4357 83.1726 63.8199C84.6797 62.7707 86.4741 62.2126 88.3104 62.2221C90.0808 62.2263 91.8088 62.7639 93.2691 63.7648C94.0666 64.3459 95.0017 64.7092 95.9823 64.8191C96.9629 64.929 97.9552 64.7817 98.8615 64.3915C99.3208 64.1834 99.763 63.9393 100.184 63.6615C101.626 62.6986 103.323 62.1888 105.057 62.1974C106.791 62.206 108.483 62.7326 109.915 63.7097C111.403 64.6395 112.808 65.7001 114.24 66.7125C114.421 66.8264 114.577 66.9761 114.697 67.1525C114.818 67.3288 114.901 67.528 114.942 67.7377C114.983 67.9475 114.98 68.1634 114.934 68.372C114.888 68.5807 114.8 68.7776 114.674 68.9508C114.555 69.1235 114.401 69.2699 114.223 69.3811C114.045 69.4923 113.846 69.5659 113.638 69.5975C113.431 69.6291 113.219 69.618 113.016 69.5648C112.812 69.5117 112.622 69.4176 112.457 69.2883C111.196 68.4274 109.943 67.5459 108.696 66.6643C106.293 64.9701 104.041 64.9494 101.568 66.4921C100.126 67.4915 98.4125 68.027 96.6576 68.027C94.9027 68.027 93.1896 67.4915 91.7471 66.4921C90.7286 65.7666 89.5092 65.3767 88.2588 65.3767C87.0083 65.3767 85.7889 65.7666 84.7704 66.4921C83.3317 67.4815 81.6266 68.0112 79.8805 68.0112C78.1344 68.0112 76.4294 67.4815 74.9907 66.4921C72.4562 64.915 70.2867 64.9356 67.8211 66.6574C66.6779 67.4517 65.53 68.2483 64.3776 69.0472C63.1103 69.9288 62.3114 69.736 61.5263 68.4481L61.5538 67.6354Z" fill="white"/>
</svg>
