<svg width="126" height="127" viewBox="0 0 126 127" fill="none" xmlns="http://www.w3.org/2000/svg">
<path d="M62.83 126.32C97.53 126.32 125.66 98.1901 125.66 63.49C125.66 28.79 97.53 0.660034 62.83 0.660034C28.1299 0.660034 0 28.79 0 63.49C0 98.1901 28.1299 126.32 62.83 126.32Z" fill="#E454B3"/>
<path fill-rule="evenodd" clip-rule="evenodd" d="M28.8983 56.3253C27.2239 51.968 27.1605 47.0323 29.1031 42.4574C33.1533 32.9193 43.7684 30.8882 53.5786 35.0509C63.3888 39.2136 68.6792 47.9937 64.6291 57.5318C62.8721 61.6695 59.7629 64.8322 56.0044 66.7475L40.4191 73.498L39.233 76.2911L33.2455 73.7505L34.4315 70.9573L28.8983 56.3253ZM53.0384 65.1522C53.653 65.413 53.426 67.0152 52.9441 67.296L38.6079 72.7709C38.126 73.0518 36.3455 72.2963 36.2129 71.7547L30.4167 57.7371C30.284 57.1955 31.2792 55.9193 31.8938 56.1801C31.8938 56.1801 35.9716 64.116 40.4329 66.009C44.8942 67.9021 53.0384 65.1522 53.0384 65.1522ZM56.918 52.2875C57.8209 52.6706 58.8616 52.2541 59.2424 51.3572C59.6233 50.4604 59.2 49.4227 58.2971 49.0396C57.3942 48.6565 56.3535 49.0729 55.9727 49.9698C55.5918 50.8667 56.0151 51.9043 56.918 52.2875ZM56.9356 43.8074C56.5547 44.7043 55.514 45.1208 54.6111 44.7376C53.7082 44.3545 53.2849 43.3169 53.6658 42.42C54.0466 41.5231 55.0873 41.1066 55.9902 41.4898C56.8932 41.8729 57.3164 42.9105 56.9356 43.8074ZM52.2644 41.8254C51.8836 42.7222 50.8429 43.1387 49.94 42.7556C49.0371 42.3724 48.6138 41.3348 48.9947 40.4379C49.3755 39.5411 50.4162 39.1246 51.3191 39.5077C52.222 39.8908 52.6453 40.9285 52.2644 41.8254ZM47.5933 39.8433C47.2125 40.7402 46.1718 41.1567 45.2689 40.7735C44.3659 40.3904 43.9427 39.3527 44.3235 38.4559C44.7044 37.559 45.7451 37.1425 46.648 37.5257C47.5509 37.9088 47.9742 38.9464 47.5933 39.8433ZM38.2335 44.3592C39.1364 44.7424 40.1771 44.3259 40.558 43.429C40.9388 42.5322 40.5156 41.4945 39.6127 41.1114C38.7097 40.7282 37.669 41.1447 37.2882 42.0416C36.9074 42.9385 37.3306 43.9761 38.2335 44.3592ZM35.8693 49.927C36.7722 50.3101 37.8129 49.8937 38.1937 48.9968C38.5746 48.0999 38.1513 47.0623 37.2484 46.6791C36.3455 46.296 35.3048 46.7125 34.924 47.6094C34.5431 48.5062 34.9664 49.5439 35.8693 49.927ZM38.1762 57.4768C39.0791 57.86 40.1198 57.4435 40.5006 56.5466C40.8815 55.6497 40.4582 54.6121 39.5553 54.229C38.6524 53.8458 37.6117 54.2623 37.2308 55.1592C36.85 56.0561 37.2732 57.0937 38.1762 57.4768ZM45.2291 45.4111C44.8483 46.308 43.8076 46.7244 42.9046 46.3413C42.0017 45.9582 41.5785 44.9205 41.9593 44.0236C42.3402 43.1268 43.3808 42.7103 44.2838 43.0934C45.1867 43.4766 45.6099 44.5142 45.2291 45.4111ZM40.5404 51.9091C41.4433 52.2922 42.484 51.8757 42.8649 50.9789C43.2457 50.082 42.8225 49.0443 41.9195 48.6612C41.0166 48.2781 39.9759 48.6945 39.5951 49.5914C39.2142 50.4883 39.6375 51.5259 40.5404 51.9091ZM42.8473 59.4589C43.7502 59.842 44.7909 59.4255 45.1717 58.5287C45.5526 57.6318 45.1293 56.5942 44.2264 56.211C43.3235 55.8279 42.2828 56.2444 41.902 57.1412C41.5211 58.0381 41.9444 59.0758 42.8473 59.4589ZM49.9002 47.3931C49.5194 48.29 48.4787 48.7065 47.5758 48.3233C46.6728 47.9402 46.2496 46.9026 46.6304 46.0057C47.0113 45.1088 48.052 44.6924 48.9549 45.0755C49.8578 45.4586 50.281 46.4963 49.9002 47.3931ZM45.2115 53.8911C46.1144 54.2742 47.1551 53.8578 47.536 52.9609C47.9168 52.064 47.4936 51.0264 46.5907 50.6433C45.6877 50.2601 44.647 50.6766 44.2662 51.5735C43.8854 52.4703 44.3086 53.508 45.2115 53.8911ZM47.5184 61.4409C48.4213 61.8241 49.462 61.4076 49.8429 60.5107C50.2237 59.6139 49.8005 58.5762 48.8975 58.1931C47.9946 57.8099 46.9539 58.2264 46.5731 59.1233C46.1922 60.0202 46.6155 61.0578 47.5184 61.4409ZM54.5713 49.3752C54.1905 50.2721 53.1498 50.6885 52.2469 50.3054C51.3439 49.9223 50.9207 48.8846 51.3015 47.9878C51.6824 47.0909 52.7231 46.6744 53.626 47.0575C54.5289 47.4407 54.9522 48.4783 54.5713 49.3752ZM52.2071 54.943C51.8263 55.8398 50.7856 56.2563 49.8826 55.8732C48.9797 55.49 48.5565 54.4524 48.9373 53.5555C49.3181 52.6586 50.3588 52.2422 51.2618 52.6253C52.1647 53.0084 52.5879 54.0461 52.2071 54.943ZM54.5537 57.8552C55.4567 58.2384 56.4974 57.8219 56.8782 56.925C57.259 56.0281 56.8358 54.9905 55.9329 54.6074C55.03 54.2242 53.9893 54.6407 53.6084 55.5376C53.2276 56.4344 53.6508 57.4721 54.5537 57.8552Z" fill="white"/>
<path d="M38.6644 76.5208C38.8849 76.6143 38.9877 76.8688 38.8941 77.0892L37.5386 80.2814C37.4451 80.5017 37.1905 80.6046 36.97 80.511L31.7808 78.3091C31.5604 78.2156 31.4575 77.9611 31.5511 77.7407L32.9066 74.5485C33.0002 74.3282 33.2548 74.2253 33.4752 74.3189L38.6644 76.5208Z" fill="white"/>
<path d="M34.9368 85.2993C35.1572 85.3928 35.2601 85.6473 35.1665 85.8677L33.811 89.0599C33.7175 89.2803 33.4629 89.3831 33.2424 89.2895L28.0532 87.0876C27.8328 86.9941 27.7299 86.7396 27.8235 86.5192L29.179 83.3271C29.2726 83.1067 29.5271 83.0039 29.7476 83.0974L34.9368 85.2993Z" fill="white"/>
<path d="M36.8006 80.91C37.021 81.0036 37.1239 81.2581 37.0303 81.4784L35.6748 84.6706C35.5813 84.891 35.3267 84.9938 35.1062 84.9003L29.917 82.6984C29.6966 82.6048 29.5937 82.3504 29.6873 82.13L31.0428 78.9378C31.1364 78.7174 31.391 78.6146 31.6114 78.7082L36.8006 80.91Z" fill="white"/>
<path d="M33.073 89.6886C33.2934 89.7821 33.3963 90.0366 33.3027 90.257L31.9472 93.4491C31.8536 93.6695 31.5991 93.7723 31.3786 93.6788L26.1894 91.4769C25.969 91.3834 25.8661 91.1289 25.9597 90.9085L27.3152 87.7163C27.4088 87.4959 27.6633 87.3931 27.8838 87.4867L33.073 89.6886Z" fill="white"/>
<path d="M31.6083 94.2472C31.8288 94.3407 31.9317 94.5952 31.8381 94.8156L30.4826 98.0078C30.389 98.2281 30.1344 98.331 29.914 98.2374L23.9265 95.6968C23.706 95.6032 23.6031 95.3488 23.6967 95.1284L25.0522 91.9362C25.1458 91.7158 25.4004 91.613 25.6208 91.7066L31.6083 94.2472Z" fill="white"/>
<path d="M30.5429 98.9752C30.7633 99.0687 30.8662 99.3232 30.7726 99.5436L29.4171 102.736C29.3235 102.956 29.069 103.059 28.8485 102.965L21.2643 99.7473C21.0439 99.6538 20.941 99.3993 21.0346 99.1789L22.3901 95.9867C22.4837 95.7663 22.7382 95.6635 22.9587 95.7571L30.5429 98.9752Z" fill="white"/>
<path fill-rule="evenodd" clip-rule="evenodd" d="M78.3702 59.305C75.0794 57.8505 72.3518 55.2097 70.9152 51.6776C67.9201 44.3136 72.6016 37.4615 80.2236 34.4024C87.8455 31.3434 95.5216 33.2359 98.5168 40.5999C99.8161 43.7944 99.8459 47.1932 98.8409 50.2676L94.0235 62.3705L94.9006 64.527L90.2487 66.3941L89.3716 64.2376L78.3702 59.305ZM96.3528 51.01C96.8303 50.8183 97.5807 51.8097 97.471 52.223L92.639 62.9578C92.5294 63.3711 91.1461 63.9263 90.7782 63.7046L79.9686 59.2475C79.6007 59.0259 79.4472 57.7949 79.9247 57.6033C79.9247 57.6033 86.4788 59.6952 89.945 58.3041C93.4111 56.9129 96.3528 51.01 96.3528 51.01ZM91.4495 41.9353C92.1511 41.6538 92.4914 40.8642 92.2098 40.1718C91.9282 39.4793 91.1312 39.1462 90.4297 39.4278C89.7281 39.7093 89.3877 40.4989 89.6694 41.1914C89.951 41.8838 90.748 42.2169 91.4495 41.9353ZM86.8323 37.3297C87.1139 38.0221 86.7735 38.8117 86.072 39.0932C85.3705 39.3748 84.5735 39.0417 84.2918 38.3492C84.0102 37.6568 84.3506 36.8672 85.0521 36.5857C85.7536 36.3041 86.5506 36.6372 86.8323 37.3297ZM83.2031 38.7862C83.4847 39.4786 83.1443 40.2682 82.4428 40.5498C81.7413 40.8313 80.9443 40.4982 80.6627 39.8058C80.381 39.1134 80.7214 38.3238 81.4229 38.0422C82.1244 37.7607 82.9214 38.0938 83.2031 38.7862ZM79.5739 40.2428C79.8555 40.9352 79.5151 41.7248 78.8136 42.0063C78.1121 42.2879 77.3151 41.9548 77.0335 41.2623C76.7518 40.5699 77.0922 39.7803 77.7937 39.4988C78.4953 39.2172 79.2923 39.5503 79.5739 40.2428ZM76.9328 47.7615C77.6344 47.48 77.9747 46.6904 77.6931 45.998C77.4115 45.3055 76.6145 44.9724 75.9129 45.254C75.2114 45.5355 74.871 46.3251 75.1527 47.0176C75.4343 47.71 76.2313 48.0431 76.9328 47.7615ZM78.6812 52.0602C79.3827 51.7787 79.7231 50.9891 79.4415 50.2966C79.1598 49.6042 78.3628 49.2711 77.6613 49.5527C76.9598 49.8342 76.6194 50.6238 76.9011 51.3162C77.1827 52.0087 77.9797 52.3418 78.6812 52.0602ZM84.0588 54.9023C84.7603 54.6208 85.1007 53.8312 84.819 53.1388C84.5374 52.4463 83.7404 52.1132 83.0389 52.3948C82.3374 52.6763 81.997 53.4659 82.2786 54.1583C82.5602 54.8508 83.3573 55.1839 84.0588 54.9023ZM81.3223 44.5414C81.6039 45.2339 81.2635 46.0234 80.562 46.305C79.8605 46.5865 79.0635 46.2535 78.7819 45.561C78.5002 44.8686 78.8406 44.079 79.5421 43.7974C80.2436 43.5159 81.0406 43.849 81.3223 44.5414ZM82.3104 50.6037C83.0119 50.3221 83.3523 49.5325 83.0707 48.8401C82.789 48.1476 81.992 47.8146 81.2905 48.0961C80.589 48.3777 80.2486 49.1672 80.5302 49.8597C80.8119 50.5521 81.6089 50.8852 82.3104 50.6037ZM87.6879 53.4458C88.3895 53.1642 88.7298 52.3747 88.4482 51.6822C88.1666 50.9898 87.3696 50.6567 86.6681 50.9382C85.9665 51.2198 85.6262 52.0094 85.9078 52.7018C86.1894 53.3942 86.9864 53.7273 87.6879 53.4458ZM84.9515 43.0849C85.2331 43.7773 84.8927 44.5669 84.1912 44.8484C83.4897 45.13 82.6927 44.7969 82.411 44.1045C82.1294 43.412 82.4698 42.6224 83.1713 42.3409C83.8728 42.0593 84.6698 42.3924 84.9515 43.0849ZM85.9396 49.1471C86.6411 48.8656 86.9815 48.076 86.6998 47.3835C86.4182 46.6911 85.6212 46.358 84.9197 46.6396C84.2182 46.9211 83.8778 47.7107 84.1594 48.4031C84.441 49.0956 85.238 49.4287 85.9396 49.1471ZM91.3171 51.9892C92.0186 51.7077 92.359 50.9181 92.0774 50.2257C91.7958 49.5332 90.9988 49.2001 90.2972 49.4817C89.5957 49.7632 89.2553 50.5528 89.537 51.2452C89.8186 51.9377 90.6156 52.2708 91.3171 51.9892ZM88.5806 41.6283C88.8623 42.3208 88.5219 43.1103 87.8204 43.3919C87.1188 43.6734 86.3218 43.3404 86.0402 42.6479C85.7586 41.9555 86.099 41.1659 86.8005 40.8843C87.502 40.6028 88.299 40.9359 88.5806 41.6283ZM90.329 45.927C90.6106 46.6194 90.2703 47.409 89.5687 47.6906C88.8672 47.9721 88.0702 47.639 87.7886 46.9466C87.507 46.2541 87.8473 45.4646 88.5489 45.183C89.2504 44.9015 90.0474 45.2345 90.329 45.927ZM93.1979 46.234C93.8994 45.9525 94.2398 45.1629 93.9582 44.4704C93.6765 43.778 92.8796 43.4449 92.178 43.7265C91.4765 44.008 91.1361 44.7976 91.4178 45.49C91.6994 46.1825 92.4964 46.5156 93.1979 46.234Z" fill="white"/>
<path d="M94.7158 64.9596C94.8871 64.8908 95.082 64.973 95.1512 65.1432L96.1536 67.6077C96.2228 67.7779 96.1401 67.9715 95.9688 68.0403L91.9371 69.6584C91.7658 69.7271 91.5709 69.6449 91.5017 69.4748L90.4993 67.0102C90.4301 66.8401 90.5128 66.6464 90.6841 66.5777L94.7158 64.9596Z" fill="white"/>
<path d="M97.4724 71.7372C97.6437 71.6684 97.8386 71.7506 97.9078 71.9208L98.9103 74.3853C98.9795 74.5555 98.8967 74.7491 98.7254 74.8179L94.6937 76.436C94.5225 76.5047 94.3275 76.4225 94.2583 76.2523L93.2559 73.7878C93.1867 73.6176 93.2695 73.424 93.4407 73.3552L97.4724 71.7372Z" fill="white"/>
<path d="M96.0941 68.3484C96.2654 68.2796 96.4603 68.3618 96.5295 68.532L97.5319 70.9965C97.6011 71.1667 97.5184 71.3603 97.3471 71.4291L93.3154 73.0472C93.1441 73.1159 92.9492 73.0337 92.88 72.8636L91.8776 70.399C91.8084 70.2289 91.8912 70.0352 92.0624 69.9665L96.0941 68.3484Z" fill="white"/>
<path d="M98.8507 75.1259C99.022 75.0572 99.2169 75.1394 99.2861 75.3095L100.289 77.7741C100.358 77.9442 100.275 78.1379 100.104 78.2066L96.072 79.8247C95.9008 79.8935 95.7058 79.8113 95.6366 79.6411L94.6342 77.1766C94.565 77.0064 94.6478 76.8128 94.819 76.744L98.8507 75.1259Z" fill="white"/>
<path d="M100.539 78.3902C100.71 78.3215 100.905 78.4037 100.975 78.5739L101.977 81.0384C102.046 81.2086 101.963 81.4022 101.792 81.471L97.1402 83.338C96.9689 83.4067 96.774 83.3245 96.7048 83.1544L95.7024 80.6898C95.6332 80.5197 95.7159 80.326 95.8872 80.2573L100.539 78.3902Z" fill="white"/>
<path d="M102.538 81.5301C102.709 81.4614 102.904 81.5435 102.973 81.7137L103.976 84.1783C104.045 84.3484 103.962 84.5421 103.791 84.6108L97.8983 86.9757C97.727 87.0445 97.532 86.9622 97.4628 86.7921L96.4604 84.3275C96.3912 84.1574 96.474 83.9637 96.6453 83.895L102.538 81.5301Z" fill="white"/>
<path d="M71 28C71 30.7614 68.7614 33 66 33C63.2386 33 61 30.7614 61 28C61 25.2386 63.2386 23 66 23C68.7614 23 71 25.2386 71 28Z" fill="white"/>
</svg>
