<svg width="126" height="126" viewBox="0 0 126 126" fill="none" xmlns="http://www.w3.org/2000/svg">
<path d="M62.83 125.66C97.5301 125.66 125.66 97.5301 125.66 62.83C125.66 28.13 97.5301 0 62.83 0C28.13 0 0 28.13 0 62.83C0 97.5301 28.13 125.66 62.83 125.66Z" fill="#BA2299"/>
<path d="M73.0909 53.625H75.5455C76.9016 53.625 78 54.7298 78 56.0938V63.5C78 77.217 67.8305 88.5686 54.6818 90.3831V95.5938H63.2727C64.6289 95.5938 65.7273 96.6985 65.7273 98.0625V100.531C65.7273 101.895 64.6289 103 63.2727 103H38.7273C37.3711 103 36.2727 101.895 36.2727 100.531V98.0625C36.2727 96.6985 37.3711 95.5938 38.7273 95.5938H47.3182V90.3245C33.8136 88.4513 24 76.1215 24 62.2903V56.0938C24 54.7298 25.0984 53.625 26.4545 53.625H28.9091C30.2652 53.625 31.3636 54.7298 31.3636 56.0938V62.6205C31.3636 72.9291 38.8362 82.153 49.0379 83.1543C60.743 84.3023 70.6364 75.0414 70.6364 63.5V56.0938C70.6364 54.7298 71.7348 53.625 73.0909 53.625Z" fill="white"/>
<path d="M65.7273 63.5C65.7273 71.6808 59.1338 78.3125 51 78.3125C42.8663 78.3125 36.2727 71.6808 36.2727 63.5V38.8125C36.2727 30.6317 42.8663 24 51 24C59.1338 24 65.7273 30.6317 65.7273 38.8125H52.6369C51.7333 38.8125 51 39.3649 51 40.0469V42.5156C51 43.1976 51.7333 43.75 52.6369 43.75H65.7273V48.6875H52.6369C51.7333 48.6875 51 49.2399 51 49.9219V52.3906C51 53.0726 51.7333 53.625 52.6369 53.625H65.7273V58.5625H52.6369C51.7333 58.5625 51 59.1149 51 59.7969V62.2656C51 62.9476 51.7333 63.5 52.6369 63.5H65.7273Z" fill="white"/>
<path d="M99.958 60.7346C101.32 60.4806 102.336 59.7287 102.648 58.3908C102.66 58.3416 102.67 58.3022 102.679 58.2625C102.783 57.8108 102.745 57.3265 102.736 41.8625C102.736 41.2961 102.414 40.964 101.853 41.0031C101.726 41.0031 101.023 41.135 96.5909 41.9666C95.0543 42.2549 93.0694 42.6274 90.5048 43.1076C90.4267 43.1076 90.0556 43.2053 89.8505 43.3762C89.6504 43.5373 89.5429 43.7521 89.5039 44.006C89.4424 44.2519 89.4592 46.047 89.4798 48.2392C89.5148 51.9681 89.5605 56.8458 89.25 57.1994C89.0351 57.4386 88.7812 57.507 88.4882 57.5607C88.3817 57.5794 88.2773 57.5976 88.175 57.6154C86.5947 57.8903 85.5179 58.0776 84.7382 58.8205C83.3076 60.217 84.0498 62.6535 86.1591 63.049C86.9502 63.1955 88.4345 62.9953 89.2548 62.5412C89.9775 62.1701 90.5244 61.5012 90.7295 60.6125C90.7471 60.5361 90.7624 60.4727 90.7757 60.4089C90.895 59.836 90.8515 59.2292 90.8515 48.9181C90.8515 48.3566 91.0078 48.2101 91.5058 48.1027C91.5058 48.1027 100.173 46.4816 100.573 46.4133C101.135 46.3156 101.403 46.467 101.403 47.0138C101.403 54.0727 101.484 54.5926 101.264 54.8924C101.242 54.9226 101.217 54.9505 101.188 54.9826C100.974 55.2219 100.72 55.2902 100.427 55.3439C100.32 55.3626 100.216 55.3808 100.113 55.3986C98.5331 55.6735 97.4563 55.8608 96.6767 56.6037C95.6269 57.6291 95.6416 59.2551 96.8086 60.2365C97.7656 61.008 98.7617 60.9543 99.958 60.7346Z" fill="white"/>
</svg>
