<svg width="50" height="50" viewBox="0 0 50 50" fill="none" xmlns="http://www.w3.org/2000/svg">
<path d="M21.6389 10.627L26.75 25.6642H43.3055L29.9166 34.9628L35.0278 50L21.6389 40.7014L8.25 50L13.3611 34.9628L0 25.6642H16.5278L21.6389 10.627Z" fill="white"/>
<path fill-rule="evenodd" clip-rule="evenodd" d="M41.5045 8.11724L38.8817 0L36.259 8.11724H27.7778L34.634 13.1367L32.0113 21.254L38.8817 16.2345L45.7522 21.254L43.1295 13.1367L50 8.11724H41.5045ZM40.8589 8.34549L39.1765 2.86828L37.4942 8.34549H32.054L36.4519 11.7325L34.7695 17.2097L39.1765 13.8227L43.5835 17.2097L41.9012 11.7325L46.3082 8.34549H40.8589Z" fill="white"/>
</svg>
