<svg width="52" height="73" viewBox="0 0 52 73" fill="none" xmlns="http://www.w3.org/2000/svg">
<path d="M4.02994 72.16C3.49174 71.9672 3.0371 71.5938 2.7435 71.1032C2.44991 70.6127 2.33555 70.0355 2.41996 69.47C2.47996 67.8 2.41996 66.12 2.41996 64.47V63.7H51.2199V66C51.2199 67.16 51.2199 68.33 51.2199 69.49C51.3039 70.0515 51.1903 70.6248 50.8985 71.1118C50.6066 71.5988 50.1547 71.9693 49.62 72.16H4.02994Z" fill="white"/>
<path d="M41.42 47.04H11.77C12.01 46.04 12.21 45.16 12.48 44.26C13.3784 41.4985 14.6466 38.8713 16.25 36.45C17.35 34.66 18.37 32.81 19.41 30.97C19.5807 30.61 19.7277 30.2392 19.85 29.86L10.02 35.03C9.76029 35.2249 9.46008 35.3587 9.14156 35.4215C8.82304 35.4843 8.49441 35.4745 8.18019 35.3928C7.86598 35.3112 7.57423 35.1597 7.32662 34.9497C7.079 34.7398 6.88194 34.4767 6.75002 34.18L1.46999 26.24C1.2691 26.019 1.11598 25.759 1.02022 25.4761C0.924457 25.1933 0.888126 24.8937 0.91347 24.5961C0.938814 24.2986 1.02528 24.0094 1.1675 23.7468C1.30972 23.4843 1.50464 23.2538 1.74001 23.07C6.00001 18.5567 10.2633 14.0534 14.53 9.56002C14.6992 9.35372 14.9371 9.21529 15.2 9.17004C19.707 8.88517 24.2255 9.50393 28.49 10.99C33.05 12.68 36.82 15.37 39.21 19.72C40.756 22.6513 41.5336 25.9266 41.47 29.24C41.47 35 41.47 40.76 41.47 46.51C41.46 46.67 41.44 46.83 41.42 47.04Z" fill="white"/>
<path d="M6.60998 59.45V56.51C6.60998 55.51 6.60998 54.46 6.60998 53.44C6.59303 53.1419 6.64046 52.8437 6.74902 52.5656C6.85759 52.2874 7.02472 52.036 7.23913 51.8282C7.45354 51.6204 7.71017 51.4612 7.99158 51.3615C8.27298 51.2617 8.57259 51.2237 8.86999 51.25H44.76C45.2635 51.1967 45.7684 51.3363 46.173 51.6406C46.5776 51.945 46.8517 52.3915 46.94 52.89C47.03 55.06 46.94 57.24 46.94 59.45H6.60998Z" fill="white"/>
<path d="M45.6399 42.28V41.36C45.6399 37.09 45.7099 32.81 45.6399 28.54C45.3599 18.08 39.64 10.37 29.7 6.94003C25.4519 5.47369 20.9717 4.79589 16.48 4.94003H14.92C14.8698 4.08077 14.8698 3.21931 14.92 2.36005C14.9933 1.91668 15.2214 1.51363 15.5638 1.22253C15.9061 0.931434 16.3406 0.771094 16.79 0.77002C25.79 0.90002 34.26 2.89003 41.22 9.06003C43.6508 11.1678 45.6389 13.7374 47.0689 16.6196C48.4988 19.5018 49.3422 22.6393 49.55 25.85C49.91 30.61 49.75 35.41 49.78 40.19C49.7866 40.4569 49.7398 40.7223 49.6423 40.9708C49.5448 41.2192 49.3985 41.4456 49.2121 41.6367C49.0258 41.8277 48.803 41.9795 48.5571 42.0832C48.3111 42.1868 48.0469 42.2401 47.78 42.24C47.14 42.32 46.4499 42.28 45.6399 42.28Z" fill="white"/>
</svg>
