<svg width="75" height="75" viewBox="0 0 75 75" fill="none" xmlns="http://www.w3.org/2000/svg">
<path d="M36.02 74.25C40.02 64.7 41.9401 54.57 44.4401 44.6C45.2534 41.38 46.1867 38.1967 47.2401 35.05C47.9081 32.9715 49.2086 31.1535 50.96 29.85C51.4 30.68 51.8401 31.47 52.2501 32.27C55.0998 38.1551 57.1415 44.3982 58.3201 50.83C59.2293 55.5407 59.8107 60.3088 60.0601 65.1C60.108 65.4799 60.0458 65.8657 59.881 66.2114C59.7161 66.557 59.4555 66.8481 59.1301 67.05C54.4433 70.4816 49.0188 72.7692 43.29 73.73C41.84 73.98 40.38 74.08 38.92 74.25H36.02Z" fill="white"/>
<path d="M74.2501 39.49C74.0601 40.9 73.92 42.31 73.67 43.7C72.4036 50.9014 69.0074 57.558 63.92 62.81C63.8326 62.8905 63.7389 62.9641 63.64 63.03C62.64 50.82 60.2701 39.03 54.2601 28.11C55.6701 27.84 57 27.58 58.34 27.34C60.97 26.86 63.1601 27.93 65.2001 29.39C67.971 31.531 70.4666 34.0064 72.6301 36.76L74.22 38.62L74.2501 39.49Z" fill="white"/>
<path d="M44.08 20.86L48.7901 26.31C47.9501 27.31 47.2101 28.15 46.4901 29.02C44.7609 31.1717 43.5098 33.6671 42.8201 36.34C41.5401 41.06 40.38 45.81 39.21 50.56C37.53 57.37 35.9401 64.2 33.4201 70.7599C33.0901 71.6399 32.6601 72.48 32.3201 73.36C32.3032 73.4475 32.267 73.5301 32.2141 73.6019C32.1613 73.6736 32.0932 73.7328 32.0147 73.7749C31.9362 73.817 31.8492 73.8411 31.7602 73.8455C31.6712 73.8498 31.5823 73.8343 31.5001 73.8C29.5001 73.32 27.5001 72.97 25.5001 72.34C19.6468 70.4266 14.3753 67.058 10.1801 62.55C9.9736 62.3129 9.86931 62.0037 9.89004 61.69C10.5183 57.6752 11.9722 53.8343 14.1601 50.41C17.8818 44.4056 22.4071 38.9383 27.6101 34.16C32.5849 29.4031 37.9356 25.0557 43.6101 21.16L44.08 20.86Z" fill="white"/>
<path d="M36.6101 14.52L41.1801 18.2599L40.46 18.81C33.4392 23.6836 26.9353 29.2626 21.0501 35.46C16.3901 40.46 12.13 45.69 9.21003 51.89C8.38003 53.65 7.77008 55.51 7.07008 57.33C6.97008 57.59 6.90004 57.87 6.78004 58.27C6.58004 58 6.44008 57.83 6.32008 57.64C3.39715 53.2504 1.44988 48.2848 0.609753 43.0785C-0.230371 37.8721 0.0562135 32.5461 1.45008 27.46C1.56976 27.1581 1.79802 26.912 2.09004 26.77C5.20693 25.182 8.53862 24.0569 11.9801 23.43C15.4701 22.7 18.98 22.08 22.47 21.33C27.162 20.2224 31.5831 18.1818 35.47 15.33L36.6101 14.52Z" fill="white"/>
<path d="M33.39 12.24C29.6042 15.024 25.2675 16.9673 20.67 17.94C15.81 18.94 10.98 20.03 6.14001 21.12C5.19791 21.3818 4.27003 21.6922 3.36005 22.05C3.90005 20.98 4.36003 20.05 4.84003 19.14C7.73182 13.9561 11.8224 9.53968 16.77 6.25995C17.57 5.71995 18.4101 5.25996 19.2501 4.76996C19.3636 4.7204 19.4862 4.69482 19.61 4.69482C19.7339 4.69482 19.8565 4.7204 19.97 4.76996C24.676 6.81691 29.1707 9.31883 33.39 12.24Z" fill="white"/>
<path d="M73.92 32.45C73.499 31.9435 73.0517 31.4596 72.58 31C70.7 29.31 68.8901 27.52 66.8801 26C65.3973 24.8665 63.6741 24.0885 61.8433 23.7261C60.0124 23.3638 58.1228 23.4267 56.3201 23.91C55.1501 24.18 53.9901 24.53 52.8201 24.8C52.6935 24.8243 52.563 24.8198 52.4384 24.7869C52.3138 24.754 52.1981 24.6936 52.1 24.61C50.51 22.68 48.94 20.73 47.36 18.76C51 16.47 54.8101 14.27 59.2401 13.44C60.9501 13.12 62.6601 12.82 64.3701 12.56C64.5134 12.5454 64.6582 12.562 64.7946 12.6086C64.9309 12.6552 65.0556 12.7307 65.16 12.83C69.9501 18.3051 72.9999 25.0836 73.92 32.3C73.92 32.3 73.92 32.35 73.92 32.45Z" fill="white"/>
<path d="M44.28 16.06L39.4901 12.06C43.2301 9.29 45.36 5.77997 44.41 0.969971C48.71 1.14997 58.41 5.89999 61.41 9.23999C58.41 9.86999 55.31 10.37 52.53 11.74C49.75 13.11 47.05 14.58 44.28 16.06Z" fill="white"/>
<path d="M24.34 2.39994C29.5805 0.466259 35.1902 -0.258444 40.7501 0.27994C40.8301 2.03994 41.14 3.82996 40.46 5.48996C40.0146 6.34062 39.4221 7.10575 38.71 7.74997C38.05 8.47997 37.28 9.11997 36.64 9.74997L24.34 2.39994Z" fill="white"/>
</svg>
