<svg width="94" height="79" viewBox="0 0 94 79" fill="none" xmlns="http://www.w3.org/2000/svg">
<mask id="path-1-inside-1_609_213" fill="white">
<path d="M40.5535 66.0702C40.8515 65.6372 41.1982 65.2398 41.5866 64.8856C42.9089 63.9008 44.245 62.9159 45.6431 62.0481C47.0755 61.0656 48.7719 60.5397 50.5089 60.5397C52.2459 60.5397 53.9422 61.0656 55.3747 62.0481C56.3987 62.7791 57.6255 63.172 58.8836 63.172C60.1418 63.172 61.3686 62.7791 62.3927 62.0481C63.8264 61.0525 65.5301 60.5189 67.2756 60.5189C69.0211 60.5189 70.7249 61.0525 72.1586 62.0481C73.1705 62.7676 74.3812 63.1542 75.6228 63.1542C76.8644 63.1542 78.0752 62.7676 79.0871 62.0481C82.4549 59.9269 85.8503 59.982 89.1699 62.179C90.5473 63.0605 91.8214 64.0179 93.1437 64.9338C93.3445 65.0377 93.5207 65.1833 93.6605 65.3609C93.8003 65.5385 93.9005 65.7439 93.9543 65.9634C94.0081 66.1829 94.0144 66.4114 93.9726 66.6336C93.9308 66.8557 93.842 67.0663 93.712 67.2512C93.5821 67.4362 93.4142 67.5912 93.2194 67.7058C93.0246 67.8205 92.8076 67.8921 92.5828 67.916C92.358 67.9398 92.1308 67.9152 91.9163 67.844C91.7018 67.7727 91.5051 67.6563 91.3393 67.5027L87.5789 64.8719C86.5989 64.1116 85.4004 63.6865 84.1604 63.6593C82.9203 63.632 81.7044 64.004 80.6918 64.7203C79.2211 65.7526 77.4679 66.3064 75.6711 66.3064C73.8742 66.3064 72.1211 65.7526 70.6503 64.7203C69.6633 64.0228 68.4843 63.6482 67.2756 63.6482C66.0669 63.6482 64.888 64.0228 63.9009 64.7203C62.4409 65.7374 60.7043 66.2827 58.925 66.2827C57.1456 66.2827 55.409 65.7374 53.949 64.7203C51.5247 63.1983 49.2726 63.2258 46.9103 64.8719L43.4048 67.3237C42.1513 68.1984 41.3042 68.0124 40.5742 66.6901L40.5535 66.0702Z"/>
<path d="M40.5536 58.4531C40.9023 58.0152 41.292 57.6116 41.7175 57.2478C43.204 56.1016 44.7613 55.0504 46.3801 54.1004C47.751 53.3223 49.3123 52.9435 50.8873 53.0068C52.4623 53.07 53.9881 53.573 55.2921 54.4586C56.4206 55.2518 57.7696 55.6709 59.1489 55.6569C60.2322 55.6065 61.2797 55.2534 62.1724 54.6376C63.6794 53.5884 65.4738 53.0303 67.3101 53.0398C69.0805 53.044 70.8086 53.5816 72.2689 54.5825C73.0664 55.1636 74.0015 55.5269 74.982 55.6368C75.9626 55.7467 76.9549 55.5994 77.8612 55.2093C78.3206 55.0011 78.7628 54.757 79.1836 54.4792C80.6257 53.5164 82.3227 53.0065 84.0567 53.0151C85.7907 53.0237 87.4826 53.5503 88.9151 54.5274C90.4027 55.4572 91.8077 56.5178 93.2402 57.5302C93.421 57.6441 93.5765 57.7938 93.6972 57.9702C93.8178 58.1465 93.901 58.3457 93.9417 58.5555C93.9824 58.7652 93.9796 58.9811 93.9336 59.1897C93.8876 59.3984 93.7993 59.5953 93.6741 59.7685C93.5546 59.9412 93.401 60.0876 93.2228 60.1988C93.0446 60.31 92.8457 60.3836 92.638 60.4152C92.4304 60.4468 92.2185 60.4357 92.0154 60.3825C91.8122 60.3294 91.622 60.2353 91.4565 60.106C90.1961 59.2451 88.9427 58.3636 87.6961 57.482C85.2925 55.7878 83.0404 55.7671 80.5679 57.3098C79.1254 58.3092 77.4122 58.8447 75.6574 58.8447C73.9025 58.8447 72.1894 58.3092 70.7469 57.3098C69.7284 56.5843 68.509 56.1944 67.2585 56.1944C66.008 56.1944 64.7887 56.5843 63.7702 57.3098C62.3314 58.2992 60.6264 58.8289 58.8803 58.8289C57.1342 58.8289 55.4292 58.2992 53.9904 57.3098C51.456 55.7327 49.2865 55.7533 46.8209 57.4751C45.6776 58.2694 44.5298 59.066 43.3773 59.865C42.1101 60.7465 41.3112 60.5537 40.5261 59.2658L40.5536 58.4531Z"/>
<path d="M28.4833 51.6534L34.9131 72.6843L31.0574 73.8631L24.6276 52.8322L28.4833 51.6534Z"/>
<path d="M35.9356 73.5215L37.1144 77.3772L31.8566 78.9846L30.6778 75.129L35.9356 73.5215Z"/>
<path fill-rule="evenodd" clip-rule="evenodd" d="M9.74709 37.9265C5.97674 34.974 2.82516 30.4118 1.12584 24.8536C-2.41706 13.2652 2.78254 4.31893 11.397 1.68521C20.0115 -0.948496 28.7787 3.72771 32.3216 15.316C33.8586 20.3431 33.9551 25.3589 32.8684 29.6423L27.611 46.293L28.6485 49.6865L23.3908 51.294L22.3532 47.9004L9.74709 37.9265ZM30.0516 30.1245C30.5913 29.9595 31.4631 31.6049 31.346 32.187L26.0467 46.8179C25.9296 47.4 24.3662 47.878 23.9436 47.4609L11.5644 38.2348C11.1418 37.8178 10.9445 35.9661 11.4842 35.8011C11.4842 35.8011 18.9788 40.4953 22.8963 39.2976C26.8138 38.0999 30.0516 30.1245 30.0516 30.1245ZM22.8874 8.90403C22.2098 9.11118 21.4927 8.72984 21.2855 8.0523C21.0784 7.37476 21.4597 6.65757 22.1372 6.45043C22.8148 6.24329 23.532 6.62462 23.7391 7.30216C23.9463 7.9797 23.5649 8.69689 22.8874 8.90403ZM7.26493 12.3388C7.47207 13.0164 8.18926 13.3977 8.8668 13.1906C9.54434 12.9834 9.92567 12.2662 9.71853 11.5887C9.51139 10.9111 8.7942 10.5298 8.11666 10.737C7.43912 10.9441 7.05778 11.6613 7.26493 12.3388ZM19.7328 9.8685C19.0552 10.0756 18.338 9.69431 18.1309 9.01677C17.9237 8.33923 18.3051 7.62204 18.9826 7.4149C19.6601 7.20775 20.3773 7.58909 20.5845 8.26663C20.7916 8.94417 20.4103 9.66136 19.7328 9.8685ZM4.11029 13.3033C4.31744 13.9808 5.03463 14.3622 5.71217 14.155C6.38971 13.9479 6.77104 13.2307 6.5639 12.5532C6.35675 11.8756 5.63956 11.4943 4.96203 11.7014C4.28449 11.9086 3.90315 12.6258 4.11029 13.3033ZM23.8519 12.0587C23.1743 12.2658 22.4571 11.8845 22.25 11.2069C22.0428 10.5294 22.4242 9.81221 23.1017 9.60506C23.7793 9.39792 24.4964 9.77925 24.7036 10.4568C24.9107 11.1343 24.5294 11.8515 23.8519 12.0587ZM8.22939 15.4935C8.43654 16.171 9.15373 16.5523 9.83127 16.3452C10.5088 16.138 10.8901 15.4209 10.683 14.7433C10.4759 14.0658 9.75866 13.6844 9.08113 13.8916C8.40359 14.0987 8.02225 14.8159 8.22939 15.4935ZM20.6972 13.0231C20.0197 13.2303 19.3025 12.8489 19.0953 12.1714C18.8882 11.4939 19.2695 10.7767 19.9471 10.5695C20.6246 10.3624 21.3418 10.7437 21.549 11.4213C21.7561 12.0988 21.3748 12.816 20.6972 13.0231ZM5.07476 16.4579C5.28191 17.1355 5.9991 17.5168 6.67663 17.3097C7.35417 17.1025 7.73551 16.3853 7.52837 15.7078C7.32122 15.0302 6.60403 14.6489 5.92649 14.8561C5.24895 15.0632 4.86762 15.7804 5.07476 16.4579ZM24.8163 15.2133C24.1388 15.4204 23.4216 15.0391 23.2144 14.3616C23.0073 13.684 23.3886 12.9668 24.0662 12.7597C24.7437 12.5525 25.4609 12.9339 25.6681 13.6114C25.8752 14.289 25.4939 15.0062 24.8163 15.2133ZM9.19386 18.6481C9.40101 19.3256 10.1182 19.707 10.7957 19.4998C11.4733 19.2927 11.8546 18.5755 11.6475 17.8979C11.4403 17.2204 10.7231 16.8391 10.0456 17.0462C9.36805 17.2534 8.98672 17.9705 9.19386 18.6481ZM21.6617 16.1778C20.9841 16.3849 20.267 16.0036 20.0598 15.326C19.8527 14.6485 20.234 13.9313 20.9115 13.7242C21.5891 13.517 22.3063 13.8984 22.5134 14.5759C22.7206 15.2534 22.3392 15.9706 21.6617 16.1778ZM6.03923 19.6126C6.24637 20.2901 6.96356 20.6714 7.6411 20.4643C8.31864 20.2571 8.69998 19.54 8.49283 18.8624C8.28569 18.1849 7.5685 17.8035 6.89096 18.0107C6.21342 18.2178 5.83209 18.935 6.03923 19.6126ZM25.7808 18.3679C25.1032 18.5751 24.3861 18.1937 24.1789 17.5162C23.9718 16.8387 24.3531 16.1215 25.0306 15.9143C25.7082 15.7072 26.4254 16.0885 26.6325 16.7661C26.8397 17.4436 26.4583 18.1608 25.7808 18.3679ZM10.1583 21.8027C10.3655 22.4803 11.0827 22.8616 11.7602 22.6545C12.4377 22.4473 12.8191 21.7301 12.6119 21.0526C12.4048 20.375 11.6876 19.9937 11.0101 20.2008C10.3325 20.408 9.95119 21.1252 10.1583 21.8027ZM22.6262 19.3324C21.9486 19.5395 21.2314 19.1582 21.0243 18.4807C20.8171 17.8031 21.1985 17.0859 21.876 16.8788C22.5536 16.6716 23.2707 17.053 23.4779 17.7305C23.685 18.4081 23.3037 19.1253 22.6262 19.3324ZM7.0037 22.7672C7.21084 23.4447 7.92803 23.8261 8.60557 23.6189C9.28311 23.4118 9.66444 22.6946 9.4573 22.017C9.25016 21.3395 8.53297 20.9582 7.85543 21.1653C7.17789 21.3725 6.79655 22.0897 7.0037 22.7672ZM26.7453 21.5226C26.0677 21.7297 25.3505 21.3484 25.1434 20.6708C24.9362 19.9933 25.3176 19.2761 25.9951 19.069C26.6727 18.8618 27.3898 19.2431 27.597 19.9207C27.8041 20.5982 27.4228 21.3154 26.7453 21.5226ZM11.1228 24.9574C11.3299 25.6349 12.0471 26.0162 12.7247 25.8091C13.4022 25.6019 13.7835 24.8847 13.5764 24.2072C13.3693 23.5297 12.6521 23.1483 11.9745 23.3555C11.297 23.5626 10.9157 24.2798 11.1228 24.9574ZM23.5906 22.487C22.9131 22.6942 22.1959 22.3128 21.9888 21.6353C21.7816 20.9578 22.1629 20.2406 22.8405 20.0334C23.518 19.8263 24.2352 20.2076 24.4424 20.8852C24.6495 21.5627 24.2682 22.2799 23.5906 22.487ZM7.96817 25.9218C8.17531 26.5994 8.8925 26.9807 9.57004 26.7736C10.2476 26.5664 10.6289 25.8492 10.4218 25.1717C10.2146 24.4941 9.49743 24.1128 8.8199 24.3199C8.14236 24.5271 7.76102 25.2443 7.96817 25.9218ZM27.7097 24.6772C27.0322 24.8843 26.315 24.503 26.1079 23.8255C25.9007 23.1479 26.282 22.4307 26.9596 22.2236C27.6371 22.0164 28.3543 22.3978 28.5615 23.0753C28.7686 23.7529 28.3873 24.47 27.7097 24.6772ZM12.0873 28.112C12.2944 28.7895 13.0116 29.1709 13.6891 28.9637C14.3667 28.7566 14.748 28.0394 14.5409 27.3618C14.3337 26.6843 13.6165 26.303 12.939 26.5101C12.2615 26.7173 11.8801 27.4344 12.0873 28.112ZM24.5551 25.6417C23.8776 25.8488 23.1604 25.4675 22.9532 24.7899C22.7461 24.1124 23.1274 23.3952 23.805 23.1881C24.4825 22.9809 25.1997 23.3622 25.4068 24.0398C25.614 24.7173 25.2326 25.4345 24.5551 25.6417ZM8.93263 29.0765C9.13978 29.754 9.85697 30.1353 10.5345 29.9282C11.212 29.721 11.5934 29.0038 11.3862 28.3263C11.1791 27.6488 10.4619 27.2674 9.78436 27.4746C9.10682 27.6817 8.72549 28.3989 8.93263 29.0765ZM28.6742 27.8318C27.9967 28.039 27.2795 27.6576 27.0723 26.9801C26.8652 26.3026 27.2465 25.5854 27.924 25.3782C28.6016 25.1711 29.3188 25.5524 29.5259 26.2299C29.7331 26.9075 29.3517 27.6247 28.6742 27.8318ZM13.0517 31.2666C13.2589 31.9442 13.9761 32.3255 14.6536 32.1183C15.3311 31.9112 15.7125 31.194 15.5053 30.5165C15.2982 29.8389 14.581 29.4576 13.9035 29.6647C13.2259 29.8719 12.8446 30.5891 13.0517 31.2666ZM25.5196 28.7963C24.842 29.0034 24.1248 28.6221 23.9177 27.9446C23.7105 27.267 24.0919 26.5498 24.7694 26.3427C25.447 26.1355 26.1641 26.5169 26.3713 27.1944C26.5784 27.872 26.1971 28.5891 25.5196 28.7963ZM9.8971 32.2311C10.1042 32.9086 10.8214 33.29 11.499 33.0828C12.1765 32.8757 12.5578 32.1585 12.3507 31.4809C12.1436 30.8034 11.4264 30.4221 10.7488 30.6292C10.0713 30.8364 9.68996 31.5535 9.8971 32.2311Z"/>
<path d="M56.5261 13.9999C56.5261 17.3137 53.8398 19.9999 50.5261 19.9999C47.2123 19.9999 44.5261 17.3137 44.5261 13.9999C44.5261 10.6862 47.2123 7.99994 50.5261 7.99994C53.8398 7.99994 56.5261 10.6862 56.5261 13.9999Z"/>
</mask>
<path d="M40.5535 66.0702C40.8515 65.6372 41.1982 65.2398 41.5866 64.8856C42.9089 63.9008 44.245 62.9159 45.6431 62.0481C47.0755 61.0656 48.7719 60.5397 50.5089 60.5397C52.2459 60.5397 53.9422 61.0656 55.3747 62.0481C56.3987 62.7791 57.6255 63.172 58.8836 63.172C60.1418 63.172 61.3686 62.7791 62.3927 62.0481C63.8264 61.0525 65.5301 60.5189 67.2756 60.5189C69.0211 60.5189 70.7249 61.0525 72.1586 62.0481C73.1705 62.7676 74.3812 63.1542 75.6228 63.1542C76.8644 63.1542 78.0752 62.7676 79.0871 62.0481C82.4549 59.9269 85.8503 59.982 89.1699 62.179C90.5473 63.0605 91.8214 64.0179 93.1437 64.9338C93.3445 65.0377 93.5207 65.1833 93.6605 65.3609C93.8003 65.5385 93.9005 65.7439 93.9543 65.9634C94.0081 66.1829 94.0144 66.4114 93.9726 66.6336C93.9308 66.8557 93.842 67.0663 93.712 67.2512C93.5821 67.4362 93.4142 67.5912 93.2194 67.7058C93.0246 67.8205 92.8076 67.8921 92.5828 67.916C92.358 67.9398 92.1308 67.9152 91.9163 67.844C91.7018 67.7727 91.5051 67.6563 91.3393 67.5027L87.5789 64.8719C86.5989 64.1116 85.4004 63.6865 84.1604 63.6593C82.9203 63.632 81.7044 64.004 80.6918 64.7203C79.2211 65.7526 77.4679 66.3064 75.6711 66.3064C73.8742 66.3064 72.1211 65.7526 70.6503 64.7203C69.6633 64.0228 68.4843 63.6482 67.2756 63.6482C66.0669 63.6482 64.888 64.0228 63.9009 64.7203C62.4409 65.7374 60.7043 66.2827 58.925 66.2827C57.1456 66.2827 55.409 65.7374 53.949 64.7203C51.5247 63.1983 49.2726 63.2258 46.9103 64.8719L43.4048 67.3237C42.1513 68.1984 41.3042 68.0124 40.5742 66.6901L40.5535 66.0702Z" fill="white"/>
<path d="M40.5536 58.4531C40.9023 58.0152 41.292 57.6116 41.7175 57.2478C43.204 56.1016 44.7613 55.0504 46.3801 54.1004C47.751 53.3223 49.3123 52.9435 50.8873 53.0068C52.4623 53.07 53.9881 53.573 55.2921 54.4586C56.4206 55.2518 57.7696 55.6709 59.1489 55.6569C60.2322 55.6065 61.2797 55.2534 62.1724 54.6376C63.6794 53.5884 65.4738 53.0303 67.3101 53.0398C69.0805 53.044 70.8086 53.5816 72.2689 54.5825C73.0664 55.1636 74.0015 55.5269 74.982 55.6368C75.9626 55.7467 76.9549 55.5994 77.8612 55.2093C78.3206 55.0011 78.7628 54.757 79.1836 54.4792C80.6257 53.5164 82.3227 53.0065 84.0567 53.0151C85.7907 53.0237 87.4826 53.5503 88.9151 54.5274C90.4027 55.4572 91.8077 56.5178 93.2402 57.5302C93.421 57.6441 93.5765 57.7938 93.6972 57.9702C93.8178 58.1465 93.901 58.3457 93.9417 58.5555C93.9824 58.7652 93.9796 58.9811 93.9336 59.1897C93.8876 59.3984 93.7993 59.5953 93.6741 59.7685C93.5546 59.9412 93.401 60.0876 93.2228 60.1988C93.0446 60.31 92.8457 60.3836 92.638 60.4152C92.4304 60.4468 92.2185 60.4357 92.0154 60.3825C91.8122 60.3294 91.622 60.2353 91.4565 60.106C90.1961 59.2451 88.9427 58.3636 87.6961 57.482C85.2925 55.7878 83.0404 55.7671 80.5679 57.3098C79.1254 58.3092 77.4122 58.8447 75.6574 58.8447C73.9025 58.8447 72.1894 58.3092 70.7469 57.3098C69.7284 56.5843 68.509 56.1944 67.2585 56.1944C66.008 56.1944 64.7887 56.5843 63.7702 57.3098C62.3314 58.2992 60.6264 58.8289 58.8803 58.8289C57.1342 58.8289 55.4292 58.2992 53.9904 57.3098C51.456 55.7327 49.2865 55.7533 46.8209 57.4751C45.6776 58.2694 44.5298 59.066 43.3773 59.865C42.1101 60.7465 41.3112 60.5537 40.5261 59.2658L40.5536 58.4531Z" fill="white"/>
<path d="M28.4833 51.6534L34.9131 72.6843L31.0574 73.8631L24.6276 52.8322L28.4833 51.6534Z" fill="white"/>
<path d="M35.9356 73.5215L37.1144 77.3772L31.8566 78.9846L30.6778 75.129L35.9356 73.5215Z" fill="white"/>
<path fill-rule="evenodd" clip-rule="evenodd" d="M9.74709 37.9265C5.97674 34.974 2.82516 30.4118 1.12584 24.8536C-2.41706 13.2652 2.78254 4.31893 11.397 1.68521C20.0115 -0.948496 28.7787 3.72771 32.3216 15.316C33.8586 20.3431 33.9551 25.3589 32.8684 29.6423L27.611 46.293L28.6485 49.6865L23.3908 51.294L22.3532 47.9004L9.74709 37.9265ZM30.0516 30.1245C30.5913 29.9595 31.4631 31.6049 31.346 32.187L26.0467 46.8179C25.9296 47.4 24.3662 47.878 23.9436 47.4609L11.5644 38.2348C11.1418 37.8178 10.9445 35.9661 11.4842 35.8011C11.4842 35.8011 18.9788 40.4953 22.8963 39.2976C26.8138 38.0999 30.0516 30.1245 30.0516 30.1245ZM22.8874 8.90403C22.2098 9.11118 21.4927 8.72984 21.2855 8.0523C21.0784 7.37476 21.4597 6.65757 22.1372 6.45043C22.8148 6.24329 23.532 6.62462 23.7391 7.30216C23.9463 7.9797 23.5649 8.69689 22.8874 8.90403ZM7.26493 12.3388C7.47207 13.0164 8.18926 13.3977 8.8668 13.1906C9.54434 12.9834 9.92567 12.2662 9.71853 11.5887C9.51139 10.9111 8.7942 10.5298 8.11666 10.737C7.43912 10.9441 7.05778 11.6613 7.26493 12.3388ZM19.7328 9.8685C19.0552 10.0756 18.338 9.69431 18.1309 9.01677C17.9237 8.33923 18.3051 7.62204 18.9826 7.4149C19.6601 7.20775 20.3773 7.58909 20.5845 8.26663C20.7916 8.94417 20.4103 9.66136 19.7328 9.8685ZM4.11029 13.3033C4.31744 13.9808 5.03463 14.3622 5.71217 14.155C6.38971 13.9479 6.77104 13.2307 6.5639 12.5532C6.35675 11.8756 5.63956 11.4943 4.96203 11.7014C4.28449 11.9086 3.90315 12.6258 4.11029 13.3033ZM23.8519 12.0587C23.1743 12.2658 22.4571 11.8845 22.25 11.2069C22.0428 10.5294 22.4242 9.81221 23.1017 9.60506C23.7793 9.39792 24.4964 9.77925 24.7036 10.4568C24.9107 11.1343 24.5294 11.8515 23.8519 12.0587ZM8.22939 15.4935C8.43654 16.171 9.15373 16.5523 9.83127 16.3452C10.5088 16.138 10.8901 15.4209 10.683 14.7433C10.4759 14.0658 9.75866 13.6844 9.08113 13.8916C8.40359 14.0987 8.02225 14.8159 8.22939 15.4935ZM20.6972 13.0231C20.0197 13.2303 19.3025 12.8489 19.0953 12.1714C18.8882 11.4939 19.2695 10.7767 19.9471 10.5695C20.6246 10.3624 21.3418 10.7437 21.549 11.4213C21.7561 12.0988 21.3748 12.816 20.6972 13.0231ZM5.07476 16.4579C5.28191 17.1355 5.9991 17.5168 6.67663 17.3097C7.35417 17.1025 7.73551 16.3853 7.52837 15.7078C7.32122 15.0302 6.60403 14.6489 5.92649 14.8561C5.24895 15.0632 4.86762 15.7804 5.07476 16.4579ZM24.8163 15.2133C24.1388 15.4204 23.4216 15.0391 23.2144 14.3616C23.0073 13.684 23.3886 12.9668 24.0662 12.7597C24.7437 12.5525 25.4609 12.9339 25.6681 13.6114C25.8752 14.289 25.4939 15.0062 24.8163 15.2133ZM9.19386 18.6481C9.40101 19.3256 10.1182 19.707 10.7957 19.4998C11.4733 19.2927 11.8546 18.5755 11.6475 17.8979C11.4403 17.2204 10.7231 16.8391 10.0456 17.0462C9.36805 17.2534 8.98672 17.9705 9.19386 18.6481ZM21.6617 16.1778C20.9841 16.3849 20.267 16.0036 20.0598 15.326C19.8527 14.6485 20.234 13.9313 20.9115 13.7242C21.5891 13.517 22.3063 13.8984 22.5134 14.5759C22.7206 15.2534 22.3392 15.9706 21.6617 16.1778ZM6.03923 19.6126C6.24637 20.2901 6.96356 20.6714 7.6411 20.4643C8.31864 20.2571 8.69998 19.54 8.49283 18.8624C8.28569 18.1849 7.5685 17.8035 6.89096 18.0107C6.21342 18.2178 5.83209 18.935 6.03923 19.6126ZM25.7808 18.3679C25.1032 18.5751 24.3861 18.1937 24.1789 17.5162C23.9718 16.8387 24.3531 16.1215 25.0306 15.9143C25.7082 15.7072 26.4254 16.0885 26.6325 16.7661C26.8397 17.4436 26.4583 18.1608 25.7808 18.3679ZM10.1583 21.8027C10.3655 22.4803 11.0827 22.8616 11.7602 22.6545C12.4377 22.4473 12.8191 21.7301 12.6119 21.0526C12.4048 20.375 11.6876 19.9937 11.0101 20.2008C10.3325 20.408 9.95119 21.1252 10.1583 21.8027ZM22.6262 19.3324C21.9486 19.5395 21.2314 19.1582 21.0243 18.4807C20.8171 17.8031 21.1985 17.0859 21.876 16.8788C22.5536 16.6716 23.2707 17.053 23.4779 17.7305C23.685 18.4081 23.3037 19.1253 22.6262 19.3324ZM7.0037 22.7672C7.21084 23.4447 7.92803 23.8261 8.60557 23.6189C9.28311 23.4118 9.66444 22.6946 9.4573 22.017C9.25016 21.3395 8.53297 20.9582 7.85543 21.1653C7.17789 21.3725 6.79655 22.0897 7.0037 22.7672ZM26.7453 21.5226C26.0677 21.7297 25.3505 21.3484 25.1434 20.6708C24.9362 19.9933 25.3176 19.2761 25.9951 19.069C26.6727 18.8618 27.3898 19.2431 27.597 19.9207C27.8041 20.5982 27.4228 21.3154 26.7453 21.5226ZM11.1228 24.9574C11.3299 25.6349 12.0471 26.0162 12.7247 25.8091C13.4022 25.6019 13.7835 24.8847 13.5764 24.2072C13.3693 23.5297 12.6521 23.1483 11.9745 23.3555C11.297 23.5626 10.9157 24.2798 11.1228 24.9574ZM23.5906 22.487C22.9131 22.6942 22.1959 22.3128 21.9888 21.6353C21.7816 20.9578 22.1629 20.2406 22.8405 20.0334C23.518 19.8263 24.2352 20.2076 24.4424 20.8852C24.6495 21.5627 24.2682 22.2799 23.5906 22.487ZM7.96817 25.9218C8.17531 26.5994 8.8925 26.9807 9.57004 26.7736C10.2476 26.5664 10.6289 25.8492 10.4218 25.1717C10.2146 24.4941 9.49743 24.1128 8.8199 24.3199C8.14236 24.5271 7.76102 25.2443 7.96817 25.9218ZM27.7097 24.6772C27.0322 24.8843 26.315 24.503 26.1079 23.8255C25.9007 23.1479 26.282 22.4307 26.9596 22.2236C27.6371 22.0164 28.3543 22.3978 28.5615 23.0753C28.7686 23.7529 28.3873 24.47 27.7097 24.6772ZM12.0873 28.112C12.2944 28.7895 13.0116 29.1709 13.6891 28.9637C14.3667 28.7566 14.748 28.0394 14.5409 27.3618C14.3337 26.6843 13.6165 26.303 12.939 26.5101C12.2615 26.7173 11.8801 27.4344 12.0873 28.112ZM24.5551 25.6417C23.8776 25.8488 23.1604 25.4675 22.9532 24.7899C22.7461 24.1124 23.1274 23.3952 23.805 23.1881C24.4825 22.9809 25.1997 23.3622 25.4068 24.0398C25.614 24.7173 25.2326 25.4345 24.5551 25.6417ZM8.93263 29.0765C9.13978 29.754 9.85697 30.1353 10.5345 29.9282C11.212 29.721 11.5934 29.0038 11.3862 28.3263C11.1791 27.6488 10.4619 27.2674 9.78436 27.4746C9.10682 27.6817 8.72549 28.3989 8.93263 29.0765ZM28.6742 27.8318C27.9967 28.039 27.2795 27.6576 27.0723 26.9801C26.8652 26.3026 27.2465 25.5854 27.924 25.3782C28.6016 25.1711 29.3188 25.5524 29.5259 26.2299C29.7331 26.9075 29.3517 27.6247 28.6742 27.8318ZM13.0517 31.2666C13.2589 31.9442 13.9761 32.3255 14.6536 32.1183C15.3311 31.9112 15.7125 31.194 15.5053 30.5165C15.2982 29.8389 14.581 29.4576 13.9035 29.6647C13.2259 29.8719 12.8446 30.5891 13.0517 31.2666ZM25.5196 28.7963C24.842 29.0034 24.1248 28.6221 23.9177 27.9446C23.7105 27.267 24.0919 26.5498 24.7694 26.3427C25.447 26.1355 26.1641 26.5169 26.3713 27.1944C26.5784 27.872 26.1971 28.5891 25.5196 28.7963ZM9.8971 32.2311C10.1042 32.9086 10.8214 33.29 11.499 33.0828C12.1765 32.8757 12.5578 32.1585 12.3507 31.4809C12.1436 30.8034 11.4264 30.4221 10.7488 30.6292C10.0713 30.8364 9.68996 31.5535 9.8971 32.2311Z" fill="white"/>
<path d="M56.5261 13.9999C56.5261 17.3137 53.8398 19.9999 50.5261 19.9999C47.2123 19.9999 44.5261 17.3137 44.5261 13.9999C44.5261 10.6862 47.2123 7.99994 50.5261 7.99994C53.8398 7.99994 56.5261 10.6862 56.5261 13.9999Z" fill="white"/>
<path d="M40.5535 66.0702C40.8515 65.6372 41.1982 65.2398 41.5866 64.8856C42.9089 63.9008 44.245 62.9159 45.6431 62.0481C47.0755 61.0656 48.7719 60.5397 50.5089 60.5397C52.2459 60.5397 53.9422 61.0656 55.3747 62.0481C56.3987 62.7791 57.6255 63.172 58.8836 63.172C60.1418 63.172 61.3686 62.7791 62.3927 62.0481C63.8264 61.0525 65.5301 60.5189 67.2756 60.5189C69.0211 60.5189 70.7249 61.0525 72.1586 62.0481C73.1705 62.7676 74.3812 63.1542 75.6228 63.1542C76.8644 63.1542 78.0752 62.7676 79.0871 62.0481C82.4549 59.9269 85.8503 59.982 89.1699 62.179C90.5473 63.0605 91.8214 64.0179 93.1437 64.9338C93.3445 65.0377 93.5207 65.1833 93.6605 65.3609C93.8003 65.5385 93.9005 65.7439 93.9543 65.9634C94.0081 66.1829 94.0144 66.4114 93.9726 66.6336C93.9308 66.8557 93.842 67.0663 93.712 67.2512C93.5821 67.4362 93.4142 67.5912 93.2194 67.7058C93.0246 67.8205 92.8076 67.8921 92.5828 67.916C92.358 67.9398 92.1308 67.9152 91.9163 67.844C91.7018 67.7727 91.5051 67.6563 91.3393 67.5027L87.5789 64.8719C86.5989 64.1116 85.4004 63.6865 84.1604 63.6593C82.9203 63.632 81.7044 64.004 80.6918 64.7203C79.2211 65.7526 77.4679 66.3064 75.6711 66.3064C73.8742 66.3064 72.1211 65.7526 70.6503 64.7203C69.6633 64.0228 68.4843 63.6482 67.2756 63.6482C66.0669 63.6482 64.888 64.0228 63.9009 64.7203C62.4409 65.7374 60.7043 66.2827 58.925 66.2827C57.1456 66.2827 55.409 65.7374 53.949 64.7203C51.5247 63.1983 49.2726 63.2258 46.9103 64.8719L43.4048 67.3237C42.1513 68.1984 41.3042 68.0124 40.5742 66.6901L40.5535 66.0702Z" stroke="black" stroke-width="2" mask="url(#path-1-inside-1_609_213)"/>
<path d="M40.5536 58.4531C40.9023 58.0152 41.292 57.6116 41.7175 57.2478C43.204 56.1016 44.7613 55.0504 46.3801 54.1004C47.751 53.3223 49.3123 52.9435 50.8873 53.0068C52.4623 53.07 53.9881 53.573 55.2921 54.4586C56.4206 55.2518 57.7696 55.6709 59.1489 55.6569C60.2322 55.6065 61.2797 55.2534 62.1724 54.6376C63.6794 53.5884 65.4738 53.0303 67.3101 53.0398C69.0805 53.044 70.8086 53.5816 72.2689 54.5825C73.0664 55.1636 74.0015 55.5269 74.982 55.6368C75.9626 55.7467 76.9549 55.5994 77.8612 55.2093C78.3206 55.0011 78.7628 54.757 79.1836 54.4792C80.6257 53.5164 82.3227 53.0065 84.0567 53.0151C85.7907 53.0237 87.4826 53.5503 88.9151 54.5274C90.4027 55.4572 91.8077 56.5178 93.2402 57.5302C93.421 57.6441 93.5765 57.7938 93.6972 57.9702C93.8178 58.1465 93.901 58.3457 93.9417 58.5555C93.9824 58.7652 93.9796 58.9811 93.9336 59.1897C93.8876 59.3984 93.7993 59.5953 93.6741 59.7685C93.5546 59.9412 93.401 60.0876 93.2228 60.1988C93.0446 60.31 92.8457 60.3836 92.638 60.4152C92.4304 60.4468 92.2185 60.4357 92.0154 60.3825C91.8122 60.3294 91.622 60.2353 91.4565 60.106C90.1961 59.2451 88.9427 58.3636 87.6961 57.482C85.2925 55.7878 83.0404 55.7671 80.5679 57.3098C79.1254 58.3092 77.4122 58.8447 75.6574 58.8447C73.9025 58.8447 72.1894 58.3092 70.7469 57.3098C69.7284 56.5843 68.509 56.1944 67.2585 56.1944C66.008 56.1944 64.7887 56.5843 63.7702 57.3098C62.3314 58.2992 60.6264 58.8289 58.8803 58.8289C57.1342 58.8289 55.4292 58.2992 53.9904 57.3098C51.456 55.7327 49.2865 55.7533 46.8209 57.4751C45.6776 58.2694 44.5298 59.066 43.3773 59.865C42.1101 60.7465 41.3112 60.5537 40.5261 59.2658L40.5536 58.4531Z" stroke="black" stroke-width="2" mask="url(#path-1-inside-1_609_213)"/>
<path d="M28.4833 51.6534L34.9131 72.6843L31.0574 73.8631L24.6276 52.8322L28.4833 51.6534Z" stroke="black" stroke-width="2" mask="url(#path-1-inside-1_609_213)"/>
<path d="M35.9356 73.5215L37.1144 77.3772L31.8566 78.9846L30.6778 75.129L35.9356 73.5215Z" stroke="black" stroke-width="2" mask="url(#path-1-inside-1_609_213)"/>
<path fill-rule="evenodd" clip-rule="evenodd" d="M9.74709 37.9265C5.97674 34.974 2.82516 30.4118 1.12584 24.8536C-2.41706 13.2652 2.78254 4.31893 11.397 1.68521C20.0115 -0.948496 28.7787 3.72771 32.3216 15.316C33.8586 20.3431 33.9551 25.3589 32.8684 29.6423L27.611 46.293L28.6485 49.6865L23.3908 51.294L22.3532 47.9004L9.74709 37.9265ZM30.0516 30.1245C30.5913 29.9595 31.4631 31.6049 31.346 32.187L26.0467 46.8179C25.9296 47.4 24.3662 47.878 23.9436 47.4609L11.5644 38.2348C11.1418 37.8178 10.9445 35.9661 11.4842 35.8011C11.4842 35.8011 18.9788 40.4953 22.8963 39.2976C26.8138 38.0999 30.0516 30.1245 30.0516 30.1245ZM22.8874 8.90403C22.2098 9.11118 21.4927 8.72984 21.2855 8.0523C21.0784 7.37476 21.4597 6.65757 22.1372 6.45043C22.8148 6.24329 23.532 6.62462 23.7391 7.30216C23.9463 7.9797 23.5649 8.69689 22.8874 8.90403ZM7.26493 12.3388C7.47207 13.0164 8.18926 13.3977 8.8668 13.1906C9.54434 12.9834 9.92567 12.2662 9.71853 11.5887C9.51139 10.9111 8.7942 10.5298 8.11666 10.737C7.43912 10.9441 7.05778 11.6613 7.26493 12.3388ZM19.7328 9.8685C19.0552 10.0756 18.338 9.69431 18.1309 9.01677C17.9237 8.33923 18.3051 7.62204 18.9826 7.4149C19.6601 7.20775 20.3773 7.58909 20.5845 8.26663C20.7916 8.94417 20.4103 9.66136 19.7328 9.8685ZM4.11029 13.3033C4.31744 13.9808 5.03463 14.3622 5.71217 14.155C6.38971 13.9479 6.77104 13.2307 6.5639 12.5532C6.35675 11.8756 5.63956 11.4943 4.96203 11.7014C4.28449 11.9086 3.90315 12.6258 4.11029 13.3033ZM23.8519 12.0587C23.1743 12.2658 22.4571 11.8845 22.25 11.2069C22.0428 10.5294 22.4242 9.81221 23.1017 9.60506C23.7793 9.39792 24.4964 9.77925 24.7036 10.4568C24.9107 11.1343 24.5294 11.8515 23.8519 12.0587ZM8.22939 15.4935C8.43654 16.171 9.15373 16.5523 9.83127 16.3452C10.5088 16.138 10.8901 15.4209 10.683 14.7433C10.4759 14.0658 9.75866 13.6844 9.08113 13.8916C8.40359 14.0987 8.02225 14.8159 8.22939 15.4935ZM20.6972 13.0231C20.0197 13.2303 19.3025 12.8489 19.0953 12.1714C18.8882 11.4939 19.2695 10.7767 19.9471 10.5695C20.6246 10.3624 21.3418 10.7437 21.549 11.4213C21.7561 12.0988 21.3748 12.816 20.6972 13.0231ZM5.07476 16.4579C5.28191 17.1355 5.9991 17.5168 6.67663 17.3097C7.35417 17.1025 7.73551 16.3853 7.52837 15.7078C7.32122 15.0302 6.60403 14.6489 5.92649 14.8561C5.24895 15.0632 4.86762 15.7804 5.07476 16.4579ZM24.8163 15.2133C24.1388 15.4204 23.4216 15.0391 23.2144 14.3616C23.0073 13.684 23.3886 12.9668 24.0662 12.7597C24.7437 12.5525 25.4609 12.9339 25.6681 13.6114C25.8752 14.289 25.4939 15.0062 24.8163 15.2133ZM9.19386 18.6481C9.40101 19.3256 10.1182 19.707 10.7957 19.4998C11.4733 19.2927 11.8546 18.5755 11.6475 17.8979C11.4403 17.2204 10.7231 16.8391 10.0456 17.0462C9.36805 17.2534 8.98672 17.9705 9.19386 18.6481ZM21.6617 16.1778C20.9841 16.3849 20.267 16.0036 20.0598 15.326C19.8527 14.6485 20.234 13.9313 20.9115 13.7242C21.5891 13.517 22.3063 13.8984 22.5134 14.5759C22.7206 15.2534 22.3392 15.9706 21.6617 16.1778ZM6.03923 19.6126C6.24637 20.2901 6.96356 20.6714 7.6411 20.4643C8.31864 20.2571 8.69998 19.54 8.49283 18.8624C8.28569 18.1849 7.5685 17.8035 6.89096 18.0107C6.21342 18.2178 5.83209 18.935 6.03923 19.6126ZM25.7808 18.3679C25.1032 18.5751 24.3861 18.1937 24.1789 17.5162C23.9718 16.8387 24.3531 16.1215 25.0306 15.9143C25.7082 15.7072 26.4254 16.0885 26.6325 16.7661C26.8397 17.4436 26.4583 18.1608 25.7808 18.3679ZM10.1583 21.8027C10.3655 22.4803 11.0827 22.8616 11.7602 22.6545C12.4377 22.4473 12.8191 21.7301 12.6119 21.0526C12.4048 20.375 11.6876 19.9937 11.0101 20.2008C10.3325 20.408 9.95119 21.1252 10.1583 21.8027ZM22.6262 19.3324C21.9486 19.5395 21.2314 19.1582 21.0243 18.4807C20.8171 17.8031 21.1985 17.0859 21.876 16.8788C22.5536 16.6716 23.2707 17.053 23.4779 17.7305C23.685 18.4081 23.3037 19.1253 22.6262 19.3324ZM7.0037 22.7672C7.21084 23.4447 7.92803 23.8261 8.60557 23.6189C9.28311 23.4118 9.66444 22.6946 9.4573 22.017C9.25016 21.3395 8.53297 20.9582 7.85543 21.1653C7.17789 21.3725 6.79655 22.0897 7.0037 22.7672ZM26.7453 21.5226C26.0677 21.7297 25.3505 21.3484 25.1434 20.6708C24.9362 19.9933 25.3176 19.2761 25.9951 19.069C26.6727 18.8618 27.3898 19.2431 27.597 19.9207C27.8041 20.5982 27.4228 21.3154 26.7453 21.5226ZM11.1228 24.9574C11.3299 25.6349 12.0471 26.0162 12.7247 25.8091C13.4022 25.6019 13.7835 24.8847 13.5764 24.2072C13.3693 23.5297 12.6521 23.1483 11.9745 23.3555C11.297 23.5626 10.9157 24.2798 11.1228 24.9574ZM23.5906 22.487C22.9131 22.6942 22.1959 22.3128 21.9888 21.6353C21.7816 20.9578 22.1629 20.2406 22.8405 20.0334C23.518 19.8263 24.2352 20.2076 24.4424 20.8852C24.6495 21.5627 24.2682 22.2799 23.5906 22.487ZM7.96817 25.9218C8.17531 26.5994 8.8925 26.9807 9.57004 26.7736C10.2476 26.5664 10.6289 25.8492 10.4218 25.1717C10.2146 24.4941 9.49743 24.1128 8.8199 24.3199C8.14236 24.5271 7.76102 25.2443 7.96817 25.9218ZM27.7097 24.6772C27.0322 24.8843 26.315 24.503 26.1079 23.8255C25.9007 23.1479 26.282 22.4307 26.9596 22.2236C27.6371 22.0164 28.3543 22.3978 28.5615 23.0753C28.7686 23.7529 28.3873 24.47 27.7097 24.6772ZM12.0873 28.112C12.2944 28.7895 13.0116 29.1709 13.6891 28.9637C14.3667 28.7566 14.748 28.0394 14.5409 27.3618C14.3337 26.6843 13.6165 26.303 12.939 26.5101C12.2615 26.7173 11.8801 27.4344 12.0873 28.112ZM24.5551 25.6417C23.8776 25.8488 23.1604 25.4675 22.9532 24.7899C22.7461 24.1124 23.1274 23.3952 23.805 23.1881C24.4825 22.9809 25.1997 23.3622 25.4068 24.0398C25.614 24.7173 25.2326 25.4345 24.5551 25.6417ZM8.93263 29.0765C9.13978 29.754 9.85697 30.1353 10.5345 29.9282C11.212 29.721 11.5934 29.0038 11.3862 28.3263C11.1791 27.6488 10.4619 27.2674 9.78436 27.4746C9.10682 27.6817 8.72549 28.3989 8.93263 29.0765ZM28.6742 27.8318C27.9967 28.039 27.2795 27.6576 27.0723 26.9801C26.8652 26.3026 27.2465 25.5854 27.924 25.3782C28.6016 25.1711 29.3188 25.5524 29.5259 26.2299C29.7331 26.9075 29.3517 27.6247 28.6742 27.8318ZM13.0517 31.2666C13.2589 31.9442 13.9761 32.3255 14.6536 32.1183C15.3311 31.9112 15.7125 31.194 15.5053 30.5165C15.2982 29.8389 14.581 29.4576 13.9035 29.6647C13.2259 29.8719 12.8446 30.5891 13.0517 31.2666ZM25.5196 28.7963C24.842 29.0034 24.1248 28.6221 23.9177 27.9446C23.7105 27.267 24.0919 26.5498 24.7694 26.3427C25.447 26.1355 26.1641 26.5169 26.3713 27.1944C26.5784 27.872 26.1971 28.5891 25.5196 28.7963ZM9.8971 32.2311C10.1042 32.9086 10.8214 33.29 11.499 33.0828C12.1765 32.8757 12.5578 32.1585 12.3507 31.4809C12.1436 30.8034 11.4264 30.4221 10.7488 30.6292C10.0713 30.8364 9.68996 31.5535 9.8971 32.2311Z" stroke="black" stroke-width="2" mask="url(#path-1-inside-1_609_213)"/>
<path d="M56.5261 13.9999C56.5261 17.3137 53.8398 19.9999 50.5261 19.9999C47.2123 19.9999 44.5261 17.3137 44.5261 13.9999C44.5261 10.6862 47.2123 7.99994 50.5261 7.99994C53.8398 7.99994 56.5261 10.6862 56.5261 13.9999Z" stroke="black" stroke-width="2" mask="url(#path-1-inside-1_609_213)"/>
</svg>
