<svg width="73" height="73" viewBox="0 0 73 73" fill="none" xmlns="http://www.w3.org/2000/svg">
<path d="M34 0.0600586H38.52C38.7 0.0600586 38.88 0.150054 39.06 0.180054C40.92 0.470054 42.8 0.640059 44.63 1.06006C51.5142 2.6937 57.7672 6.3127 62.6132 11.468C67.4592 16.6233 70.6849 23.0881 71.89 30.0601C72.11 31.3701 72.25 32.7101 72.43 34.0601V38.5801C72.43 38.7901 72.34 38.9901 72.31 39.2001C72.07 40.8001 71.94 42.4301 71.59 44.0101C70.4554 49.28 68.1551 54.2289 64.8578 58.4935C61.5605 62.7582 57.35 66.2302 52.5354 68.6548C47.7208 71.0794 42.4243 72.3949 37.0347 72.5049C31.6452 72.6148 26.2995 71.5163 21.39 69.2901C5.88997 62.3501 -2.39002 46.0601 0.769976 29.2901C2.17495 22.1309 5.70981 15.5631 10.9113 10.4472C16.1129 5.3313 22.7385 1.90598 29.92 0.620056C31.29 0.400056 32.65 0.250059 34 0.0600586ZM17.35 36.1601C17.3381 39.9018 18.4366 43.5629 20.5063 46.6801C22.576 49.7973 25.5241 52.2304 28.9772 53.6714C32.4303 55.1125 36.2333 55.4967 39.9049 54.7754C43.5764 54.0542 46.9515 52.2599 49.6029 49.6197C52.2543 46.9795 54.0629 43.6121 54.7997 39.9436C55.5365 36.2751 55.1684 32.4705 53.742 29.0113C52.3156 25.5521 49.895 22.5939 46.7866 20.5109C43.6782 18.428 40.0217 17.314 36.28 17.3101C31.2789 17.3283 26.4867 19.3177 22.9429 22.8465C19.3991 26.3753 17.3894 31.1591 17.35 36.1601Z" fill="white"/>
<path d="M21.59 36.1601C21.5999 33.2578 22.4705 30.4237 24.0916 28.0163C25.7126 25.6089 28.0114 23.7365 30.6969 22.6359C33.3824 21.5353 36.3341 21.2561 39.1783 21.8335C42.0226 22.4108 44.6317 23.8189 46.6755 25.8795C48.7194 27.9401 50.106 30.5607 50.6601 33.4096C51.2142 36.2585 50.9107 39.2078 49.7882 41.8842C48.6657 44.5606 46.7745 46.8439 44.3539 48.4452C41.9334 50.0465 39.0923 50.8939 36.19 50.8801C32.3068 50.8484 28.5935 49.2836 25.8589 46.5265C23.1243 43.7694 21.5898 40.0433 21.59 36.1601ZM31.12 35.65L30.92 35.81C30.0784 36.2833 29.3853 36.9815 28.9182 37.8265C28.451 38.6714 28.2283 39.6297 28.275 40.5941C28.3217 41.5584 28.636 42.4907 29.1826 43.2866C29.7292 44.0824 30.4867 44.7103 31.37 45.1001C32.9312 45.8386 34.6435 46.2016 36.37 46.1601C38.4301 46.2689 40.4734 45.738 42.22 44.6401C42.9601 44.1725 43.5678 43.5227 43.9846 42.7528C44.4015 41.983 44.6135 41.119 44.6005 40.2436C44.5874 39.3683 44.3497 38.5109 43.9101 37.7538C43.4705 36.9968 42.8437 36.3653 42.09 35.9201L41.7 35.6701L42.17 35.28C42.9812 34.657 43.5476 33.7685 43.77 32.77C44.0392 31.6166 43.8843 30.4049 43.3334 29.3564C42.7825 28.3079 41.8725 27.4927 40.77 27.06C39.4369 26.4517 37.9917 26.1278 36.5266 26.1088C35.0614 26.0899 33.6084 26.3764 32.26 26.9501C31.3906 27.2429 30.6208 27.7739 30.0383 28.4827C29.4559 29.1915 29.0841 30.0496 28.9653 30.9592C28.8465 31.8689 28.9855 32.7937 29.3664 33.6283C29.7473 34.4629 30.3549 35.1738 31.12 35.68V35.65Z" fill="white"/>
<path d="M36.3999 43.0301C35.6797 42.8903 34.971 42.6965 34.2799 42.4501C33.8158 42.2621 33.4239 41.9308 33.1613 41.5045C32.8987 41.0782 32.7791 40.5791 32.82 40.0801C32.8021 39.5809 32.941 39.0887 33.2172 38.6726C33.4934 38.2565 33.893 37.9374 34.36 37.7601C35.0156 37.4657 35.7262 37.3134 36.445 37.3134C37.1637 37.3134 37.8743 37.4657 38.5299 37.7601C38.9838 37.9412 39.3716 38.2565 39.6415 38.664C39.9113 39.0714 40.0503 39.5515 40.04 40.0401C40.0779 40.5387 39.9558 41.0364 39.6914 41.4608C39.4271 41.8852 39.0342 42.2142 38.57 42.4001C37.8619 42.6595 37.1368 42.87 36.3999 43.0301Z" fill="white"/>
<path d="M36.42 34.3801C35.822 34.265 35.2336 34.1045 34.66 33.9001C34.2852 33.7462 33.966 33.4822 33.7445 33.1429C33.5231 32.8036 33.4099 32.4051 33.42 32.0001C33.3764 31.5749 33.4643 31.1466 33.6717 30.7729C33.8791 30.3992 34.1961 30.098 34.58 29.9101C35.1492 29.5949 35.7893 29.4295 36.44 29.4295C37.0907 29.4295 37.7307 29.5949 38.3 29.9101C38.6638 30.095 38.9645 30.3838 39.1639 30.7399C39.3633 31.096 39.4524 31.5032 39.42 31.9101C39.4309 32.3139 39.3192 32.7117 39.0996 33.0508C38.8801 33.39 38.563 33.6547 38.19 33.8101C37.6138 34.0405 37.0224 34.231 36.42 34.3801Z" fill="white"/>
</svg>
