<svg width="78" height="64" viewBox="0 0 78 64" fill="none" xmlns="http://www.w3.org/2000/svg">
<path d="M41.4901 61.3V62.75H77.49V61.3H41.4901Z" fill="white"/>
<path d="M71.3901 61.3C74.3337 61.3 76.7201 58.9137 76.7201 55.97C76.7201 53.0263 74.3337 50.64 71.3901 50.64C68.4464 50.64 66.0601 53.0263 66.0601 55.97C66.0601 58.9137 68.4464 61.3 71.3901 61.3Z" fill="white"/>
<path d="M61.94 61.3C62.9342 61.3 63.7401 60.4941 63.7401 59.5C63.7401 58.5059 62.9342 57.7 61.94 57.7C60.9459 57.7 60.1401 58.5059 60.1401 59.5C60.1401 60.4941 60.9459 61.3 61.94 61.3Z" fill="white"/>
<path d="M9.35 16.53C10.0946 17.1637 10.9843 17.6034 11.94 17.81C15.0882 18.8183 18.3573 19.4001 21.66 19.54C21.88 19.54 22.1 19.54 22.35 19.61L25.42 19.98L23.63 22.43C23.52 22.59 23.43 22.71 23.34 22.82C22.9 23.33 22.46 23.82 22.01 24.34C21.01 25.45 20.13 26.48 19.31 27.6C17.75 29.72 17.46 31.26 18.31 32.92C18.6237 33.5822 18.6841 34.3363 18.48 35.04C17.3584 39.7452 15.4116 44.2143 12.73 48.24C10.311 51.9647 7.56339 55.4654 4.52 58.7C4.26678 58.9511 4.06642 59.2503 3.93074 59.5801C3.79505 59.9098 3.7268 60.2634 3.73 60.62C3.75711 61.0027 3.85939 61.3763 4.03097 61.7195C4.20256 62.0627 4.44009 62.3687 4.73 62.62C4.9764 62.8917 5.27999 63.1053 5.6189 63.2456C5.95782 63.3858 6.32362 63.4491 6.68995 63.4309C7.05627 63.4128 7.41401 63.3136 7.73738 63.1405C8.06075 62.9674 8.34171 62.7247 8.56 62.43C14.2223 56.6718 18.7301 49.883 21.84 42.43C21.93 42.21 22.03 42 22.15 41.75L23.58 38.75L25.16 41.27C27.5275 44.9087 29.1928 48.9585 30.07 53.21C30.36 54.7 30.52 56.21 30.68 57.67C30.78 58.67 30.88 59.6 31.02 60.56C31.0753 60.9176 31.2021 61.2604 31.393 61.5678C31.5838 61.8753 31.8347 62.141 32.1307 62.3492C32.4267 62.5574 32.7616 62.7038 33.1154 62.7795C33.4693 62.8552 33.8347 62.8588 34.19 62.79C34.5177 62.7826 34.8403 62.7067 35.1369 62.5672C35.4336 62.4277 35.6977 62.2276 35.9125 61.9799C36.1272 61.7323 36.2877 61.4424 36.3837 61.129C36.4798 60.8155 36.5091 60.4855 36.47 60.16C36.3929 54.311 35.0271 48.5509 32.47 43.29C31.47 41.29 30.4 39.42 29.23 37.42C28.69 36.5 28.15 35.58 27.61 34.63L27.06 33.63L28.56 31.83C29.14 31.14 29.76 30.4 30.37 29.65C34.04 25.16 36.24 21.37 37.52 17.37C38.27 15.01 37.58 13 35.64 11.88C34.6266 11.2555 33.4355 10.9827 32.2513 11.1038C31.0672 11.225 29.956 11.7333 29.09 12.55C28.451 13.2 27.6267 13.6366 26.73 13.8C22.0066 14.4222 17.2029 13.8903 12.73 12.25L12.36 12.12C11.6964 11.8063 10.9612 11.6751 10.23 11.74" fill="white"/>
<path d="M41.65 8.63C42.61 7.68862 43.1567 6.40447 43.17 5.06C43.1751 4.40266 43.0506 3.75077 42.8035 3.14162C42.5564 2.53247 42.1916 1.97802 41.73 1.51C41.2602 1.03201 40.6999 0.652314 40.0818 0.393066C39.4637 0.133819 38.8002 0.000200912 38.13 0C36.8088 0.0155762 35.546 0.547363 34.6117 1.48169C33.6774 2.41602 33.1456 3.67875 33.13 5C33.1476 6.32715 33.6779 7.59605 34.6098 8.54107C35.5418 9.48609 36.8032 10.034 38.13 10.07C39.4472 10.0724 40.7121 9.55492 41.65 8.63Z" fill="white"/>
<path d="M37.6 23.51L37.75 23.76C38.8816 25.2657 40.1109 26.6955 41.43 28.04C41.6382 28.2938 41.8972 28.5011 42.1904 28.6487C42.4836 28.7963 42.8044 28.8808 43.1323 28.8968C43.4601 28.9129 43.7877 28.86 44.0939 28.7417C44.4001 28.6234 44.6781 28.4423 44.91 28.21C45.4287 27.8138 45.7793 27.2369 45.8923 26.5941C46.0054 25.9512 45.8724 25.2894 45.52 24.74C44.19 22.74 41.33 19.84 39.96 17.95L38.73 20.79C38.37 21.7 37.98 22.6 37.6 23.51Z" fill="white"/>
<path d="M5.76 18.45C8.94116 18.45 11.52 15.8712 11.52 12.69C11.52 9.50884 8.94116 6.93 5.76 6.93C2.57884 6.93 0 9.50884 0 12.69C0 15.8712 2.57884 18.45 5.76 18.45Z" fill="white"/>
</svg>
