<svg width="66" height="73" viewBox="0 0 66 73" fill="none" xmlns="http://www.w3.org/2000/svg">
<path d="M24.79 72.93C23.1854 72.7312 21.593 72.4441 20.02 72.07C9.44 68.98 2.76001 62.07 0.720008 51.23C-0.506621 44.7525 0.773278 38.0508 4.30071 32.4812C7.82815 26.9115 13.3397 22.8899 19.72 21.23C23.344 20.1927 27.1525 19.9694 30.8729 20.5762C34.5933 21.183 38.1335 22.6049 41.24 24.74C41.38 24.83 41.5 24.93 41.68 25.06C41.06 26.95 40.44 28.83 39.83 30.73C37.5955 37.7592 37.0137 45.2093 38.13 52.5C38.91 57.8334 39.6567 63.1667 40.37 68.5C40.3658 68.6358 40.3302 68.7687 40.266 68.8884C40.2018 69.0081 40.1107 69.1114 40 69.19C36.6686 71.1901 32.9293 72.4138 29.06 72.77C28.8539 72.799 28.65 72.8424 28.45 72.9L24.79 72.93ZM17.53 39.19C17.53 39.5761 17.6061 39.9584 17.7538 40.3151C17.9015 40.6718 18.1181 40.9959 18.3911 41.2689C18.6641 41.5419 18.9882 41.7585 19.3449 41.9062C19.7016 42.054 20.0839 42.1301 20.47 42.1301C20.8561 42.1301 21.2384 42.054 21.5951 41.9062C21.9518 41.7585 22.2759 41.5419 22.5489 41.2689C22.8219 40.9959 23.0385 40.6718 23.1862 40.3151C23.334 39.9584 23.41 39.5761 23.41 39.19C23.41 38.4103 23.1003 37.6625 22.5489 37.1111C21.9975 36.5598 21.2497 36.25 20.47 36.25C19.6903 36.25 18.9425 36.5598 18.3911 37.1111C17.8398 37.6625 17.53 38.4103 17.53 39.19ZM32.83 42.19C32.83 41.5967 32.6541 41.0167 32.3244 40.5233C31.9948 40.03 31.5262 39.6455 30.9781 39.4184C30.4299 39.1913 29.8267 39.1319 29.2447 39.2477C28.6628 39.3634 28.1282 39.6492 27.7087 40.0687C27.2891 40.4883 27.0034 41.0228 26.8876 41.6048C26.7719 42.1867 26.8313 42.7899 27.0584 43.3381C27.2854 43.8863 27.6699 44.3548 28.1633 44.6844C28.6566 45.0141 29.2367 45.19 29.83 45.19C30.2274 45.1901 30.6208 45.1112 30.9874 44.9579C31.354 44.8046 31.6865 44.5801 31.9656 44.2973C32.2447 44.0144 32.4648 43.679 32.6132 43.3104C32.7616 42.9418 32.8353 42.5474 32.83 42.15V42.19ZM24.92 33.48C24.92 34.2571 25.2287 35.0024 25.7782 35.5519C26.3277 36.1013 27.0729 36.41 27.85 36.41C28.6271 36.41 29.3723 36.1013 29.9218 35.5519C30.4713 35.0024 30.78 34.2571 30.78 33.48C30.78 32.7029 30.4713 31.9577 29.9218 31.4082C29.3723 30.8587 28.6271 30.55 27.85 30.55C27.0729 30.55 26.3277 30.8587 25.7782 31.4082C25.2287 31.9577 24.92 32.7029 24.92 33.48Z" fill="white"/>
<path d="M61.97 72.55H61.16C56.16 72.55 51.16 72.55 46.16 72.55C45.53 72.55 45.3 72.41 45.16 71.73C44.28 65.2034 43.3633 58.6734 42.41 52.14C41.267 44.7448 41.9959 37.181 44.53 30.14C45.04 28.72 44.61 28.9701 46.13 28.9701C51.3 28.9701 56.47 28.9701 61.63 28.9701C61.843 28.9379 62.0602 28.9898 62.2356 29.1149C62.411 29.2399 62.5309 29.4282 62.57 29.64C64.6101 35.0356 65.5452 40.7861 65.32 46.55C65.15 49.69 64.7 52.81 64.32 55.92C63.63 61.11 62.87 66.29 62.14 71.47C62.09 71.8 62.04 72.12 61.97 72.55Z" fill="white"/>
<path d="M58.78 15.4101H48.41C48.41 15.3301 48.33 15.2901 48.34 15.2501C48.4546 12.9115 48.3441 10.5674 48.01 8.25006C47.8331 6.38133 48.3413 4.51198 49.44 2.99005C49.9075 2.3012 50.5365 1.73726 51.2721 1.34747C52.0077 0.957683 52.8275 0.753906 53.66 0.753906C54.4925 0.753906 55.3123 0.957683 56.0479 1.34747C56.7835 1.73726 57.4125 2.3012 57.88 2.99005C59.0023 4.60701 59.5095 6.57194 59.31 8.53006C59.14 10.7901 58.92 13.0501 58.78 15.4101Z" fill="white"/>
<path d="M60.92 24.6501H46.4L47.71 19.8101H48.19C51.81 19.8101 55.42 19.8101 59.04 19.8101C59.49 19.8101 59.67 19.9201 59.78 20.4001C60.11 21.7401 60.51 23.1601 60.92 24.6501Z" fill="white"/>
</svg>
