<svg width="72" height="72" viewBox="0 0 72 72" fill="none" xmlns="http://www.w3.org/2000/svg">
<path d="M0.140015 4.15999L0.400017 3.44002C0.673617 2.63975 1.18914 1.94424 1.87529 1.44978C2.56144 0.955326 3.38429 0.686352 4.23001 0.680007C12.69 0.680007 21.15 0.680007 29.61 0.680007C30.6801 0.677179 31.7085 1.09488 32.4735 1.84309C33.2386 2.5913 33.679 3.61012 33.7 4.68001C33.7 14.42 33.7 24.17 33.7 33.91C33.7 33.98 33.7 34.04 33.7 34.2H0.140015V4.15999ZM12.03 10.44C12.028 10.0234 11.902 9.61682 11.6683 9.27199C11.4345 8.92716 11.1034 8.65966 10.7172 8.50349C10.331 8.34733 9.90705 8.30958 9.49931 8.39503C9.09156 8.48048 8.71845 8.68526 8.42742 8.98335C8.13639 9.28144 7.9406 9.65937 7.86495 10.069C7.7893 10.4787 7.83722 10.9016 8.00259 11.284C8.16797 11.6664 8.44334 11.9909 8.79368 12.2163C9.14402 12.4418 9.55349 12.5579 9.97002 12.55C10.5218 12.5344 11.0458 12.3041 11.4304 11.9082C11.8151 11.5123 12.0302 10.982 12.03 10.43V10.44ZM16.92 15.36C16.5038 15.362 16.0976 15.4877 15.753 15.721C15.4084 15.9543 15.1408 16.2847 14.9843 16.6704C14.8278 17.056 14.7895 17.4794 14.8741 17.8869C14.9587 18.2944 15.1625 18.6675 15.4596 18.959C15.7567 19.2505 16.1337 19.4471 16.5427 19.5239C16.9517 19.6007 17.3744 19.5542 17.7569 19.3904C18.1395 19.2266 18.4648 18.9528 18.6914 18.6037C18.9181 18.2547 19.036 17.8461 19.03 17.43C19.0196 16.8764 18.793 16.3489 18.3987 15.9602C18.0044 15.5715 17.4737 15.3525 16.92 15.35V15.36ZM26.02 24.47C26.026 24.0534 25.9079 23.6445 25.6808 23.2952C25.4537 22.946 25.1278 22.6721 24.7447 22.5086C24.3615 22.345 23.9383 22.2991 23.529 22.3767C23.1197 22.4543 22.7427 22.652 22.446 22.9444C22.1493 23.2369 21.9463 23.611 21.8628 24.0191C21.7793 24.4273 21.8191 24.851 21.9772 25.2365C22.1352 25.622 22.4043 25.9518 22.7503 26.1839C23.0962 26.416 23.5034 26.5399 23.92 26.54C24.4719 26.5349 25.0001 26.3147 25.3923 25.9263C25.7844 25.5379 26.0096 25.0118 26.02 24.46V24.47Z" fill="white"/>
<path d="M0.140015 38.43H33.72V66.87C33.72 69.87 33 70.96 30.22 72H3.64001C2.78341 71.8151 1.99804 71.3878 1.37749 70.769C0.756938 70.1502 0.327382 69.366 0.140015 68.5099V38.43ZM9.92001 46.16C9.50383 46.16 9.09703 46.2837 8.75127 46.5153C8.4055 46.747 8.13637 47.0761 7.97803 47.461C7.81969 47.8459 7.77928 48.2692 7.86195 48.6771C7.94461 49.085 8.14661 49.4591 8.44231 49.752C8.738 50.0449 9.11405 50.2433 9.52272 50.322C9.93139 50.4008 10.3542 50.3563 10.7376 50.1943C11.121 50.0323 11.4475 49.76 11.6759 49.412C11.9042 49.0641 12.024 48.6562 12.02 48.24C12.0071 47.6889 11.7811 47.1643 11.3895 46.7764C10.9979 46.3885 10.4712 46.1676 9.92001 46.16ZM26.01 48.29C26.016 47.8738 25.8981 47.4653 25.6714 47.1163C25.4448 46.7672 25.1195 46.4934 24.7369 46.3296C24.3544 46.1658 23.9317 46.1192 23.5227 46.196C23.1137 46.2728 22.7367 46.4695 22.4396 46.7609C22.1425 47.0524 21.9387 47.4255 21.8541 47.833C21.7695 48.2405 21.8078 48.664 21.9643 49.0496C22.1208 49.4353 22.3884 49.7657 22.733 49.999C23.0776 50.2323 23.4838 50.358 23.9 50.36C24.4605 50.36 24.9983 50.138 25.3956 49.7426C25.7928 49.3471 26.0174 48.8105 26.02 48.25L26.01 48.29ZM19.01 55.29C19.012 54.8738 18.8903 54.4664 18.6603 54.1195C18.4303 53.7726 18.1024 53.5019 17.7183 53.3417C17.3341 53.1816 16.9111 53.1391 16.5028 53.2198C16.0945 53.3006 15.7194 53.5008 15.4251 53.795C15.1308 54.0893 14.9306 54.4645 14.8499 54.8727C14.7692 55.281 14.8116 55.7041 14.9718 56.0883C15.132 56.4724 15.4027 56.8002 15.7496 57.0302C16.0964 57.2602 16.5038 57.3819 16.92 57.3799C17.201 57.3787 17.4789 57.3216 17.7376 57.212C17.9963 57.1024 18.2306 56.9424 18.4269 56.7414C18.6232 56.5404 18.7777 56.3024 18.8812 56.0413C18.9847 55.7801 19.0353 55.5009 19.03 55.22L19.01 55.29ZM9.92001 60.16C9.50386 60.164 9.09829 60.2916 8.75479 60.5266C8.41129 60.7615 8.14535 61.0932 7.99072 61.4796C7.8361 61.866 7.79976 62.2896 7.88633 62.6967C7.9729 63.1038 8.17846 63.4759 8.47694 63.7659C8.77541 64.056 9.15332 64.2508 9.56271 64.3256C9.97209 64.4005 10.3945 64.352 10.7763 64.1863C11.1581 64.0207 11.482 63.7454 11.707 63.3953C11.932 63.0452 12.0479 62.6361 12.04 62.22C12.0219 61.669 11.7909 61.1465 11.3955 60.7623C11.0002 60.3782 10.4713 60.1623 9.92001 60.16ZM23.92 64.36C24.3362 64.36 24.743 64.2363 25.0888 64.0046C25.4345 63.773 25.7037 63.4438 25.862 63.0589C26.0203 62.674 26.0607 62.2508 25.9781 61.8429C25.8954 61.435 25.6934 61.0608 25.3977 60.7679C25.102 60.4751 24.726 60.2767 24.3173 60.1979C23.9086 60.1192 23.4858 60.1636 23.1024 60.3256C22.7191 60.4876 22.3925 60.7599 22.1642 61.1078C21.9358 61.4558 21.8161 61.8638 21.82 62.28C21.8455 62.8222 22.077 63.3343 22.4673 63.7116C22.8576 64.0889 23.3772 64.3029 23.92 64.31V64.36Z" fill="white"/>
<path d="M49.76 46.09C49.59 45.93 49.43 45.79 49.29 45.64C45.65 42 42.01 38.3533 38.37 34.7C38.1091 34.4296 37.9531 34.075 37.93 33.7C37.93 26.14 37.93 18.5867 37.93 11.04C37.9367 10.6671 38.083 10.3103 38.34 10.04C41.0933 7.25999 43.86 4.48999 46.64 1.72999C47.0251 1.28711 47.4998 0.93093 48.0327 0.685008C48.5656 0.439086 49.1446 0.309026 49.7315 0.303355C50.3184 0.297685 50.8998 0.416531 51.4374 0.65211C51.9749 0.88769 52.4564 1.23463 52.85 1.66999C58.71 7.50999 64.56 13.36 70.4 19.22C70.8377 19.6102 71.1879 20.0886 71.4277 20.6237C71.6675 21.1588 71.7915 21.7386 71.7915 22.325C71.7915 22.9114 71.6675 23.4911 71.4277 24.0263C71.1879 24.5614 70.8377 25.0398 70.4 25.43C63.66 32.1833 56.92 38.9233 50.18 45.65L49.76 46.09ZM45.92 16.47C45.9353 16.194 45.8932 15.9178 45.7964 15.6589C45.6996 15.4 45.5502 15.1639 45.3575 14.9656C45.1649 14.7673 44.9333 14.6111 44.6772 14.5069C44.4212 14.4027 44.1464 14.3527 43.87 14.36C43.3147 14.352 42.7789 14.5642 42.3797 14.9503C41.9806 15.3363 41.7505 15.8648 41.74 16.42C41.7399 16.9737 41.9563 17.5055 42.3432 17.9016C42.73 18.2978 43.2565 18.5269 43.81 18.54C44.0852 18.5453 44.3587 18.4957 44.6145 18.3941C44.8702 18.2924 45.1032 18.1408 45.2997 17.948C45.4961 17.7553 45.6522 17.5253 45.7587 17.2715C45.8652 17.0177 45.9201 16.7452 45.92 16.47ZM53.61 28.3C53.6125 28.8537 53.8315 29.3843 54.2202 29.7786C54.6089 30.1729 55.1364 30.3995 55.69 30.41C55.9653 30.4126 56.2384 30.3609 56.4937 30.2576C56.7489 30.1544 56.9812 30.0018 57.1773 29.8085C57.3733 29.6152 57.5293 29.3851 57.6362 29.1314C57.743 28.8776 57.7987 28.6053 57.8 28.33C57.8126 28.0539 57.7679 27.7782 57.6686 27.5202C57.5693 27.2623 57.4176 27.0277 57.2231 26.8313C57.0286 26.6349 56.7955 26.481 56.5385 26.3792C56.2815 26.2775 56.0062 26.23 55.73 26.24C55.4544 26.2334 55.1801 26.2816 54.9233 26.3819C54.6665 26.4822 54.4321 26.6325 54.2339 26.8242C54.0357 27.0159 53.8776 27.2451 53.7688 27.4985C53.6599 27.7518 53.6026 28.0243 53.6 28.3H53.61ZM47.7 34.3C47.696 34.5747 47.747 34.8475 47.85 35.1022C47.9529 35.3569 48.1059 35.5885 48.2997 35.7832C48.4935 35.978 48.7243 36.132 48.9785 36.2362C49.2328 36.3404 49.5053 36.3927 49.78 36.39C50.3344 36.3874 50.8656 36.1667 51.2585 35.7756C51.6515 35.3845 51.8748 34.8544 51.88 34.3C51.8723 33.7455 51.6485 33.2158 51.2564 32.8236C50.8642 32.4315 50.3346 32.2077 49.78 32.2C49.2318 32.1973 48.7047 32.4112 48.3133 32.7951C47.9219 33.1789 47.6979 33.7018 47.69 34.25L47.7 34.3ZM49.8 12.64C50.0749 12.64 50.347 12.5855 50.6006 12.4797C50.8543 12.374 51.0845 12.219 51.2779 12.0237C51.4713 11.8284 51.6241 11.5968 51.7275 11.3421C51.8308 11.0874 51.8827 10.8148 51.88 10.54C51.8695 9.98561 51.6412 9.45763 51.2445 9.07026C50.8477 8.68289 50.3145 8.46725 49.76 8.46998C49.232 8.50657 48.7375 8.74211 48.3764 9.1291C48.0153 9.51609 47.8145 10.0257 47.8145 10.555C47.8145 11.0843 48.0153 11.5939 48.3764 11.9808C48.7375 12.3678 49.232 12.6034 49.76 12.64H49.8ZM61.68 24.51C61.9544 24.5087 62.2258 24.4529 62.4784 24.3458C62.7311 24.2387 62.9599 24.0824 63.1516 23.8861C63.3432 23.6897 63.494 23.4572 63.595 23.2021C63.696 22.947 63.7453 22.6743 63.74 22.4C63.7321 21.8448 63.5046 21.3153 63.1073 20.9274C62.71 20.5395 62.1753 20.3246 61.62 20.33C61.3451 20.3339 61.0738 20.3922 60.8216 20.5016C60.5694 20.611 60.3414 20.7694 60.1508 20.9674C59.9601 21.1655 59.8106 21.3994 59.711 21.6556C59.6113 21.9118 59.5634 22.1852 59.57 22.46C59.5697 22.7312 59.6245 22.9998 59.7312 23.2492C59.8379 23.4986 59.9943 23.7237 60.1907 23.9108C60.3871 24.0979 60.6196 24.243 60.8739 24.3374C61.1282 24.4318 61.3991 24.4735 61.67 24.46L61.68 24.51Z" fill="white"/>
<path d="M37.92 57.8V40.59L46.53 49.2L37.92 57.8Z" fill="white"/>
</svg>
