<svg width="91" height="65" viewBox="0 0 91 65" fill="none" xmlns="http://www.w3.org/2000/svg">
<path d="M90.98 31.32C90.5673 32.0638 90.041 32.7386 89.42 33.32C87.71 34.52 85.5201 33.63 84.7401 31.54C83.8 28.98 82.8834 26.41 81.9901 23.83C81.9402 23.5809 81.8072 23.3561 81.6127 23.1925C81.4183 23.029 81.174 22.9364 80.92 22.93C79.82 22.82 78.72 22.63 77.52 22.45C77.67 22.85 77.79 23.17 77.92 23.45C79.4467 27.13 80.9834 30.7967 82.53 34.45C82.9669 35.324 83.0902 36.3216 82.879 37.2756C82.6678 38.2297 82.135 39.0821 81.3701 39.69C79.4401 41.5 77.73 43.54 75.92 45.48L75.6 45.28L76.1801 46.03C79.3934 49.9033 82.6034 53.7734 85.8101 57.64C86.1833 58.0169 86.4741 58.4672 86.6642 58.9624C86.8543 59.4575 86.9395 59.9868 86.9143 60.5166C86.8892 61.0464 86.7542 61.5652 86.5181 62.0401C86.2819 62.5151 85.9497 62.9358 85.5425 63.2756C85.1352 63.6154 84.6619 63.867 84.1523 64.0143C83.6428 64.1616 83.1082 64.2015 82.5825 64.1314C82.0567 64.0613 81.5513 63.8828 81.0981 63.6071C80.645 63.3314 80.2541 62.9647 79.9501 62.53C78.0501 60.27 76.17 57.99 74.29 55.72L69.29 49.66C69.14 49.47 68.9701 49.3 68.7601 49.06L68.21 50.13C66.3 53.99 64.39 57.86 62.46 61.71C62.2694 62.192 61.9827 62.6302 61.6174 62.9979C61.252 63.3656 60.8156 63.655 60.3348 63.8487C59.854 64.0423 59.3388 64.1361 58.8206 64.1243C58.3024 64.1125 57.792 63.9953 57.3206 63.7799C56.8491 63.5646 56.4263 63.2555 56.0781 62.8716C55.7299 62.4876 55.4635 62.0368 55.295 61.5466C55.1266 61.0564 55.0596 60.5371 55.0983 60.0202C55.137 59.5033 55.2805 58.9997 55.52 58.54C56.27 56.93 57.0901 55.36 57.8801 53.77C59.7401 50 61.5701 46.22 63.5101 42.49C63.9895 41.608 64.6467 40.8351 65.4401 40.22C66.9401 39.01 68.57 37.94 70.22 36.76L67.03 29.17L65.39 31.16C65.0307 31.632 64.5526 32.0001 64.0045 32.2268C63.4563 32.4534 62.8577 32.5305 62.27 32.45C58.78 32.03 55.27 31.62 51.78 31.14C51.0361 31.0505 50.3526 30.6857 49.864 30.1176C49.3754 29.5494 49.1172 28.819 49.14 28.07C49.1019 27.3396 49.3319 26.6205 49.7867 26.0478C50.2416 25.4751 50.89 25.0882 51.61 24.96C52.7173 24.9191 53.8258 24.9861 54.92 25.16C56.92 25.37 58.92 25.66 60.86 25.86C61.1925 25.866 61.5146 25.7443 61.7601 25.52C62.1601 25.16 62.45 24.68 62.83 24.28C63.2947 23.8808 63.6518 23.3712 63.8684 22.7982C64.0851 22.2251 64.1544 21.6068 64.0701 21C63.8301 19.1 64.9201 17.65 66.5701 16.64C69.1601 15.05 71.9 15.02 74.79 15.57C77.87 16.17 80.99 16.57 84.1 17.01C84.8225 17.0811 85.5065 17.3695 86.0618 17.8372C86.617 18.305 87.0173 18.9301 87.21 19.63C88.43 23.1 89.7001 26.55 90.9501 30.01L90.98 31.32Z" fill="white"/>
<path d="M16.5701 42.74C15.4501 40.09 14.42 37.5 13.28 34.96C12.8839 34.1688 12.7671 33.2668 12.9486 32.4007C13.1302 31.5347 13.5994 30.7555 14.28 30.19C17.22 27.26 20.2101 24.37 23.1901 21.47C23.3566 21.3298 23.5338 21.2028 23.72 21.09L23.65 20.87C22.38 20.53 21.12 20.18 19.84 19.87C19.66 19.87 19.3701 20.08 19.2001 20.27C17.3501 22.27 15.54 24.33 13.63 26.27C13.0683 26.8508 12.36 27.2689 11.5801 27.48C10.945 27.6251 10.2797 27.5544 9.68937 27.2791C9.09899 27.0039 8.61716 26.5397 8.32004 25.96C7.97858 25.4067 7.82614 24.7574 7.88566 24.1099C7.94517 23.4624 8.21344 22.8518 8.65006 22.37C11.1701 19.56 13.7301 16.79 16.3001 14.03C16.7038 13.5957 17.2234 13.2858 17.7974 13.137C18.3715 12.9881 18.9761 13.0065 19.54 13.19C23.54 14.19 27.54 15.19 31.54 16.27C32.6949 16.627 33.7591 17.229 34.66 18.035C35.5609 18.8409 36.2772 19.8319 36.7601 20.94C37.1089 21.6906 37.252 22.5205 37.1747 23.3446C37.0974 24.1687 36.8025 24.9574 36.3201 25.63C36.1276 25.9623 36.0635 26.3537 36.14 26.73C36.3672 27.7504 36.668 28.7531 37.04 29.73C37.1145 29.9034 37.2241 30.0595 37.3618 30.1886C37.4994 30.3176 37.6622 30.4168 37.84 30.48C40.37 31.25 42.92 31.95 45.46 32.7C45.9104 32.7932 46.3352 32.9829 46.7052 33.2561C47.0752 33.5293 47.3815 33.8796 47.603 34.2826C47.8245 34.6857 47.9559 35.132 47.9882 35.5908C48.0205 36.0496 47.9529 36.5099 47.79 36.94C47.5585 37.672 47.0552 38.2873 46.3836 38.6594C45.7121 39.0314 44.9234 39.1319 44.1801 38.94C40.7001 38.01 37.24 36.99 33.78 35.99C33.2384 35.8332 32.7478 35.536 32.358 35.1286C31.9681 34.7212 31.6929 34.218 31.5601 33.67C31.3301 32.92 31.09 32.16 30.83 31.34L25.83 36.76L25.46 36.51L26.53 37.71C28.7434 40.17 30.9601 42.6234 33.1801 45.07C33.7446 45.6306 34.1426 46.3368 34.3298 47.11C34.5169 47.8833 34.4859 48.6934 34.2401 49.45C33.1401 53.36 32.12 57.3 31.04 61.22C30.8718 62.0464 30.43 62.792 29.7859 63.3363C29.1418 63.8807 28.3329 64.192 27.4901 64.22C26.7067 64.2921 25.9217 64.1012 25.2589 63.6774C24.5961 63.2537 24.0934 62.6213 23.83 61.88C23.5609 61.0323 23.5195 60.1288 23.71 59.26C24.46 56.1 25.35 52.98 26.22 49.85C26.3361 49.6064 26.3666 49.3308 26.3067 49.0677C26.2468 48.8046 26.1 48.5694 25.89 48.4C25.4543 47.9711 25.0405 47.5205 24.65 47.05C23.51 47.71 22.45 48.36 21.35 48.93C16.2234 51.5967 11.0867 54.2633 5.94004 56.93C5.11663 57.4417 4.13017 57.6229 3.17866 57.4375C2.22714 57.252 1.38102 56.7135 0.810064 55.93C0.475535 55.4779 0.245518 54.9571 0.136663 54.4053C0.0278082 53.8535 0.0428153 53.2844 0.180578 52.7391C0.31834 52.1938 0.57545 51.6859 0.933324 51.252C1.2912 50.8181 1.7409 50.469 2.25004 50.23C4.15004 49.23 6.08006 48.23 7.99006 47.23L16.5701 42.74Z" fill="white"/>
<path d="M38.8201 16.41C37.6633 16.3942 36.5372 16.0364 35.5834 15.3816C34.6297 14.7268 33.8911 13.8045 33.4608 12.7307C33.0304 11.6569 32.9274 10.4797 33.1649 9.34749C33.4024 8.21529 33.9697 7.17869 34.7954 6.36836C35.621 5.55803 36.668 5.0102 37.8044 4.7939C38.9409 4.5776 40.1159 4.7025 41.1815 5.15288C42.2471 5.60325 43.1555 6.35894 43.7923 7.32472C44.4291 8.29051 44.7659 9.4232 44.7601 10.58C44.7364 12.1379 44.0995 13.6237 42.9875 14.7151C41.8755 15.8065 40.3781 16.4155 38.8201 16.41Z" fill="white"/>
<path d="M45.0601 52.48C46.2203 52.484 47.3533 52.8324 48.3154 53.4809C49.2775 54.1294 50.0254 55.049 50.4643 56.123C50.9033 57.197 51.0135 58.3772 50.781 59.5139C50.5486 60.6507 49.9839 61.6929 49.1586 62.5084C48.3333 63.3239 47.2844 63.876 46.145 64.0948C45.0055 64.3136 43.8268 64.1893 42.7581 63.7375C41.6894 63.2857 40.7789 62.5269 40.1419 61.5571C39.505 60.5873 39.1702 59.4502 39.1801 58.29C39.2011 56.7435 39.8295 55.2673 40.9297 54.1803C42.0298 53.0932 43.5135 52.4825 45.0601 52.48Z" fill="white"/>
<path d="M67.5601 0.73999C68.7189 0.743954 69.8506 1.09085 70.8126 1.73694C71.7746 2.38302 72.5239 3.29941 72.966 4.37061C73.4081 5.44181 73.5233 6.61988 73.2969 7.75641C73.0706 8.89293 72.5129 9.93705 71.6942 10.7572C70.8755 11.5773 69.8323 12.1367 68.6962 12.365C67.56 12.5932 66.3818 12.4801 65.3098 12.0398C64.2379 11.5996 63.3202 10.8518 62.6725 9.8909C62.0248 8.92997 61.676 7.79884 61.67 6.64001C61.6753 5.07858 62.2972 3.58246 63.4004 2.47742C64.5036 1.37238 65.9986 0.747894 67.5601 0.73999Z" fill="white"/>
</svg>
