<svg width="73" height="72" viewBox="0 0 73 72" fill="none" xmlns="http://www.w3.org/2000/svg">
<mask id="path-1-inside-1_609_208" fill="white">
<path d="M38.4068 71.6135H34.2168C33.9868 71.6135 33.7668 71.5135 33.5368 71.4835C32.0168 71.2735 30.4768 71.1635 28.9868 70.8335C24.2525 69.8709 19.7672 67.9437 15.8102 65.1721C11.8532 62.4005 8.5093 58.8437 5.98676 54.7235C3.51358 50.8867 1.83257 46.5941 1.0426 42.0981C0.252632 37.6021 0.369667 32.9936 1.38678 28.5435C3.00068 20.708 7.23259 13.6548 13.3868 8.54348C19.346 3.36686 26.8896 0.372682 34.7768 0.0534947C41.0953 -0.304298 47.3856 1.13828 52.9168 4.21353C57.7969 6.77776 62.0194 10.4335 65.2559 14.8962C68.4924 19.3589 70.6555 24.5083 71.5768 29.9435C71.8268 31.2435 71.9468 32.5635 72.1268 33.8735V38.0735C72.1268 38.5535 72.0168 39.0735 71.9568 39.5135C71.2779 46.3462 68.5917 52.825 64.2368 58.1335C58.7876 64.9845 51.0053 69.5877 42.3768 71.0635C41.0368 71.3035 39.7168 71.4335 38.4068 71.6135ZM38.4068 18.1135C38.4068 19.6535 38.4068 21.1835 38.4068 22.7235C38.4308 23.0507 38.5815 23.3557 38.8268 23.5735C41.6068 25.7135 44.4068 27.8335 47.2268 29.9335C47.3617 30.0203 47.5126 30.0792 47.6706 30.1067C47.8286 30.1341 47.9905 30.1297 48.1468 30.0935C51.1468 29.1935 54.1468 28.2535 57.2168 27.3435C57.3921 27.3006 57.5526 27.211 57.6811 27.0842C57.8096 26.9574 57.9014 26.7982 57.9468 26.6235C59.0001 23.5968 60.0568 20.5702 61.1168 17.5435C61.1922 17.3797 61.2172 17.1972 61.1887 17.0192C61.1602 16.8412 61.0795 16.6756 60.9568 16.5435C57.4742 12.14 52.8844 8.74077 47.6568 6.69351C47.4993 6.60602 47.3184 6.56962 47.1393 6.58932C46.9601 6.60903 46.7916 6.68385 46.6568 6.80349C44.0268 8.80349 41.3768 10.6835 38.7468 12.6435C38.5196 12.8466 38.3799 13.1297 38.3568 13.4335C38.3868 14.9935 38.4068 16.5535 38.4068 18.1135ZM56.7868 53.6235V53.8135C58.066 53.7485 59.3476 53.7485 60.6268 53.8135C61.1051 53.8913 61.5957 53.809 62.0225 53.5793C62.4492 53.3497 62.7882 52.9855 62.9868 52.5435C65.7018 48.2098 67.3407 43.2896 67.7668 38.1935C67.7983 38.0021 67.7736 37.8056 67.6954 37.6281C67.6173 37.4505 67.4892 37.2996 67.3268 37.1935C64.6868 35.2935 62.0668 33.3535 59.4268 31.4535C59.2904 31.3659 59.1378 31.3066 58.978 31.2791C58.8183 31.2516 58.6546 31.2565 58.4968 31.2935C55.4968 32.1935 52.4068 33.1335 49.3668 34.0935C49.2158 34.151 49.0778 34.2381 48.9611 34.3497C48.8443 34.4613 48.751 34.5952 48.6868 34.7435C47.6068 37.9835 46.5568 41.2302 45.5368 44.4835C45.4566 44.7799 45.4961 45.096 45.6468 45.3635C47.4468 47.9635 49.2734 50.5468 51.1268 53.1135C51.2218 53.2324 51.3399 53.3309 51.4739 53.4031C51.608 53.4753 51.7552 53.5196 51.9068 53.5335C53.5768 53.6435 55.1568 53.6235 56.7868 53.6235ZM15.4368 53.0735V53.1635C17.0968 53.1635 18.7468 53.1635 20.4368 53.1635C20.7406 53.1403 21.0237 53.0006 21.2268 52.7735C23.0601 50.3602 24.8668 47.9335 26.6468 45.4935C26.732 45.3692 26.791 45.2289 26.8203 45.081C26.8495 44.9332 26.8483 44.7809 26.8168 44.6335C25.7301 41.1535 24.6168 37.6802 23.4768 34.2135C23.4289 34.0805 23.3533 33.9591 23.2551 33.8574C23.1568 33.7557 23.0381 33.676 22.9068 33.6235C20.0335 32.6235 17.1535 31.6435 14.2668 30.6835C14.0133 30.6173 13.744 30.6532 13.5168 30.7835C10.7301 32.6768 7.94681 34.5835 5.16681 36.5035C5.06914 36.584 4.98998 36.6846 4.93475 36.7985C4.87953 36.9125 4.84953 37.0369 4.8468 37.1635C5.07566 42.6537 6.74858 47.9864 9.69678 52.6235C9.78168 52.7843 9.91277 52.9159 10.0732 53.0014C10.2336 53.087 10.416 53.1225 10.5968 53.1035C12.1868 53.0635 13.8168 53.0735 15.4368 53.0735ZM36.1168 47.5635C34.3468 47.5635 32.5768 47.5635 30.8168 47.5635C30.4896 47.5875 30.1846 47.7382 29.9668 47.9835C28.1601 50.3768 26.3701 52.7869 24.5968 55.2135C24.4274 55.4921 24.3736 55.8258 24.4468 56.1435C25.3768 59.2835 26.3468 62.4135 27.2868 65.5435C27.3245 65.7218 27.4138 65.8852 27.5436 66.0132C27.6734 66.1412 27.8379 66.2283 28.0168 66.2635C33.1547 67.6888 38.5743 67.7578 43.7468 66.4635C43.9319 66.4432 44.1077 66.3716 44.2544 66.2567C44.401 66.1419 44.5127 65.9884 44.5768 65.8135C45.6034 62.7068 46.6568 59.6035 47.7368 56.5035C47.8079 56.3242 47.8287 56.1288 47.797 55.9384C47.7653 55.7481 47.6822 55.5701 47.5568 55.4235C45.8168 53.0102 44.0968 50.5835 42.3968 48.1435C42.2859 47.9579 42.1246 47.8077 41.9316 47.7103C41.7386 47.6129 41.5219 47.5724 41.3068 47.5935C39.5768 47.5835 37.8468 47.5635 36.1168 47.5635ZM34.2268 18.0735C34.2268 16.5335 34.2268 15.0035 34.2268 13.4635C34.214 13.3021 34.1693 13.1448 34.0955 13.0006C34.0217 12.8565 33.9202 12.7283 33.7968 12.6235C31.1868 10.6735 28.5568 8.75351 25.9368 6.82351C25.8118 6.70921 25.6556 6.63477 25.4882 6.60983C25.3207 6.58489 25.1496 6.61055 24.9968 6.6835C20.1114 8.59517 15.7756 11.6873 12.3768 15.6835C12.2428 15.8081 12.15 15.9705 12.1107 16.1492C12.0714 16.3279 12.0875 16.5142 12.1568 16.6835C13.1501 19.8035 14.1301 22.9302 15.0968 26.0635C15.1357 26.2413 15.2224 26.4051 15.3475 26.5373C15.4726 26.6694 15.6314 26.7649 15.8068 26.8135C18.5668 27.7268 21.3168 28.6602 24.0568 29.6135C24.2356 29.6864 24.4305 29.7109 24.6219 29.6846C24.8132 29.6583 24.9943 29.582 25.1468 29.4635C28.0068 27.5035 30.8768 25.5602 33.7568 23.6335C33.9302 23.5356 34.0705 23.3881 34.1596 23.2099C34.2487 23.0318 34.2825 22.831 34.2568 22.6335C34.2068 21.1035 34.2268 19.5835 34.2268 18.0735Z"/>
</mask>
<path d="M38.4068 71.6135H34.2168C33.9868 71.6135 33.7668 71.5135 33.5368 71.4835C32.0168 71.2735 30.4768 71.1635 28.9868 70.8335C24.2525 69.8709 19.7672 67.9437 15.8102 65.1721C11.8532 62.4005 8.5093 58.8437 5.98676 54.7235C3.51358 50.8867 1.83257 46.5941 1.0426 42.0981C0.252632 37.6021 0.369667 32.9936 1.38678 28.5435C3.00068 20.708 7.23259 13.6548 13.3868 8.54348C19.346 3.36686 26.8896 0.372682 34.7768 0.0534947C41.0953 -0.304298 47.3856 1.13828 52.9168 4.21353C57.7969 6.77776 62.0194 10.4335 65.2559 14.8962C68.4924 19.3589 70.6555 24.5083 71.5768 29.9435C71.8268 31.2435 71.9468 32.5635 72.1268 33.8735V38.0735C72.1268 38.5535 72.0168 39.0735 71.9568 39.5135C71.2779 46.3462 68.5917 52.825 64.2368 58.1335C58.7876 64.9845 51.0053 69.5877 42.3768 71.0635C41.0368 71.3035 39.7168 71.4335 38.4068 71.6135ZM38.4068 18.1135C38.4068 19.6535 38.4068 21.1835 38.4068 22.7235C38.4308 23.0507 38.5815 23.3557 38.8268 23.5735C41.6068 25.7135 44.4068 27.8335 47.2268 29.9335C47.3617 30.0203 47.5126 30.0792 47.6706 30.1067C47.8286 30.1341 47.9905 30.1297 48.1468 30.0935C51.1468 29.1935 54.1468 28.2535 57.2168 27.3435C57.3921 27.3006 57.5526 27.211 57.6811 27.0842C57.8096 26.9574 57.9014 26.7982 57.9468 26.6235C59.0001 23.5968 60.0568 20.5702 61.1168 17.5435C61.1922 17.3797 61.2172 17.1972 61.1887 17.0192C61.1602 16.8412 61.0795 16.6756 60.9568 16.5435C57.4742 12.14 52.8844 8.74077 47.6568 6.69351C47.4993 6.60602 47.3184 6.56962 47.1393 6.58932C46.9601 6.60903 46.7916 6.68385 46.6568 6.80349C44.0268 8.80349 41.3768 10.6835 38.7468 12.6435C38.5196 12.8466 38.3799 13.1297 38.3568 13.4335C38.3868 14.9935 38.4068 16.5535 38.4068 18.1135ZM56.7868 53.6235V53.8135C58.066 53.7485 59.3476 53.7485 60.6268 53.8135C61.1051 53.8913 61.5957 53.809 62.0225 53.5793C62.4492 53.3497 62.7882 52.9855 62.9868 52.5435C65.7018 48.2098 67.3407 43.2896 67.7668 38.1935C67.7983 38.0021 67.7736 37.8056 67.6954 37.6281C67.6173 37.4505 67.4892 37.2996 67.3268 37.1935C64.6868 35.2935 62.0668 33.3535 59.4268 31.4535C59.2904 31.3659 59.1378 31.3066 58.978 31.2791C58.8183 31.2516 58.6546 31.2565 58.4968 31.2935C55.4968 32.1935 52.4068 33.1335 49.3668 34.0935C49.2158 34.151 49.0778 34.2381 48.9611 34.3497C48.8443 34.4613 48.751 34.5952 48.6868 34.7435C47.6068 37.9835 46.5568 41.2302 45.5368 44.4835C45.4566 44.7799 45.4961 45.096 45.6468 45.3635C47.4468 47.9635 49.2734 50.5468 51.1268 53.1135C51.2218 53.2324 51.3399 53.3309 51.4739 53.4031C51.608 53.4753 51.7552 53.5196 51.9068 53.5335C53.5768 53.6435 55.1568 53.6235 56.7868 53.6235ZM15.4368 53.0735V53.1635C17.0968 53.1635 18.7468 53.1635 20.4368 53.1635C20.7406 53.1403 21.0237 53.0006 21.2268 52.7735C23.0601 50.3602 24.8668 47.9335 26.6468 45.4935C26.732 45.3692 26.791 45.2289 26.8203 45.081C26.8495 44.9332 26.8483 44.7809 26.8168 44.6335C25.7301 41.1535 24.6168 37.6802 23.4768 34.2135C23.4289 34.0805 23.3533 33.9591 23.2551 33.8574C23.1568 33.7557 23.0381 33.676 22.9068 33.6235C20.0335 32.6235 17.1535 31.6435 14.2668 30.6835C14.0133 30.6173 13.744 30.6532 13.5168 30.7835C10.7301 32.6768 7.94681 34.5835 5.16681 36.5035C5.06914 36.584 4.98998 36.6846 4.93475 36.7985C4.87953 36.9125 4.84953 37.0369 4.8468 37.1635C5.07566 42.6537 6.74858 47.9864 9.69678 52.6235C9.78168 52.7843 9.91277 52.9159 10.0732 53.0014C10.2336 53.087 10.416 53.1225 10.5968 53.1035C12.1868 53.0635 13.8168 53.0735 15.4368 53.0735ZM36.1168 47.5635C34.3468 47.5635 32.5768 47.5635 30.8168 47.5635C30.4896 47.5875 30.1846 47.7382 29.9668 47.9835C28.1601 50.3768 26.3701 52.7869 24.5968 55.2135C24.4274 55.4921 24.3736 55.8258 24.4468 56.1435C25.3768 59.2835 26.3468 62.4135 27.2868 65.5435C27.3245 65.7218 27.4138 65.8852 27.5436 66.0132C27.6734 66.1412 27.8379 66.2283 28.0168 66.2635C33.1547 67.6888 38.5743 67.7578 43.7468 66.4635C43.9319 66.4432 44.1077 66.3716 44.2544 66.2567C44.401 66.1419 44.5127 65.9884 44.5768 65.8135C45.6034 62.7068 46.6568 59.6035 47.7368 56.5035C47.8079 56.3242 47.8287 56.1288 47.797 55.9384C47.7653 55.7481 47.6822 55.5701 47.5568 55.4235C45.8168 53.0102 44.0968 50.5835 42.3968 48.1435C42.2859 47.9579 42.1246 47.8077 41.9316 47.7103C41.7386 47.6129 41.5219 47.5724 41.3068 47.5935C39.5768 47.5835 37.8468 47.5635 36.1168 47.5635ZM34.2268 18.0735C34.2268 16.5335 34.2268 15.0035 34.2268 13.4635C34.214 13.3021 34.1693 13.1448 34.0955 13.0006C34.0217 12.8565 33.9202 12.7283 33.7968 12.6235C31.1868 10.6735 28.5568 8.75351 25.9368 6.82351C25.8118 6.70921 25.6556 6.63477 25.4882 6.60983C25.3207 6.58489 25.1496 6.61055 24.9968 6.6835C20.1114 8.59517 15.7756 11.6873 12.3768 15.6835C12.2428 15.8081 12.15 15.9705 12.1107 16.1492C12.0714 16.3279 12.0875 16.5142 12.1568 16.6835C13.1501 19.8035 14.1301 22.9302 15.0968 26.0635C15.1357 26.2413 15.2224 26.4051 15.3475 26.5373C15.4726 26.6694 15.6314 26.7649 15.8068 26.8135C18.5668 27.7268 21.3168 28.6602 24.0568 29.6135C24.2356 29.6864 24.4305 29.7109 24.6219 29.6846C24.8132 29.6583 24.9943 29.582 25.1468 29.4635C28.0068 27.5035 30.8768 25.5602 33.7568 23.6335C33.9302 23.5356 34.0705 23.3881 34.1596 23.2099C34.2487 23.0318 34.2825 22.831 34.2568 22.6335C34.2068 21.1035 34.2268 19.5835 34.2268 18.0735Z" fill="white" stroke="black" stroke-width="2" mask="url(#path-1-inside-1_609_208)"/>
</svg>
