<svg width="116" height="115" viewBox="0 0 116 115" fill="none" xmlns="http://www.w3.org/2000/svg">
<mask id="path-1-inside-1_609_209" fill="white">
<path d="M67.7788 62.7801C68.7112 62.7801 69.4469 62.3333 69.9859 61.4397C70.5298 60.5414 70.8017 59.2198 70.8017 57.4752C70.8017 56.3215 70.6779 55.3522 70.4303 54.5674C70.1826 53.7825 69.833 53.1915 69.3813 52.7943C68.9297 52.3924 68.3956 52.1915 67.7788 52.1915C66.8513 52.1915 66.1181 52.6407 65.579 53.539C65.04 54.4326 64.7681 55.7447 64.7632 57.4752C64.7584 58.6336 64.8773 59.6076 65.1201 60.3972C65.3678 61.1868 65.7174 61.7825 66.169 62.1844C66.6207 62.5816 67.1573 62.7801 67.7788 62.7801Z"/>
<path fill-rule="evenodd" clip-rule="evenodd" d="M61.3674 115H54.6377C54.4214 115 54.2106 114.945 53.9988 114.89C53.8492 114.851 53.6984 114.811 53.5456 114.791C52.7843 114.686 52.0199 114.597 51.2558 114.507C49.5696 114.31 47.8844 114.112 46.2376 113.747C38.6338 112.202 31.4299 109.107 25.0744 104.656C18.719 100.205 13.3482 94.4937 9.29667 87.8773C5.32443 81.716 2.62453 74.8228 1.35573 67.6029C0.086935 60.3831 0.274908 52.9825 1.90852 45.8363C4.50066 33.2538 11.2976 21.9275 21.1821 13.7195C30.7533 5.40664 42.8694 0.598477 55.5372 0.0859033C65.6855 -0.488651 75.7885 1.82788 84.6723 6.76626C92.5104 10.884 99.2923 16.7545 104.491 23.921C109.689 31.0874 113.163 39.3564 114.643 48.0846C114.917 49.5121 115.094 50.9547 115.271 52.397C115.353 53.0637 115.435 53.7304 115.526 54.3955V61.1401C115.526 61.7069 115.43 62.3085 115.342 62.8682C115.326 62.9675 115.31 63.0654 115.295 63.1616C115.28 63.2606 115.266 63.3577 115.253 63.4525C114.163 74.4246 109.848 84.8286 102.854 93.3533C94.1016 104.355 81.6022 111.747 67.7437 114.117C66.2869 114.378 64.8448 114.558 63.4124 114.736L63.4111 114.736C62.7278 114.822 62.0468 114.907 61.3674 115ZM61.3674 29.0874V36.4903C61.406 37.0158 61.6479 37.5055 62.042 37.8553C66.507 41.2919 71.0042 44.6962 75.5335 48.0685C75.7501 48.2079 75.9924 48.3024 76.2462 48.3466C76.5 48.3907 76.7601 48.3835 77.0111 48.3255C79.1178 47.6936 81.2244 47.0494 83.3405 46.4023L83.3457 46.4008L83.3565 46.3975C86.0751 45.5662 88.8091 44.7302 91.5787 43.9094C91.8603 43.8405 92.118 43.6965 92.3244 43.4929C92.5308 43.2894 92.6783 43.0337 92.7511 42.7531C94.4429 37.8928 96.14 33.0324 97.8425 28.1721C97.9636 27.9091 98.0038 27.6161 97.9581 27.3301C97.9123 27.0442 97.7827 26.7783 97.5856 26.5662C91.9921 19.4949 84.6202 14.0363 76.2241 10.7487C75.9711 10.6082 75.6806 10.5498 75.3929 10.5814C75.1052 10.6131 74.8344 10.7332 74.618 10.9254C72.1376 12.8112 69.6461 14.6307 67.1565 16.4488L67.1554 16.4496C65.4056 17.7274 63.6568 19.0045 61.9134 20.3035C61.5487 20.6297 61.3243 21.0842 61.2871 21.5721C61.3353 24.0772 61.3674 26.5823 61.3674 29.0874ZM90.8881 86.1109V86.416C92.9426 86.3116 95.001 86.3116 97.0555 86.416C97.8238 86.541 98.6118 86.4087 99.2972 86.0399C99.9826 85.6712 100.527 85.0865 100.846 84.3766C105.207 77.4174 107.839 69.5163 108.523 61.3328C108.574 61.0254 108.534 60.7099 108.409 60.4248C108.283 60.1396 108.077 59.8972 107.817 59.7269C105.697 58.2014 103.585 56.6599 101.473 55.1183C99.3604 53.5767 97.2483 52.035 95.1282 50.5094C94.9091 50.3687 94.664 50.2734 94.4074 50.2293C94.1508 50.1851 93.888 50.193 93.6345 50.2524C88.8161 51.6977 83.8531 53.2072 78.9705 54.7488C78.728 54.8411 78.5065 54.9809 78.3189 55.1602C78.1313 55.3395 77.9815 55.5545 77.8784 55.7926C76.1437 60.9955 74.4574 66.2091 72.8191 71.4335C72.6902 71.9095 72.7537 72.417 72.9958 72.8466C75.8868 77.0218 78.8206 81.1703 81.7973 85.2919C81.9499 85.4829 82.1396 85.6411 82.3549 85.757C82.5702 85.8729 82.8066 85.9441 83.0501 85.9663C85.3733 86.1193 87.588 86.1157 89.8403 86.1121H89.8429C90.1902 86.1115 90.5384 86.1109 90.8881 86.1109ZM24.4746 85.2277V85.3722H32.5052C32.9932 85.335 33.4479 85.1107 33.7741 84.746C36.7187 80.8705 39.6204 76.9737 42.4793 73.0554C42.6162 72.8558 42.711 72.6305 42.7579 72.393C42.8049 72.1556 42.803 71.9111 42.7523 71.6744C41.007 66.0861 39.2189 60.5084 37.3879 54.9415C37.311 54.7279 37.1896 54.533 37.0318 54.3696C36.874 54.2063 36.6834 54.0783 36.4724 53.994C31.8575 52.3882 27.2318 50.8145 22.5955 49.2729C22.1884 49.1666 21.7559 49.2242 21.3909 49.4334C16.9151 52.4738 12.4448 55.5357 7.97973 58.6189C7.82286 58.7482 7.69572 58.9098 7.60702 59.0927C7.51833 59.2756 7.47015 59.4755 7.46576 59.6787C7.83334 68.4951 10.5203 77.0586 15.2554 84.5051C15.3918 84.7632 15.6024 84.9746 15.86 85.1119C16.1176 85.2493 16.4106 85.3064 16.701 85.2758C18.827 85.2224 20.9975 85.2246 23.1663 85.2268H23.1696C23.6048 85.2273 24.0399 85.2277 24.4746 85.2277ZM57.6893 76.3795H49.1769C48.6513 76.418 48.1616 76.66 47.8117 77.0539C44.91 80.8972 42.035 84.7674 39.1868 88.6642C38.9148 89.1116 38.8283 89.6475 38.9458 90.1577C39.8257 93.128 40.7279 96.0927 41.6294 99.0551L41.63 99.0571C42.2587 101.123 42.8871 103.188 43.5073 105.253C43.5679 105.539 43.7112 105.801 43.9197 106.007C44.1281 106.212 44.3925 106.352 44.6797 106.409C52.9318 108.698 61.6364 108.808 69.9441 106.73C70.2415 106.697 70.5239 106.582 70.7594 106.398C70.9949 106.213 71.1743 105.967 71.2772 105.686C72.9261 100.697 74.6179 95.7138 76.3525 90.7357C76.4668 90.4477 76.5002 90.1339 76.4493 89.8283C76.3983 89.5227 76.2649 89.2368 76.0634 89.0014C73.2688 85.126 70.5063 81.2292 67.7758 77.3109C67.5978 77.0129 67.3387 76.7716 67.0288 76.6152C66.7188 76.4588 66.3707 76.3938 66.0251 76.4277C65.0995 76.4224 64.1739 76.4152 63.2483 76.4081C61.3953 76.3938 59.5423 76.3795 57.6893 76.3795ZM54.6538 29.0232V21.6203C54.6332 21.3611 54.5615 21.1085 54.4429 20.877C54.3244 20.6455 54.1613 20.4397 53.9631 20.2714C50.9435 18.0158 47.9073 15.7852 44.8725 13.5555L44.8714 13.5548C43.6934 12.6894 42.5155 11.8241 41.3389 10.9575C41.1383 10.7739 40.8874 10.6544 40.6184 10.6143C40.3494 10.5743 40.0746 10.6155 39.8292 10.7326C31.9826 13.8025 25.0188 18.7679 19.5599 25.1852C19.3447 25.3853 19.1957 25.6462 19.1325 25.9331C19.0694 26.22 19.0952 26.5192 19.2066 26.7911C20.802 31.8013 22.376 36.8222 23.9286 41.8539C23.991 42.1394 24.1302 42.4024 24.3312 42.6147C24.5321 42.8269 24.7872 42.9803 25.0689 43.0583C29.5018 44.5249 33.9186 46.0237 38.3194 47.5546C38.6067 47.6717 38.9198 47.7111 39.2271 47.6688C39.5344 47.6265 39.8252 47.5041 40.0701 47.3138C44.6637 44.1663 49.2732 41.0456 53.8989 37.9517C54.1775 37.7944 54.4028 37.5576 54.5459 37.2715C54.689 36.9854 54.7433 36.6631 54.7019 36.3459C54.6395 34.4346 54.6451 32.533 54.6506 30.6411V30.6388C54.6522 30.0995 54.6538 29.5609 54.6538 29.0232ZM67.7788 65C66.5794 65 65.5499 64.7045 64.6904 64.1135C63.8357 63.5177 63.1777 62.6596 62.7164 61.539C62.2599 60.4137 62.0317 59.0591 62.0317 57.4752C62.0365 55.8913 62.2672 54.5437 62.7237 53.4326C63.185 52.3168 63.843 51.4657 64.6977 50.8794C65.5572 50.2931 66.5842 50 67.7788 50C68.9734 50 70.0005 50.2931 70.86 50.8794C71.7195 51.4657 72.3775 52.3168 72.834 53.4326C73.2953 54.5485 73.526 55.896 73.526 57.4752C73.526 59.0638 73.2953 60.4208 72.834 61.5461C72.3775 62.6667 71.7195 63.5225 70.86 64.1135C70.0053 64.7045 68.9783 65 67.7788 65ZM54.6759 64.922C53.7047 64.922 52.8354 64.7447 52.0682 64.3901C51.3009 64.0307 50.6915 63.539 50.2398 62.9149C49.7931 62.2908 49.5551 61.5768 49.526 60.773H52.1483C52.1968 61.3688 52.4615 61.8558 52.9423 62.234C53.423 62.6076 54.0009 62.7943 54.6759 62.7943C55.2052 62.7943 55.6762 62.6761 56.089 62.4397C56.5018 62.2033 56.8271 61.8747 57.0651 61.4539C57.303 61.0331 57.4196 60.5532 57.4147 60.0142C57.4196 59.4657 57.3006 58.9787 57.0578 58.5532C56.815 58.1277 56.4823 57.7943 56.0599 57.5532C55.6374 57.3073 55.1518 57.1844 54.603 57.1844C54.1563 57.1797 53.7168 57.26 53.2846 57.4255C52.8524 57.591 52.5101 57.8085 52.2575 58.078L49.8174 57.688L50.5968 50.1986H59.2503V52.3972H52.833L52.4032 56.2482H52.4906C52.7674 55.9314 53.1583 55.669 53.6634 55.461C54.1684 55.2482 54.722 55.1418 55.3242 55.1418C56.2274 55.1418 57.0335 55.3499 57.7425 55.766C58.4515 56.1773 59.0099 56.7447 59.4178 57.4681C59.8257 58.1915 60.0297 59.0189 60.0297 59.9503C60.0297 60.9102 59.8015 61.766 59.345 62.5177C58.8934 63.2648 58.2645 63.8534 57.4584 64.2837C56.6572 64.7092 55.7296 64.922 54.6759 64.922ZM43.6808 59.7429V62.4488H45.2689V59.7429H47.9749V58.1548H45.2689V55.4488H43.6808V58.1548H40.9749V59.7429H43.6808Z"/>
</mask>
<path d="M67.7788 62.7801C68.7112 62.7801 69.4469 62.3333 69.9859 61.4397C70.5298 60.5414 70.8017 59.2198 70.8017 57.4752C70.8017 56.3215 70.6779 55.3522 70.4303 54.5674C70.1826 53.7825 69.833 53.1915 69.3813 52.7943C68.9297 52.3924 68.3956 52.1915 67.7788 52.1915C66.8513 52.1915 66.1181 52.6407 65.579 53.539C65.04 54.4326 64.7681 55.7447 64.7632 57.4752C64.7584 58.6336 64.8773 59.6076 65.1201 60.3972C65.3678 61.1868 65.7174 61.7825 66.169 62.1844C66.6207 62.5816 67.1573 62.7801 67.7788 62.7801Z" fill="white"/>
<path fill-rule="evenodd" clip-rule="evenodd" d="M61.3674 115H54.6377C54.4214 115 54.2106 114.945 53.9988 114.89C53.8492 114.851 53.6984 114.811 53.5456 114.791C52.7843 114.686 52.0199 114.597 51.2558 114.507C49.5696 114.31 47.8844 114.112 46.2376 113.747C38.6338 112.202 31.4299 109.107 25.0744 104.656C18.719 100.205 13.3482 94.4937 9.29667 87.8773C5.32443 81.716 2.62453 74.8228 1.35573 67.6029C0.086935 60.3831 0.274908 52.9825 1.90852 45.8363C4.50066 33.2538 11.2976 21.9275 21.1821 13.7195C30.7533 5.40664 42.8694 0.598477 55.5372 0.0859033C65.6855 -0.488651 75.7885 1.82788 84.6723 6.76626C92.5104 10.884 99.2923 16.7545 104.491 23.921C109.689 31.0874 113.163 39.3564 114.643 48.0846C114.917 49.5121 115.094 50.9547 115.271 52.397C115.353 53.0637 115.435 53.7304 115.526 54.3955V61.1401C115.526 61.7069 115.43 62.3085 115.342 62.8682C115.326 62.9675 115.31 63.0654 115.295 63.1616C115.28 63.2606 115.266 63.3577 115.253 63.4525C114.163 74.4246 109.848 84.8286 102.854 93.3533C94.1016 104.355 81.6022 111.747 67.7437 114.117C66.2869 114.378 64.8448 114.558 63.4124 114.736L63.4111 114.736C62.7278 114.822 62.0468 114.907 61.3674 115ZM61.3674 29.0874V36.4903C61.406 37.0158 61.6479 37.5055 62.042 37.8553C66.507 41.2919 71.0042 44.6962 75.5335 48.0685C75.7501 48.2079 75.9924 48.3024 76.2462 48.3466C76.5 48.3907 76.7601 48.3835 77.0111 48.3255C79.1178 47.6936 81.2244 47.0494 83.3405 46.4023L83.3457 46.4008L83.3565 46.3975C86.0751 45.5662 88.8091 44.7302 91.5787 43.9094C91.8603 43.8405 92.118 43.6965 92.3244 43.4929C92.5308 43.2894 92.6783 43.0337 92.7511 42.7531C94.4429 37.8928 96.14 33.0324 97.8425 28.1721C97.9636 27.9091 98.0038 27.6161 97.9581 27.3301C97.9123 27.0442 97.7827 26.7783 97.5856 26.5662C91.9921 19.4949 84.6202 14.0363 76.2241 10.7487C75.9711 10.6082 75.6806 10.5498 75.3929 10.5814C75.1052 10.6131 74.8344 10.7332 74.618 10.9254C72.1376 12.8112 69.6461 14.6307 67.1565 16.4488L67.1554 16.4496C65.4056 17.7274 63.6568 19.0045 61.9134 20.3035C61.5487 20.6297 61.3243 21.0842 61.2871 21.5721C61.3353 24.0772 61.3674 26.5823 61.3674 29.0874ZM90.8881 86.1109V86.416C92.9426 86.3116 95.001 86.3116 97.0555 86.416C97.8238 86.541 98.6118 86.4087 99.2972 86.0399C99.9826 85.6712 100.527 85.0865 100.846 84.3766C105.207 77.4174 107.839 69.5163 108.523 61.3328C108.574 61.0254 108.534 60.7099 108.409 60.4248C108.283 60.1396 108.077 59.8972 107.817 59.7269C105.697 58.2014 103.585 56.6599 101.473 55.1183C99.3604 53.5767 97.2483 52.035 95.1282 50.5094C94.9091 50.3687 94.664 50.2734 94.4074 50.2293C94.1508 50.1851 93.888 50.193 93.6345 50.2524C88.8161 51.6977 83.8531 53.2072 78.9705 54.7488C78.728 54.8411 78.5065 54.9809 78.3189 55.1602C78.1313 55.3395 77.9815 55.5545 77.8784 55.7926C76.1437 60.9955 74.4574 66.2091 72.8191 71.4335C72.6902 71.9095 72.7537 72.417 72.9958 72.8466C75.8868 77.0218 78.8206 81.1703 81.7973 85.2919C81.9499 85.4829 82.1396 85.6411 82.3549 85.757C82.5702 85.8729 82.8066 85.9441 83.0501 85.9663C85.3733 86.1193 87.588 86.1157 89.8403 86.1121H89.8429C90.1902 86.1115 90.5384 86.1109 90.8881 86.1109ZM24.4746 85.2277V85.3722H32.5052C32.9932 85.335 33.4479 85.1107 33.7741 84.746C36.7187 80.8705 39.6204 76.9737 42.4793 73.0554C42.6162 72.8558 42.711 72.6305 42.7579 72.393C42.8049 72.1556 42.803 71.9111 42.7523 71.6744C41.007 66.0861 39.2189 60.5084 37.3879 54.9415C37.311 54.7279 37.1896 54.533 37.0318 54.3696C36.874 54.2063 36.6834 54.0783 36.4724 53.994C31.8575 52.3882 27.2318 50.8145 22.5955 49.2729C22.1884 49.1666 21.7559 49.2242 21.3909 49.4334C16.9151 52.4738 12.4448 55.5357 7.97973 58.6189C7.82286 58.7482 7.69572 58.9098 7.60702 59.0927C7.51833 59.2756 7.47015 59.4755 7.46576 59.6787C7.83334 68.4951 10.5203 77.0586 15.2554 84.5051C15.3918 84.7632 15.6024 84.9746 15.86 85.1119C16.1176 85.2493 16.4106 85.3064 16.701 85.2758C18.827 85.2224 20.9975 85.2246 23.1663 85.2268H23.1696C23.6048 85.2273 24.0399 85.2277 24.4746 85.2277ZM57.6893 76.3795H49.1769C48.6513 76.418 48.1616 76.66 47.8117 77.0539C44.91 80.8972 42.035 84.7674 39.1868 88.6642C38.9148 89.1116 38.8283 89.6475 38.9458 90.1577C39.8257 93.128 40.7279 96.0927 41.6294 99.0551L41.63 99.0571C42.2587 101.123 42.8871 103.188 43.5073 105.253C43.5679 105.539 43.7112 105.801 43.9197 106.007C44.1281 106.212 44.3925 106.352 44.6797 106.409C52.9318 108.698 61.6364 108.808 69.9441 106.73C70.2415 106.697 70.5239 106.582 70.7594 106.398C70.9949 106.213 71.1743 105.967 71.2772 105.686C72.9261 100.697 74.6179 95.7138 76.3525 90.7357C76.4668 90.4477 76.5002 90.1339 76.4493 89.8283C76.3983 89.5227 76.2649 89.2368 76.0634 89.0014C73.2688 85.126 70.5063 81.2292 67.7758 77.3109C67.5978 77.0129 67.3387 76.7716 67.0288 76.6152C66.7188 76.4588 66.3707 76.3938 66.0251 76.4277C65.0995 76.4224 64.1739 76.4152 63.2483 76.4081C61.3953 76.3938 59.5423 76.3795 57.6893 76.3795ZM54.6538 29.0232V21.6203C54.6332 21.3611 54.5615 21.1085 54.4429 20.877C54.3244 20.6455 54.1613 20.4397 53.9631 20.2714C50.9435 18.0158 47.9073 15.7852 44.8725 13.5555L44.8714 13.5548C43.6934 12.6894 42.5155 11.8241 41.3389 10.9575C41.1383 10.7739 40.8874 10.6544 40.6184 10.6143C40.3494 10.5743 40.0746 10.6155 39.8292 10.7326C31.9826 13.8025 25.0188 18.7679 19.5599 25.1852C19.3447 25.3853 19.1957 25.6462 19.1325 25.9331C19.0694 26.22 19.0952 26.5192 19.2066 26.7911C20.802 31.8013 22.376 36.8222 23.9286 41.8539C23.991 42.1394 24.1302 42.4024 24.3312 42.6147C24.5321 42.8269 24.7872 42.9803 25.0689 43.0583C29.5018 44.5249 33.9186 46.0237 38.3194 47.5546C38.6067 47.6717 38.9198 47.7111 39.2271 47.6688C39.5344 47.6265 39.8252 47.5041 40.0701 47.3138C44.6637 44.1663 49.2732 41.0456 53.8989 37.9517C54.1775 37.7944 54.4028 37.5576 54.5459 37.2715C54.689 36.9854 54.7433 36.6631 54.7019 36.3459C54.6395 34.4346 54.6451 32.533 54.6506 30.6411V30.6388C54.6522 30.0995 54.6538 29.5609 54.6538 29.0232ZM67.7788 65C66.5794 65 65.5499 64.7045 64.6904 64.1135C63.8357 63.5177 63.1777 62.6596 62.7164 61.539C62.2599 60.4137 62.0317 59.0591 62.0317 57.4752C62.0365 55.8913 62.2672 54.5437 62.7237 53.4326C63.185 52.3168 63.843 51.4657 64.6977 50.8794C65.5572 50.2931 66.5842 50 67.7788 50C68.9734 50 70.0005 50.2931 70.86 50.8794C71.7195 51.4657 72.3775 52.3168 72.834 53.4326C73.2953 54.5485 73.526 55.896 73.526 57.4752C73.526 59.0638 73.2953 60.4208 72.834 61.5461C72.3775 62.6667 71.7195 63.5225 70.86 64.1135C70.0053 64.7045 68.9783 65 67.7788 65ZM54.6759 64.922C53.7047 64.922 52.8354 64.7447 52.0682 64.3901C51.3009 64.0307 50.6915 63.539 50.2398 62.9149C49.7931 62.2908 49.5551 61.5768 49.526 60.773H52.1483C52.1968 61.3688 52.4615 61.8558 52.9423 62.234C53.423 62.6076 54.0009 62.7943 54.6759 62.7943C55.2052 62.7943 55.6762 62.6761 56.089 62.4397C56.5018 62.2033 56.8271 61.8747 57.0651 61.4539C57.303 61.0331 57.4196 60.5532 57.4147 60.0142C57.4196 59.4657 57.3006 58.9787 57.0578 58.5532C56.815 58.1277 56.4823 57.7943 56.0599 57.5532C55.6374 57.3073 55.1518 57.1844 54.603 57.1844C54.1563 57.1797 53.7168 57.26 53.2846 57.4255C52.8524 57.591 52.5101 57.8085 52.2575 58.078L49.8174 57.688L50.5968 50.1986H59.2503V52.3972H52.833L52.4032 56.2482H52.4906C52.7674 55.9314 53.1583 55.669 53.6634 55.461C54.1684 55.2482 54.722 55.1418 55.3242 55.1418C56.2274 55.1418 57.0335 55.3499 57.7425 55.766C58.4515 56.1773 59.0099 56.7447 59.4178 57.4681C59.8257 58.1915 60.0297 59.0189 60.0297 59.9503C60.0297 60.9102 59.8015 61.766 59.345 62.5177C58.8934 63.2648 58.2645 63.8534 57.4584 64.2837C56.6572 64.7092 55.7296 64.922 54.6759 64.922ZM43.6808 59.7429V62.4488H45.2689V59.7429H47.9749V58.1548H45.2689V55.4488H43.6808V58.1548H40.9749V59.7429H43.6808Z" fill="white"/>
<path d="M67.7788 62.7801C68.7112 62.7801 69.4469 62.3333 69.9859 61.4397C70.5298 60.5414 70.8017 59.2198 70.8017 57.4752C70.8017 56.3215 70.6779 55.3522 70.4303 54.5674C70.1826 53.7825 69.833 53.1915 69.3813 52.7943C68.9297 52.3924 68.3956 52.1915 67.7788 52.1915C66.8513 52.1915 66.1181 52.6407 65.579 53.539C65.04 54.4326 64.7681 55.7447 64.7632 57.4752C64.7584 58.6336 64.8773 59.6076 65.1201 60.3972C65.3678 61.1868 65.7174 61.7825 66.169 62.1844C66.6207 62.5816 67.1573 62.7801 67.7788 62.7801Z" stroke="black" stroke-width="2" mask="url(#path-1-inside-1_609_209)"/>
<path fill-rule="evenodd" clip-rule="evenodd" d="M61.3674 115H54.6377C54.4214 115 54.2106 114.945 53.9988 114.89C53.8492 114.851 53.6984 114.811 53.5456 114.791C52.7843 114.686 52.0199 114.597 51.2558 114.507C49.5696 114.31 47.8844 114.112 46.2376 113.747C38.6338 112.202 31.4299 109.107 25.0744 104.656C18.719 100.205 13.3482 94.4937 9.29667 87.8773C5.32443 81.716 2.62453 74.8228 1.35573 67.6029C0.086935 60.3831 0.274908 52.9825 1.90852 45.8363C4.50066 33.2538 11.2976 21.9275 21.1821 13.7195C30.7533 5.40664 42.8694 0.598477 55.5372 0.0859033C65.6855 -0.488651 75.7885 1.82788 84.6723 6.76626C92.5104 10.884 99.2923 16.7545 104.491 23.921C109.689 31.0874 113.163 39.3564 114.643 48.0846C114.917 49.5121 115.094 50.9547 115.271 52.397C115.353 53.0637 115.435 53.7304 115.526 54.3955V61.1401C115.526 61.7069 115.43 62.3085 115.342 62.8682C115.326 62.9675 115.31 63.0654 115.295 63.1616C115.28 63.2606 115.266 63.3577 115.253 63.4525C114.163 74.4246 109.848 84.8286 102.854 93.3533C94.1016 104.355 81.6022 111.747 67.7437 114.117C66.2869 114.378 64.8448 114.558 63.4124 114.736L63.4111 114.736C62.7278 114.822 62.0468 114.907 61.3674 115ZM61.3674 29.0874V36.4903C61.406 37.0158 61.6479 37.5055 62.042 37.8553C66.507 41.2919 71.0042 44.6962 75.5335 48.0685C75.7501 48.2079 75.9924 48.3024 76.2462 48.3466C76.5 48.3907 76.7601 48.3835 77.0111 48.3255C79.1178 47.6936 81.2244 47.0494 83.3405 46.4023L83.3457 46.4008L83.3565 46.3975C86.0751 45.5662 88.8091 44.7302 91.5787 43.9094C91.8603 43.8405 92.118 43.6965 92.3244 43.4929C92.5308 43.2894 92.6783 43.0337 92.7511 42.7531C94.4429 37.8928 96.14 33.0324 97.8425 28.1721C97.9636 27.9091 98.0038 27.6161 97.9581 27.3301C97.9123 27.0442 97.7827 26.7783 97.5856 26.5662C91.9921 19.4949 84.6202 14.0363 76.2241 10.7487C75.9711 10.6082 75.6806 10.5498 75.3929 10.5814C75.1052 10.6131 74.8344 10.7332 74.618 10.9254C72.1376 12.8112 69.6461 14.6307 67.1565 16.4488L67.1554 16.4496C65.4056 17.7274 63.6568 19.0045 61.9134 20.3035C61.5487 20.6297 61.3243 21.0842 61.2871 21.5721C61.3353 24.0772 61.3674 26.5823 61.3674 29.0874ZM90.8881 86.1109V86.416C92.9426 86.3116 95.001 86.3116 97.0555 86.416C97.8238 86.541 98.6118 86.4087 99.2972 86.0399C99.9826 85.6712 100.527 85.0865 100.846 84.3766C105.207 77.4174 107.839 69.5163 108.523 61.3328C108.574 61.0254 108.534 60.7099 108.409 60.4248C108.283 60.1396 108.077 59.8972 107.817 59.7269C105.697 58.2014 103.585 56.6599 101.473 55.1183C99.3604 53.5767 97.2483 52.035 95.1282 50.5094C94.9091 50.3687 94.664 50.2734 94.4074 50.2293C94.1508 50.1851 93.888 50.193 93.6345 50.2524C88.8161 51.6977 83.8531 53.2072 78.9705 54.7488C78.728 54.8411 78.5065 54.9809 78.3189 55.1602C78.1313 55.3395 77.9815 55.5545 77.8784 55.7926C76.1437 60.9955 74.4574 66.2091 72.8191 71.4335C72.6902 71.9095 72.7537 72.417 72.9958 72.8466C75.8868 77.0218 78.8206 81.1703 81.7973 85.2919C81.9499 85.4829 82.1396 85.6411 82.3549 85.757C82.5702 85.8729 82.8066 85.9441 83.0501 85.9663C85.3733 86.1193 87.588 86.1157 89.8403 86.1121H89.8429C90.1902 86.1115 90.5384 86.1109 90.8881 86.1109ZM24.4746 85.2277V85.3722H32.5052C32.9932 85.335 33.4479 85.1107 33.7741 84.746C36.7187 80.8705 39.6204 76.9737 42.4793 73.0554C42.6162 72.8558 42.711 72.6305 42.7579 72.393C42.8049 72.1556 42.803 71.9111 42.7523 71.6744C41.007 66.0861 39.2189 60.5084 37.3879 54.9415C37.311 54.7279 37.1896 54.533 37.0318 54.3696C36.874 54.2063 36.6834 54.0783 36.4724 53.994C31.8575 52.3882 27.2318 50.8145 22.5955 49.2729C22.1884 49.1666 21.7559 49.2242 21.3909 49.4334C16.9151 52.4738 12.4448 55.5357 7.97973 58.6189C7.82286 58.7482 7.69572 58.9098 7.60702 59.0927C7.51833 59.2756 7.47015 59.4755 7.46576 59.6787C7.83334 68.4951 10.5203 77.0586 15.2554 84.5051C15.3918 84.7632 15.6024 84.9746 15.86 85.1119C16.1176 85.2493 16.4106 85.3064 16.701 85.2758C18.827 85.2224 20.9975 85.2246 23.1663 85.2268H23.1696C23.6048 85.2273 24.0399 85.2277 24.4746 85.2277ZM57.6893 76.3795H49.1769C48.6513 76.418 48.1616 76.66 47.8117 77.0539C44.91 80.8972 42.035 84.7674 39.1868 88.6642C38.9148 89.1116 38.8283 89.6475 38.9458 90.1577C39.8257 93.128 40.7279 96.0927 41.6294 99.0551L41.63 99.0571C42.2587 101.123 42.8871 103.188 43.5073 105.253C43.5679 105.539 43.7112 105.801 43.9197 106.007C44.1281 106.212 44.3925 106.352 44.6797 106.409C52.9318 108.698 61.6364 108.808 69.9441 106.73C70.2415 106.697 70.5239 106.582 70.7594 106.398C70.9949 106.213 71.1743 105.967 71.2772 105.686C72.9261 100.697 74.6179 95.7138 76.3525 90.7357C76.4668 90.4477 76.5002 90.1339 76.4493 89.8283C76.3983 89.5227 76.2649 89.2368 76.0634 89.0014C73.2688 85.126 70.5063 81.2292 67.7758 77.3109C67.5978 77.0129 67.3387 76.7716 67.0288 76.6152C66.7188 76.4588 66.3707 76.3938 66.0251 76.4277C65.0995 76.4224 64.1739 76.4152 63.2483 76.4081C61.3953 76.3938 59.5423 76.3795 57.6893 76.3795ZM54.6538 29.0232V21.6203C54.6332 21.3611 54.5615 21.1085 54.4429 20.877C54.3244 20.6455 54.1613 20.4397 53.9631 20.2714C50.9435 18.0158 47.9073 15.7852 44.8725 13.5555L44.8714 13.5548C43.6934 12.6894 42.5155 11.8241 41.3389 10.9575C41.1383 10.7739 40.8874 10.6544 40.6184 10.6143C40.3494 10.5743 40.0746 10.6155 39.8292 10.7326C31.9826 13.8025 25.0188 18.7679 19.5599 25.1852C19.3447 25.3853 19.1957 25.6462 19.1325 25.9331C19.0694 26.22 19.0952 26.5192 19.2066 26.7911C20.802 31.8013 22.376 36.8222 23.9286 41.8539C23.991 42.1394 24.1302 42.4024 24.3312 42.6147C24.5321 42.8269 24.7872 42.9803 25.0689 43.0583C29.5018 44.5249 33.9186 46.0237 38.3194 47.5546C38.6067 47.6717 38.9198 47.7111 39.2271 47.6688C39.5344 47.6265 39.8252 47.5041 40.0701 47.3138C44.6637 44.1663 49.2732 41.0456 53.8989 37.9517C54.1775 37.7944 54.4028 37.5576 54.5459 37.2715C54.689 36.9854 54.7433 36.6631 54.7019 36.3459C54.6395 34.4346 54.6451 32.533 54.6506 30.6411V30.6388C54.6522 30.0995 54.6538 29.5609 54.6538 29.0232ZM67.7788 65C66.5794 65 65.5499 64.7045 64.6904 64.1135C63.8357 63.5177 63.1777 62.6596 62.7164 61.539C62.2599 60.4137 62.0317 59.0591 62.0317 57.4752C62.0365 55.8913 62.2672 54.5437 62.7237 53.4326C63.185 52.3168 63.843 51.4657 64.6977 50.8794C65.5572 50.2931 66.5842 50 67.7788 50C68.9734 50 70.0005 50.2931 70.86 50.8794C71.7195 51.4657 72.3775 52.3168 72.834 53.4326C73.2953 54.5485 73.526 55.896 73.526 57.4752C73.526 59.0638 73.2953 60.4208 72.834 61.5461C72.3775 62.6667 71.7195 63.5225 70.86 64.1135C70.0053 64.7045 68.9783 65 67.7788 65ZM54.6759 64.922C53.7047 64.922 52.8354 64.7447 52.0682 64.3901C51.3009 64.0307 50.6915 63.539 50.2398 62.9149C49.7931 62.2908 49.5551 61.5768 49.526 60.773H52.1483C52.1968 61.3688 52.4615 61.8558 52.9423 62.234C53.423 62.6076 54.0009 62.7943 54.6759 62.7943C55.2052 62.7943 55.6762 62.6761 56.089 62.4397C56.5018 62.2033 56.8271 61.8747 57.0651 61.4539C57.303 61.0331 57.4196 60.5532 57.4147 60.0142C57.4196 59.4657 57.3006 58.9787 57.0578 58.5532C56.815 58.1277 56.4823 57.7943 56.0599 57.5532C55.6374 57.3073 55.1518 57.1844 54.603 57.1844C54.1563 57.1797 53.7168 57.26 53.2846 57.4255C52.8524 57.591 52.5101 57.8085 52.2575 58.078L49.8174 57.688L50.5968 50.1986H59.2503V52.3972H52.833L52.4032 56.2482H52.4906C52.7674 55.9314 53.1583 55.669 53.6634 55.461C54.1684 55.2482 54.722 55.1418 55.3242 55.1418C56.2274 55.1418 57.0335 55.3499 57.7425 55.766C58.4515 56.1773 59.0099 56.7447 59.4178 57.4681C59.8257 58.1915 60.0297 59.0189 60.0297 59.9503C60.0297 60.9102 59.8015 61.766 59.345 62.5177C58.8934 63.2648 58.2645 63.8534 57.4584 64.2837C56.6572 64.7092 55.7296 64.922 54.6759 64.922ZM43.6808 59.7429V62.4488H45.2689V59.7429H47.9749V58.1548H45.2689V55.4488H43.6808V58.1548H40.9749V59.7429H43.6808Z" stroke="black" stroke-width="2" mask="url(#path-1-inside-1_609_209)"/>
</svg>
