<svg width="75" height="73" viewBox="0 0 75 73" fill="none" xmlns="http://www.w3.org/2000/svg">
<mask id="path-1-inside-1_609_212" fill="white">
<path d="M74.9939 38.2918C74.8866 38.7287 74.6722 39.1318 74.3703 39.4647C74.0684 39.7976 73.6883 40.0498 73.2647 40.1984C72.8016 40.3504 72.3042 40.3632 71.834 40.2351C71.3638 40.107 70.9413 39.8437 70.6187 39.4776C70.2961 39.1116 70.0876 38.6588 70.0188 38.1753C69.9501 37.6918 70.0241 37.1987 70.2319 36.7569C70.4396 36.3151 70.7718 35.9439 71.1877 35.6893C71.6035 35.4347 72.0846 35.3077 72.5716 35.324C73.0586 35.3403 73.5302 35.4993 73.928 35.7813C74.3259 36.0632 74.6327 36.4558 74.8105 36.9105C74.8681 37.0576 74.931 37.1994 74.9939 37.3412V38.2918Z"/>
<path d="M13.4803 6.53468C13.5058 5.22194 13.9185 3.94599 14.6666 2.86699C15.4148 1.788 16.465 0.954032 17.6854 0.469792C18.9058 -0.0144483 20.2421 -0.127389 21.5265 0.145146C22.8109 0.417682 23.9861 1.06356 24.9047 2.00168C25.8233 2.93981 26.4444 4.12837 26.6899 5.4182C26.9354 6.70803 26.7944 8.04162 26.2846 9.25161C25.7748 10.4616 24.9189 11.494 23.8245 12.2193C22.73 12.9446 21.4457 13.3304 20.1327 13.3284C19.2452 13.3351 18.3655 13.1628 17.5461 12.822C16.7266 12.4811 15.9843 11.9787 15.3634 11.3446C14.7425 10.7105 14.2557 9.95775 13.9322 9.13134C13.6086 8.30493 13.455 7.42181 13.4803 6.53468Z"/>
<path d="M18.0168 14.6854C17.8623 14.5012 17.7173 14.3052 17.5825 14.0985L17.7335 14.075C17.4321 13.8173 17.1166 13.5859 16.7894 13.3825C15.7826 12.8211 14.894 11.9775 14.1932 10.9177C14.1242 10.7701 14.0109 10.6625 13.8782 10.6185C13.7455 10.5745 13.6042 10.5976 13.4852 10.6829C12.1873 11.298 11.0783 12.4058 10.3157 13.8492C9.55303 15.2925 9.17555 16.9978 9.23687 18.723C9.32656 24.0811 9.42569 29.4363 9.52483 34.7915C9.62397 40.1467 9.72311 45.502 9.8128 50.8601C9.80991 51.3203 9.69826 51.7693 9.49179 52.1512C7.20607 56.3 4.89348 60.4321 2.58235 64.5616C2.15388 65.3272 1.72546 66.0927 1.29726 66.8582C1.13603 67.1427 0.990906 67.4408 0.862969 67.7503C0.605477 68.3319 0.491451 68.9949 0.535102 69.6566C0.578754 70.3183 0.778159 70.9494 1.10844 71.4711C1.39024 71.9519 1.76401 72.3379 2.19593 72.594C2.62785 72.8502 3.10432 72.9685 3.58224 72.9382C4.06017 72.9079 4.52445 72.73 4.93318 72.4205C5.34191 72.1111 5.68216 71.6799 5.92317 71.1659C7.66294 68.0662 9.3965 64.9627 11.131 61.8576C12.4177 59.5539 13.705 57.2493 14.9957 54.9447C15.4359 54.1702 15.6643 53.2403 15.6471 52.2921C15.6358 51.6079 15.6238 50.9236 15.6117 50.2393C15.5633 47.4958 15.515 44.7508 15.515 41.9984V41.1885C15.7634 41.2063 16.0124 41.2063 16.2608 41.1885C16.5412 41.1291 16.8296 41.1839 17.083 41.3446C17.3364 41.5053 17.5414 41.7634 17.6674 42.0805C19.6311 45.6722 21.6514 49.2873 23.6434 52.8085C23.825 53.1311 23.9711 53.4824 24.0777 53.8532C24.7191 55.9368 25.35 58.0292 25.981 60.1223C26.3809 61.4486 26.7809 62.7751 27.1837 64.1C27.7879 66.2127 28.4204 68.3254 29.0718 70.4382C29.188 70.9164 29.3828 71.3594 29.644 71.739C29.9053 72.1186 30.2271 72.4266 30.5892 72.6433C30.9513 72.86 31.3456 72.9807 31.7472 72.9978C32.1488 73.0149 32.5488 72.928 32.922 72.7426C33.2951 72.5572 33.6332 72.2774 33.9147 71.9209C34.1961 71.5644 34.4149 71.139 34.5571 70.6717C34.6993 70.2045 34.7618 69.7056 34.7407 69.2067C34.7195 68.7078 34.6151 68.2198 34.4341 67.7738C32.7537 62.1789 31.0606 56.5802 29.355 50.9775C29.1387 50.2871 28.86 49.6295 28.5242 49.0174C27.4202 47.0225 26.3104 45.0382 25.2013 43.0548C24.2808 41.4088 23.3606 39.7634 22.4444 38.1133C22.2576 37.7631 22.147 37.3587 22.1235 36.9395C22.029 34.4512 21.9818 31.9629 21.9818 29.4745C21.9818 28.829 21.8591 28.4768 21.3021 28.3829C20.9149 28.3006 20.5463 28.1168 20.2207 27.8436C19.8952 27.5703 19.6202 27.2141 19.414 26.7984C18.9126 25.9748 18.4122 25.1546 17.9131 24.3365C16.8331 22.5665 15.759 20.8059 14.6936 19.0399L14.3915 18.5118C14.5304 18.5167 14.6623 18.5882 14.7597 18.7113C15.3291 19.3152 15.897 19.9211 16.4649 20.527C17.8836 22.0406 19.3023 23.5541 20.7451 25.0378C21.1988 25.5169 21.7301 25.8691 22.3028 26.0707C23.7472 26.5689 25.1978 27.0467 26.6478 27.5243C28.3064 28.0706 29.9642 28.6167 31.6113 29.1928C32.9679 29.6747 34.1261 29.6295 34.9711 28.0265L35.3441 28.1847L38.2017 31.5051L62.526 58C63.5267 58.8568 67.526 57 68.526 56.3727C69.526 55.7453 71.026 54.5 70.997 53.0282C70.968 51.5565 67.026 48 65.1948 50.1442C65.0451 50.2524 64.5971 51.6085 64.1281 53.0282C63.5734 54.7076 62.9893 56.4759 62.8347 56.3727C62.6303 56.2362 47.369 39.4609 38.7213 29.9483C39.329 29.7677 39.8461 29.4389 40.2107 29.0002C40.5844 28.5508 40.7813 28.006 40.777 27.434C40.8197 26.8552 40.6552 26.2626 40.3044 25.7312C39.9536 25.1998 39.4321 24.7533 38.8058 24.4484C38.247 24.1747 37.6468 23.9758 37.0292 23.8595C35.1587 23.4343 33.2888 23.0197 31.4206 22.6055L31.3807 22.5966C29.4805 22.1753 27.582 21.7544 25.6864 21.3232C25.1773 21.1522 24.6699 20.9791 24.1626 20.8006C23.8189 20.6814 23.4979 20.4778 23.2186 20.2019C21.7779 18.7013 20.3502 17.1767 18.9247 15.6545C18.622 15.3313 18.3194 15.0081 18.0168 14.6854Z"/>
</mask>
<path d="M74.9939 38.2918C74.8866 38.7287 74.6722 39.1318 74.3703 39.4647C74.0684 39.7976 73.6883 40.0498 73.2647 40.1984C72.8016 40.3504 72.3042 40.3632 71.834 40.2351C71.3638 40.107 70.9413 39.8437 70.6187 39.4776C70.2961 39.1116 70.0876 38.6588 70.0188 38.1753C69.9501 37.6918 70.0241 37.1987 70.2319 36.7569C70.4396 36.3151 70.7718 35.9439 71.1877 35.6893C71.6035 35.4347 72.0846 35.3077 72.5716 35.324C73.0586 35.3403 73.5302 35.4993 73.928 35.7813C74.3259 36.0632 74.6327 36.4558 74.8105 36.9105C74.8681 37.0576 74.931 37.1994 74.9939 37.3412V38.2918Z" fill="white"/>
<path d="M13.4803 6.53468C13.5058 5.22194 13.9185 3.94599 14.6666 2.86699C15.4148 1.788 16.465 0.954032 17.6854 0.469792C18.9058 -0.0144483 20.2421 -0.127389 21.5265 0.145146C22.8109 0.417682 23.9861 1.06356 24.9047 2.00168C25.8233 2.93981 26.4444 4.12837 26.6899 5.4182C26.9354 6.70803 26.7944 8.04162 26.2846 9.25161C25.7748 10.4616 24.9189 11.494 23.8245 12.2193C22.73 12.9446 21.4457 13.3304 20.1327 13.3284C19.2452 13.3351 18.3655 13.1628 17.5461 12.822C16.7266 12.4811 15.9843 11.9787 15.3634 11.3446C14.7425 10.7105 14.2557 9.95775 13.9322 9.13134C13.6086 8.30493 13.455 7.42181 13.4803 6.53468Z" fill="white"/>
<path d="M18.0168 14.6854C17.8623 14.5012 17.7173 14.3052 17.5825 14.0985L17.7335 14.075C17.4321 13.8173 17.1166 13.5859 16.7894 13.3825C15.7826 12.8211 14.894 11.9775 14.1932 10.9177C14.1242 10.7701 14.0109 10.6625 13.8782 10.6185C13.7455 10.5745 13.6042 10.5976 13.4852 10.6829C12.1873 11.298 11.0783 12.4058 10.3157 13.8492C9.55303 15.2925 9.17555 16.9978 9.23687 18.723C9.32656 24.0811 9.42569 29.4363 9.52483 34.7915C9.62397 40.1467 9.72311 45.502 9.8128 50.8601C9.80991 51.3203 9.69826 51.7693 9.49179 52.1512C7.20607 56.3 4.89348 60.4321 2.58235 64.5616C2.15388 65.3272 1.72546 66.0927 1.29726 66.8582C1.13603 67.1427 0.990906 67.4408 0.862969 67.7503C0.605477 68.3319 0.491451 68.9949 0.535102 69.6566C0.578754 70.3183 0.778159 70.9494 1.10844 71.4711C1.39024 71.9519 1.76401 72.3379 2.19593 72.594C2.62785 72.8502 3.10432 72.9685 3.58224 72.9382C4.06017 72.9079 4.52445 72.73 4.93318 72.4205C5.34191 72.1111 5.68216 71.6799 5.92317 71.1659C7.66294 68.0662 9.3965 64.9627 11.131 61.8576C12.4177 59.5539 13.705 57.2493 14.9957 54.9447C15.4359 54.1702 15.6643 53.2403 15.6471 52.2921C15.6358 51.6079 15.6238 50.9236 15.6117 50.2393C15.5633 47.4958 15.515 44.7508 15.515 41.9984V41.1885C15.7634 41.2063 16.0124 41.2063 16.2608 41.1885C16.5412 41.1291 16.8296 41.1839 17.083 41.3446C17.3364 41.5053 17.5414 41.7634 17.6674 42.0805C19.6311 45.6722 21.6514 49.2873 23.6434 52.8085C23.825 53.1311 23.9711 53.4824 24.0777 53.8532C24.7191 55.9368 25.35 58.0292 25.981 60.1223C26.3809 61.4486 26.7809 62.7751 27.1837 64.1C27.7879 66.2127 28.4204 68.3254 29.0718 70.4382C29.188 70.9164 29.3828 71.3594 29.644 71.739C29.9053 72.1186 30.2271 72.4266 30.5892 72.6433C30.9513 72.86 31.3456 72.9807 31.7472 72.9978C32.1488 73.0149 32.5488 72.928 32.922 72.7426C33.2951 72.5572 33.6332 72.2774 33.9147 71.9209C34.1961 71.5644 34.4149 71.139 34.5571 70.6717C34.6993 70.2045 34.7618 69.7056 34.7407 69.2067C34.7195 68.7078 34.6151 68.2198 34.4341 67.7738C32.7537 62.1789 31.0606 56.5802 29.355 50.9775C29.1387 50.2871 28.86 49.6295 28.5242 49.0174C27.4202 47.0225 26.3104 45.0382 25.2013 43.0548C24.2808 41.4088 23.3606 39.7634 22.4444 38.1133C22.2576 37.7631 22.147 37.3587 22.1235 36.9395C22.029 34.4512 21.9818 31.9629 21.9818 29.4745C21.9818 28.829 21.8591 28.4768 21.3021 28.3829C20.9149 28.3006 20.5463 28.1168 20.2207 27.8436C19.8952 27.5703 19.6202 27.2141 19.414 26.7984C18.9126 25.9748 18.4122 25.1546 17.9131 24.3365C16.8331 22.5665 15.759 20.8059 14.6936 19.0399L14.3915 18.5118C14.5304 18.5167 14.6623 18.5882 14.7597 18.7113C15.3291 19.3152 15.897 19.9211 16.4649 20.527C17.8836 22.0406 19.3023 23.5541 20.7451 25.0378C21.1988 25.5169 21.7301 25.8691 22.3028 26.0707C23.7472 26.5689 25.1978 27.0467 26.6478 27.5243C28.3064 28.0706 29.9642 28.6167 31.6113 29.1928C32.9679 29.6747 34.1261 29.6295 34.9711 28.0265L35.3441 28.1847L38.2017 31.5051L62.526 58C63.5267 58.8568 67.526 57 68.526 56.3727C69.526 55.7453 71.026 54.5 70.997 53.0282C70.968 51.5565 67.026 48 65.1948 50.1442C65.0451 50.2524 64.5971 51.6085 64.1281 53.0282C63.5734 54.7076 62.9893 56.4759 62.8347 56.3727C62.6303 56.2362 47.369 39.4609 38.7213 29.9483C39.329 29.7677 39.8461 29.4389 40.2107 29.0002C40.5844 28.5508 40.7813 28.006 40.777 27.434C40.8197 26.8552 40.6552 26.2626 40.3044 25.7312C39.9536 25.1998 39.4321 24.7533 38.8058 24.4484C38.247 24.1747 37.6468 23.9758 37.0292 23.8595C35.1587 23.4343 33.2888 23.0197 31.4206 22.6055L31.3807 22.5966C29.4805 22.1753 27.582 21.7544 25.6864 21.3232C25.1773 21.1522 24.6699 20.9791 24.1626 20.8006C23.8189 20.6814 23.4979 20.4778 23.2186 20.2019C21.7779 18.7013 20.3502 17.1767 18.9247 15.6545C18.622 15.3313 18.3194 15.0081 18.0168 14.6854Z" fill="white"/>
<path d="M74.9939 38.2918C74.8866 38.7287 74.6722 39.1318 74.3703 39.4647C74.0684 39.7976 73.6883 40.0498 73.2647 40.1984C72.8016 40.3504 72.3042 40.3632 71.834 40.2351C71.3638 40.107 70.9413 39.8437 70.6187 39.4776C70.2961 39.1116 70.0876 38.6588 70.0188 38.1753C69.9501 37.6918 70.0241 37.1987 70.2319 36.7569C70.4396 36.3151 70.7718 35.9439 71.1877 35.6893C71.6035 35.4347 72.0846 35.3077 72.5716 35.324C73.0586 35.3403 73.5302 35.4993 73.928 35.7813C74.3259 36.0632 74.6327 36.4558 74.8105 36.9105C74.8681 37.0576 74.931 37.1994 74.9939 37.3412V38.2918Z" stroke="black" stroke-width="2" mask="url(#path-1-inside-1_609_212)"/>
<path d="M13.4803 6.53468C13.5058 5.22194 13.9185 3.94599 14.6666 2.86699C15.4148 1.788 16.465 0.954032 17.6854 0.469792C18.9058 -0.0144483 20.2421 -0.127389 21.5265 0.145146C22.8109 0.417682 23.9861 1.06356 24.9047 2.00168C25.8233 2.93981 26.4444 4.12837 26.6899 5.4182C26.9354 6.70803 26.7944 8.04162 26.2846 9.25161C25.7748 10.4616 24.9189 11.494 23.8245 12.2193C22.73 12.9446 21.4457 13.3304 20.1327 13.3284C19.2452 13.3351 18.3655 13.1628 17.5461 12.822C16.7266 12.4811 15.9843 11.9787 15.3634 11.3446C14.7425 10.7105 14.2557 9.95775 13.9322 9.13134C13.6086 8.30493 13.455 7.42181 13.4803 6.53468Z" stroke="black" stroke-width="2" mask="url(#path-1-inside-1_609_212)"/>
<path d="M18.0168 14.6854C17.8623 14.5012 17.7173 14.3052 17.5825 14.0985L17.7335 14.075C17.4321 13.8173 17.1166 13.5859 16.7894 13.3825C15.7826 12.8211 14.894 11.9775 14.1932 10.9177C14.1242 10.7701 14.0109 10.6625 13.8782 10.6185C13.7455 10.5745 13.6042 10.5976 13.4852 10.6829C12.1873 11.298 11.0783 12.4058 10.3157 13.8492C9.55303 15.2925 9.17555 16.9978 9.23687 18.723C9.32656 24.0811 9.42569 29.4363 9.52483 34.7915C9.62397 40.1467 9.72311 45.502 9.8128 50.8601C9.80991 51.3203 9.69826 51.7693 9.49179 52.1512C7.20607 56.3 4.89348 60.4321 2.58235 64.5616C2.15388 65.3272 1.72546 66.0927 1.29726 66.8582C1.13603 67.1427 0.990906 67.4408 0.862969 67.7503C0.605477 68.3319 0.491451 68.9949 0.535102 69.6566C0.578754 70.3183 0.778159 70.9494 1.10844 71.4711C1.39024 71.9519 1.76401 72.3379 2.19593 72.594C2.62785 72.8502 3.10432 72.9685 3.58224 72.9382C4.06017 72.9079 4.52445 72.73 4.93318 72.4205C5.34191 72.1111 5.68216 71.6799 5.92317 71.1659C7.66294 68.0662 9.3965 64.9627 11.131 61.8576C12.4177 59.5539 13.705 57.2493 14.9957 54.9447C15.4359 54.1702 15.6643 53.2403 15.6471 52.2921C15.6358 51.6079 15.6238 50.9236 15.6117 50.2393C15.5633 47.4958 15.515 44.7508 15.515 41.9984V41.1885C15.7634 41.2063 16.0124 41.2063 16.2608 41.1885C16.5412 41.1291 16.8296 41.1839 17.083 41.3446C17.3364 41.5053 17.5414 41.7634 17.6674 42.0805C19.6311 45.6722 21.6514 49.2873 23.6434 52.8085C23.825 53.1311 23.9711 53.4824 24.0777 53.8532C24.7191 55.9368 25.35 58.0292 25.981 60.1223C26.3809 61.4486 26.7809 62.7751 27.1837 64.1C27.7879 66.2127 28.4204 68.3254 29.0718 70.4382C29.188 70.9164 29.3828 71.3594 29.644 71.739C29.9053 72.1186 30.2271 72.4266 30.5892 72.6433C30.9513 72.86 31.3456 72.9807 31.7472 72.9978C32.1488 73.0149 32.5488 72.928 32.922 72.7426C33.2951 72.5572 33.6332 72.2774 33.9147 71.9209C34.1961 71.5644 34.4149 71.139 34.5571 70.6717C34.6993 70.2045 34.7618 69.7056 34.7407 69.2067C34.7195 68.7078 34.6151 68.2198 34.4341 67.7738C32.7537 62.1789 31.0606 56.5802 29.355 50.9775C29.1387 50.2871 28.86 49.6295 28.5242 49.0174C27.4202 47.0225 26.3104 45.0382 25.2013 43.0548C24.2808 41.4088 23.3606 39.7634 22.4444 38.1133C22.2576 37.7631 22.147 37.3587 22.1235 36.9395C22.029 34.4512 21.9818 31.9629 21.9818 29.4745C21.9818 28.829 21.8591 28.4768 21.3021 28.3829C20.9149 28.3006 20.5463 28.1168 20.2207 27.8436C19.8952 27.5703 19.6202 27.2141 19.414 26.7984C18.9126 25.9748 18.4122 25.1546 17.9131 24.3365C16.8331 22.5665 15.759 20.8059 14.6936 19.0399L14.3915 18.5118C14.5304 18.5167 14.6623 18.5882 14.7597 18.7113C15.3291 19.3152 15.897 19.9211 16.4649 20.527C17.8836 22.0406 19.3023 23.5541 20.7451 25.0378C21.1988 25.5169 21.7301 25.8691 22.3028 26.0707C23.7472 26.5689 25.1978 27.0467 26.6478 27.5243C28.3064 28.0706 29.9642 28.6167 31.6113 29.1928C32.9679 29.6747 34.1261 29.6295 34.9711 28.0265L35.3441 28.1847L38.2017 31.5051L62.526 58C63.5267 58.8568 67.526 57 68.526 56.3727C69.526 55.7453 71.026 54.5 70.997 53.0282C70.968 51.5565 67.026 48 65.1948 50.1442C65.0451 50.2524 64.5971 51.6085 64.1281 53.0282C63.5734 54.7076 62.9893 56.4759 62.8347 56.3727C62.6303 56.2362 47.369 39.4609 38.7213 29.9483C39.329 29.7677 39.8461 29.4389 40.2107 29.0002C40.5844 28.5508 40.7813 28.006 40.777 27.434C40.8197 26.8552 40.6552 26.2626 40.3044 25.7312C39.9536 25.1998 39.4321 24.7533 38.8058 24.4484C38.247 24.1747 37.6468 23.9758 37.0292 23.8595C35.1587 23.4343 33.2888 23.0197 31.4206 22.6055L31.3807 22.5966C29.4805 22.1753 27.582 21.7544 25.6864 21.3232C25.1773 21.1522 24.6699 20.9791 24.1626 20.8006C23.8189 20.6814 23.4979 20.4778 23.2186 20.2019C21.7779 18.7013 20.3502 17.1767 18.9247 15.6545C18.622 15.3313 18.3194 15.0081 18.0168 14.6854Z" stroke="black" stroke-width="2" mask="url(#path-1-inside-1_609_212)"/>
</svg>
