<svg width="65" height="85" viewBox="0 0 65 85" fill="none" xmlns="http://www.w3.org/2000/svg">
<path d="M46.69 0.929993C48.0759 1.21669 49.3258 1.95956 50.24 3.03998C50.8183 3.77119 51.2001 4.63809 51.3492 5.55835C51.4983 6.47861 51.4097 7.4217 51.0919 8.2981C50.774 9.17449 50.2374 9.95511 49.5331 10.5659C48.8288 11.1766 47.98 11.5971 47.0675 11.7877C46.1549 11.9782 45.2087 11.9323 44.3189 11.6544C43.429 11.3765 42.6249 10.8757 41.983 10.1997C41.3411 9.52368 40.8825 8.69479 40.651 7.79175C40.4194 6.88871 40.4225 5.94149 40.66 5.03998C40.9114 4.07673 41.4233 3.20138 42.1395 2.50989C42.8557 1.8184 43.7485 1.33751 44.72 1.12L45.2 0.969971L46.69 0.929993Z" fill="white"/>
<path d="M44.47 41.42L43.04 43.26L31.5 58.16C29.8933 60.24 27.99 60.5733 25.79 59.16L15.54 52.6C14.9074 52.251 14.3894 51.7262 14.0487 51.0891C13.708 50.452 13.5591 49.7299 13.62 49.01C13.646 48.3488 13.8551 47.7079 14.2242 47.1588C14.5932 46.6096 15.1077 46.1738 15.71 45.9C16.3329 45.5874 17.0306 45.4546 17.7247 45.5164C18.4189 45.5782 19.0822 45.8323 19.64 46.25L26.64 50.74L27.32 51.15C27.47 50.94 27.62 50.76 27.76 50.56C31.14 45.44 34.5167 40.32 37.89 35.2C38.1317 34.8077 38.2693 34.3603 38.29 33.9C38.4 31.43 38.47 28.96 38.55 26.48C38.55 26.07 38.55 25.66 38.55 25.09C37.86 25.96 37.28 26.71 36.68 27.45C35.22 29.23 33.78 31.03 32.26 32.76C31.6226 33.4786 30.8851 34.1017 30.07 34.61C29.5288 34.8869 28.9062 34.9606 28.3153 34.8175C27.7244 34.6745 27.2045 34.3242 26.8499 33.8304C26.4952 33.3366 26.3295 32.732 26.3827 32.1264C26.436 31.5208 26.7047 30.9544 27.14 30.53C29.1348 28.7128 30.9223 26.6805 32.47 24.47C34.68 21.65 36.8 18.75 38.92 15.85C39.2521 15.375 39.6834 14.9779 40.1842 14.6861C40.6849 14.3943 41.243 14.2148 41.82 14.16C44.6223 13.8251 47.4532 13.8049 50.26 14.1C50.5079 14.149 50.7648 14.1217 50.9969 14.0218C51.229 13.9218 51.4253 13.7538 51.56 13.54C54.14 10.08 56.72 6.64001 59.35 3.23001C59.7506 2.70397 60.272 2.28211 60.87 2.00003C61.3475 1.8133 61.8726 1.7864 62.3666 1.92343C62.8606 2.06046 63.2969 2.35398 63.61 2.75997C63.9549 3.15349 64.166 3.64642 64.2127 4.16763C64.2595 4.68884 64.1395 5.2114 63.87 5.66C63.3822 6.43658 62.8549 7.18757 62.29 7.91C59.64 11.37 56.98 14.81 54.34 18.28C54.1128 18.5696 53.9677 18.915 53.92 19.28C53.62 25.4133 53.3367 31.5467 53.07 37.68C53.0836 38.0378 53.198 38.3844 53.4 38.68C56.06 42.74 58.76 46.76 61.4 50.84C61.867 51.5589 62.1582 52.3777 62.25 53.23C62.83 59.52 63.34 65.81 63.85 72.1C63.9776 73.0154 63.7708 73.9461 63.2674 74.7213C62.7641 75.4965 61.9981 76.0641 61.11 76.32C60.2441 76.5784 59.3131 76.5055 58.4981 76.1155C57.683 75.7255 57.0421 75.0463 56.7 74.21C56.3869 73.1226 56.2089 72.0009 56.17 70.87C55.71 65.62 55.29 60.36 54.84 55.11C54.8183 54.8218 54.718 54.5452 54.55 54.31C51.31 50.11 48.0667 45.92 44.82 41.74C44.71 41.68 44.6 41.58 44.47 41.42Z" fill="white"/>
<path d="M45.92 78.55C45.9081 79.7688 45.5361 80.9569 44.8508 81.9648C44.1654 82.9728 43.1974 83.7555 42.0683 84.2147C40.9392 84.6738 39.6996 84.7889 38.5053 84.5453C37.311 84.3017 36.2154 83.7104 35.3563 82.8458C34.4972 81.9811 33.913 80.8818 33.6771 79.686C33.4412 78.4902 33.5642 77.2512 34.0306 76.1251C34.497 74.999 35.286 74.036 36.2983 73.3572C37.3107 72.6783 38.5011 72.314 39.72 72.31C40.5372 72.3113 41.3461 72.4738 42.1003 72.7884C42.8545 73.1029 43.5393 73.5632 44.1153 74.1429C44.6913 74.7226 45.1472 75.4104 45.4568 76.1666C45.7665 76.9229 45.9239 77.7328 45.92 78.55Z" fill="white"/>
<path d="M21.9663 65.8313C21.8818 65.8252 21.7971 65.8406 21.7202 65.8761L0.380246 75.7361C0.129569 75.8519 0.0202477 76.149 0.136072 76.3997C0.251895 76.6504 0.549004 76.7597 0.799682 76.6439L12.312 71.3247L24.92 72.1L34.1417 67.7208L49.2136 68.8187C49.4891 68.8387 49.7286 68.6317 49.7486 68.3563C49.7687 68.0809 49.5617 67.8414 49.2863 67.8213L21.9663 65.8313Z" fill="white"/>
</svg>
