<svg width="71" height="64" viewBox="0 0 71 64" fill="none" xmlns="http://www.w3.org/2000/svg">
<path d="M70.64 29.4C70.4294 30.0186 70.158 30.6148 69.83 31.18C69.4158 31.7554 68.8609 32.2148 68.2183 32.5142C67.5757 32.8136 66.8669 32.943 66.16 32.89C60.9 32.89 55.64 32.89 50.38 32.89C47.55 32.89 45.9 31.19 45.9 28.36V26.72L39.44 33.16C39.6161 33.2128 39.7795 33.3013 39.92 33.42C42.77 36.24 45.6 39.08 48.43 41.91C50.53 44.01 50.53 46.34 48.43 48.43C43.85 53.0233 39.26 57.6133 34.66 62.2C34.2599 62.6626 33.7617 63.0301 33.2016 63.2757C32.6415 63.5213 32.0337 63.6388 31.4224 63.6196C30.8111 63.6005 30.2118 63.4451 29.6682 63.1649C29.1245 62.8847 28.6502 62.4867 28.28 62C27.7358 61.2896 27.441 60.4198 27.441 59.525C27.441 58.6302 27.7358 57.7603 28.28 57.05C28.5241 56.7493 28.7845 56.4622 29.06 56.19L39.5 45.76C39.6886 45.591 39.8929 45.4403 40.11 45.31L40.17 45.01C39.943 44.9038 39.7284 44.773 39.53 44.62C36.6833 41.8 33.8466 38.9666 31.02 36.12C28.95 34.06 28.94 31.71 31.02 29.65C36.3 24.37 41.62 19.12 46.86 13.79C47.2926 13.2974 47.8365 12.9152 48.4465 12.6751C49.0565 12.435 49.715 12.3439 50.3673 12.4094C51.0196 12.4749 51.6468 12.6952 52.1969 13.0518C52.747 13.4085 53.204 13.8912 53.53 14.46C53.8782 15.1455 54.0662 15.9012 54.08 16.67C54.14 19.06 54.08 21.45 54.08 23.84V24.67H54.92C58.66 24.67 62.39 24.67 66.13 24.67C66.965 24.605 67.8001 24.7949 68.525 25.2144C69.2498 25.634 69.8304 26.2636 70.19 27.02C70.3595 27.3885 70.4999 27.7696 70.61 28.16L70.64 29.4Z" fill="white"/>
<path d="M25.73 34.99C26.44 37.99 28.82 39.54 30.65 41.57L30.29 41.99L10.1 62.16C9.74795 62.5725 9.31792 62.9116 8.83458 63.1576C8.35125 63.4035 7.82416 63.5517 7.28344 63.5935C6.74272 63.6353 6.19905 63.57 5.68364 63.4012C5.16824 63.2324 4.69121 62.9635 4.27996 62.61C3.87492 62.2742 3.54014 61.8618 3.29473 61.3964C3.04932 60.931 2.89815 60.4218 2.84984 59.8979C2.80154 59.374 2.85706 58.8457 3.01323 58.3433C3.16941 57.8408 3.42319 57.3742 3.76 56.97C3.96 56.72 4.17995 56.49 4.39995 56.26L25.12 35.56C25.28 35.4 25.45 35.25 25.73 34.99Z" fill="white"/>
<path d="M46.49 9.08997C43.87 10.45 42.31 12.85 40.16 14.66L37.05 12.43C36.9381 12.656 36.8041 12.8704 36.65 13.07C33.93 15.79 31.22 18.52 28.49 21.23C28.127 21.6393 27.686 21.9723 27.1929 22.2094C26.6998 22.4464 26.1644 22.5829 25.6179 22.6109C25.0715 22.6388 24.5249 22.5576 24.0102 22.372C23.4955 22.1864 23.0229 21.9002 22.62 21.53C21.8686 20.8343 21.4062 19.8816 21.3247 18.8608C21.2432 17.8401 21.5485 16.8261 22.18 16.02C22.3967 15.7581 22.6271 15.5077 22.87 15.27C26.37 11.75 29.8766 8.23997 33.39 4.73997C35.31 2.81997 37.21 2.63997 39.39 4.17997L45.92 8.64997L46.49 9.08997Z" fill="white"/>
<path d="M56.1499 0.0999756C57.3623 0.103938 58.5464 0.467319 59.5522 1.14418C60.5581 1.82104 61.3406 2.78098 61.8009 3.9026C62.2612 5.02421 62.3786 6.25714 62.1382 7.44547C61.8978 8.63379 61.3104 9.72413 60.4504 10.5786C59.5903 11.4331 58.4961 12.0134 57.3062 12.246C56.1163 12.4787 54.8842 12.3533 53.7656 11.8856C52.647 11.418 51.6922 10.6292 51.0219 9.61896C50.3517 8.6087 49.996 7.42237 50 6.20998C50.0157 4.58747 50.67 3.03647 51.8211 1.89288C52.9722 0.749292 54.5274 0.105159 56.1499 0.0999756Z" fill="white"/>
<path d="M11.92 10.33C10.24 10.33 8.55001 10.33 6.92001 10.33C6.57789 10.3569 6.23462 10.2953 5.92318 10.1511C5.61175 10.007 5.34264 9.78512 5.14175 9.50689C4.94086 9.22866 4.81492 8.90341 4.77609 8.56244C4.73725 8.22147 4.78683 7.87625 4.92001 7.55997C5.03891 7.22395 5.24854 6.92742 5.52566 6.70325C5.80278 6.47909 6.13657 6.33604 6.49002 6.28997C6.76174 6.2531 7.03583 6.2364 7.31003 6.23997C10.45 6.23997 13.59 6.23997 16.73 6.23997C17.1388 6.22381 17.5475 6.27448 17.94 6.38997C18.3717 6.54614 18.7365 6.84605 18.9732 7.23936C19.2099 7.63266 19.3041 8.09542 19.24 8.54997C19.1907 9.00889 18.9793 9.43517 18.6439 9.75226C18.3085 10.0693 17.871 10.2564 17.41 10.28C15.59 10.34 13.77 10.28 11.95 10.28L11.92 10.33Z" fill="white"/>
<path d="M7.92 14.44C9.61 14.44 11.3 14.44 12.98 14.44C13.3209 14.4139 13.6627 14.4757 13.9729 14.6193C14.2831 14.763 14.5513 14.9838 14.7519 15.2606C14.9525 15.5374 15.0788 15.861 15.1187 16.2006C15.1587 16.5401 15.1109 16.8842 14.98 17.2C14.8621 17.5366 14.6528 17.8337 14.3754 18.058C14.0981 18.2824 13.7638 18.425 13.41 18.47C13.1383 18.5068 12.8642 18.5236 12.59 18.52H3.17C2.76091 18.5279 2.35294 18.474 1.95998 18.36C1.52645 18.2056 1.15943 17.9065 0.920794 17.513C0.682156 17.1195 0.586503 16.6558 0.649981 16.2C0.710536 15.7456 0.92536 15.3257 1.2585 15.0108C1.59164 14.6959 2.02289 14.5049 2.48 14.47C4.3 14.41 6.12002 14.47 7.94002 14.47L7.92 14.44Z" fill="white"/>
<path d="M12.05 22.64C13.73 22.64 15.42 22.64 17.05 22.64C17.3896 22.6147 17.73 22.6766 18.039 22.8198C18.348 22.963 18.6153 23.1827 18.8156 23.4581C19.0159 23.7335 19.1426 24.0556 19.1836 24.3936C19.2246 24.7317 19.1787 25.0747 19.05 25.39C18.9315 25.7373 18.716 26.0435 18.4289 26.2721C18.1417 26.5007 17.7951 26.6423 17.43 26.68C17.1802 26.6949 16.9298 26.6949 16.68 26.68C13.52 26.68 10.35 26.68 7.19003 26.68C6.80117 26.6912 6.41297 26.6406 6.04001 26.53C5.6065 26.3778 5.23865 26.0809 4.99826 25.6894C4.75787 25.2978 4.65959 24.8354 4.72 24.38C4.77377 23.9217 4.98437 23.4961 5.31607 23.1753C5.64777 22.8546 6.08018 22.6584 6.54001 22.62C6.62994 22.6151 6.72009 22.6151 6.81003 22.62L12.05 22.64Z" fill="white"/>
</svg>
