<svg width="105" height="46" viewBox="0 0 105 46" fill="none" xmlns="http://www.w3.org/2000/svg">
<mask id="path-1-inside-1_609_210" fill="white">
<path d="M0.560428 27.56C0.862104 27.1298 1.20838 26.7328 1.5935 26.3754C2.79186 25.4732 4.03844 24.6536 5.25746 23.7858C6.89979 22.5882 8.90215 21.988 10.9325 22.0847C11.1348 22.0833 11.33 22.0101 11.4834 21.8781C13.4991 20.092 15.5078 18.2968 17.5097 16.4924C17.6847 16.3243 17.8313 16.1289 17.9436 15.9138C20.501 11.5107 23.047 7.10519 25.5814 2.69741C27.0071 0.231818 29.1283 -0.560207 31.8212 0.390218C38.2033 2.63083 44.5876 4.87375 50.9743 7.11896C53.4812 7.99363 54.6383 10.4592 53.6258 12.732C53.1985 13.6873 52.4212 14.4425 51.454 14.8422C50.4868 15.2419 49.4032 15.2557 48.4261 14.8808C45.0789 13.7191 41.7387 12.546 38.4053 11.3614L32.8956 9.42615C32.692 9.32301 32.4692 9.2635 32.2414 9.25141C32.0136 9.23933 31.7857 9.27495 31.5724 9.35598C31.3591 9.43702 31.1651 9.56169 31.0028 9.72201C30.8404 9.88234 30.7134 10.0748 30.6297 10.287C29.569 12.119 28.5154 13.9579 27.441 15.7968C27.3607 15.9164 27.3127 16.0547 27.3019 16.1984C27.291 16.342 27.3176 16.486 27.379 16.6163C27.6407 17.305 27.8817 17.9455 28.1572 18.6825C30.4162 15.9276 33.2606 14.8188 36.6972 15.6384C38.2533 15.961 39.678 16.74 40.7894 17.8759C41.9008 19.0118 42.6485 20.4531 42.937 22.0158C43.9985 22.0807 45.0559 22.2002 46.1051 22.374C46.9525 22.5548 47.763 22.8785 48.5018 23.3313C50.1616 24.385 51.7525 25.5352 53.3228 26.6784C53.5904 26.8884 53.7816 27.1806 53.8667 27.5099C53.9518 27.8392 53.9262 28.1874 53.7938 28.5007C53.6614 28.8141 53.4296 29.0751 53.1342 29.2437C52.8387 29.4122 52.496 29.4788 52.1589 29.4333C51.8085 29.3468 51.4786 29.1924 51.1878 28.9788C49.9826 28.1592 48.7911 27.3121 47.5996 26.4718C46.6165 25.6914 45.4063 25.2519 44.1515 25.2196C42.8968 25.1873 41.6655 25.564 40.6436 26.2928C39.1721 27.3231 37.4192 27.8758 35.6228 27.8758C33.8265 27.8758 32.0736 27.3231 30.6021 26.2928C29.6163 25.5923 28.4368 25.216 27.2274 25.216C26.018 25.216 24.8386 25.5923 23.8527 26.2928C22.392 27.308 20.6556 27.8521 18.8768 27.8521C17.0979 27.8521 15.3616 27.308 13.9008 26.2928C11.4697 24.7707 9.23136 24.7914 6.86218 26.4443L3.35661 28.8961C2.10315 29.7708 1.24915 29.5848 0.526001 28.2556L0.560428 27.56Z"/>
<path d="M0.56044 43.4211C0.858464 42.9881 1.20508 42.5907 1.59351 42.2365C2.91584 41.2517 4.25196 40.2668 5.65005 39.399C7.08247 38.4165 8.7788 37.8906 10.5158 37.8906C12.2528 37.8906 13.9492 38.4165 15.3816 39.399C16.4056 40.13 17.6324 40.5229 18.8906 40.5229C20.1487 40.5229 21.3755 40.13 22.3996 39.399C23.8333 38.4034 25.537 37.8699 27.2825 37.8699C29.028 37.8699 30.7318 38.4034 32.1655 39.399C33.1774 40.1185 34.3882 40.5051 35.6298 40.5051C36.8713 40.5051 38.0821 40.1185 39.094 39.399C42.4618 37.2778 45.8572 37.3329 49.1768 39.5299C50.5542 40.4114 51.8283 41.3688 53.1506 42.2848C53.3514 42.3886 53.5276 42.5342 53.6674 42.7118C53.8072 42.8894 53.9074 43.0948 53.9612 43.3143C54.0151 43.5339 54.0213 43.7623 53.9795 43.9845C53.9377 44.2066 53.8489 44.4172 53.719 44.6021C53.5891 44.7871 53.4211 44.9421 53.2263 45.0567C53.0315 45.1714 52.8145 45.243 52.5897 45.2669C52.365 45.2907 52.1377 45.2661 51.9232 45.1949C51.7088 45.1236 51.512 45.0073 51.3462 44.8537L47.5859 42.2228C46.6058 41.4625 45.4073 41.0374 44.1673 41.0102C42.9273 40.9829 41.7113 41.3549 40.6987 42.0713C39.228 43.1035 37.4748 43.6573 35.678 43.6573C33.8811 43.6573 32.128 43.1035 30.6573 42.0713C29.6702 41.3737 28.4912 40.9991 27.2825 40.9991C26.0739 40.9991 24.8949 41.3737 23.9079 42.0713C22.4479 43.0883 20.7112 43.6336 18.9319 43.6336C17.1525 43.6336 15.4159 43.0883 13.9559 42.0713C11.5317 40.5492 9.27955 40.5767 6.91726 42.2228L3.41173 44.6746C2.15827 45.5493 1.31114 45.3633 0.581101 44.041L0.56044 43.4211Z"/>
<path d="M51.0797 43.879C51.3777 43.446 51.7243 43.0485 52.1128 42.6944C53.4351 41.7095 54.7712 40.7247 56.1693 39.8569C57.6017 38.8743 59.298 38.3485 61.0351 38.3485C62.7721 38.3485 64.4684 38.8743 65.9008 39.8569C66.9249 40.5878 68.1516 40.9807 69.4098 40.9807C70.668 40.9807 71.8948 40.5878 72.9188 39.8569C74.3525 38.8613 76.0563 38.3277 77.8018 38.3277C79.5473 38.3277 81.2511 38.8613 82.6848 39.8569C83.6966 40.5764 84.9074 40.963 86.149 40.963C87.3906 40.963 88.6014 40.5764 89.6132 39.8569C92.9811 37.7356 96.3764 37.7907 99.696 39.9877C101.073 40.8693 102.348 41.8266 103.67 42.7426C103.871 42.8465 104.047 42.9921 104.187 43.1697C104.326 43.3472 104.427 43.5527 104.48 43.7722C104.534 43.9917 104.541 44.2202 104.499 44.4423C104.457 44.6644 104.368 44.875 104.238 45.06C104.108 45.2449 103.94 45.3999 103.746 45.5146C103.551 45.6293 103.334 45.7009 103.109 45.7247C102.884 45.7485 102.657 45.724 102.442 45.6527C102.228 45.5815 102.031 45.4651 101.865 45.3115L98.1051 42.6806C97.125 41.9204 95.9266 41.4953 94.6865 41.468C93.4465 41.4407 92.2305 41.8127 91.218 42.5291C89.7472 43.5613 87.994 44.1151 86.1972 44.1151C84.4004 44.1151 82.6472 43.5613 81.1765 42.5291C80.1894 41.8315 79.0105 41.4569 77.8018 41.4569C76.5931 41.4569 75.4142 41.8315 74.4271 42.5291C72.9671 43.5462 71.2305 44.0914 69.4511 44.0914C67.6718 44.0914 65.9352 43.5462 64.4752 42.5291C62.0509 41.007 59.7988 41.0346 57.4365 42.6806L53.931 45.1324C52.6775 46.0071 51.8304 45.8212 51.1003 44.4988L51.0797 43.879Z"/>
<path d="M0.560491 35.804C0.909163 35.3661 1.29891 34.9625 1.72442 34.5987C3.21084 33.4525 4.76815 32.4013 6.38703 31.4513C7.75787 30.6732 9.31914 30.2944 10.8941 30.3577C12.4692 30.421 13.995 30.9239 15.299 31.8095C16.4275 32.6027 17.7764 33.0218 19.1558 33.0078C20.2391 32.9574 21.2866 32.6043 22.1792 31.9885C23.6863 30.9393 25.4807 30.3813 27.317 30.3907C29.0874 30.3949 30.8154 30.9326 32.2758 31.9334C33.0733 32.5145 34.0083 32.8779 34.9889 32.9877C35.9695 33.0976 36.9618 32.9503 37.8681 32.5602C38.3275 32.352 38.7696 32.1079 39.1905 31.8301C40.6326 30.8673 42.3296 30.3574 44.0636 30.366C45.7976 30.3746 47.4895 30.9012 48.922 31.8783C50.4096 32.8081 51.8146 33.8687 53.2471 34.8811C53.4279 34.995 53.5834 35.1447 53.7041 35.3211C53.8247 35.4974 53.9079 35.6966 53.9486 35.9064C53.9892 36.1161 53.9865 36.332 53.9405 36.5406C53.8944 36.7493 53.8061 36.9463 53.681 37.1194C53.5614 37.2921 53.4078 37.4385 53.2297 37.5497C53.0515 37.6609 52.8525 37.7345 52.6449 37.7661C52.4373 37.7977 52.2254 37.7866 52.0222 37.7334C51.8191 37.6803 51.6289 37.5862 51.4633 37.4569C50.203 36.596 48.9496 35.7145 47.703 34.8329C45.2994 33.1387 43.0473 33.118 40.5748 34.6607C39.1322 35.6601 37.4191 36.1956 35.6642 36.1956C33.9093 36.1956 32.1963 35.6601 30.7537 34.6607C29.7352 33.9352 28.5159 33.5453 27.2654 33.5453C26.0149 33.5453 24.7956 33.9352 23.7771 34.6607C22.3383 35.6502 20.6333 36.1798 18.8872 36.1798C17.1411 36.1798 15.436 35.6502 13.9973 34.6607C11.4628 33.0836 9.29337 33.1042 6.82777 34.826C5.68451 35.6203 4.53667 36.417 3.38422 37.2159C2.11699 38.0974 1.31807 37.9046 0.532936 36.6167L0.560491 35.804Z"/>
<path d="M51.0798 36.2618C51.4285 35.8239 51.8183 35.4203 52.2438 35.0566C53.7302 33.9104 55.2875 32.8592 56.9064 31.9092C58.2772 31.1311 59.8385 30.7522 61.4135 30.8155C62.9885 30.8788 64.5144 31.3817 65.8183 32.2673C66.9469 33.0605 68.2958 33.4796 69.6751 33.4657C70.7584 33.4153 71.8059 33.0622 72.6986 32.4464C74.2057 31.3972 76.0001 30.8391 77.8364 30.8486C79.6068 30.8528 81.3348 31.3904 82.7951 32.3913C83.5926 32.9723 84.5277 33.3357 85.5083 33.4456C86.4889 33.5555 87.4812 33.4081 88.3875 33.018C88.8468 32.8099 89.289 32.5658 89.7098 32.288C91.152 31.3251 92.849 30.8152 94.583 30.8238C96.317 30.8324 98.0088 31.3591 99.4413 32.3362C100.929 33.2659 102.334 34.3266 103.766 35.339C103.947 35.4529 104.103 35.6026 104.223 35.7789C104.344 35.9553 104.427 36.1545 104.468 36.3642C104.509 36.574 104.506 36.7898 104.46 36.9985C104.414 37.2071 104.326 37.4041 104.2 37.5773C104.081 37.7499 103.927 37.8963 103.749 38.0075C103.571 38.1188 103.372 38.1924 103.164 38.224C102.957 38.2556 102.745 38.2445 102.542 38.1913C102.338 38.1381 102.148 38.044 101.983 37.9148C100.722 37.0539 99.4689 36.1723 98.2223 35.2908C95.8187 33.5965 93.5666 33.5759 91.0941 35.1186C89.6516 36.118 87.9385 36.6534 86.1836 36.6534C84.4287 36.6534 82.7156 36.118 81.2731 35.1186C80.2546 34.3931 79.0352 34.0032 77.7848 34.0032C76.5343 34.0032 75.3149 34.3931 74.2964 35.1186C72.8577 36.108 71.1526 36.6377 69.4065 36.6377C67.6604 36.6377 65.9554 36.108 64.5167 35.1186C61.9822 33.5414 59.8127 33.5621 57.3471 35.2839C56.2039 36.0782 55.056 36.8748 53.9036 37.6737C52.6363 38.5553 51.8374 38.3624 51.0523 37.0745L51.0798 36.2618Z"/>
<path d="M51.0798 27.6354C51.4285 27.1975 51.8183 26.7939 52.2438 26.4301C53.7302 25.2839 55.2875 24.2327 56.9064 23.2827C58.2772 22.5046 59.8385 22.1258 61.4135 22.189C62.9885 22.2523 64.5144 22.7553 65.8183 23.6408C66.9469 24.434 68.2958 24.8532 69.6751 24.8392C70.7584 24.7888 71.8059 24.4357 72.6986 23.8199C74.2057 22.7707 76.0001 22.2126 77.8364 22.2221C79.6068 22.2263 81.3348 22.7639 82.7951 23.7648C83.5926 24.3459 84.5277 24.7092 85.5083 24.8191C86.4889 24.929 87.4812 24.7817 88.3875 24.3915C88.8468 24.1834 89.289 23.9393 89.7098 23.6615C91.152 22.6986 92.849 22.1888 94.583 22.1974C96.317 22.206 98.0088 22.7326 99.4413 23.7097C100.929 24.6395 102.334 25.7001 103.766 26.7125C103.947 26.8264 104.103 26.9761 104.223 27.1525C104.344 27.3288 104.427 27.528 104.468 27.7378C104.509 27.9475 104.506 28.1634 104.46 28.372C104.414 28.5807 104.326 28.7776 104.2 28.9508C104.081 29.1235 103.927 29.2699 103.749 29.3811C103.571 29.4923 103.372 29.5659 103.164 29.5975C102.957 29.6291 102.745 29.618 102.542 29.5648C102.338 29.5117 102.148 29.4176 101.983 29.2883C100.722 28.4274 99.4689 27.5459 98.2223 26.6643C95.8187 24.9701 93.5666 24.9494 91.0941 26.4921C89.6516 27.4915 87.9385 28.027 86.1836 28.027C84.4287 28.027 82.7156 27.4915 81.2731 26.4921C80.2546 25.7666 79.0352 25.3767 77.7848 25.3767C76.5343 25.3767 75.3149 25.7666 74.2964 26.4921C72.8577 27.4815 71.1526 28.0112 69.4065 28.0112C67.6604 28.0112 65.9554 27.4815 64.5167 26.4921C61.9822 24.915 59.8127 24.9356 57.3471 26.6574C56.2039 27.4517 55.056 28.2483 53.9036 29.0472C52.6363 29.9288 51.8374 29.736 51.0523 28.4481L51.0798 27.6354Z"/>
</mask>
<path d="M0.560428 27.56C0.862104 27.1298 1.20838 26.7328 1.5935 26.3754C2.79186 25.4732 4.03844 24.6536 5.25746 23.7858C6.89979 22.5882 8.90215 21.988 10.9325 22.0847C11.1348 22.0833 11.33 22.0101 11.4834 21.8781C13.4991 20.092 15.5078 18.2968 17.5097 16.4924C17.6847 16.3243 17.8313 16.1289 17.9436 15.9138C20.501 11.5107 23.047 7.10519 25.5814 2.69741C27.0071 0.231818 29.1283 -0.560207 31.8212 0.390218C38.2033 2.63083 44.5876 4.87375 50.9743 7.11896C53.4812 7.99363 54.6383 10.4592 53.6258 12.732C53.1985 13.6873 52.4212 14.4425 51.454 14.8422C50.4868 15.2419 49.4032 15.2557 48.4261 14.8808C45.0789 13.7191 41.7387 12.546 38.4053 11.3614L32.8956 9.42615C32.692 9.32301 32.4692 9.2635 32.2414 9.25141C32.0136 9.23933 31.7857 9.27495 31.5724 9.35598C31.3591 9.43702 31.1651 9.56169 31.0028 9.72201C30.8404 9.88234 30.7134 10.0748 30.6297 10.287C29.569 12.119 28.5154 13.9579 27.441 15.7968C27.3607 15.9164 27.3127 16.0547 27.3019 16.1984C27.291 16.342 27.3176 16.486 27.379 16.6163C27.6407 17.305 27.8817 17.9455 28.1572 18.6825C30.4162 15.9276 33.2606 14.8188 36.6972 15.6384C38.2533 15.961 39.678 16.74 40.7894 17.8759C41.9008 19.0118 42.6485 20.4531 42.937 22.0158C43.9985 22.0807 45.0559 22.2002 46.1051 22.374C46.9525 22.5548 47.763 22.8785 48.5018 23.3313C50.1616 24.385 51.7525 25.5352 53.3228 26.6784C53.5904 26.8884 53.7816 27.1806 53.8667 27.5099C53.9518 27.8392 53.9262 28.1874 53.7938 28.5007C53.6614 28.8141 53.4296 29.0751 53.1342 29.2437C52.8387 29.4122 52.496 29.4788 52.1589 29.4333C51.8085 29.3468 51.4786 29.1924 51.1878 28.9788C49.9826 28.1592 48.7911 27.3121 47.5996 26.4718C46.6165 25.6914 45.4063 25.2519 44.1515 25.2196C42.8968 25.1873 41.6655 25.564 40.6436 26.2928C39.1721 27.3231 37.4192 27.8758 35.6228 27.8758C33.8265 27.8758 32.0736 27.3231 30.6021 26.2928C29.6163 25.5923 28.4368 25.216 27.2274 25.216C26.018 25.216 24.8386 25.5923 23.8527 26.2928C22.392 27.308 20.6556 27.8521 18.8768 27.8521C17.0979 27.8521 15.3616 27.308 13.9008 26.2928C11.4697 24.7707 9.23136 24.7914 6.86218 26.4443L3.35661 28.8961C2.10315 29.7708 1.24915 29.5848 0.526001 28.2556L0.560428 27.56Z" fill="white"/>
<path d="M0.56044 43.4211C0.858464 42.9881 1.20508 42.5907 1.59351 42.2365C2.91584 41.2517 4.25196 40.2668 5.65005 39.399C7.08247 38.4165 8.7788 37.8906 10.5158 37.8906C12.2528 37.8906 13.9492 38.4165 15.3816 39.399C16.4056 40.13 17.6324 40.5229 18.8906 40.5229C20.1487 40.5229 21.3755 40.13 22.3996 39.399C23.8333 38.4034 25.537 37.8699 27.2825 37.8699C29.028 37.8699 30.7318 38.4034 32.1655 39.399C33.1774 40.1185 34.3882 40.5051 35.6298 40.5051C36.8713 40.5051 38.0821 40.1185 39.094 39.399C42.4618 37.2778 45.8572 37.3329 49.1768 39.5299C50.5542 40.4114 51.8283 41.3688 53.1506 42.2848C53.3514 42.3886 53.5276 42.5342 53.6674 42.7118C53.8072 42.8894 53.9074 43.0948 53.9612 43.3143C54.0151 43.5339 54.0213 43.7623 53.9795 43.9845C53.9377 44.2066 53.8489 44.4172 53.719 44.6021C53.5891 44.7871 53.4211 44.9421 53.2263 45.0567C53.0315 45.1714 52.8145 45.243 52.5897 45.2669C52.365 45.2907 52.1377 45.2661 51.9232 45.1949C51.7088 45.1236 51.512 45.0073 51.3462 44.8537L47.5859 42.2228C46.6058 41.4625 45.4073 41.0374 44.1673 41.0102C42.9273 40.9829 41.7113 41.3549 40.6987 42.0713C39.228 43.1035 37.4748 43.6573 35.678 43.6573C33.8811 43.6573 32.128 43.1035 30.6573 42.0713C29.6702 41.3737 28.4912 40.9991 27.2825 40.9991C26.0739 40.9991 24.8949 41.3737 23.9079 42.0713C22.4479 43.0883 20.7112 43.6336 18.9319 43.6336C17.1525 43.6336 15.4159 43.0883 13.9559 42.0713C11.5317 40.5492 9.27955 40.5767 6.91726 42.2228L3.41173 44.6746C2.15827 45.5493 1.31114 45.3633 0.581101 44.041L0.56044 43.4211Z" fill="white"/>
<path d="M51.0797 43.879C51.3777 43.446 51.7243 43.0485 52.1128 42.6944C53.4351 41.7095 54.7712 40.7247 56.1693 39.8569C57.6017 38.8743 59.298 38.3485 61.0351 38.3485C62.7721 38.3485 64.4684 38.8743 65.9008 39.8569C66.9249 40.5878 68.1516 40.9807 69.4098 40.9807C70.668 40.9807 71.8948 40.5878 72.9188 39.8569C74.3525 38.8613 76.0563 38.3277 77.8018 38.3277C79.5473 38.3277 81.2511 38.8613 82.6848 39.8569C83.6966 40.5764 84.9074 40.963 86.149 40.963C87.3906 40.963 88.6014 40.5764 89.6132 39.8569C92.9811 37.7356 96.3764 37.7907 99.696 39.9877C101.073 40.8693 102.348 41.8266 103.67 42.7426C103.871 42.8465 104.047 42.9921 104.187 43.1697C104.326 43.3472 104.427 43.5527 104.48 43.7722C104.534 43.9917 104.541 44.2202 104.499 44.4423C104.457 44.6644 104.368 44.875 104.238 45.06C104.108 45.2449 103.94 45.3999 103.746 45.5146C103.551 45.6293 103.334 45.7009 103.109 45.7247C102.884 45.7485 102.657 45.724 102.442 45.6527C102.228 45.5815 102.031 45.4651 101.865 45.3115L98.1051 42.6806C97.125 41.9204 95.9266 41.4953 94.6865 41.468C93.4465 41.4407 92.2305 41.8127 91.218 42.5291C89.7472 43.5613 87.994 44.1151 86.1972 44.1151C84.4004 44.1151 82.6472 43.5613 81.1765 42.5291C80.1894 41.8315 79.0105 41.4569 77.8018 41.4569C76.5931 41.4569 75.4142 41.8315 74.4271 42.5291C72.9671 43.5462 71.2305 44.0914 69.4511 44.0914C67.6718 44.0914 65.9352 43.5462 64.4752 42.5291C62.0509 41.007 59.7988 41.0346 57.4365 42.6806L53.931 45.1324C52.6775 46.0071 51.8304 45.8212 51.1003 44.4988L51.0797 43.879Z" fill="white"/>
<path d="M0.560491 35.804C0.909163 35.3661 1.29891 34.9625 1.72442 34.5987C3.21084 33.4525 4.76815 32.4013 6.38703 31.4513C7.75787 30.6732 9.31914 30.2944 10.8941 30.3577C12.4692 30.421 13.995 30.9239 15.299 31.8095C16.4275 32.6027 17.7764 33.0218 19.1558 33.0078C20.2391 32.9574 21.2866 32.6043 22.1792 31.9885C23.6863 30.9393 25.4807 30.3813 27.317 30.3907C29.0874 30.3949 30.8154 30.9326 32.2758 31.9334C33.0733 32.5145 34.0083 32.8779 34.9889 32.9877C35.9695 33.0976 36.9618 32.9503 37.8681 32.5602C38.3275 32.352 38.7696 32.1079 39.1905 31.8301C40.6326 30.8673 42.3296 30.3574 44.0636 30.366C45.7976 30.3746 47.4895 30.9012 48.922 31.8783C50.4096 32.8081 51.8146 33.8687 53.2471 34.8811C53.4279 34.995 53.5834 35.1447 53.7041 35.3211C53.8247 35.4974 53.9079 35.6966 53.9486 35.9064C53.9892 36.1161 53.9865 36.332 53.9405 36.5406C53.8944 36.7493 53.8061 36.9463 53.681 37.1194C53.5614 37.2921 53.4078 37.4385 53.2297 37.5497C53.0515 37.6609 52.8525 37.7345 52.6449 37.7661C52.4373 37.7977 52.2254 37.7866 52.0222 37.7334C51.8191 37.6803 51.6289 37.5862 51.4633 37.4569C50.203 36.596 48.9496 35.7145 47.703 34.8329C45.2994 33.1387 43.0473 33.118 40.5748 34.6607C39.1322 35.6601 37.4191 36.1956 35.6642 36.1956C33.9093 36.1956 32.1963 35.6601 30.7537 34.6607C29.7352 33.9352 28.5159 33.5453 27.2654 33.5453C26.0149 33.5453 24.7956 33.9352 23.7771 34.6607C22.3383 35.6502 20.6333 36.1798 18.8872 36.1798C17.1411 36.1798 15.436 35.6502 13.9973 34.6607C11.4628 33.0836 9.29337 33.1042 6.82777 34.826C5.68451 35.6203 4.53667 36.417 3.38422 37.2159C2.11699 38.0974 1.31807 37.9046 0.532936 36.6167L0.560491 35.804Z" fill="white"/>
<path d="M51.0798 36.2618C51.4285 35.8239 51.8183 35.4203 52.2438 35.0566C53.7302 33.9104 55.2875 32.8592 56.9064 31.9092C58.2772 31.1311 59.8385 30.7522 61.4135 30.8155C62.9885 30.8788 64.5144 31.3817 65.8183 32.2673C66.9469 33.0605 68.2958 33.4796 69.6751 33.4657C70.7584 33.4153 71.8059 33.0622 72.6986 32.4464C74.2057 31.3972 76.0001 30.8391 77.8364 30.8486C79.6068 30.8528 81.3348 31.3904 82.7951 32.3913C83.5926 32.9723 84.5277 33.3357 85.5083 33.4456C86.4889 33.5555 87.4812 33.4081 88.3875 33.018C88.8468 32.8099 89.289 32.5658 89.7098 32.288C91.152 31.3251 92.849 30.8152 94.583 30.8238C96.317 30.8324 98.0088 31.3591 99.4413 32.3362C100.929 33.2659 102.334 34.3266 103.766 35.339C103.947 35.4529 104.103 35.6026 104.223 35.7789C104.344 35.9553 104.427 36.1545 104.468 36.3642C104.509 36.574 104.506 36.7898 104.46 36.9985C104.414 37.2071 104.326 37.4041 104.2 37.5773C104.081 37.7499 103.927 37.8963 103.749 38.0075C103.571 38.1188 103.372 38.1924 103.164 38.224C102.957 38.2556 102.745 38.2445 102.542 38.1913C102.338 38.1381 102.148 38.044 101.983 37.9148C100.722 37.0539 99.4689 36.1723 98.2223 35.2908C95.8187 33.5965 93.5666 33.5759 91.0941 35.1186C89.6516 36.118 87.9385 36.6534 86.1836 36.6534C84.4287 36.6534 82.7156 36.118 81.2731 35.1186C80.2546 34.3931 79.0352 34.0032 77.7848 34.0032C76.5343 34.0032 75.3149 34.3931 74.2964 35.1186C72.8577 36.108 71.1526 36.6377 69.4065 36.6377C67.6604 36.6377 65.9554 36.108 64.5167 35.1186C61.9822 33.5414 59.8127 33.5621 57.3471 35.2839C56.2039 36.0782 55.056 36.8748 53.9036 37.6737C52.6363 38.5553 51.8374 38.3624 51.0523 37.0745L51.0798 36.2618Z" fill="white"/>
<path d="M51.0798 27.6354C51.4285 27.1975 51.8183 26.7939 52.2438 26.4301C53.7302 25.2839 55.2875 24.2327 56.9064 23.2827C58.2772 22.5046 59.8385 22.1258 61.4135 22.189C62.9885 22.2523 64.5144 22.7553 65.8183 23.6408C66.9469 24.434 68.2958 24.8532 69.6751 24.8392C70.7584 24.7888 71.8059 24.4357 72.6986 23.8199C74.2057 22.7707 76.0001 22.2126 77.8364 22.2221C79.6068 22.2263 81.3348 22.7639 82.7951 23.7648C83.5926 24.3459 84.5277 24.7092 85.5083 24.8191C86.4889 24.929 87.4812 24.7817 88.3875 24.3915C88.8468 24.1834 89.289 23.9393 89.7098 23.6615C91.152 22.6986 92.849 22.1888 94.583 22.1974C96.317 22.206 98.0088 22.7326 99.4413 23.7097C100.929 24.6395 102.334 25.7001 103.766 26.7125C103.947 26.8264 104.103 26.9761 104.223 27.1525C104.344 27.3288 104.427 27.528 104.468 27.7378C104.509 27.9475 104.506 28.1634 104.46 28.372C104.414 28.5807 104.326 28.7776 104.2 28.9508C104.081 29.1235 103.927 29.2699 103.749 29.3811C103.571 29.4923 103.372 29.5659 103.164 29.5975C102.957 29.6291 102.745 29.618 102.542 29.5648C102.338 29.5117 102.148 29.4176 101.983 29.2883C100.722 28.4274 99.4689 27.5459 98.2223 26.6643C95.8187 24.9701 93.5666 24.9494 91.0941 26.4921C89.6516 27.4915 87.9385 28.027 86.1836 28.027C84.4287 28.027 82.7156 27.4915 81.2731 26.4921C80.2546 25.7666 79.0352 25.3767 77.7848 25.3767C76.5343 25.3767 75.3149 25.7666 74.2964 26.4921C72.8577 27.4815 71.1526 28.0112 69.4065 28.0112C67.6604 28.0112 65.9554 27.4815 64.5167 26.4921C61.9822 24.915 59.8127 24.9356 57.3471 26.6574C56.2039 27.4517 55.056 28.2483 53.9036 29.0472C52.6363 29.9288 51.8374 29.736 51.0523 28.4481L51.0798 27.6354Z" fill="white"/>
<path d="M0.560428 27.56C0.862104 27.1298 1.20838 26.7328 1.5935 26.3754C2.79186 25.4732 4.03844 24.6536 5.25746 23.7858C6.89979 22.5882 8.90215 21.988 10.9325 22.0847C11.1348 22.0833 11.33 22.0101 11.4834 21.8781C13.4991 20.092 15.5078 18.2968 17.5097 16.4924C17.6847 16.3243 17.8313 16.1289 17.9436 15.9138C20.501 11.5107 23.047 7.10519 25.5814 2.69741C27.0071 0.231818 29.1283 -0.560207 31.8212 0.390218C38.2033 2.63083 44.5876 4.87375 50.9743 7.11896C53.4812 7.99363 54.6383 10.4592 53.6258 12.732C53.1985 13.6873 52.4212 14.4425 51.454 14.8422C50.4868 15.2419 49.4032 15.2557 48.4261 14.8808C45.0789 13.7191 41.7387 12.546 38.4053 11.3614L32.8956 9.42615C32.692 9.32301 32.4692 9.2635 32.2414 9.25141C32.0136 9.23933 31.7857 9.27495 31.5724 9.35598C31.3591 9.43702 31.1651 9.56169 31.0028 9.72201C30.8404 9.88234 30.7134 10.0748 30.6297 10.287C29.569 12.119 28.5154 13.9579 27.441 15.7968C27.3607 15.9164 27.3127 16.0547 27.3019 16.1984C27.291 16.342 27.3176 16.486 27.379 16.6163C27.6407 17.305 27.8817 17.9455 28.1572 18.6825C30.4162 15.9276 33.2606 14.8188 36.6972 15.6384C38.2533 15.961 39.678 16.74 40.7894 17.8759C41.9008 19.0118 42.6485 20.4531 42.937 22.0158C43.9985 22.0807 45.0559 22.2002 46.1051 22.374C46.9525 22.5548 47.763 22.8785 48.5018 23.3313C50.1616 24.385 51.7525 25.5352 53.3228 26.6784C53.5904 26.8884 53.7816 27.1806 53.8667 27.5099C53.9518 27.8392 53.9262 28.1874 53.7938 28.5007C53.6614 28.8141 53.4296 29.0751 53.1342 29.2437C52.8387 29.4122 52.496 29.4788 52.1589 29.4333C51.8085 29.3468 51.4786 29.1924 51.1878 28.9788C49.9826 28.1592 48.7911 27.3121 47.5996 26.4718C46.6165 25.6914 45.4063 25.2519 44.1515 25.2196C42.8968 25.1873 41.6655 25.564 40.6436 26.2928C39.1721 27.3231 37.4192 27.8758 35.6228 27.8758C33.8265 27.8758 32.0736 27.3231 30.6021 26.2928C29.6163 25.5923 28.4368 25.216 27.2274 25.216C26.018 25.216 24.8386 25.5923 23.8527 26.2928C22.392 27.308 20.6556 27.8521 18.8768 27.8521C17.0979 27.8521 15.3616 27.308 13.9008 26.2928C11.4697 24.7707 9.23136 24.7914 6.86218 26.4443L3.35661 28.8961C2.10315 29.7708 1.24915 29.5848 0.526001 28.2556L0.560428 27.56Z" stroke="black" stroke-width="2" mask="url(#path-1-inside-1_609_210)"/>
<path d="M0.56044 43.4211C0.858464 42.9881 1.20508 42.5907 1.59351 42.2365C2.91584 41.2517 4.25196 40.2668 5.65005 39.399C7.08247 38.4165 8.7788 37.8906 10.5158 37.8906C12.2528 37.8906 13.9492 38.4165 15.3816 39.399C16.4056 40.13 17.6324 40.5229 18.8906 40.5229C20.1487 40.5229 21.3755 40.13 22.3996 39.399C23.8333 38.4034 25.537 37.8699 27.2825 37.8699C29.028 37.8699 30.7318 38.4034 32.1655 39.399C33.1774 40.1185 34.3882 40.5051 35.6298 40.5051C36.8713 40.5051 38.0821 40.1185 39.094 39.399C42.4618 37.2778 45.8572 37.3329 49.1768 39.5299C50.5542 40.4114 51.8283 41.3688 53.1506 42.2848C53.3514 42.3886 53.5276 42.5342 53.6674 42.7118C53.8072 42.8894 53.9074 43.0948 53.9612 43.3143C54.0151 43.5339 54.0213 43.7623 53.9795 43.9845C53.9377 44.2066 53.8489 44.4172 53.719 44.6021C53.5891 44.7871 53.4211 44.9421 53.2263 45.0567C53.0315 45.1714 52.8145 45.243 52.5897 45.2669C52.365 45.2907 52.1377 45.2661 51.9232 45.1949C51.7088 45.1236 51.512 45.0073 51.3462 44.8537L47.5859 42.2228C46.6058 41.4625 45.4073 41.0374 44.1673 41.0102C42.9273 40.9829 41.7113 41.3549 40.6987 42.0713C39.228 43.1035 37.4748 43.6573 35.678 43.6573C33.8811 43.6573 32.128 43.1035 30.6573 42.0713C29.6702 41.3737 28.4912 40.9991 27.2825 40.9991C26.0739 40.9991 24.8949 41.3737 23.9079 42.0713C22.4479 43.0883 20.7112 43.6336 18.9319 43.6336C17.1525 43.6336 15.4159 43.0883 13.9559 42.0713C11.5317 40.5492 9.27955 40.5767 6.91726 42.2228L3.41173 44.6746C2.15827 45.5493 1.31114 45.3633 0.581101 44.041L0.56044 43.4211Z" stroke="black" stroke-width="2" mask="url(#path-1-inside-1_609_210)"/>
<path d="M51.0797 43.879C51.3777 43.446 51.7243 43.0485 52.1128 42.6944C53.4351 41.7095 54.7712 40.7247 56.1693 39.8569C57.6017 38.8743 59.298 38.3485 61.0351 38.3485C62.7721 38.3485 64.4684 38.8743 65.9008 39.8569C66.9249 40.5878 68.1516 40.9807 69.4098 40.9807C70.668 40.9807 71.8948 40.5878 72.9188 39.8569C74.3525 38.8613 76.0563 38.3277 77.8018 38.3277C79.5473 38.3277 81.2511 38.8613 82.6848 39.8569C83.6966 40.5764 84.9074 40.963 86.149 40.963C87.3906 40.963 88.6014 40.5764 89.6132 39.8569C92.9811 37.7356 96.3764 37.7907 99.696 39.9877C101.073 40.8693 102.348 41.8266 103.67 42.7426C103.871 42.8465 104.047 42.9921 104.187 43.1697C104.326 43.3472 104.427 43.5527 104.48 43.7722C104.534 43.9917 104.541 44.2202 104.499 44.4423C104.457 44.6644 104.368 44.875 104.238 45.06C104.108 45.2449 103.94 45.3999 103.746 45.5146C103.551 45.6293 103.334 45.7009 103.109 45.7247C102.884 45.7485 102.657 45.724 102.442 45.6527C102.228 45.5815 102.031 45.4651 101.865 45.3115L98.1051 42.6806C97.125 41.9204 95.9266 41.4953 94.6865 41.468C93.4465 41.4407 92.2305 41.8127 91.218 42.5291C89.7472 43.5613 87.994 44.1151 86.1972 44.1151C84.4004 44.1151 82.6472 43.5613 81.1765 42.5291C80.1894 41.8315 79.0105 41.4569 77.8018 41.4569C76.5931 41.4569 75.4142 41.8315 74.4271 42.5291C72.9671 43.5462 71.2305 44.0914 69.4511 44.0914C67.6718 44.0914 65.9352 43.5462 64.4752 42.5291C62.0509 41.007 59.7988 41.0346 57.4365 42.6806L53.931 45.1324C52.6775 46.0071 51.8304 45.8212 51.1003 44.4988L51.0797 43.879Z" stroke="black" stroke-width="2" mask="url(#path-1-inside-1_609_210)"/>
<path d="M0.560491 35.804C0.909163 35.3661 1.29891 34.9625 1.72442 34.5987C3.21084 33.4525 4.76815 32.4013 6.38703 31.4513C7.75787 30.6732 9.31914 30.2944 10.8941 30.3577C12.4692 30.421 13.995 30.9239 15.299 31.8095C16.4275 32.6027 17.7764 33.0218 19.1558 33.0078C20.2391 32.9574 21.2866 32.6043 22.1792 31.9885C23.6863 30.9393 25.4807 30.3813 27.317 30.3907C29.0874 30.3949 30.8154 30.9326 32.2758 31.9334C33.0733 32.5145 34.0083 32.8779 34.9889 32.9877C35.9695 33.0976 36.9618 32.9503 37.8681 32.5602C38.3275 32.352 38.7696 32.1079 39.1905 31.8301C40.6326 30.8673 42.3296 30.3574 44.0636 30.366C45.7976 30.3746 47.4895 30.9012 48.922 31.8783C50.4096 32.8081 51.8146 33.8687 53.2471 34.8811C53.4279 34.995 53.5834 35.1447 53.7041 35.3211C53.8247 35.4974 53.9079 35.6966 53.9486 35.9064C53.9892 36.1161 53.9865 36.332 53.9405 36.5406C53.8944 36.7493 53.8061 36.9463 53.681 37.1194C53.5614 37.2921 53.4078 37.4385 53.2297 37.5497C53.0515 37.6609 52.8525 37.7345 52.6449 37.7661C52.4373 37.7977 52.2254 37.7866 52.0222 37.7334C51.8191 37.6803 51.6289 37.5862 51.4633 37.4569C50.203 36.596 48.9496 35.7145 47.703 34.8329C45.2994 33.1387 43.0473 33.118 40.5748 34.6607C39.1322 35.6601 37.4191 36.1956 35.6642 36.1956C33.9093 36.1956 32.1963 35.6601 30.7537 34.6607C29.7352 33.9352 28.5159 33.5453 27.2654 33.5453C26.0149 33.5453 24.7956 33.9352 23.7771 34.6607C22.3383 35.6502 20.6333 36.1798 18.8872 36.1798C17.1411 36.1798 15.436 35.6502 13.9973 34.6607C11.4628 33.0836 9.29337 33.1042 6.82777 34.826C5.68451 35.6203 4.53667 36.417 3.38422 37.2159C2.11699 38.0974 1.31807 37.9046 0.532936 36.6167L0.560491 35.804Z" stroke="black" stroke-width="2" mask="url(#path-1-inside-1_609_210)"/>
<path d="M51.0798 36.2618C51.4285 35.8239 51.8183 35.4203 52.2438 35.0566C53.7302 33.9104 55.2875 32.8592 56.9064 31.9092C58.2772 31.1311 59.8385 30.7522 61.4135 30.8155C62.9885 30.8788 64.5144 31.3817 65.8183 32.2673C66.9469 33.0605 68.2958 33.4796 69.6751 33.4657C70.7584 33.4153 71.8059 33.0622 72.6986 32.4464C74.2057 31.3972 76.0001 30.8391 77.8364 30.8486C79.6068 30.8528 81.3348 31.3904 82.7951 32.3913C83.5926 32.9723 84.5277 33.3357 85.5083 33.4456C86.4889 33.5555 87.4812 33.4081 88.3875 33.018C88.8468 32.8099 89.289 32.5658 89.7098 32.288C91.152 31.3251 92.849 30.8152 94.583 30.8238C96.317 30.8324 98.0088 31.3591 99.4413 32.3362C100.929 33.2659 102.334 34.3266 103.766 35.339C103.947 35.4529 104.103 35.6026 104.223 35.7789C104.344 35.9553 104.427 36.1545 104.468 36.3642C104.509 36.574 104.506 36.7898 104.46 36.9985C104.414 37.2071 104.326 37.4041 104.2 37.5773C104.081 37.7499 103.927 37.8963 103.749 38.0075C103.571 38.1188 103.372 38.1924 103.164 38.224C102.957 38.2556 102.745 38.2445 102.542 38.1913C102.338 38.1381 102.148 38.044 101.983 37.9148C100.722 37.0539 99.4689 36.1723 98.2223 35.2908C95.8187 33.5965 93.5666 33.5759 91.0941 35.1186C89.6516 36.118 87.9385 36.6534 86.1836 36.6534C84.4287 36.6534 82.7156 36.118 81.2731 35.1186C80.2546 34.3931 79.0352 34.0032 77.7848 34.0032C76.5343 34.0032 75.3149 34.3931 74.2964 35.1186C72.8577 36.108 71.1526 36.6377 69.4065 36.6377C67.6604 36.6377 65.9554 36.108 64.5167 35.1186C61.9822 33.5414 59.8127 33.5621 57.3471 35.2839C56.2039 36.0782 55.056 36.8748 53.9036 37.6737C52.6363 38.5553 51.8374 38.3624 51.0523 37.0745L51.0798 36.2618Z" stroke="black" stroke-width="2" mask="url(#path-1-inside-1_609_210)"/>
<path d="M51.0798 27.6354C51.4285 27.1975 51.8183 26.7939 52.2438 26.4301C53.7302 25.2839 55.2875 24.2327 56.9064 23.2827C58.2772 22.5046 59.8385 22.1258 61.4135 22.189C62.9885 22.2523 64.5144 22.7553 65.8183 23.6408C66.9469 24.434 68.2958 24.8532 69.6751 24.8392C70.7584 24.7888 71.8059 24.4357 72.6986 23.8199C74.2057 22.7707 76.0001 22.2126 77.8364 22.2221C79.6068 22.2263 81.3348 22.7639 82.7951 23.7648C83.5926 24.3459 84.5277 24.7092 85.5083 24.8191C86.4889 24.929 87.4812 24.7817 88.3875 24.3915C88.8468 24.1834 89.289 23.9393 89.7098 23.6615C91.152 22.6986 92.849 22.1888 94.583 22.1974C96.317 22.206 98.0088 22.7326 99.4413 23.7097C100.929 24.6395 102.334 25.7001 103.766 26.7125C103.947 26.8264 104.103 26.9761 104.223 27.1525C104.344 27.3288 104.427 27.528 104.468 27.7378C104.509 27.9475 104.506 28.1634 104.46 28.372C104.414 28.5807 104.326 28.7776 104.2 28.9508C104.081 29.1235 103.927 29.2699 103.749 29.3811C103.571 29.4923 103.372 29.5659 103.164 29.5975C102.957 29.6291 102.745 29.618 102.542 29.5648C102.338 29.5117 102.148 29.4176 101.983 29.2883C100.722 28.4274 99.4689 27.5459 98.2223 26.6643C95.8187 24.9701 93.5666 24.9494 91.0941 26.4921C89.6516 27.4915 87.9385 28.027 86.1836 28.027C84.4287 28.027 82.7156 27.4915 81.2731 26.4921C80.2546 25.7666 79.0352 25.3767 77.7848 25.3767C76.5343 25.3767 75.3149 25.7666 74.2964 26.4921C72.8577 27.4815 71.1526 28.0112 69.4065 28.0112C67.6604 28.0112 65.9554 27.4815 64.5167 26.4921C61.9822 24.915 59.8127 24.9356 57.3471 26.6574C56.2039 27.4517 55.056 28.2483 53.9036 29.0472C52.6363 29.9288 51.8374 29.736 51.0523 28.4481L51.0798 27.6354Z" stroke="black" stroke-width="2" mask="url(#path-1-inside-1_609_210)"/>
</svg>
