<svg width="79" height="67" viewBox="0 0 79 67" fill="none" xmlns="http://www.w3.org/2000/svg">
<path d="M0.919983 40.9499C1.35801 40.3254 1.8608 39.7489 2.41998 39.2299C4.15998 37.9199 5.96999 36.7299 7.73999 35.4699C10.1246 33.731 13.032 32.8595 15.98 32.9999C16.2738 32.9979 16.5573 32.8916 16.78 32.6999C19.7066 30.1066 22.6233 27.4999 25.53 24.8799C25.7841 24.6359 25.9969 24.3522 26.16 24.0399C29.8733 17.6466 33.57 11.2499 37.25 4.84995C39.32 1.26995 42.4 0.119939 46.31 1.49994C55.5767 4.75327 64.8467 8.00994 74.12 11.2699C77.76 12.5399 79.44 16.1199 77.97 19.4199C77.3494 20.807 76.2208 21.9035 74.8165 22.4839C73.4121 23.0642 71.8387 23.0843 70.42 22.5399C65.56 20.8533 60.71 19.1499 55.87 17.4299L47.87 14.6199C47.5745 14.4702 47.251 14.3838 46.9202 14.3662C46.5893 14.3487 46.2585 14.4004 45.9488 14.5181C45.6391 14.6357 45.3574 14.8167 45.1217 15.0495C44.886 15.2823 44.7015 15.5617 44.58 15.8699C43.04 18.5299 41.51 21.1999 39.95 23.8699C39.8334 24.0436 39.7638 24.2445 39.748 24.4531C39.7323 24.6616 39.7709 24.8707 39.86 25.0599C40.24 26.0599 40.59 26.9899 40.99 28.0599C44.27 24.0599 48.4 22.4499 53.39 23.6399C55.6493 24.1084 57.718 25.2394 59.3317 26.8888C60.9454 28.5381 62.031 30.6309 62.45 32.8999C63.9913 32.9941 65.5266 33.1676 67.05 33.4199C68.2804 33.6825 69.4572 34.1526 70.53 34.8099C72.94 36.3399 75.25 38.0099 77.53 39.6699C77.9185 39.9748 78.1961 40.399 78.3196 40.8772C78.4432 41.3554 78.406 41.8609 78.2138 42.3159C78.0216 42.7708 77.685 43.1499 77.256 43.3946C76.827 43.6393 76.3294 43.7361 75.84 43.6699C75.3313 43.5444 74.8522 43.3202 74.43 43.0099C72.68 41.82 70.95 40.59 69.22 39.3699C67.7926 38.2368 66.0353 37.5986 64.2134 37.5517C62.3915 37.5048 60.6038 38.0517 59.12 39.1099C56.9834 40.606 54.4382 41.4084 51.83 41.4084C49.2217 41.4084 46.6766 40.606 44.54 39.1099C43.1085 38.0929 41.396 37.5464 39.64 37.5464C37.8839 37.5464 36.1715 38.0929 34.74 39.1099C32.619 40.584 30.0979 41.374 27.515 41.374C24.932 41.374 22.411 40.584 20.29 39.1099C16.76 36.8999 13.51 36.9299 10.07 39.3299L4.97998 42.8899C3.15998 44.1599 1.92 43.8899 0.869995 41.9599L0.919983 40.9499Z" fill="white"/>
<path d="M0.919983 63.98C1.35271 63.3513 1.85598 62.7742 2.41998 62.26C4.33998 60.83 6.28 59.3999 8.31 58.1399C10.3898 56.7133 12.8529 55.9497 15.375 55.9497C17.8971 55.9497 20.3602 56.7133 22.44 58.1399C23.9269 59.2013 25.7081 59.7717 27.535 59.7717C29.3618 59.7717 31.1431 59.2013 32.63 58.1399C34.7117 56.6943 37.1855 55.9196 39.72 55.9196C42.2544 55.9196 44.7283 56.6943 46.81 58.1399C48.2792 59.1846 50.0372 59.7459 51.84 59.7459C53.6427 59.7459 55.4008 59.1846 56.87 58.1399C61.76 55.0599 66.69 55.1399 71.51 58.3299C73.51 59.6099 75.36 60.9999 77.28 62.3299C77.5714 62.4807 77.8273 62.6922 78.0303 62.95C78.2333 63.2079 78.3787 63.5062 78.4569 63.8249C78.5351 64.1436 78.5441 64.4754 78.4835 64.7979C78.4228 65.1204 78.2938 65.4262 78.1052 65.6947C77.9165 65.9633 77.6726 66.1884 77.3898 66.3548C77.107 66.5213 76.7919 66.6253 76.4655 66.6599C76.1392 66.6945 75.8092 66.6589 75.4978 66.5554C75.1864 66.4519 74.9007 66.283 74.66 66.0599L69.2 62.2399C67.777 61.1361 66.0368 60.5189 64.2363 60.4793C62.4358 60.4397 60.6702 60.9798 59.2 62.0199C57.0645 63.5187 54.5189 64.3228 51.91 64.3228C49.301 64.3228 46.7555 63.5187 44.62 62.0199C43.1868 61.0071 41.4749 60.4632 39.72 60.4632C37.965 60.4632 36.2532 61.0071 34.82 62.0199C32.7001 63.4967 30.1785 64.2884 27.595 64.2884C25.0114 64.2884 22.4899 63.4967 20.37 62.0199C16.85 59.8099 13.58 59.8499 10.15 62.2399L5.06 65.7999C3.24 67.0699 2.00998 66.7999 0.949982 64.8799L0.919983 63.98Z" fill="white"/>
<path d="M0.919983 52.9199C1.42625 52.2841 1.99216 51.6981 2.60999 51.1699C4.76824 49.5057 7.02942 47.9793 9.38 46.5999C11.3704 45.4701 13.6374 44.9201 15.9243 45.012C18.2111 45.1039 20.4266 45.8341 22.32 47.12C23.9586 48.2717 25.9172 48.8802 27.92 48.8599C29.4929 48.7868 31.0138 48.2741 32.31 47.3799C34.4983 45.8565 37.1037 45.0462 39.77 45.0599C42.3405 45.0661 44.8496 45.8467 46.97 47.2999C48.1279 48.1436 49.4856 48.6712 50.9094 48.8308C52.3332 48.9904 53.774 48.7764 55.09 48.2099C55.7569 47.9078 56.3989 47.5533 57.01 47.15C59.104 45.7519 61.568 45.0116 64.0857 45.0241C66.6034 45.0365 69.06 45.8012 71.14 47.2199C73.3 48.5699 75.34 50.1099 77.42 51.5799C77.6825 51.7453 77.9083 51.9627 78.0834 52.2188C78.2586 52.4748 78.3794 52.764 78.4385 53.0686C78.4975 53.3731 78.4935 53.6866 78.4267 53.9895C78.3599 54.2925 78.2317 54.5785 78.05 54.8299C77.8764 55.0806 77.6533 55.2932 77.3947 55.4547C77.136 55.6161 76.8471 55.7231 76.5456 55.7689C76.2441 55.8148 75.9365 55.7987 75.6415 55.7215C75.3465 55.6443 75.0703 55.5076 74.83 55.32C73 54.07 71.18 52.79 69.37 51.51C65.88 49.05 62.61 49.02 59.02 51.26C56.9254 52.7111 54.438 53.4885 51.89 53.4885C49.3419 53.4885 46.8545 52.7111 44.76 51.26C43.2812 50.2065 41.5107 49.6404 39.695 49.6404C37.8793 49.6404 36.1088 50.2065 34.63 51.26C32.541 52.6966 30.0653 53.4657 27.53 53.4657C24.9947 53.4657 22.519 52.6966 20.43 51.26C16.75 48.97 13.6 48.9999 10.02 51.4999C8.35996 52.6533 6.69332 53.8099 5.01999 54.9699C3.17999 56.2499 2.01997 55.97 0.879974 54.1L0.919983 52.9199Z" fill="white"/>
</svg>
