<svg width="84" height="80" viewBox="0 0 84 80" fill="none" xmlns="http://www.w3.org/2000/svg">
<mask id="path-1-inside-1_609_211" fill="white">
<path fill-rule="evenodd" clip-rule="evenodd" d="M8.42434 33.3253C6.74986 28.968 6.68648 24.0323 8.62911 19.4574C12.6793 9.91926 23.2944 7.88821 33.1046 12.0509C42.9148 16.2136 48.2052 24.9937 44.1551 34.5318C42.3981 38.6695 39.2889 41.8322 35.5304 43.7475L19.9451 50.498L18.759 53.2911L12.7715 50.7505L13.9575 47.9573L8.42434 33.3253ZM32.5644 42.1522C33.179 42.413 32.952 44.0152 32.4701 44.296L18.1339 49.7709C17.652 50.0518 15.8715 49.2963 15.7389 48.7547L9.94269 34.7371C9.80997 34.1955 10.8052 32.9193 11.4198 33.1801C11.4198 33.1801 15.4976 41.116 19.9589 43.009C24.4202 44.9021 32.5644 42.1522 32.5644 42.1522ZM36.444 29.2875C37.3469 29.6706 38.3876 29.2541 38.7684 28.3572C39.1493 27.4604 38.726 26.4227 37.8231 26.0396C36.9202 25.6565 35.8795 26.0729 35.4987 26.9698C35.1178 27.8667 35.5411 28.9043 36.444 29.2875ZM36.4616 20.8074C36.0807 21.7043 35.04 22.1208 34.1371 21.7376C33.2342 21.3545 32.8109 20.3169 33.1918 19.42C33.5726 18.5231 34.6133 18.1066 35.5162 18.4898C36.4192 18.8729 36.8424 19.9105 36.4616 20.8074ZM31.7904 18.8254C31.4096 19.7222 30.3689 20.1387 29.466 19.7556C28.5631 19.3724 28.1398 18.3348 28.5207 17.4379C28.9015 16.5411 29.9422 16.1246 30.8451 16.5077C31.7481 16.8908 32.1713 17.9285 31.7904 18.8254ZM27.1193 16.8433C26.7385 17.7402 25.6978 18.1567 24.7949 17.7735C23.8919 17.3904 23.4687 16.3527 23.8495 15.4559C24.2304 14.559 25.2711 14.1425 26.174 14.5257C27.0769 14.9088 27.5002 15.9464 27.1193 16.8433ZM17.7595 21.3592C18.6624 21.7424 19.7031 21.3259 20.084 20.429C20.4648 19.5322 20.0416 18.4945 19.1387 18.1114C18.2357 17.7282 17.195 18.1447 16.8142 19.0416C16.4334 19.9385 16.8566 20.9761 17.7595 21.3592ZM15.3953 26.927C16.2982 27.3101 17.3389 26.8937 17.7197 25.9968C18.1006 25.0999 17.6773 24.0623 16.7744 23.6791C15.8715 23.296 14.8308 23.7125 14.45 24.6094C14.0691 25.5062 14.4924 26.5439 15.3953 26.927ZM17.7022 34.4768C18.6051 34.86 19.6458 34.4435 20.0266 33.5466C20.4075 32.6497 19.9842 31.6121 19.0813 31.229C18.1784 30.8458 17.1377 31.2623 16.7568 32.1592C16.376 33.0561 16.7992 34.0937 17.7022 34.4768ZM24.7551 22.4111C24.3743 23.308 23.3336 23.7244 22.4306 23.3413C21.5277 22.9582 21.1045 21.9205 21.4853 21.0236C21.8661 20.1268 22.9068 19.7103 23.8098 20.0934C24.7127 20.4766 25.1359 21.5142 24.7551 22.4111ZM20.0664 28.9091C20.9693 29.2922 22.01 28.8757 22.3909 27.9788C22.7717 27.082 22.3485 26.0443 21.4455 25.6612C20.5426 25.2781 19.5019 25.6945 19.1211 26.5914C18.7402 27.4883 19.1635 28.5259 20.0664 28.9091ZM22.3733 36.4589C23.2762 36.842 24.3169 36.4255 24.6977 35.5287C25.0786 34.6318 24.6553 33.5942 23.7524 33.211C22.8495 32.8279 21.8088 33.2444 21.428 34.1412C21.0471 35.0381 21.4704 36.0758 22.3733 36.4589ZM29.4262 24.3931C29.0454 25.29 28.0047 25.7065 27.1018 25.3233C26.1988 24.9402 25.7756 23.9026 26.1564 23.0057C26.5373 22.1088 27.578 21.6924 28.4809 22.0755C29.3838 22.4586 29.8071 23.4963 29.4262 24.3931ZM24.7375 30.8911C25.6404 31.2742 26.6811 30.8578 27.062 29.9609C27.4428 29.064 27.0196 28.0264 26.1167 27.6433C25.2137 27.2601 24.173 27.6766 23.7922 28.5735C23.4114 29.4703 23.8346 30.508 24.7375 30.8911ZM27.0444 38.4409C27.9473 38.8241 28.988 38.4076 29.3689 37.5107C29.7497 36.6139 29.3265 35.5762 28.4235 35.1931C27.5206 34.8099 26.4799 35.2264 26.0991 36.1233C25.7182 37.0202 26.1415 38.0578 27.0444 38.4409ZM34.0973 26.3752C33.7165 27.2721 32.6758 27.6885 31.7729 27.3054C30.8699 26.9223 30.4467 25.8846 30.8275 24.9877C31.2084 24.0909 32.2491 23.6744 33.152 24.0575C34.0549 24.4407 34.4782 25.4783 34.0973 26.3752ZM31.7331 31.943C31.3523 32.8398 30.3116 33.2563 29.4086 32.8732C28.5057 32.49 28.0825 31.4524 28.4633 30.5555C28.8442 29.6586 29.8848 29.2422 30.7878 29.6253C31.6907 30.0084 32.1139 31.0461 31.7331 31.943ZM34.0798 34.8552C34.9827 35.2384 36.0234 34.8219 36.4042 33.925C36.785 33.0281 36.3618 31.9905 35.4589 31.6074C34.556 31.2242 33.5153 31.6407 33.1344 32.5376C32.7536 33.4344 33.1768 34.4721 34.0798 34.8552Z"/>
<path d="M18.1904 53.5208C18.4109 53.6143 18.5137 53.8688 18.4201 54.0892L17.0646 57.2814C16.9711 57.5017 16.7165 57.6046 16.496 57.511L11.3068 55.3091C11.0864 55.2156 10.9835 54.9611 11.0771 54.7407L12.4326 51.5485C12.5262 51.3282 12.7808 51.2253 13.0012 51.3189L18.1904 53.5208Z"/>
<path d="M14.4628 62.2993C14.6832 62.3928 14.7861 62.6473 14.6925 62.8677L13.337 66.0599C13.2435 66.2803 12.9889 66.3831 12.7684 66.2895L7.57924 64.0876C7.35878 63.9941 7.25593 63.7396 7.34951 63.5192L8.705 60.3271C8.79858 60.1067 9.05315 60.0039 9.27361 60.0974L14.4628 62.2993Z"/>
<path d="M16.3266 57.91C16.5471 58.0036 16.6499 58.2581 16.5563 58.4784L15.2008 61.6706C15.1073 61.891 14.8527 61.9938 14.6322 61.9003L9.44304 59.6984C9.22259 59.6048 9.11973 59.3504 9.21331 59.13L10.5688 55.9378C10.6624 55.7174 10.917 55.6146 11.1374 55.7081L16.3266 57.91Z"/>
<path d="M12.599 66.6886C12.8194 66.7821 12.9223 67.0366 12.8287 67.257L11.4732 70.4491C11.3796 70.6695 11.1251 70.7723 10.9046 70.6788L5.71543 68.4769C5.49498 68.3834 5.39212 68.1289 5.4857 67.9085L6.84119 64.7163C6.93477 64.4959 7.18935 64.3931 7.4098 64.4867L12.599 66.6886Z"/>
<path d="M11.1343 71.2472C11.3548 71.3407 11.4577 71.5952 11.3641 71.8156L10.0086 75.0078C9.91501 75.2281 9.66043 75.331 9.43998 75.2374L3.45246 72.6968C3.232 72.6032 3.12915 72.3488 3.22273 72.1284L4.57822 68.9362C4.6718 68.7158 4.92637 68.613 5.14683 68.7066L11.1343 71.2472Z"/>
<path d="M10.0689 75.9752C10.2893 76.0687 10.3922 76.3232 10.2986 76.5436L8.94312 79.7358C8.84954 79.9562 8.59497 80.059 8.37451 79.9654L0.790316 76.7473C0.569862 76.6538 0.467008 76.3993 0.560585 76.1789L1.91608 72.9867C2.00966 72.7663 2.26423 72.6635 2.48468 72.7571L10.0689 75.9752Z"/>
<path fill-rule="evenodd" clip-rule="evenodd" d="M57.8962 36.305C54.6054 34.8505 51.8778 32.2097 50.4412 28.6776C47.4461 21.3136 52.1276 14.4615 59.7496 11.4024C67.3715 8.34341 75.0476 10.2359 78.0428 17.5999C79.3421 20.7944 79.3719 24.1932 78.3669 27.2676L73.5495 39.3705L74.4266 41.527L69.7747 43.3941L68.8976 41.2376L57.8962 36.305ZM75.8788 28.01C76.3563 27.8183 77.1067 28.8097 76.997 29.223L72.165 39.9578C72.0554 40.3711 70.6721 40.9263 70.3042 40.7046L59.4946 36.2475C59.1267 36.0259 58.9732 34.7949 59.4507 34.6033C59.4507 34.6033 66.0048 36.6952 69.471 35.3041C72.9371 33.9129 75.8788 28.01 75.8788 28.01ZM70.9755 18.9353C71.6771 18.6538 72.0174 17.8642 71.7358 17.1718C71.4542 16.4793 70.6572 16.1462 69.9557 16.4278C69.2541 16.7093 68.9137 17.4989 69.1954 18.1914C69.477 18.8838 70.274 19.2169 70.9755 18.9353ZM66.3583 14.3297C66.6399 15.0221 66.2995 15.8117 65.598 16.0932C64.8965 16.3748 64.0995 16.0417 63.8178 15.3492C63.5362 14.6568 63.8766 13.8672 64.5781 13.5857C65.2796 13.3041 66.0766 13.6372 66.3583 14.3297ZM62.7291 15.7862C63.0107 16.4786 62.6703 17.2682 61.9688 17.5498C61.2673 17.8313 60.4703 17.4982 60.1887 16.8058C59.907 16.1133 60.2474 15.3238 60.9489 15.0422C61.6504 14.7607 62.4474 15.0938 62.7291 15.7862ZM59.0999 17.2428C59.3815 17.9352 59.0412 18.7248 58.3396 19.0063C57.6381 19.2879 56.8411 18.9548 56.5595 18.2623C56.2778 17.5699 56.6182 16.7803 57.3197 16.4988C58.0213 16.2172 58.8183 16.5503 59.0999 17.2428ZM56.4588 24.7615C57.1604 24.48 57.5007 23.6904 57.2191 22.998C56.9375 22.3055 56.1405 21.9724 55.4389 22.254C54.7374 22.5355 54.397 23.3251 54.6787 24.0176C54.9603 24.71 55.7573 25.0431 56.4588 24.7615ZM58.2072 29.0602C58.9087 28.7787 59.2491 27.9891 58.9675 27.2966C58.6858 26.6042 57.8888 26.2711 57.1873 26.5527C56.4858 26.8342 56.1454 27.6238 56.4271 28.3162C56.7087 29.0087 57.5057 29.3418 58.2072 29.0602ZM63.5848 31.9023C64.2863 31.6208 64.6267 30.8312 64.345 30.1388C64.0634 29.4463 63.2664 29.1132 62.5649 29.3948C61.8634 29.6763 61.523 30.4659 61.8046 31.1583C62.0862 31.8508 62.8833 32.1839 63.5848 31.9023ZM60.8483 21.5414C61.1299 22.2339 60.7895 23.0234 60.088 23.305C59.3865 23.5865 58.5895 23.2535 58.3079 22.561C58.0262 21.8686 58.3666 21.079 59.0681 20.7974C59.7696 20.5159 60.5666 20.849 60.8483 21.5414ZM61.8364 27.6037C62.5379 27.3221 62.8783 26.5325 62.5967 25.8401C62.315 25.1476 61.518 24.8146 60.8165 25.0961C60.115 25.3777 59.7746 26.1672 60.0562 26.8597C60.3379 27.5521 61.1349 27.8852 61.8364 27.6037ZM67.2139 30.4458C67.9155 30.1642 68.2558 29.3747 67.9742 28.6822C67.6926 27.9898 66.8956 27.6567 66.1941 27.9382C65.4925 28.2198 65.1522 29.0094 65.4338 29.7018C65.7154 30.3942 66.5124 30.7273 67.2139 30.4458ZM64.4775 20.0849C64.7591 20.7773 64.4187 21.5669 63.7172 21.8484C63.0157 22.13 62.2187 21.7969 61.937 21.1045C61.6554 20.412 61.9958 19.6224 62.6973 19.3409C63.3988 19.0593 64.1958 19.3924 64.4775 20.0849ZM65.4656 26.1471C66.1671 25.8656 66.5075 25.076 66.2258 24.3835C65.9442 23.6911 65.1472 23.358 64.4457 23.6396C63.7442 23.9211 63.4038 24.7107 63.6854 25.4031C63.967 26.0956 64.7641 26.4287 65.4656 26.1471ZM70.8431 28.9892C71.5446 28.7077 71.885 27.9181 71.6034 27.2257C71.3218 26.5332 70.5248 26.2001 69.8232 26.4817C69.1217 26.7632 68.7813 27.5528 69.063 28.2452C69.3446 28.9377 70.1416 29.2708 70.8431 28.9892ZM68.1066 18.6283C68.3883 19.3208 68.0479 20.1103 67.3464 20.3919C66.6448 20.6734 65.8478 20.3404 65.5662 19.6479C65.2846 18.9555 65.625 18.1659 66.3265 17.8843C67.028 17.6028 67.825 17.9359 68.1066 18.6283ZM69.855 22.927C70.1366 23.6194 69.7963 24.409 69.0947 24.6906C68.3932 24.9721 67.5962 24.639 67.3146 23.9466C67.033 23.2541 67.3733 22.4646 68.0749 22.183C68.7764 21.9015 69.5734 22.2346 69.855 22.927ZM72.7239 23.234C73.4254 22.9525 73.7658 22.1629 73.4842 21.4704C73.2026 20.778 72.4056 20.4449 71.704 20.7265C71.0025 21.008 70.6621 21.7976 70.9438 22.49C71.2254 23.1825 72.0224 23.5156 72.7239 23.234Z"/>
<path d="M74.2418 41.9596C74.4131 41.8908 74.608 41.973 74.6772 42.1432L75.6796 44.6078C75.7488 44.7779 75.6661 44.9716 75.4948 45.0403L71.4631 46.6584C71.2918 46.7271 71.0969 46.6449 71.0277 46.4748L70.0253 44.0102C69.9561 43.8401 70.0388 43.6464 70.2101 43.5777L74.2418 41.9596Z"/>
<path d="M76.9984 48.7371C77.1697 48.6684 77.3646 48.7506 77.4338 48.9207L78.4363 51.3853C78.5055 51.5555 78.4227 51.7491 78.2514 51.8179L74.2197 53.436C74.0485 53.5047 73.8535 53.4225 73.7843 53.2524L72.7819 50.7878C72.7127 50.6176 72.7955 50.424 72.9667 50.3552L76.9984 48.7371Z"/>
<path d="M75.6201 45.3484C75.7914 45.2796 75.9863 45.3618 76.0555 45.532L77.0579 47.9965C77.1271 48.1667 77.0444 48.3603 76.8731 48.4291L72.8414 50.0472C72.6702 50.1159 72.4752 50.0337 72.406 49.8636L71.4036 47.399C71.3344 47.2289 71.4172 47.0352 71.5884 46.9665L75.6201 45.3484Z"/>
<path d="M78.3767 52.1259C78.548 52.0572 78.7429 52.1394 78.8121 52.3095L79.8146 54.7741C79.8838 54.9442 79.801 55.1379 79.6297 55.2066L75.598 56.8247C75.4268 56.8935 75.2318 56.8113 75.1626 56.6411L74.1602 54.1766C74.091 54.0064 74.1738 53.8128 74.345 53.744L78.3767 52.1259Z"/>
<path d="M80.0652 55.3902C80.2364 55.3215 80.4314 55.4037 80.5006 55.5739L81.503 58.0384C81.5722 58.2086 81.4894 58.4022 81.3182 58.471L76.6662 60.338C76.4949 60.4067 76.3 60.3245 76.2308 60.1544L75.2284 57.6898C75.1592 57.5197 75.2419 57.326 75.4132 57.2573L80.0652 55.3902Z"/>
<path d="M82.0637 58.5301C82.235 58.4614 82.43 58.5435 82.4992 58.7137L83.5016 61.1783C83.5708 61.3484 83.488 61.5421 83.3167 61.6108L77.4243 63.9757C77.253 64.0445 77.058 63.9623 76.9888 63.7921L75.9864 61.3275C75.9172 61.1574 76 60.9637 76.1713 60.895L82.0637 58.5301Z"/>
<path d="M50.526 5C50.526 7.76142 48.2874 10 45.526 10C42.7646 10 40.526 7.76142 40.526 5C40.526 2.23858 42.7646 0 45.526 0C48.2874 0 50.526 2.23858 50.526 5Z"/>
</mask>
<path fill-rule="evenodd" clip-rule="evenodd" d="M8.42434 33.3253C6.74986 28.968 6.68648 24.0323 8.62911 19.4574C12.6793 9.91926 23.2944 7.88821 33.1046 12.0509C42.9148 16.2136 48.2052 24.9937 44.1551 34.5318C42.3981 38.6695 39.2889 41.8322 35.5304 43.7475L19.9451 50.498L18.759 53.2911L12.7715 50.7505L13.9575 47.9573L8.42434 33.3253ZM32.5644 42.1522C33.179 42.413 32.952 44.0152 32.4701 44.296L18.1339 49.7709C17.652 50.0518 15.8715 49.2963 15.7389 48.7547L9.94269 34.7371C9.80997 34.1955 10.8052 32.9193 11.4198 33.1801C11.4198 33.1801 15.4976 41.116 19.9589 43.009C24.4202 44.9021 32.5644 42.1522 32.5644 42.1522ZM36.444 29.2875C37.3469 29.6706 38.3876 29.2541 38.7684 28.3572C39.1493 27.4604 38.726 26.4227 37.8231 26.0396C36.9202 25.6565 35.8795 26.0729 35.4987 26.9698C35.1178 27.8667 35.5411 28.9043 36.444 29.2875ZM36.4616 20.8074C36.0807 21.7043 35.04 22.1208 34.1371 21.7376C33.2342 21.3545 32.8109 20.3169 33.1918 19.42C33.5726 18.5231 34.6133 18.1066 35.5162 18.4898C36.4192 18.8729 36.8424 19.9105 36.4616 20.8074ZM31.7904 18.8254C31.4096 19.7222 30.3689 20.1387 29.466 19.7556C28.5631 19.3724 28.1398 18.3348 28.5207 17.4379C28.9015 16.5411 29.9422 16.1246 30.8451 16.5077C31.7481 16.8908 32.1713 17.9285 31.7904 18.8254ZM27.1193 16.8433C26.7385 17.7402 25.6978 18.1567 24.7949 17.7735C23.8919 17.3904 23.4687 16.3527 23.8495 15.4559C24.2304 14.559 25.2711 14.1425 26.174 14.5257C27.0769 14.9088 27.5002 15.9464 27.1193 16.8433ZM17.7595 21.3592C18.6624 21.7424 19.7031 21.3259 20.084 20.429C20.4648 19.5322 20.0416 18.4945 19.1387 18.1114C18.2357 17.7282 17.195 18.1447 16.8142 19.0416C16.4334 19.9385 16.8566 20.9761 17.7595 21.3592ZM15.3953 26.927C16.2982 27.3101 17.3389 26.8937 17.7197 25.9968C18.1006 25.0999 17.6773 24.0623 16.7744 23.6791C15.8715 23.296 14.8308 23.7125 14.45 24.6094C14.0691 25.5062 14.4924 26.5439 15.3953 26.927ZM17.7022 34.4768C18.6051 34.86 19.6458 34.4435 20.0266 33.5466C20.4075 32.6497 19.9842 31.6121 19.0813 31.229C18.1784 30.8458 17.1377 31.2623 16.7568 32.1592C16.376 33.0561 16.7992 34.0937 17.7022 34.4768ZM24.7551 22.4111C24.3743 23.308 23.3336 23.7244 22.4306 23.3413C21.5277 22.9582 21.1045 21.9205 21.4853 21.0236C21.8661 20.1268 22.9068 19.7103 23.8098 20.0934C24.7127 20.4766 25.1359 21.5142 24.7551 22.4111ZM20.0664 28.9091C20.9693 29.2922 22.01 28.8757 22.3909 27.9788C22.7717 27.082 22.3485 26.0443 21.4455 25.6612C20.5426 25.2781 19.5019 25.6945 19.1211 26.5914C18.7402 27.4883 19.1635 28.5259 20.0664 28.9091ZM22.3733 36.4589C23.2762 36.842 24.3169 36.4255 24.6977 35.5287C25.0786 34.6318 24.6553 33.5942 23.7524 33.211C22.8495 32.8279 21.8088 33.2444 21.428 34.1412C21.0471 35.0381 21.4704 36.0758 22.3733 36.4589ZM29.4262 24.3931C29.0454 25.29 28.0047 25.7065 27.1018 25.3233C26.1988 24.9402 25.7756 23.9026 26.1564 23.0057C26.5373 22.1088 27.578 21.6924 28.4809 22.0755C29.3838 22.4586 29.8071 23.4963 29.4262 24.3931ZM24.7375 30.8911C25.6404 31.2742 26.6811 30.8578 27.062 29.9609C27.4428 29.064 27.0196 28.0264 26.1167 27.6433C25.2137 27.2601 24.173 27.6766 23.7922 28.5735C23.4114 29.4703 23.8346 30.508 24.7375 30.8911ZM27.0444 38.4409C27.9473 38.8241 28.988 38.4076 29.3689 37.5107C29.7497 36.6139 29.3265 35.5762 28.4235 35.1931C27.5206 34.8099 26.4799 35.2264 26.0991 36.1233C25.7182 37.0202 26.1415 38.0578 27.0444 38.4409ZM34.0973 26.3752C33.7165 27.2721 32.6758 27.6885 31.7729 27.3054C30.8699 26.9223 30.4467 25.8846 30.8275 24.9877C31.2084 24.0909 32.2491 23.6744 33.152 24.0575C34.0549 24.4407 34.4782 25.4783 34.0973 26.3752ZM31.7331 31.943C31.3523 32.8398 30.3116 33.2563 29.4086 32.8732C28.5057 32.49 28.0825 31.4524 28.4633 30.5555C28.8442 29.6586 29.8848 29.2422 30.7878 29.6253C31.6907 30.0084 32.1139 31.0461 31.7331 31.943ZM34.0798 34.8552C34.9827 35.2384 36.0234 34.8219 36.4042 33.925C36.785 33.0281 36.3618 31.9905 35.4589 31.6074C34.556 31.2242 33.5153 31.6407 33.1344 32.5376C32.7536 33.4344 33.1768 34.4721 34.0798 34.8552Z" fill="white"/>
<path d="M18.1904 53.5208C18.4109 53.6143 18.5137 53.8688 18.4201 54.0892L17.0646 57.2814C16.9711 57.5017 16.7165 57.6046 16.496 57.511L11.3068 55.3091C11.0864 55.2156 10.9835 54.9611 11.0771 54.7407L12.4326 51.5485C12.5262 51.3282 12.7808 51.2253 13.0012 51.3189L18.1904 53.5208Z" fill="white"/>
<path d="M14.4628 62.2993C14.6832 62.3928 14.7861 62.6473 14.6925 62.8677L13.337 66.0599C13.2435 66.2803 12.9889 66.3831 12.7684 66.2895L7.57924 64.0876C7.35878 63.9941 7.25593 63.7396 7.34951 63.5192L8.705 60.3271C8.79858 60.1067 9.05315 60.0039 9.27361 60.0974L14.4628 62.2993Z" fill="white"/>
<path d="M16.3266 57.91C16.5471 58.0036 16.6499 58.2581 16.5563 58.4784L15.2008 61.6706C15.1073 61.891 14.8527 61.9938 14.6322 61.9003L9.44304 59.6984C9.22259 59.6048 9.11973 59.3504 9.21331 59.13L10.5688 55.9378C10.6624 55.7174 10.917 55.6146 11.1374 55.7081L16.3266 57.91Z" fill="white"/>
<path d="M12.599 66.6886C12.8194 66.7821 12.9223 67.0366 12.8287 67.257L11.4732 70.4491C11.3796 70.6695 11.1251 70.7723 10.9046 70.6788L5.71543 68.4769C5.49498 68.3834 5.39212 68.1289 5.4857 67.9085L6.84119 64.7163C6.93477 64.4959 7.18935 64.3931 7.4098 64.4867L12.599 66.6886Z" fill="white"/>
<path d="M11.1343 71.2472C11.3548 71.3407 11.4577 71.5952 11.3641 71.8156L10.0086 75.0078C9.91501 75.2281 9.66043 75.331 9.43998 75.2374L3.45246 72.6968C3.232 72.6032 3.12915 72.3488 3.22273 72.1284L4.57822 68.9362C4.6718 68.7158 4.92637 68.613 5.14683 68.7066L11.1343 71.2472Z" fill="white"/>
<path d="M10.0689 75.9752C10.2893 76.0687 10.3922 76.3232 10.2986 76.5436L8.94312 79.7358C8.84954 79.9562 8.59497 80.059 8.37451 79.9654L0.790316 76.7473C0.569862 76.6538 0.467008 76.3993 0.560585 76.1789L1.91608 72.9867C2.00966 72.7663 2.26423 72.6635 2.48468 72.7571L10.0689 75.9752Z" fill="white"/>
<path fill-rule="evenodd" clip-rule="evenodd" d="M57.8962 36.305C54.6054 34.8505 51.8778 32.2097 50.4412 28.6776C47.4461 21.3136 52.1276 14.4615 59.7496 11.4024C67.3715 8.34341 75.0476 10.2359 78.0428 17.5999C79.3421 20.7944 79.3719 24.1932 78.3669 27.2676L73.5495 39.3705L74.4266 41.527L69.7747 43.3941L68.8976 41.2376L57.8962 36.305ZM75.8788 28.01C76.3563 27.8183 77.1067 28.8097 76.997 29.223L72.165 39.9578C72.0554 40.3711 70.6721 40.9263 70.3042 40.7046L59.4946 36.2475C59.1267 36.0259 58.9732 34.7949 59.4507 34.6033C59.4507 34.6033 66.0048 36.6952 69.471 35.3041C72.9371 33.9129 75.8788 28.01 75.8788 28.01ZM70.9755 18.9353C71.6771 18.6538 72.0174 17.8642 71.7358 17.1718C71.4542 16.4793 70.6572 16.1462 69.9557 16.4278C69.2541 16.7093 68.9137 17.4989 69.1954 18.1914C69.477 18.8838 70.274 19.2169 70.9755 18.9353ZM66.3583 14.3297C66.6399 15.0221 66.2995 15.8117 65.598 16.0932C64.8965 16.3748 64.0995 16.0417 63.8178 15.3492C63.5362 14.6568 63.8766 13.8672 64.5781 13.5857C65.2796 13.3041 66.0766 13.6372 66.3583 14.3297ZM62.7291 15.7862C63.0107 16.4786 62.6703 17.2682 61.9688 17.5498C61.2673 17.8313 60.4703 17.4982 60.1887 16.8058C59.907 16.1133 60.2474 15.3238 60.9489 15.0422C61.6504 14.7607 62.4474 15.0938 62.7291 15.7862ZM59.0999 17.2428C59.3815 17.9352 59.0412 18.7248 58.3396 19.0063C57.6381 19.2879 56.8411 18.9548 56.5595 18.2623C56.2778 17.5699 56.6182 16.7803 57.3197 16.4988C58.0213 16.2172 58.8183 16.5503 59.0999 17.2428ZM56.4588 24.7615C57.1604 24.48 57.5007 23.6904 57.2191 22.998C56.9375 22.3055 56.1405 21.9724 55.4389 22.254C54.7374 22.5355 54.397 23.3251 54.6787 24.0176C54.9603 24.71 55.7573 25.0431 56.4588 24.7615ZM58.2072 29.0602C58.9087 28.7787 59.2491 27.9891 58.9675 27.2966C58.6858 26.6042 57.8888 26.2711 57.1873 26.5527C56.4858 26.8342 56.1454 27.6238 56.4271 28.3162C56.7087 29.0087 57.5057 29.3418 58.2072 29.0602ZM63.5848 31.9023C64.2863 31.6208 64.6267 30.8312 64.345 30.1388C64.0634 29.4463 63.2664 29.1132 62.5649 29.3948C61.8634 29.6763 61.523 30.4659 61.8046 31.1583C62.0862 31.8508 62.8833 32.1839 63.5848 31.9023ZM60.8483 21.5414C61.1299 22.2339 60.7895 23.0234 60.088 23.305C59.3865 23.5865 58.5895 23.2535 58.3079 22.561C58.0262 21.8686 58.3666 21.079 59.0681 20.7974C59.7696 20.5159 60.5666 20.849 60.8483 21.5414ZM61.8364 27.6037C62.5379 27.3221 62.8783 26.5325 62.5967 25.8401C62.315 25.1476 61.518 24.8146 60.8165 25.0961C60.115 25.3777 59.7746 26.1672 60.0562 26.8597C60.3379 27.5521 61.1349 27.8852 61.8364 27.6037ZM67.2139 30.4458C67.9155 30.1642 68.2558 29.3747 67.9742 28.6822C67.6926 27.9898 66.8956 27.6567 66.1941 27.9382C65.4925 28.2198 65.1522 29.0094 65.4338 29.7018C65.7154 30.3942 66.5124 30.7273 67.2139 30.4458ZM64.4775 20.0849C64.7591 20.7773 64.4187 21.5669 63.7172 21.8484C63.0157 22.13 62.2187 21.7969 61.937 21.1045C61.6554 20.412 61.9958 19.6224 62.6973 19.3409C63.3988 19.0593 64.1958 19.3924 64.4775 20.0849ZM65.4656 26.1471C66.1671 25.8656 66.5075 25.076 66.2258 24.3835C65.9442 23.6911 65.1472 23.358 64.4457 23.6396C63.7442 23.9211 63.4038 24.7107 63.6854 25.4031C63.967 26.0956 64.7641 26.4287 65.4656 26.1471ZM70.8431 28.9892C71.5446 28.7077 71.885 27.9181 71.6034 27.2257C71.3218 26.5332 70.5248 26.2001 69.8232 26.4817C69.1217 26.7632 68.7813 27.5528 69.063 28.2452C69.3446 28.9377 70.1416 29.2708 70.8431 28.9892ZM68.1066 18.6283C68.3883 19.3208 68.0479 20.1103 67.3464 20.3919C66.6448 20.6734 65.8478 20.3404 65.5662 19.6479C65.2846 18.9555 65.625 18.1659 66.3265 17.8843C67.028 17.6028 67.825 17.9359 68.1066 18.6283ZM69.855 22.927C70.1366 23.6194 69.7963 24.409 69.0947 24.6906C68.3932 24.9721 67.5962 24.639 67.3146 23.9466C67.033 23.2541 67.3733 22.4646 68.0749 22.183C68.7764 21.9015 69.5734 22.2346 69.855 22.927ZM72.7239 23.234C73.4254 22.9525 73.7658 22.1629 73.4842 21.4704C73.2026 20.778 72.4056 20.4449 71.704 20.7265C71.0025 21.008 70.6621 21.7976 70.9438 22.49C71.2254 23.1825 72.0224 23.5156 72.7239 23.234Z" fill="white"/>
<path d="M74.2418 41.9596C74.4131 41.8908 74.608 41.973 74.6772 42.1432L75.6796 44.6078C75.7488 44.7779 75.6661 44.9716 75.4948 45.0403L71.4631 46.6584C71.2918 46.7271 71.0969 46.6449 71.0277 46.4748L70.0253 44.0102C69.9561 43.8401 70.0388 43.6464 70.2101 43.5777L74.2418 41.9596Z" fill="white"/>
<path d="M76.9984 48.7371C77.1697 48.6684 77.3646 48.7506 77.4338 48.9207L78.4363 51.3853C78.5055 51.5555 78.4227 51.7491 78.2514 51.8179L74.2197 53.436C74.0485 53.5047 73.8535 53.4225 73.7843 53.2524L72.7819 50.7878C72.7127 50.6176 72.7955 50.424 72.9667 50.3552L76.9984 48.7371Z" fill="white"/>
<path d="M75.6201 45.3484C75.7914 45.2796 75.9863 45.3618 76.0555 45.532L77.0579 47.9965C77.1271 48.1667 77.0444 48.3603 76.8731 48.4291L72.8414 50.0472C72.6702 50.1159 72.4752 50.0337 72.406 49.8636L71.4036 47.399C71.3344 47.2289 71.4172 47.0352 71.5884 46.9665L75.6201 45.3484Z" fill="white"/>
<path d="M78.3767 52.1259C78.548 52.0572 78.7429 52.1394 78.8121 52.3095L79.8146 54.7741C79.8838 54.9442 79.801 55.1379 79.6297 55.2066L75.598 56.8247C75.4268 56.8935 75.2318 56.8113 75.1626 56.6411L74.1602 54.1766C74.091 54.0064 74.1738 53.8128 74.345 53.744L78.3767 52.1259Z" fill="white"/>
<path d="M80.0652 55.3902C80.2364 55.3215 80.4314 55.4037 80.5006 55.5739L81.503 58.0384C81.5722 58.2086 81.4894 58.4022 81.3182 58.471L76.6662 60.338C76.4949 60.4067 76.3 60.3245 76.2308 60.1544L75.2284 57.6898C75.1592 57.5197 75.2419 57.326 75.4132 57.2573L80.0652 55.3902Z" fill="white"/>
<path d="M82.0637 58.5301C82.235 58.4614 82.43 58.5435 82.4992 58.7137L83.5016 61.1783C83.5708 61.3484 83.488 61.5421 83.3167 61.6108L77.4243 63.9757C77.253 64.0445 77.058 63.9623 76.9888 63.7921L75.9864 61.3275C75.9172 61.1574 76 60.9637 76.1713 60.895L82.0637 58.5301Z" fill="white"/>
<path d="M50.526 5C50.526 7.76142 48.2874 10 45.526 10C42.7646 10 40.526 7.76142 40.526 5C40.526 2.23858 42.7646 0 45.526 0C48.2874 0 50.526 2.23858 50.526 5Z" fill="white"/>
<path fill-rule="evenodd" clip-rule="evenodd" d="M8.42434 33.3253C6.74986 28.968 6.68648 24.0323 8.62911 19.4574C12.6793 9.91926 23.2944 7.88821 33.1046 12.0509C42.9148 16.2136 48.2052 24.9937 44.1551 34.5318C42.3981 38.6695 39.2889 41.8322 35.5304 43.7475L19.9451 50.498L18.759 53.2911L12.7715 50.7505L13.9575 47.9573L8.42434 33.3253ZM32.5644 42.1522C33.179 42.413 32.952 44.0152 32.4701 44.296L18.1339 49.7709C17.652 50.0518 15.8715 49.2963 15.7389 48.7547L9.94269 34.7371C9.80997 34.1955 10.8052 32.9193 11.4198 33.1801C11.4198 33.1801 15.4976 41.116 19.9589 43.009C24.4202 44.9021 32.5644 42.1522 32.5644 42.1522ZM36.444 29.2875C37.3469 29.6706 38.3876 29.2541 38.7684 28.3572C39.1493 27.4604 38.726 26.4227 37.8231 26.0396C36.9202 25.6565 35.8795 26.0729 35.4987 26.9698C35.1178 27.8667 35.5411 28.9043 36.444 29.2875ZM36.4616 20.8074C36.0807 21.7043 35.04 22.1208 34.1371 21.7376C33.2342 21.3545 32.8109 20.3169 33.1918 19.42C33.5726 18.5231 34.6133 18.1066 35.5162 18.4898C36.4192 18.8729 36.8424 19.9105 36.4616 20.8074ZM31.7904 18.8254C31.4096 19.7222 30.3689 20.1387 29.466 19.7556C28.5631 19.3724 28.1398 18.3348 28.5207 17.4379C28.9015 16.5411 29.9422 16.1246 30.8451 16.5077C31.7481 16.8908 32.1713 17.9285 31.7904 18.8254ZM27.1193 16.8433C26.7385 17.7402 25.6978 18.1567 24.7949 17.7735C23.8919 17.3904 23.4687 16.3527 23.8495 15.4559C24.2304 14.559 25.2711 14.1425 26.174 14.5257C27.0769 14.9088 27.5002 15.9464 27.1193 16.8433ZM17.7595 21.3592C18.6624 21.7424 19.7031 21.3259 20.084 20.429C20.4648 19.5322 20.0416 18.4945 19.1387 18.1114C18.2357 17.7282 17.195 18.1447 16.8142 19.0416C16.4334 19.9385 16.8566 20.9761 17.7595 21.3592ZM15.3953 26.927C16.2982 27.3101 17.3389 26.8937 17.7197 25.9968C18.1006 25.0999 17.6773 24.0623 16.7744 23.6791C15.8715 23.296 14.8308 23.7125 14.45 24.6094C14.0691 25.5062 14.4924 26.5439 15.3953 26.927ZM17.7022 34.4768C18.6051 34.86 19.6458 34.4435 20.0266 33.5466C20.4075 32.6497 19.9842 31.6121 19.0813 31.229C18.1784 30.8458 17.1377 31.2623 16.7568 32.1592C16.376 33.0561 16.7992 34.0937 17.7022 34.4768ZM24.7551 22.4111C24.3743 23.308 23.3336 23.7244 22.4306 23.3413C21.5277 22.9582 21.1045 21.9205 21.4853 21.0236C21.8661 20.1268 22.9068 19.7103 23.8098 20.0934C24.7127 20.4766 25.1359 21.5142 24.7551 22.4111ZM20.0664 28.9091C20.9693 29.2922 22.01 28.8757 22.3909 27.9788C22.7717 27.082 22.3485 26.0443 21.4455 25.6612C20.5426 25.2781 19.5019 25.6945 19.1211 26.5914C18.7402 27.4883 19.1635 28.5259 20.0664 28.9091ZM22.3733 36.4589C23.2762 36.842 24.3169 36.4255 24.6977 35.5287C25.0786 34.6318 24.6553 33.5942 23.7524 33.211C22.8495 32.8279 21.8088 33.2444 21.428 34.1412C21.0471 35.0381 21.4704 36.0758 22.3733 36.4589ZM29.4262 24.3931C29.0454 25.29 28.0047 25.7065 27.1018 25.3233C26.1988 24.9402 25.7756 23.9026 26.1564 23.0057C26.5373 22.1088 27.578 21.6924 28.4809 22.0755C29.3838 22.4586 29.8071 23.4963 29.4262 24.3931ZM24.7375 30.8911C25.6404 31.2742 26.6811 30.8578 27.062 29.9609C27.4428 29.064 27.0196 28.0264 26.1167 27.6433C25.2137 27.2601 24.173 27.6766 23.7922 28.5735C23.4114 29.4703 23.8346 30.508 24.7375 30.8911ZM27.0444 38.4409C27.9473 38.8241 28.988 38.4076 29.3689 37.5107C29.7497 36.6139 29.3265 35.5762 28.4235 35.1931C27.5206 34.8099 26.4799 35.2264 26.0991 36.1233C25.7182 37.0202 26.1415 38.0578 27.0444 38.4409ZM34.0973 26.3752C33.7165 27.2721 32.6758 27.6885 31.7729 27.3054C30.8699 26.9223 30.4467 25.8846 30.8275 24.9877C31.2084 24.0909 32.2491 23.6744 33.152 24.0575C34.0549 24.4407 34.4782 25.4783 34.0973 26.3752ZM31.7331 31.943C31.3523 32.8398 30.3116 33.2563 29.4086 32.8732C28.5057 32.49 28.0825 31.4524 28.4633 30.5555C28.8442 29.6586 29.8848 29.2422 30.7878 29.6253C31.6907 30.0084 32.1139 31.0461 31.7331 31.943ZM34.0798 34.8552C34.9827 35.2384 36.0234 34.8219 36.4042 33.925C36.785 33.0281 36.3618 31.9905 35.4589 31.6074C34.556 31.2242 33.5153 31.6407 33.1344 32.5376C32.7536 33.4344 33.1768 34.4721 34.0798 34.8552Z" stroke="black" stroke-width="2" mask="url(#path-1-inside-1_609_211)"/>
<path d="M18.1904 53.5208C18.4109 53.6143 18.5137 53.8688 18.4201 54.0892L17.0646 57.2814C16.9711 57.5017 16.7165 57.6046 16.496 57.511L11.3068 55.3091C11.0864 55.2156 10.9835 54.9611 11.0771 54.7407L12.4326 51.5485C12.5262 51.3282 12.7808 51.2253 13.0012 51.3189L18.1904 53.5208Z" stroke="black" stroke-width="2" mask="url(#path-1-inside-1_609_211)"/>
<path d="M14.4628 62.2993C14.6832 62.3928 14.7861 62.6473 14.6925 62.8677L13.337 66.0599C13.2435 66.2803 12.9889 66.3831 12.7684 66.2895L7.57924 64.0876C7.35878 63.9941 7.25593 63.7396 7.34951 63.5192L8.705 60.3271C8.79858 60.1067 9.05315 60.0039 9.27361 60.0974L14.4628 62.2993Z" stroke="black" stroke-width="2" mask="url(#path-1-inside-1_609_211)"/>
<path d="M16.3266 57.91C16.5471 58.0036 16.6499 58.2581 16.5563 58.4784L15.2008 61.6706C15.1073 61.891 14.8527 61.9938 14.6322 61.9003L9.44304 59.6984C9.22259 59.6048 9.11973 59.3504 9.21331 59.13L10.5688 55.9378C10.6624 55.7174 10.917 55.6146 11.1374 55.7081L16.3266 57.91Z" stroke="black" stroke-width="2" mask="url(#path-1-inside-1_609_211)"/>
<path d="M12.599 66.6886C12.8194 66.7821 12.9223 67.0366 12.8287 67.257L11.4732 70.4491C11.3796 70.6695 11.1251 70.7723 10.9046 70.6788L5.71543 68.4769C5.49498 68.3834 5.39212 68.1289 5.4857 67.9085L6.84119 64.7163C6.93477 64.4959 7.18935 64.3931 7.4098 64.4867L12.599 66.6886Z" stroke="black" stroke-width="2" mask="url(#path-1-inside-1_609_211)"/>
<path d="M11.1343 71.2472C11.3548 71.3407 11.4577 71.5952 11.3641 71.8156L10.0086 75.0078C9.91501 75.2281 9.66043 75.331 9.43998 75.2374L3.45246 72.6968C3.232 72.6032 3.12915 72.3488 3.22273 72.1284L4.57822 68.9362C4.6718 68.7158 4.92637 68.613 5.14683 68.7066L11.1343 71.2472Z" stroke="black" stroke-width="2" mask="url(#path-1-inside-1_609_211)"/>
<path d="M10.0689 75.9752C10.2893 76.0687 10.3922 76.3232 10.2986 76.5436L8.94312 79.7358C8.84954 79.9562 8.59497 80.059 8.37451 79.9654L0.790316 76.7473C0.569862 76.6538 0.467008 76.3993 0.560585 76.1789L1.91608 72.9867C2.00966 72.7663 2.26423 72.6635 2.48468 72.7571L10.0689 75.9752Z" stroke="black" stroke-width="2" mask="url(#path-1-inside-1_609_211)"/>
<path fill-rule="evenodd" clip-rule="evenodd" d="M57.8962 36.305C54.6054 34.8505 51.8778 32.2097 50.4412 28.6776C47.4461 21.3136 52.1276 14.4615 59.7496 11.4024C67.3715 8.34341 75.0476 10.2359 78.0428 17.5999C79.3421 20.7944 79.3719 24.1932 78.3669 27.2676L73.5495 39.3705L74.4266 41.527L69.7747 43.3941L68.8976 41.2376L57.8962 36.305ZM75.8788 28.01C76.3563 27.8183 77.1067 28.8097 76.997 29.223L72.165 39.9578C72.0554 40.3711 70.6721 40.9263 70.3042 40.7046L59.4946 36.2475C59.1267 36.0259 58.9732 34.7949 59.4507 34.6033C59.4507 34.6033 66.0048 36.6952 69.471 35.3041C72.9371 33.9129 75.8788 28.01 75.8788 28.01ZM70.9755 18.9353C71.6771 18.6538 72.0174 17.8642 71.7358 17.1718C71.4542 16.4793 70.6572 16.1462 69.9557 16.4278C69.2541 16.7093 68.9137 17.4989 69.1954 18.1914C69.477 18.8838 70.274 19.2169 70.9755 18.9353ZM66.3583 14.3297C66.6399 15.0221 66.2995 15.8117 65.598 16.0932C64.8965 16.3748 64.0995 16.0417 63.8178 15.3492C63.5362 14.6568 63.8766 13.8672 64.5781 13.5857C65.2796 13.3041 66.0766 13.6372 66.3583 14.3297ZM62.7291 15.7862C63.0107 16.4786 62.6703 17.2682 61.9688 17.5498C61.2673 17.8313 60.4703 17.4982 60.1887 16.8058C59.907 16.1133 60.2474 15.3238 60.9489 15.0422C61.6504 14.7607 62.4474 15.0938 62.7291 15.7862ZM59.0999 17.2428C59.3815 17.9352 59.0412 18.7248 58.3396 19.0063C57.6381 19.2879 56.8411 18.9548 56.5595 18.2623C56.2778 17.5699 56.6182 16.7803 57.3197 16.4988C58.0213 16.2172 58.8183 16.5503 59.0999 17.2428ZM56.4588 24.7615C57.1604 24.48 57.5007 23.6904 57.2191 22.998C56.9375 22.3055 56.1405 21.9724 55.4389 22.254C54.7374 22.5355 54.397 23.3251 54.6787 24.0176C54.9603 24.71 55.7573 25.0431 56.4588 24.7615ZM58.2072 29.0602C58.9087 28.7787 59.2491 27.9891 58.9675 27.2966C58.6858 26.6042 57.8888 26.2711 57.1873 26.5527C56.4858 26.8342 56.1454 27.6238 56.4271 28.3162C56.7087 29.0087 57.5057 29.3418 58.2072 29.0602ZM63.5848 31.9023C64.2863 31.6208 64.6267 30.8312 64.345 30.1388C64.0634 29.4463 63.2664 29.1132 62.5649 29.3948C61.8634 29.6763 61.523 30.4659 61.8046 31.1583C62.0862 31.8508 62.8833 32.1839 63.5848 31.9023ZM60.8483 21.5414C61.1299 22.2339 60.7895 23.0234 60.088 23.305C59.3865 23.5865 58.5895 23.2535 58.3079 22.561C58.0262 21.8686 58.3666 21.079 59.0681 20.7974C59.7696 20.5159 60.5666 20.849 60.8483 21.5414ZM61.8364 27.6037C62.5379 27.3221 62.8783 26.5325 62.5967 25.8401C62.315 25.1476 61.518 24.8146 60.8165 25.0961C60.115 25.3777 59.7746 26.1672 60.0562 26.8597C60.3379 27.5521 61.1349 27.8852 61.8364 27.6037ZM67.2139 30.4458C67.9155 30.1642 68.2558 29.3747 67.9742 28.6822C67.6926 27.9898 66.8956 27.6567 66.1941 27.9382C65.4925 28.2198 65.1522 29.0094 65.4338 29.7018C65.7154 30.3942 66.5124 30.7273 67.2139 30.4458ZM64.4775 20.0849C64.7591 20.7773 64.4187 21.5669 63.7172 21.8484C63.0157 22.13 62.2187 21.7969 61.937 21.1045C61.6554 20.412 61.9958 19.6224 62.6973 19.3409C63.3988 19.0593 64.1958 19.3924 64.4775 20.0849ZM65.4656 26.1471C66.1671 25.8656 66.5075 25.076 66.2258 24.3835C65.9442 23.6911 65.1472 23.358 64.4457 23.6396C63.7442 23.9211 63.4038 24.7107 63.6854 25.4031C63.967 26.0956 64.7641 26.4287 65.4656 26.1471ZM70.8431 28.9892C71.5446 28.7077 71.885 27.9181 71.6034 27.2257C71.3218 26.5332 70.5248 26.2001 69.8232 26.4817C69.1217 26.7632 68.7813 27.5528 69.063 28.2452C69.3446 28.9377 70.1416 29.2708 70.8431 28.9892ZM68.1066 18.6283C68.3883 19.3208 68.0479 20.1103 67.3464 20.3919C66.6448 20.6734 65.8478 20.3404 65.5662 19.6479C65.2846 18.9555 65.625 18.1659 66.3265 17.8843C67.028 17.6028 67.825 17.9359 68.1066 18.6283ZM69.855 22.927C70.1366 23.6194 69.7963 24.409 69.0947 24.6906C68.3932 24.9721 67.5962 24.639 67.3146 23.9466C67.033 23.2541 67.3733 22.4646 68.0749 22.183C68.7764 21.9015 69.5734 22.2346 69.855 22.927ZM72.7239 23.234C73.4254 22.9525 73.7658 22.1629 73.4842 21.4704C73.2026 20.778 72.4056 20.4449 71.704 20.7265C71.0025 21.008 70.6621 21.7976 70.9438 22.49C71.2254 23.1825 72.0224 23.5156 72.7239 23.234Z" stroke="black" stroke-width="2" mask="url(#path-1-inside-1_609_211)"/>
<path d="M74.2418 41.9596C74.4131 41.8908 74.608 41.973 74.6772 42.1432L75.6796 44.6078C75.7488 44.7779 75.6661 44.9716 75.4948 45.0403L71.4631 46.6584C71.2918 46.7271 71.0969 46.6449 71.0277 46.4748L70.0253 44.0102C69.9561 43.8401 70.0388 43.6464 70.2101 43.5777L74.2418 41.9596Z" stroke="black" stroke-width="2" mask="url(#path-1-inside-1_609_211)"/>
<path d="M76.9984 48.7371C77.1697 48.6684 77.3646 48.7506 77.4338 48.9207L78.4363 51.3853C78.5055 51.5555 78.4227 51.7491 78.2514 51.8179L74.2197 53.436C74.0485 53.5047 73.8535 53.4225 73.7843 53.2524L72.7819 50.7878C72.7127 50.6176 72.7955 50.424 72.9667 50.3552L76.9984 48.7371Z" stroke="black" stroke-width="2" mask="url(#path-1-inside-1_609_211)"/>
<path d="M75.6201 45.3484C75.7914 45.2796 75.9863 45.3618 76.0555 45.532L77.0579 47.9965C77.1271 48.1667 77.0444 48.3603 76.8731 48.4291L72.8414 50.0472C72.6702 50.1159 72.4752 50.0337 72.406 49.8636L71.4036 47.399C71.3344 47.2289 71.4172 47.0352 71.5884 46.9665L75.6201 45.3484Z" stroke="black" stroke-width="2" mask="url(#path-1-inside-1_609_211)"/>
<path d="M78.3767 52.1259C78.548 52.0572 78.7429 52.1394 78.8121 52.3095L79.8146 54.7741C79.8838 54.9442 79.801 55.1379 79.6297 55.2066L75.598 56.8247C75.4268 56.8935 75.2318 56.8113 75.1626 56.6411L74.1602 54.1766C74.091 54.0064 74.1738 53.8128 74.345 53.744L78.3767 52.1259Z" stroke="black" stroke-width="2" mask="url(#path-1-inside-1_609_211)"/>
<path d="M80.0652 55.3902C80.2364 55.3215 80.4314 55.4037 80.5006 55.5739L81.503 58.0384C81.5722 58.2086 81.4894 58.4022 81.3182 58.471L76.6662 60.338C76.4949 60.4067 76.3 60.3245 76.2308 60.1544L75.2284 57.6898C75.1592 57.5197 75.2419 57.326 75.4132 57.2573L80.0652 55.3902Z" stroke="black" stroke-width="2" mask="url(#path-1-inside-1_609_211)"/>
<path d="M82.0637 58.5301C82.235 58.4614 82.43 58.5435 82.4992 58.7137L83.5016 61.1783C83.5708 61.3484 83.488 61.5421 83.3167 61.6108L77.4243 63.9757C77.253 64.0445 77.058 63.9623 76.9888 63.7921L75.9864 61.3275C75.9172 61.1574 76 60.9637 76.1713 60.895L82.0637 58.5301Z" stroke="black" stroke-width="2" mask="url(#path-1-inside-1_609_211)"/>
<path d="M50.526 5C50.526 7.76142 48.2874 10 45.526 10C42.7646 10 40.526 7.76142 40.526 5C40.526 2.23858 42.7646 0 45.526 0C48.2874 0 50.526 2.23858 50.526 5Z" stroke="black" stroke-width="2" mask="url(#path-1-inside-1_609_211)"/>
</svg>
