<svg width="82" height="71" viewBox="0 0 82 71" fill="none" xmlns="http://www.w3.org/2000/svg">
<path d="M71.1 12.2201C70.97 12.7501 70.85 13.2801 70.71 13.8001C70.2483 15.7357 69.2007 17.4818 67.71 18.8001C65.61 20.6001 63.41 22.2901 61.32 23.9701L47.38 10.0501L48.06 9.19006C49.35 7.56006 50.64 5.92008 51.95 4.30008C53.6375 2.1097 56.1202 0.672541 58.86 0.300079C58.966 0.267144 59.0695 0.227026 59.17 0.180054H61.65C61.7695 0.233752 61.8933 0.277246 62.02 0.310059C64.1108 0.630932 66.0606 1.56093 67.6257 2.9838C69.1909 4.40666 70.3019 6.25925 70.82 8.31006C70.94 8.80006 71.03 9.31006 71.14 9.78006L71.1 12.2201Z" fill="white"/>
<path d="M44.59 13.5401L57.8 26.7601L27.08 51.1601L20.17 44.2501L44.59 13.5401Z" fill="white"/>
<path d="M5.40999 56.0701C5.99474 56.0519 6.57713 56.1524 7.12197 56.3655C7.6668 56.5786 8.16279 56.8999 8.58 57.31C10.42 59.11 12.25 60.9101 14.02 62.7601C14.8489 63.643 15.305 64.8118 15.2931 66.0228C15.2813 67.2338 14.8025 68.3934 13.9566 69.26C13.1106 70.1266 11.9628 70.6332 10.7525 70.6742C9.54212 70.7152 8.36266 70.2874 7.46001 69.4801C5.53001 67.6801 3.66001 65.8201 1.87001 63.8901C1.23227 63.2311 0.814715 62.3905 0.675005 61.4841C0.535295 60.5778 0.680316 59.6505 1.09001 58.8301C1.45929 57.9965 2.06595 57.2902 2.83425 56.7993C3.60254 56.3084 4.4984 56.0548 5.40999 56.0701Z" fill="white"/>
<path d="M17.34 60.2201L11.18 54.0501L17.41 47.8201L23.57 53.9901L17.34 60.2201Z" fill="white"/>
<path d="M52.92 61.9301C62.28 58.1201 67.09 51.1801 68.24 41.4201C70.3908 41.67 72.4595 42.3933 74.2975 43.5379C76.1354 44.6826 77.697 46.2201 78.87 48.0401C70.62 53.3701 66.52 60.7301 67.2 70.7101C59.11 70.7401 55.43 67.8001 52.92 61.9301Z" fill="white"/>
<path d="M54.75 47.0601C55.49 46.3201 56.18 45.5401 56.97 44.8501C58.9087 43.1535 61.2863 42.0376 63.83 41.6301C63.67 48.2001 58.41 55.6301 51.83 57.6301C51.83 56.6301 51.83 55.7601 51.83 54.8401C51.9403 53.108 52.3745 51.412 53.11 49.8401C53.1731 49.6922 53.22 49.538 53.25 49.3801L54.75 47.0601Z" fill="white"/>
<path d="M80.6 52.0501C81.6204 55.6099 81.2489 59.4244 79.561 62.7205C77.873 66.0165 74.9949 68.5475 71.51 69.8001C70.3 64.2401 73.99 55.6101 80.6 52.0501Z" fill="white"/>
</svg>
