<svg width="74" height="75" viewBox="0 0 74 75" fill="none" xmlns="http://www.w3.org/2000/svg">
<path d="M73.82 23.7401C73.54 25.1401 73.33 26.5601 72.98 27.9401C71.9573 31.5556 69.9368 34.8099 67.15 37.3301C66.8 37.6701 66.52 37.5201 66.15 37.3801L50.15 30.6001C43.8433 27.9334 37.53 25.2667 31.21 22.6001C30.981 22.5308 30.7845 22.3817 30.6561 22.1799C30.5276 21.978 30.4758 21.7368 30.51 21.5001C30.6164 16.4763 32.4841 11.6495 35.7868 7.8625C39.0895 4.07546 43.6174 1.56877 48.58 0.780071C54.2247 -0.104802 59.9912 1.26288 64.6373 4.58848C69.2834 7.91409 72.4374 12.9315 73.42 18.5601C73.55 19.2401 73.64 19.9301 73.75 20.6101L73.82 23.7401Z" fill="white"/>
<path d="M21.2499 74.0101C21.0899 73.9601 20.9399 73.8901 20.7799 73.8501C19.8638 73.582 19.0616 73.0193 18.4976 72.2491C17.9335 71.479 17.6391 70.5444 17.6599 69.5901C17.6599 63.9401 17.6599 58.3001 17.6599 52.6501V51.7501C14.2338 51.0638 11.0315 49.5382 8.33997 47.3101C7.03997 46.2301 5.88996 44.9801 4.67996 43.8101L4.80997 43.6201H33.59C32.76 45.6201 31.91 47.5401 31.12 49.5101C31.0287 49.7467 30.885 49.9596 30.6996 50.1328C30.5143 50.306 30.2922 50.435 30.05 50.5101C28.8 50.9201 27.5699 51.3601 26.2799 51.8101V68.8101C26.2799 71.8101 25.51 72.9501 22.68 74.0101H21.2499Z" fill="white"/>
<path d="M28.9699 10.3901C24.3299 20.8001 25.77 30.3901 32.83 39.2501H32.0999C22.3599 39.2501 12.62 39.2501 2.88995 39.2501C2.6681 39.2595 2.4494 39.1949 2.26834 39.0664C2.08728 38.9378 1.95415 38.7527 1.88995 38.5401C0.742476 35.6606 0.231788 32.567 0.392945 29.4715C0.554103 26.376 1.38329 23.3521 2.82358 20.6074C4.26387 17.8627 6.28112 15.4622 8.73682 13.5708C11.1925 11.6794 14.0285 10.3418 17.05 9.65006C20.8618 8.71658 24.8621 8.90411 28.5699 10.1901L28.9699 10.3301C28.9799 10.3701 28.9999 10.4201 28.9699 10.3901Z" fill="white"/>
<path d="M39.83 39.7601C36.8844 37.7294 34.5115 34.9742 32.94 31.7601C32.25 30.3601 31.75 28.8701 31.17 27.4201L31.38 27.2401L62.82 40.5801C58.2906 43.21 52.9614 44.1089 47.82 43.1101L45.69 48.1101C44.12 51.8301 42.55 55.5501 40.95 59.2601C40.7433 59.7982 40.4306 60.2893 40.0304 60.7042C39.6302 61.119 39.1507 61.4492 38.6203 61.675C38.09 61.9008 37.5196 62.0177 36.9432 62.0187C36.3667 62.0197 35.796 61.9048 35.2648 61.6808C34.7337 61.4568 34.253 61.1283 33.8514 60.7149C33.4497 60.3014 33.1353 59.8114 32.9268 59.274C32.7183 58.7365 32.62 58.1627 32.6377 57.5865C32.6555 57.0104 32.7888 56.4437 33.03 55.9201C34.39 52.6501 35.78 49.4101 37.16 46.1501L39.6 40.4101C39.65 40.2401 39.73 40.0201 39.83 39.7601Z" fill="white"/>
<path d="M61.48 60.8301C61.476 62.0001 61.1254 63.1427 60.4725 64.1136C59.8196 65.0845 58.8937 65.8401 57.8116 66.2852C56.7295 66.7302 55.5398 66.8445 54.3928 66.6139C53.2458 66.3832 52.1928 65.8178 51.3669 64.9891C50.5409 64.1604 49.9791 63.1055 49.7523 61.9577C49.5255 60.8099 49.6439 59.6206 50.0925 58.54C50.5412 57.4594 51.3 56.536 52.2731 55.8864C53.2462 55.2368 54.39 54.8901 55.56 54.8901C56.3387 54.8914 57.1095 55.0461 57.8285 55.3453C58.5475 55.6445 59.2005 56.0824 59.7502 56.634C60.2999 57.1856 60.7356 57.84 61.0324 58.56C61.3292 59.28 61.4813 60.0513 61.48 60.8301Z" fill="white"/>
</svg>
