<svg width="74" height="75" viewBox="0 0 74 75" fill="none" xmlns="http://www.w3.org/2000/svg">
<path d="M73.4999 24.0701C73.2899 25.3901 73.1499 26.7201 72.8499 28.0101C71.1818 35.3578 66.9215 41.8583 60.8499 46.3201C56.8041 49.4793 52.0014 51.5238 46.9199 52.2501C44.6693 52.5667 42.3874 52.5936 40.1299 52.3301C39.708 52.2879 39.282 52.3356 38.8799 52.4701C34.7599 53.9101 30.6399 55.3501 26.5399 56.8501C25.9967 57.099 25.3865 57.1613 24.8041 57.0275C24.2218 56.8937 23.7 56.5711 23.3199 56.1101C21.6099 54.3101 19.8499 52.5601 18.0499 50.84C17.5969 50.4675 17.2796 49.9557 17.1476 49.3842C17.0156 48.8127 17.0762 48.2136 17.3199 47.6801C18.8299 43.5401 20.3199 39.3701 21.7399 35.2101C21.8588 34.8909 21.9066 34.5496 21.8799 34.2101C20.8799 23.9501 24.6899 15.6201 32.0499 8.74006C36.1251 4.86105 41.2325 2.23963 46.7599 1.19006C53.4599 -0.0899437 59.7599 0.830057 65.3099 5.05006C67.4723 6.68033 69.2863 8.72718 70.6448 11.0698C72.0033 13.4125 72.8789 16.0035 73.2199 18.6901L73.4899 20.4501L73.4999 24.0701ZM38.4199 32.5701L44.4199 26.5701L40.0099 22.1701L34.0099 28.1701L38.4199 32.5701ZM47.5899 29.7801L41.6399 35.7301L46.0599 40.1501L52.0099 34.2101L47.5899 29.7801ZM47.5899 23.3901L53.4699 17.5101L49.0399 13.1001L43.1899 18.9601L47.5899 23.3901ZM55.1699 30.9701L61.0299 25.1101L56.6799 20.7201L50.7899 26.6001L55.1699 30.9701ZM24.1699 41.4001C23.3799 43.6401 22.6599 45.7301 21.8899 47.8001C21.807 47.9695 21.7867 48.1627 21.8324 48.3457C21.8781 48.5287 21.9871 48.6896 22.1399 48.8001C23.2699 49.8901 24.3799 51.0101 25.4799 52.1401C25.5884 52.2782 25.7419 52.3738 25.9137 52.4104C26.0854 52.4469 26.2646 52.422 26.4199 52.34C28.3399 51.64 30.2799 50.9701 32.2099 50.34C32.3699 50.28 32.5199 50.18 32.7599 50.0601C29.0873 48.0975 26.0855 45.0817 24.1399 41.4001H24.1699ZM35.2699 35.7401L30.7799 31.2801C29.5099 32.5601 28.1699 33.8801 26.8599 35.2301C26.7835 35.3106 26.7259 35.4071 26.6914 35.5126C26.6568 35.6181 26.646 35.7299 26.6599 35.8401C27.176 37.9269 28.1117 39.8867 29.4099 41.6001L35.2699 35.7401ZM38.5899 38.9801L32.6899 44.8701C34.0795 45.8624 35.5965 46.663 37.1999 47.2501C37.6302 47.4847 38.1316 47.5533 38.609 47.4427C39.0865 47.3321 39.5067 47.05 39.7899 46.6501C40.7899 45.4801 41.9399 44.4501 42.9999 43.3901L38.5899 38.9801ZM30.7999 25.0401L36.7999 19.0401L32.4099 14.6001C30.5915 16.689 29.1134 19.0513 28.0299 21.6001C27.9966 21.7018 27.9874 21.8098 28.003 21.9157C28.0186 22.0215 28.0587 22.1223 28.1199 22.2101C28.9199 23.2201 29.9199 24.1601 30.7699 25.0401H30.7999ZM55.2999 37.3001L49.1899 43.4301C50.0899 44.3101 51.0099 45.2401 51.9699 46.1401C52.0697 46.2007 52.1825 46.2368 52.2989 46.2455C52.4154 46.2542 52.5322 46.2352 52.6399 46.1901C53.8399 45.6001 55.0599 45.0401 56.1899 44.3401C57.3199 43.6401 58.5499 42.6801 59.7599 41.8201L59.2599 41.2801L55.2999 37.3001ZM56.8199 14.3601L62.7299 8.56006C61.2297 7.38357 59.5384 6.47366 57.7299 5.87006C57.369 5.67472 56.9479 5.62182 56.5499 5.72179C56.1518 5.82177 55.8057 6.06736 55.5799 6.41006C55.0051 7.08319 54.38 7.71167 53.7099 8.29005C53.1799 8.79005 52.6099 9.29005 52.1199 9.68005L56.8199 14.3601ZM46.0099 9.81006C45.1399 8.94006 44.2499 8.08006 43.3999 7.19006C43.3493 7.11848 43.2848 7.05773 43.2104 7.01135C43.1359 6.96496 43.053 6.93387 42.9664 6.91991C42.8798 6.90594 42.7913 6.90938 42.7061 6.93001C42.6208 6.95064 42.5405 6.98805 42.4699 7.04005C40.6999 8.04005 38.9199 9.04006 37.1699 10.1301C36.6127 10.5109 36.0815 10.9285 35.5799 11.3801L39.9999 15.8101L46.0099 9.81006ZM60.0099 17.4201L64.4599 21.9001L68.3999 17.9501C68.4627 17.8856 68.5111 17.8087 68.5422 17.7242C68.5732 17.6398 68.586 17.5498 68.5799 17.4601C68.0617 15.3459 67.1193 13.359 65.8099 11.6201L60.0099 17.4201ZM64.4399 28.2101L58.4399 34.2101L62.8399 38.6001C64.6447 36.5087 66.1093 34.1465 67.1799 31.6001C67.2088 31.4889 67.212 31.3727 67.1895 31.2601C67.167 31.1476 67.1193 31.0415 67.0499 30.9501C66.2099 29.9801 65.3099 29.0901 64.4399 28.2101ZM26.3399 26.7001L25.9899 29.8901L27.7499 28.1301L26.3399 26.7001ZM46.2199 46.5601L44.4999 48.2101L47.4999 47.8301L46.2199 46.5601ZM50.9199 4.99006L47.8699 5.36005L49.1999 6.72006L50.9199 4.99006ZM68.8599 26.3901L69.2299 23.3901L67.5299 25.1701L68.8599 26.3901Z" fill="white"/>
<path d="M64.6099 74.1601C63.3923 73.7883 62.2161 73.2924 61.0999 72.6801C59.6621 71.7093 58.5937 70.2819 58.0674 68.6288C57.5412 66.9757 57.5879 65.1934 58.1999 63.5701C58.7961 61.9377 59.9151 60.5481 61.3829 59.6177C62.8507 58.6872 64.585 58.2681 66.3157 58.4256C68.0464 58.583 69.6765 59.3082 70.9524 60.4882C72.2282 61.6682 73.0781 63.2369 73.3699 64.9501C73.4028 65.0607 73.4464 65.1678 73.4999 65.2701V67.2701C73.4443 67.3967 73.3975 67.527 73.3599 67.6601C73.1166 69.0778 72.485 70.4004 71.5352 71.4807C70.5855 72.5611 69.3548 73.357 67.9799 73.7801C67.5299 73.9301 67.0699 74.0301 66.6199 74.1501L64.6099 74.1601Z" fill="white"/>
<path d="M4.38992 74.1601C2.85268 73.386 1.53798 72.2331 0.569913 70.8101C0.185507 70.3071 -0.00219552 69.6812 0.0419898 69.0497C0.0861751 68.4182 0.359233 67.8246 0.809934 67.3801C3.34993 64.8001 5.93991 62.2601 8.46991 59.7401L14.6399 65.9701C14.4354 66.0324 14.2451 66.1343 14.0799 66.2701C12.0099 68.2701 9.97992 70.4001 7.88992 72.4201C7.18668 73.0413 6.44884 73.6222 5.67993 74.1601H4.38992Z" fill="white"/>
<path d="M20.5599 59.5301L17.6399 62.4401L11.7999 56.5701L14.7199 53.6901L20.5599 59.5301Z" fill="white"/>
</svg>
