<svg width="44" height="73" viewBox="0 0 44 73" fill="none" xmlns="http://www.w3.org/2000/svg">
<path d="M0.360107 72.65C0.360107 63.43 0.360107 54.2199 0.360107 45.0099C0.360107 35.6233 4.59011 28.8533 13.0501 24.7C13.1301 24.7 13.2001 24.6 13.2901 24.55C11.0649 22.8011 9.44024 20.402 8.64227 17.6866C7.84431 14.9712 7.91273 12.0746 8.83801 9.39984C9.7633 6.72513 11.4994 4.40542 13.8047 2.76355C16.11 1.12168 18.8699 0.239319 21.7001 0.239319C24.5304 0.239319 27.2902 1.12168 29.5955 2.76355C31.9008 4.40542 33.6369 6.72513 34.5622 9.39984C35.4875 12.0746 35.5559 14.9712 34.7579 17.6866C33.96 20.402 32.3353 22.8011 30.1101 24.55C30.5801 24.79 31.0501 25 31.5001 25.25C38.8201 29.31 42.8401 35.5099 43.0101 43.8799C43.2001 53.4699 43.0101 63.06 43.0101 72.65H0.360107ZM6.83008 49.95C6.81029 52.8974 7.66574 55.7844 9.28802 58.2453C10.9103 60.7062 13.2265 62.6302 15.9431 63.7737C18.6598 64.9172 21.6547 65.2287 24.5485 64.6688C27.4423 64.1088 30.1049 62.7026 32.1989 60.6282C34.2928 58.5539 35.7241 55.9047 36.3113 53.0163C36.8985 50.1279 36.6152 47.1301 35.4974 44.4028C34.3795 41.6755 32.4774 39.3413 30.0319 37.6959C27.5864 36.0505 24.7076 35.168 21.7601 35.16C17.8198 35.144 14.0342 36.6927 11.2349 39.4658C8.43551 42.2389 6.85124 46.0096 6.83008 49.95ZM21.6801 19.95C22.9419 19.9578 24.1777 19.5914 25.2313 18.8969C26.2848 18.2024 27.1088 17.2112 27.5989 16.0485C28.0891 14.8857 28.2235 13.6037 27.985 12.3646C27.7466 11.1255 27.1462 9.98499 26.2595 9.08716C25.3729 8.18933 24.2399 7.57455 23.0039 7.32062C21.7679 7.06669 20.4843 7.18497 19.3155 7.66052C18.1467 8.13608 17.1452 8.94756 16.4376 9.99231C15.7299 11.0371 15.348 12.2682 15.3401 13.53C15.3348 14.3664 15.4948 15.1956 15.811 15.97C16.1271 16.7444 16.5931 17.4487 17.1823 18.0424C17.7714 18.6362 18.472 19.1077 19.2438 19.4299C20.0157 19.7521 20.8437 19.9187 21.6801 19.92V19.95Z" fill="white"/>
<path d="M21.6901 39.38C23.7941 39.376 25.852 39.996 27.6037 41.1614C29.3554 42.3268 30.7222 43.9853 31.5315 45.9274C32.3407 47.8696 32.5561 50.008 32.1502 52.0725C31.7443 54.1369 30.7356 56.0347 29.2513 57.5259C27.7671 59.0171 25.8741 60.0348 23.8116 60.4504C21.7491 60.8659 19.6096 60.6607 17.6637 59.8606C15.7179 59.0604 14.0528 57.7014 12.8792 55.9552C11.7056 54.2089 11.0761 52.154 11.0701 50.05C11.0622 48.6508 11.3311 47.2638 11.8614 45.969C12.3917 44.6741 13.1728 43.4969 14.1599 42.5052C15.147 41.5135 16.3205 40.7268 17.6128 40.1904C18.9052 39.6541 20.2909 39.3786 21.6901 39.38ZM21.7401 43.65C20.4807 43.6441 19.2478 44.0116 18.1972 44.7062C17.1466 45.4008 16.3255 46.3912 15.8376 47.5523C15.3497 48.7134 15.2169 49.9931 15.4561 51.2296C15.6953 52.4661 16.2956 53.604 17.1813 54.4994C18.0669 55.3948 19.1981 56.0076 20.4319 56.2603C21.6657 56.5131 22.9468 56.3944 24.1132 55.9193C25.2796 55.4442 26.279 54.634 26.985 53.5911C27.6911 52.5482 28.0721 51.3194 28.0801 50.06C28.0853 49.2227 27.9255 48.3925 27.6096 47.617C27.2937 46.8415 26.828 46.1358 26.2391 45.5404C25.6503 44.9451 24.9498 44.4717 24.1778 44.1473C23.4058 43.8229 22.5775 43.6539 21.7401 43.65Z" fill="white"/>
<path d="M21.7001 15.67C21.4171 15.6729 21.1365 15.6183 20.8752 15.5095C20.6139 15.4007 20.3775 15.2399 20.1802 15.037C19.9829 14.8341 19.8288 14.5933 19.7274 14.3291C19.626 14.0649 19.5792 13.7828 19.5901 13.5C19.5782 13.209 19.6261 12.9186 19.7309 12.6468C19.8357 12.3751 19.9951 12.1277 20.1992 11.92C20.4034 11.7122 20.6479 11.5486 20.9179 11.4391C21.1878 11.3297 21.4773 11.2767 21.7684 11.2835C22.0596 11.2904 22.3463 11.3569 22.6107 11.4789C22.8752 11.601 23.1118 11.7759 23.306 11.993C23.5001 12.2101 23.6478 12.4647 23.7396 12.7411C23.8315 13.0175 23.8657 13.3098 23.8401 13.6C23.8362 13.8766 23.7777 14.1497 23.6679 14.4037C23.5581 14.6576 23.3992 14.8874 23.2003 15.0798C23.0015 15.2721 22.7666 15.4233 22.5091 15.5246C22.2516 15.6259 21.9768 15.6753 21.7001 15.67Z" fill="white"/>
<path d="M21.7001 52.16C21.2772 52.1579 20.8644 52.0299 20.5145 51.7923C20.1645 51.5548 19.8932 51.2184 19.7351 50.8262C19.577 50.4339 19.5393 50.0034 19.6267 49.5896C19.7142 49.1758 19.9228 48.7974 20.2261 48.5026C20.5294 48.2078 20.9136 48.01 21.3297 47.9343C21.7458 47.8587 22.1751 47.9086 22.5627 48.0778C22.9504 48.247 23.2789 48.5278 23.5063 48.8843C23.7338 49.2409 23.85 49.6571 23.8401 50.0799C23.8296 50.6387 23.5988 51.1708 23.1981 51.5603C22.7973 51.9498 22.259 52.1653 21.7001 52.16Z" fill="white"/>
</svg>
