<svg width="73" height="72" viewBox="0 0 73 72" fill="none" xmlns="http://www.w3.org/2000/svg">
<path d="M70.6099 0.600098C71.14 0.834505 71.5787 1.23627 71.8586 1.7438C72.1386 2.25134 72.2444 2.83666 72.1599 3.4101C72.0999 6.98009 72.1599 10.5501 72.1599 14.1301C72.0991 18.7366 70.45 23.181 67.491 26.712C64.532 30.2431 60.4448 32.6444 55.9199 33.5101C55.0899 33.6601 54.7799 33.4301 54.7799 32.6001C54.7799 29.1901 54.7799 25.7801 54.7799 22.3701C54.7556 21.8295 54.9305 21.2987 55.2715 20.8785C55.6125 20.4582 56.0959 20.1777 56.6299 20.0901C59.2649 19.3362 61.6553 17.9027 63.5614 15.9334C65.4676 13.9641 66.8223 11.5282 67.4899 8.87009C67.9548 7.09321 68.1237 5.2519 67.9899 3.4201C67.9023 2.84627 68.0055 2.25952 68.2837 1.75006C68.5619 1.2406 68.9998 0.836595 69.5299 0.600098H70.6099Z" fill="white"/>
<path d="M3.47985 0.600098C4.00811 0.838222 4.44375 1.24294 4.72008 1.75226C4.99642 2.26158 5.09824 2.84743 5.00988 3.4201C4.80485 6.06888 5.24399 8.72793 6.28985 11.1701C7.19944 13.2989 8.56716 15.201 10.2956 16.741C12.024 18.2811 14.0706 19.4211 16.2898 20.0801C17.8298 20.5701 18.2899 21.2201 18.1899 22.9801C18.0799 26.0601 18.0899 29.1501 18.1899 32.2401C18.1899 33.4201 18.0098 33.6801 16.9798 33.4901C12.8094 32.6815 9.00476 30.566 6.11724 27.4501C3.22971 24.3343 1.40931 20.3799 0.919851 16.1601C0.887123 15.9546 0.843726 15.7511 0.789846 15.5501V3.08011C0.78228 2.56776 0.920103 2.06374 1.18737 1.62656C1.45463 1.18937 1.8404 0.836947 2.29986 0.610107H3.44988L3.47985 0.600098Z" fill="white"/>
<path d="M47.5699 43.0401L48.1498 43.1901C48.6047 43.2877 49.0113 43.5408 49.2997 43.9058C49.5881 44.2708 49.7402 44.725 49.7298 45.1901C49.7298 47.4701 49.7298 49.7401 49.7298 52.0201C49.6908 52.4998 49.5214 52.9597 49.2398 53.3501C48.5898 54.3501 47.8698 55.2301 47.1598 56.1501C46.9173 56.4595 46.74 56.8149 46.6386 57.1947C46.5372 57.5745 46.5138 57.971 46.5699 58.3601C46.7499 60.2301 46.9198 62.1101 47.0498 63.9801C47.1433 64.9983 47.0227 66.0249 46.6958 66.9937C46.3689 67.9626 45.8429 68.8523 45.1516 69.6057C44.4604 70.3592 43.6191 70.9596 42.6819 71.3685C41.7447 71.7775 40.7323 71.9858 39.7098 71.9801C38.751 71.8164 37.8147 71.5412 36.9198 71.1601C36.6798 71.1001 36.3498 70.9901 36.1898 71.1001C33.6898 72.7901 29.8098 71.8201 27.7498 69.4501C27.0867 68.7081 26.5823 67.8383 26.2676 66.8942C25.9529 65.9501 25.8345 64.9516 25.9198 63.9601C26.0465 62.0801 26.2065 60.2068 26.3998 58.3401C26.4562 57.9379 26.4303 57.5284 26.3238 57.1365C26.2172 56.7446 26.0321 56.3784 25.7798 56.0601C25.1198 55.2001 24.4198 54.3501 23.8398 53.4301C23.4959 52.8954 23.2898 52.2839 23.2398 51.6501C23.1598 49.7701 23.2398 47.8901 23.2398 46.0101C23.2398 44.1301 23.5298 43.5901 25.3998 43.0101C25.4411 42.4057 25.2411 41.8095 24.8438 41.3522C24.4464 40.8949 23.8841 40.6137 23.2798 40.5701C21.2798 40.3601 20.5398 39.2101 21.2798 37.3901C22.2018 35.0615 22.6078 32.5607 22.4698 30.0601C22.3598 27.7201 22.4698 25.3701 22.4698 23.0601C22.4367 22.7513 22.4731 22.4389 22.5765 22.146C22.6799 21.8531 22.8475 21.5871 23.0672 21.3674C23.2868 21.1478 23.5528 20.9802 23.8457 20.8768C24.1386 20.7734 24.451 20.7369 24.7599 20.7701C26.0799 20.7701 27.3999 20.7701 28.7599 20.7701C29.0768 20.7554 29.3869 20.6736 29.6698 20.5301C31.7754 19.3475 34.1499 18.7263 36.5648 18.7263C38.9798 18.7263 41.3542 19.3475 43.4598 20.5301C43.7694 20.6908 44.1112 20.7797 44.4598 20.7901C45.7798 20.7901 47.0998 20.7901 48.4598 20.7901C48.7632 20.7635 49.0688 20.8043 49.3547 20.9094C49.6406 21.0145 49.8998 21.1815 50.1137 21.3983C50.3277 21.6151 50.4911 21.8764 50.5924 22.1637C50.6938 22.451 50.7304 22.757 50.6999 23.0601C50.6999 26.2401 50.6999 29.4201 50.6999 32.6001C50.7386 33.4458 50.8728 34.2845 51.0998 35.1001C51.3298 36.0001 51.6798 36.8601 51.9598 37.7501C52.0951 38.0719 52.1467 38.4227 52.11 38.7698C52.0733 39.117 51.9494 39.4492 51.7498 39.7356C51.5503 40.022 51.2815 40.2533 50.9685 40.4079C50.6556 40.5626 50.3085 40.6355 49.9598 40.6201C49.6407 40.6101 49.323 40.6662 49.0265 40.7847C48.7301 40.9032 48.4612 41.0816 48.2369 41.3087C48.0126 41.5359 47.8375 41.8069 47.7227 42.1048C47.608 42.4027 47.5559 42.7211 47.5699 43.0401Z" fill="white"/>
</svg>
