<svg width="73" height="73" viewBox="0 0 73 73" fill="none" xmlns="http://www.w3.org/2000/svg">
<path d="M34.58 72.4C33.22 72.21 31.85 72.07 30.5 71.83C26.0356 71.0475 21.7642 69.4109 17.92 67.01L17.66 66.81C17.86 66.67 18.03 66.55 18.2 66.45C29.2 60.1 35.75 50.64 38.3 38.29C38.3375 38.1452 38.4049 38.0099 38.4979 37.8928C38.5909 37.7756 38.7074 37.6793 38.84 37.61C44.4234 35.7379 50.3808 35.264 56.19 36.23C56.2669 36.2631 56.3406 36.3032 56.41 36.35C56.1 37.58 55.82 38.85 55.47 40.1C52.528 50.6979 47.1597 60.4656 39.79 68.63C38.62 69.92 37.37 71.15 36.15 72.4H34.58Z" fill="white"/>
<path d="M0.919983 34.24C1.10998 32.88 1.25998 31.51 1.48998 30.15C1.91774 27.6691 2.62213 25.244 3.58998 22.92C7.37123 35.7948 14.4882 47.4414 24.22 56.68C23.098 57.7426 21.9196 58.744 20.69 59.68C18.6 61.12 16.4 62.4 14.25 63.76C14.1133 63.8645 13.9408 63.9106 13.7702 63.8881C13.5996 63.8656 13.4449 63.7764 13.34 63.64C6.86174 58.0674 2.60276 50.3515 1.33998 41.9C1.16998 40.84 1.05998 39.77 0.919983 38.71V34.24Z" fill="white"/>
<path d="M72.68 38.16C70.93 37.23 69.29 36.24 67.56 35.45C58.0942 30.962 47.2549 30.3273 37.33 33.68C37.1758 33.7766 36.9939 33.8193 36.8129 33.8012C36.6318 33.783 36.462 33.7053 36.33 33.58C31.9932 29.7727 28.6094 25.0017 26.45 19.65C26.4142 19.563 26.3874 19.4725 26.37 19.38C26.3585 19.2837 26.3585 19.1863 26.37 19.09C28.59 18.5 30.85 17.84 33.14 17.31C39.5504 15.8454 46.134 15.2833 52.7 15.64C57.5551 15.8701 62.3672 16.662 67.04 18C67.3641 18.0926 67.6466 18.2939 67.84 18.57C71.251 24.4167 72.9199 31.1165 72.65 37.88C72.669 37.9721 72.6791 38.0659 72.68 38.16Z" fill="white"/>
<path d="M26.82 53.54C24.7 51.16 22.5 48.88 20.53 46.43C14.3148 38.8098 9.80981 29.943 7.31998 20.43C7.11998 19.69 6.99998 18.92 6.76998 18.19C6.65813 17.8525 6.6334 17.4921 6.69809 17.1425C6.76277 16.7928 6.91478 16.4652 7.13998 16.19C10.1539 11.8279 14.0773 8.17068 18.64 5.47C18.93 5.3 19.24 5.14999 19.64 4.89999C19.64 5.77999 19.64 6.52001 19.64 7.26001C19.7953 12.8257 21.1016 18.2989 23.4767 23.3347C25.8518 28.3706 29.2441 32.86 33.44 36.52C33.6789 36.6864 33.8595 36.9235 33.9564 37.198C34.0533 37.4725 34.0615 37.7706 33.98 38.05C32.8748 43.5328 30.5508 48.6969 27.18 53.16C27.11 53.23 27.03 53.31 26.82 53.54Z" fill="white"/>
<path d="M42.5 71.91C51.4198 62.1163 57.6249 50.1612 60.5 37.23C60.76 37.3 60.99 37.36 61.22 37.44C64.9263 38.6075 68.4283 40.3449 71.6 42.59C71.7892 42.6886 71.9367 42.8519 72.0157 43.0501C72.0946 43.2483 72.0997 43.4683 72.03 43.67C71.0373 48.6111 69.009 53.2859 66.0789 57.3864C63.1487 61.4869 59.3831 64.9201 55.03 67.46C51.2992 69.7048 47.1704 71.2089 42.87 71.89L42.5 71.91Z" fill="white"/>
<path d="M63.75 12.77C50.8409 10.199 37.4854 11.0225 24.99 15.16C24.6636 13.8051 24.4132 12.4329 24.24 11.05C24.05 8.56003 24.03 6.05001 23.92 3.56001C23.893 3.37912 23.9358 3.19476 24.0399 3.04433C24.1439 2.89389 24.3012 2.78865 24.48 2.75001C31.2074 0.304916 38.5111 -0.0791479 45.4579 1.64686C52.4047 3.37288 58.6792 7.1306 63.48 12.44L63.75 12.77Z" fill="white"/>
</svg>
