<svg width="79" height="79" viewBox="0 0 79 79" fill="none" xmlns="http://www.w3.org/2000/svg">
<path d="M49.0909 29.625H51.5455C52.9016 29.625 54 30.7298 54 32.0938V39.5C54 53.217 43.8305 64.5686 30.6818 66.3831V71.5938H39.2727C40.6289 71.5938 41.7273 72.6985 41.7273 74.0625V76.5312C41.7273 77.8952 40.6289 79 39.2727 79H14.7273C13.3711 79 12.2727 77.8952 12.2727 76.5312V74.0625C12.2727 72.6985 13.3711 71.5938 14.7273 71.5938H23.3182V66.3245C9.81358 64.4513 0 52.1215 0 38.2903V32.0938C0 30.7298 1.09841 29.625 2.45455 29.625H4.90909C6.26523 29.625 7.36364 30.7298 7.36364 32.0938V38.6205C7.36364 48.9291 14.8362 58.153 25.0379 59.1543C36.743 60.3023 46.6364 51.0414 46.6364 39.5V32.0938C46.6364 30.7298 47.7348 29.625 49.0909 29.625Z" fill="white"/>
<path d="M41.7273 39.5C41.7273 47.6808 35.1338 54.3125 27 54.3125C18.8663 54.3125 12.2727 47.6808 12.2727 39.5V14.8125C12.2727 6.63168 18.8663 0 27 0C35.1338 0 41.7273 6.63168 41.7273 14.8125H28.6369C27.7333 14.8125 27 15.3649 27 16.0469V18.5156C27 19.1976 27.7333 19.75 28.6369 19.75H41.7273V24.6875H28.6369C27.7333 24.6875 27 25.2399 27 25.9219V28.3906C27 29.0726 27.7333 29.625 28.6369 29.625H41.7273V34.5625H28.6369C27.7333 34.5625 27 35.1149 27 35.7969V38.2656C27 38.9476 27.7333 39.5 28.6369 39.5H41.7273Z" fill="white"/>
<path d="M75.958 36.7346C77.3203 36.4806 78.3359 35.7287 78.6484 34.3908C78.6598 34.3416 78.67 34.3022 78.6792 34.2625C78.7831 33.8108 78.7453 33.3265 78.7363 17.8625C78.7363 17.2961 78.414 16.964 77.8525 17.0031C77.7256 17.0031 77.0226 17.135 72.5909 17.9666C71.0543 18.2549 69.0694 18.6274 66.5048 19.1076C66.4267 19.1076 66.0556 19.2053 65.8505 19.3762C65.6504 19.5373 65.5429 19.7521 65.5039 20.006C65.4424 20.2519 65.4592 22.047 65.4798 24.2392C65.5148 27.9681 65.5605 32.8458 65.25 33.1994C65.0351 33.4386 64.7812 33.507 64.4882 33.5607C64.3817 33.5794 64.2773 33.5976 64.175 33.6154C62.5947 33.8903 61.5179 34.0776 60.7382 34.8205C59.3076 36.217 60.0498 38.6535 62.1591 39.049C62.9502 39.1955 64.4345 38.9953 65.2548 38.5412C65.9775 38.1701 66.5244 37.5012 66.7295 36.6125C66.7471 36.5361 66.7624 36.4727 66.7757 36.4089C66.895 35.836 66.8515 35.2292 66.8515 24.9181C66.8515 24.3566 67.0078 24.2101 67.5058 24.1027C67.5058 24.1027 76.1728 22.4816 76.5732 22.4133C77.1347 22.3156 77.4033 22.467 77.4033 23.0138C77.4033 30.0727 77.4839 30.5926 77.2642 30.8924C77.2421 30.9226 77.217 30.9505 77.1884 30.9826C76.9736 31.2219 76.7197 31.2902 76.4267 31.3439C76.3202 31.3626 76.2158 31.3808 76.1135 31.3986C74.5331 31.6735 73.4563 31.8608 72.6767 32.6037C71.6269 33.6291 71.6416 35.2551 72.8086 36.2365C73.7656 37.008 74.7617 36.9543 75.958 36.7346Z" fill="white"/>
</svg>
